<?xml version="1.0" encoding="UTF-8"?>
<svg id="BACKGROUND" xmlns="http://www.w3.org/2000/svg" xmlns:xlink="http://www.w3.org/1999/xlink" viewBox="0 0 449.28 373.03">
  <defs>
    <style>
      .cls-1 {
        fill: #f2f2f2;
      }

      .cls-2 {
        fill: #fff;
      }

      .cls-3 {
        fill: none;
        stroke: url(#linear-gradient);
        stroke-dasharray: 0 0 1 6;
        stroke-linecap: round;
        stroke-linejoin: round;
        stroke-width: 2px;
      }

      .cls-4 {
        fill: url(#linear-gradient-8);
      }

      .cls-5 {
        fill: url(#linear-gradient-9);
      }

      .cls-6 {
        fill: url(#linear-gradient-3);
      }

      .cls-7 {
        fill: url(#linear-gradient-4);
      }

      .cls-8 {
        fill: url(#linear-gradient-2);
      }

      .cls-9 {
        fill: url(#linear-gradient-6);
      }

      .cls-10 {
        fill: url(#linear-gradient-7);
      }

      .cls-11 {
        fill: url(#linear-gradient-5);
      }

      .cls-12 {
        fill: url(#linear-gradient-59);
      }

      .cls-13 {
        fill: url(#linear-gradient-57);
      }

      .cls-14 {
        fill: url(#linear-gradient-58);
      }

      .cls-15 {
        fill: url(#linear-gradient-55);
      }

      .cls-16 {
        fill: url(#linear-gradient-56);
      }

      .cls-17 {
        fill: url(#linear-gradient-53);
      }

      .cls-18 {
        fill: url(#linear-gradient-54);
      }

      .cls-19 {
        fill: url(#linear-gradient-51);
      }

      .cls-20 {
        fill: url(#linear-gradient-52);
      }

      .cls-21 {
        fill: url(#linear-gradient-50);
      }

      .cls-22 {
        fill: url(#linear-gradient-77);
      }

      .cls-23 {
        fill: url(#linear-gradient-78);
      }

      .cls-24 {
        fill: url(#linear-gradient-79);
      }

      .cls-25 {
        fill: url(#linear-gradient-74);
      }

      .cls-26 {
        fill: url(#linear-gradient-75);
      }

      .cls-27 {
        fill: url(#linear-gradient-76);
      }

      .cls-28 {
        fill: url(#linear-gradient-70);
      }

      .cls-29 {
        fill: url(#linear-gradient-71);
      }

      .cls-30 {
        fill: url(#linear-gradient-72);
      }

      .cls-31 {
        fill: url(#linear-gradient-73);
      }

      .cls-32 {
        fill: url(#linear-gradient-68);
      }

      .cls-33 {
        fill: url(#linear-gradient-67);
      }

      .cls-34 {
        fill: url(#linear-gradient-69);
      }

      .cls-35 {
        fill: url(#linear-gradient-64);
      }

      .cls-36 {
        fill: url(#linear-gradient-63);
      }

      .cls-37 {
        fill: url(#linear-gradient-66);
      }

      .cls-38 {
        fill: url(#linear-gradient-65);
      }

      .cls-39 {
        fill: url(#linear-gradient-60);
      }

      .cls-40 {
        fill: url(#linear-gradient-62);
      }

      .cls-41 {
        fill: url(#linear-gradient-61);
      }

      .cls-42 {
        fill: url(#linear-gradient-81);
      }

      .cls-43 {
        fill: url(#linear-gradient-80);
      }

      .cls-44 {
        fill: url(#linear-gradient-88);
      }

      .cls-45 {
        fill: url(#linear-gradient-89);
      }

      .cls-46 {
        fill: url(#linear-gradient-87);
      }

      .cls-47 {
        fill: url(#linear-gradient-86);
      }

      .cls-48 {
        fill: url(#linear-gradient-85);
      }

      .cls-49 {
        fill: url(#linear-gradient-84);
      }

      .cls-50 {
        fill: url(#linear-gradient-83);
      }

      .cls-51 {
        fill: url(#linear-gradient-82);
      }

      .cls-52 {
        fill: url(#linear-gradient-41);
      }

      .cls-53 {
        fill: url(#linear-gradient-40);
      }

      .cls-54 {
        fill: url(#linear-gradient-43);
      }

      .cls-55 {
        fill: url(#linear-gradient-42);
      }

      .cls-56 {
        fill: url(#linear-gradient-45);
      }

      .cls-57 {
        fill: url(#linear-gradient-46);
      }

      .cls-58 {
        fill: url(#linear-gradient-44);
      }

      .cls-59 {
        fill: url(#linear-gradient-49);
      }

      .cls-60 {
        fill: url(#linear-gradient-47);
      }

      .cls-61 {
        fill: url(#linear-gradient-48);
      }

      .cls-62 {
        fill: url(#linear-gradient-14);
      }

      .cls-63 {
        fill: url(#linear-gradient-18);
      }

      .cls-64 {
        fill: url(#linear-gradient-22);
      }

      .cls-65 {
        fill: url(#linear-gradient-20);
      }

      .cls-66 {
        fill: url(#linear-gradient-21);
      }

      .cls-67 {
        fill: url(#linear-gradient-23);
      }

      .cls-68 {
        fill: url(#linear-gradient-15);
      }

      .cls-69 {
        fill: url(#linear-gradient-19);
      }

      .cls-70 {
        fill: url(#linear-gradient-16);
      }

      .cls-71 {
        fill: url(#linear-gradient-17);
      }

      .cls-72 {
        fill: url(#linear-gradient-13);
      }

      .cls-73 {
        fill: url(#linear-gradient-12);
      }

      .cls-74 {
        fill: url(#linear-gradient-10);
      }

      .cls-75 {
        fill: url(#linear-gradient-11);
      }

      .cls-76 {
        fill: url(#linear-gradient-27);
      }

      .cls-77 {
        fill: url(#linear-gradient-24);
      }

      .cls-78 {
        fill: url(#linear-gradient-26);
      }

      .cls-79 {
        fill: url(#linear-gradient-38);
      }

      .cls-80 {
        fill: url(#linear-gradient-35);
      }

      .cls-81 {
        fill: url(#linear-gradient-37);
      }

      .cls-82 {
        fill: url(#linear-gradient-34);
      }

      .cls-83 {
        fill: url(#linear-gradient-39);
      }

      .cls-84 {
        fill: url(#linear-gradient-36);
      }

      .cls-85 {
        fill: url(#linear-gradient-25);
      }

      .cls-86 {
        fill: url(#linear-gradient-28);
      }

      .cls-87 {
        fill: url(#linear-gradient-29);
      }

      .cls-88 {
        fill: url(#linear-gradient-33);
      }

      .cls-89 {
        fill: url(#linear-gradient-30);
      }

      .cls-90 {
        fill: url(#linear-gradient-32);
      }

      .cls-91 {
        fill: url(#linear-gradient-31);
      }

      .cls-92 {
        isolation: isolate;
      }
    </style>
    <linearGradient id="linear-gradient" x1="-26.57" y1="153.15" x2="329.47" y2="153.15" gradientTransform="translate(313.85 125.41) rotate(30) skewX(-49.11)" gradientUnits="userSpaceOnUse">
      <stop offset=".04" stop-color="#e3ebff"/>
      <stop offset="1" stop-color="#978ef0"/>
    </linearGradient>
    <linearGradient id="linear-gradient-2" x1="212.89" y1="311.74" x2="323.52" y2="311.74" gradientTransform="matrix(1, 0, 0, 1, 0, 0)" xlink:href="#linear-gradient"/>
    <linearGradient id="linear-gradient-3" x1="212.89" y1="301.87" x2="323.51" y2="301.87" gradientUnits="userSpaceOnUse">
      <stop offset="0" stop-color="#0763bd"/>
      <stop offset="1" stop-color="#172a7c"/>
    </linearGradient>
    <linearGradient id="linear-gradient-4" x1="200.32" y1="314.62" x2="361.5" y2="314.62" gradientTransform="matrix(1, 0, 0, 1, 0, 0)" xlink:href="#linear-gradient"/>
    <linearGradient id="linear-gradient-5" x1="200.32" y1="311.95" x2="361.5" y2="311.95" gradientTransform="matrix(1, 0, 0, 1, 0, 0)" xlink:href="#linear-gradient"/>
    <linearGradient id="linear-gradient-6" x1="200.32" y1="309.29" x2="361.5" y2="309.29" gradientTransform="matrix(1, 0, 0, 1, 0, 0)" xlink:href="#linear-gradient"/>
    <linearGradient id="linear-gradient-7" x1="200.32" y1="306.62" x2="361.5" y2="306.62" gradientTransform="matrix(1, 0, 0, 1, 0, 0)" xlink:href="#linear-gradient"/>
    <linearGradient id="linear-gradient-8" x1="200.32" y1="303.96" x2="361.5" y2="303.96" gradientTransform="matrix(1, 0, 0, 1, 0, 0)" xlink:href="#linear-gradient"/>
    <linearGradient id="linear-gradient-9" x1="200.32" y1="301.29" x2="361.5" y2="301.29" gradientTransform="matrix(1, 0, 0, 1, 0, 0)" xlink:href="#linear-gradient"/>
    <linearGradient id="linear-gradient-10" x1="200.32" y1="298.62" x2="361.5" y2="298.62" gradientTransform="matrix(1, 0, 0, 1, 0, 0)" xlink:href="#linear-gradient"/>
    <linearGradient id="linear-gradient-11" x1="200.32" y1="295.96" x2="361.5" y2="295.96" gradientTransform="matrix(1, 0, 0, 1, 0, 0)" xlink:href="#linear-gradient"/>
    <linearGradient id="linear-gradient-12" x1="200.32" y1="293.29" x2="361.5" y2="293.29" gradientTransform="matrix(1, 0, 0, 1, 0, 0)" xlink:href="#linear-gradient"/>
    <linearGradient id="linear-gradient-13" x1="200.32" y1="290.63" x2="361.5" y2="290.63" gradientTransform="matrix(1, 0, 0, 1, 0, 0)" xlink:href="#linear-gradient"/>
    <linearGradient id="linear-gradient-14" x1="200.32" y1="287.96" x2="361.5" y2="287.96" gradientTransform="matrix(1, 0, 0, 1, 0, 0)" xlink:href="#linear-gradient"/>
    <linearGradient id="linear-gradient-15" x1="200.32" y1="285.3" x2="361.5" y2="285.3" gradientTransform="matrix(1, 0, 0, 1, 0, 0)" xlink:href="#linear-gradient"/>
    <linearGradient id="linear-gradient-16" x1="200.32" y1="282.63" x2="361.51" y2="282.63" gradientTransform="matrix(1, 0, 0, 1, 0, 0)" xlink:href="#linear-gradient"/>
    <linearGradient id="linear-gradient-17" x1="200.32" y1="279.97" x2="361.5" y2="279.97" gradientTransform="matrix(1, 0, 0, 1, 0, 0)" xlink:href="#linear-gradient"/>
    <linearGradient id="linear-gradient-18" x1="200.32" y1="277.3" x2="361.5" y2="277.3" gradientTransform="matrix(1, 0, 0, 1, 0, 0)" xlink:href="#linear-gradient"/>
    <linearGradient id="linear-gradient-19" x1="200.32" y1="314.97" x2="361.5" y2="314.97" gradientTransform="matrix(1, 0, 0, 1, 0, 0)" xlink:href="#linear-gradient"/>
    <linearGradient id="linear-gradient-20" x1="200.32" y1="312.31" x2="361.5" y2="312.31" gradientTransform="matrix(1, 0, 0, 1, 0, 0)" xlink:href="#linear-gradient"/>
    <linearGradient id="linear-gradient-21" x1="200.32" y1="309.64" x2="361.5" y2="309.64" gradientTransform="matrix(1, 0, 0, 1, 0, 0)" xlink:href="#linear-gradient"/>
    <linearGradient id="linear-gradient-22" x1="200.32" y1="306.98" x2="361.5" y2="306.98" gradientTransform="matrix(1, 0, 0, 1, 0, 0)" xlink:href="#linear-gradient"/>
    <linearGradient id="linear-gradient-23" x1="200.32" y1="304.31" x2="361.5" y2="304.31" gradientTransform="matrix(1, 0, 0, 1, 0, 0)" xlink:href="#linear-gradient"/>
    <linearGradient id="linear-gradient-24" x1="200.32" y1="301.64" x2="361.5" y2="301.64" gradientTransform="matrix(1, 0, 0, 1, 0, 0)" xlink:href="#linear-gradient"/>
    <linearGradient id="linear-gradient-25" x1="200.32" y1="298.98" x2="361.5" y2="298.98" gradientTransform="matrix(1, 0, 0, 1, 0, 0)" xlink:href="#linear-gradient"/>
    <linearGradient id="linear-gradient-26" x1="200.32" y1="296.31" x2="361.51" y2="296.31" gradientTransform="matrix(1, 0, 0, 1, 0, 0)" xlink:href="#linear-gradient"/>
    <linearGradient id="linear-gradient-27" x1="200.32" y1="293.65" x2="361.5" y2="293.65" gradientTransform="matrix(1, 0, 0, 1, 0, 0)" xlink:href="#linear-gradient"/>
    <linearGradient id="linear-gradient-28" x1="200.32" y1="290.98" x2="361.5" y2="290.98" gradientTransform="matrix(1, 0, 0, 1, 0, 0)" xlink:href="#linear-gradient"/>
    <linearGradient id="linear-gradient-29" x1="200.32" y1="288.32" x2="361.51" y2="288.32" gradientTransform="matrix(1, 0, 0, 1, 0, 0)" xlink:href="#linear-gradient"/>
    <linearGradient id="linear-gradient-30" x1="200.32" y1="285.65" x2="361.51" y2="285.65" gradientTransform="matrix(1, 0, 0, 1, 0, 0)" xlink:href="#linear-gradient"/>
    <linearGradient id="linear-gradient-31" x1="200.32" y1="282.99" x2="361.51" y2="282.99" gradientTransform="matrix(1, 0, 0, 1, 0, 0)" xlink:href="#linear-gradient"/>
    <linearGradient id="linear-gradient-32" x1="200.32" y1="280.32" x2="361.51" y2="280.32" gradientTransform="matrix(1, 0, 0, 1, 0, 0)" xlink:href="#linear-gradient"/>
    <linearGradient id="linear-gradient-33" x1="200.32" y1="319.15" x2="361.51" y2="319.15" gradientTransform="matrix(1, 0, 0, 1, 0, 0)" xlink:href="#linear-gradient"/>
    <linearGradient id="linear-gradient-34" x1="200.32" y1="315.33" x2="361.5" y2="315.33" gradientTransform="matrix(1, 0, 0, 1, 0, 0)" xlink:href="#linear-gradient"/>
    <linearGradient id="linear-gradient-35" x1="200.32" y1="312.66" x2="361.5" y2="312.66" gradientTransform="matrix(1, 0, 0, 1, 0, 0)" xlink:href="#linear-gradient"/>
    <linearGradient id="linear-gradient-36" x1="200.32" y1="310" x2="361.5" y2="310" gradientTransform="matrix(1, 0, 0, 1, 0, 0)" xlink:href="#linear-gradient"/>
    <linearGradient id="linear-gradient-37" x1="200.32" y1="307.33" x2="361.5" y2="307.33" gradientTransform="matrix(1, 0, 0, 1, 0, 0)" xlink:href="#linear-gradient"/>
    <linearGradient id="linear-gradient-38" x1="200.32" y1="304.66" x2="361.5" y2="304.66" gradientTransform="matrix(1, 0, 0, 1, 0, 0)" xlink:href="#linear-gradient"/>
    <linearGradient id="linear-gradient-39" x1="200.32" y1="302" x2="361.5" y2="302" gradientTransform="matrix(1, 0, 0, 1, 0, 0)" xlink:href="#linear-gradient"/>
    <linearGradient id="linear-gradient-40" x1="200.32" y1="299.33" x2="361.5" y2="299.33" gradientTransform="matrix(1, 0, 0, 1, 0, 0)" xlink:href="#linear-gradient"/>
    <linearGradient id="linear-gradient-41" x1="200.32" y1="296.67" x2="361.51" y2="296.67" gradientTransform="matrix(1, 0, 0, 1, 0, 0)" xlink:href="#linear-gradient"/>
    <linearGradient id="linear-gradient-42" x1="200.32" y1="294" x2="361.5" y2="294" gradientTransform="matrix(1, 0, 0, 1, 0, 0)" xlink:href="#linear-gradient"/>
    <linearGradient id="linear-gradient-43" x1="200.32" y1="291.34" x2="361.5" y2="291.34" gradientTransform="matrix(1, 0, 0, 1, 0, 0)" xlink:href="#linear-gradient"/>
    <linearGradient id="linear-gradient-44" x1="200.32" y1="288.67" x2="361.5" y2="288.67" gradientTransform="matrix(1, 0, 0, 1, 0, 0)" xlink:href="#linear-gradient"/>
    <linearGradient id="linear-gradient-45" x1="200.32" y1="286.01" x2="361.5" y2="286.01" gradientTransform="matrix(1, 0, 0, 1, 0, 0)" xlink:href="#linear-gradient"/>
    <linearGradient id="linear-gradient-46" x1="200.32" y1="283.34" x2="361.5" y2="283.34" gradientTransform="matrix(1, 0, 0, 1, 0, 0)" xlink:href="#linear-gradient"/>
    <linearGradient id="linear-gradient-47" x1="200.32" y1="323.68" x2="361.5" y2="323.68" gradientTransform="matrix(1, 0, 0, 1, 0, 0)" xlink:href="#linear-gradient"/>
    <linearGradient id="linear-gradient-48" x1="200.32" y1="321.01" x2="361.5" y2="321.01" gradientTransform="matrix(1, 0, 0, 1, 0, 0)" xlink:href="#linear-gradient"/>
    <linearGradient id="linear-gradient-49" x1="200.32" y1="318.35" x2="361.5" y2="318.35" gradientTransform="matrix(1, 0, 0, 1, 0, 0)" xlink:href="#linear-gradient"/>
    <linearGradient id="linear-gradient-50" x1="200.32" y1="315.68" x2="361.5" y2="315.68" gradientTransform="matrix(1, 0, 0, 1, 0, 0)" xlink:href="#linear-gradient"/>
    <linearGradient id="linear-gradient-51" x1="200.32" y1="313.02" x2="361.51" y2="313.02" gradientTransform="matrix(1, 0, 0, 1, 0, 0)" xlink:href="#linear-gradient"/>
    <linearGradient id="linear-gradient-52" x1="200.32" y1="310.35" x2="361.5" y2="310.35" gradientTransform="matrix(1, 0, 0, 1, 0, 0)" xlink:href="#linear-gradient"/>
    <linearGradient id="linear-gradient-53" x1="200.32" y1="307.68" x2="361.5" y2="307.68" gradientTransform="matrix(1, 0, 0, 1, 0, 0)" xlink:href="#linear-gradient"/>
    <linearGradient id="linear-gradient-54" x1="200.32" y1="305.02" x2="361.5" y2="305.02" gradientTransform="matrix(1, 0, 0, 1, 0, 0)" xlink:href="#linear-gradient"/>
    <linearGradient id="linear-gradient-55" x1="200.32" y1="302.35" x2="361.5" y2="302.35" gradientTransform="matrix(1, 0, 0, 1, 0, 0)" xlink:href="#linear-gradient"/>
    <linearGradient id="linear-gradient-56" x1="200.32" y1="299.69" x2="361.5" y2="299.69" gradientTransform="matrix(1, 0, 0, 1, 0, 0)" xlink:href="#linear-gradient"/>
    <linearGradient id="linear-gradient-57" x1="200.32" y1="297.02" x2="361.5" y2="297.02" gradientTransform="matrix(1, 0, 0, 1, 0, 0)" xlink:href="#linear-gradient"/>
    <linearGradient id="linear-gradient-58" x1="200.32" y1="294.36" x2="361.5" y2="294.36" gradientTransform="matrix(1, 0, 0, 1, 0, 0)" xlink:href="#linear-gradient"/>
    <linearGradient id="linear-gradient-59" x1="200.32" y1="291.69" x2="361.5" y2="291.69" gradientTransform="matrix(1, 0, 0, 1, 0, 0)" xlink:href="#linear-gradient"/>
    <linearGradient id="linear-gradient-60" x1="200.32" y1="289.03" x2="361.5" y2="289.03" gradientTransform="matrix(1, 0, 0, 1, 0, 0)" xlink:href="#linear-gradient"/>
    <linearGradient id="linear-gradient-61" x1="200.32" y1="286.36" x2="361.5" y2="286.36" gradientTransform="matrix(1, 0, 0, 1, 0, 0)" xlink:href="#linear-gradient"/>
    <linearGradient id="linear-gradient-62" x1="200.32" y1="326.7" x2="361.5" y2="326.7" gradientTransform="matrix(1, 0, 0, 1, 0, 0)" xlink:href="#linear-gradient"/>
    <linearGradient id="linear-gradient-63" x1="200.32" y1="324.03" x2="361.5" y2="324.03" gradientTransform="matrix(1, 0, 0, 1, 0, 0)" xlink:href="#linear-gradient"/>
    <linearGradient id="linear-gradient-64" x1="200.32" y1="321.37" x2="361.5" y2="321.37" gradientTransform="matrix(1, 0, 0, 1, 0, 0)" xlink:href="#linear-gradient"/>
    <linearGradient id="linear-gradient-65" x1="200.32" y1="318.7" x2="361.5" y2="318.7" gradientTransform="matrix(1, 0, 0, 1, 0, 0)" xlink:href="#linear-gradient"/>
    <linearGradient id="linear-gradient-66" x1="200.32" y1="308.04" x2="361.5" y2="308.04" gradientTransform="matrix(1, 0, 0, 1, 0, 0)" xlink:href="#linear-gradient"/>
    <linearGradient id="linear-gradient-67" x1="200.32" y1="297.38" x2="361.5" y2="297.38" gradientTransform="matrix(1, 0, 0, 1, 0, 0)" xlink:href="#linear-gradient"/>
    <linearGradient id="linear-gradient-68" x1="200.32" y1="294.71" x2="361.5" y2="294.71" gradientTransform="matrix(1, 0, 0, 1, 0, 0)" xlink:href="#linear-gradient"/>
    <linearGradient id="linear-gradient-69" x1="200.32" y1="292.05" x2="361.51" y2="292.05" gradientTransform="matrix(1, 0, 0, 1, 0, 0)" xlink:href="#linear-gradient"/>
    <linearGradient id="linear-gradient-70" x1="200.32" y1="289.38" x2="361.51" y2="289.38" gradientTransform="matrix(1, 0, 0, 1, 0, 0)" xlink:href="#linear-gradient"/>
    <linearGradient id="linear-gradient-71" x1="313.28" y1="249.53" x2="324.1" y2="278.05" gradientTransform="matrix(1, 0, 0, 1, 0, 0)" xlink:href="#linear-gradient"/>
    <linearGradient id="linear-gradient-72" x1="303.16" y1="251.69" x2="338.73" y2="287.25" gradientTransform="matrix(1, 0, 0, 1, 0, 0)" xlink:href="#linear-gradient"/>
    <linearGradient id="linear-gradient-73" x1="312.85" y1="259.51" x2="319.16" y2="267.52" xlink:href="#linear-gradient-3"/>
    <linearGradient id="linear-gradient-74" x1="206.42" y1="282.23" x2="277.72" y2="282.23" xlink:href="#linear-gradient-3"/>
    <linearGradient id="linear-gradient-75" x1="194.77" y1="333.5" x2="253.43" y2="259.1" gradientUnits="userSpaceOnUse">
      <stop offset="0" stop-color="#978ef0"/>
      <stop offset=".96" stop-color="#e3ebff"/>
    </linearGradient>
    <linearGradient id="linear-gradient-76" x1="218.13" y1="235.75" x2="274.51" y2="292.13" gradientTransform="matrix(1, 0, 0, 1, 0, 0)" xlink:href="#linear-gradient"/>
    <linearGradient id="linear-gradient-77" x1="278.25" y1="296.98" x2="213.46" y2="257.18" gradientTransform="matrix(1, 0, 0, 1, 0, 0)" xlink:href="#linear-gradient"/>
    <linearGradient id="linear-gradient-78" x1="292.53" y1="273.74" x2="227.74" y2="233.94" gradientTransform="matrix(1, 0, 0, 1, 0, 0)" xlink:href="#linear-gradient"/>
    <linearGradient id="linear-gradient-79" x1="158.22" y1="197.58" x2="303.77" y2="197.58" xlink:href="#linear-gradient-3"/>
    <linearGradient id="linear-gradient-80" x1="164.32" y1="199.53" x2="305.58" y2="199.53" gradientTransform="matrix(1, 0, 0, 1, 0, 0)" xlink:href="#linear-gradient"/>
    <linearGradient id="linear-gradient-81" x1="139.68" y1="241.02" x2="348.06" y2="241.02" xlink:href="#linear-gradient-3"/>
    <linearGradient id="linear-gradient-82" x1="241.58" y1="415.55" x2="299.59" y2="473.56" gradientTransform="translate(-32.69 -159.24) rotate(-30) skewX(-30)" gradientUnits="userSpaceOnUse">
      <stop offset="0" stop-color="#ffe30b"/>
      <stop offset="1" stop-color="#ff712f"/>
    </linearGradient>
    <linearGradient id="linear-gradient-83" x1="456.25" y1="351.85" x2="527.27" y2="351.85" gradientTransform="translate(13.45 -84.08) rotate(-30) skewX(-49.11)" xlink:href="#linear-gradient"/>
    <linearGradient id="linear-gradient-84" x1="452.95" y1="346.14" x2="523.98" y2="346.14" gradientTransform="translate(13.45 -84.08) rotate(-30) skewX(-49.11)" xlink:href="#linear-gradient"/>
    <linearGradient id="linear-gradient-85" x1="449.65" y1="340.43" x2="520.68" y2="340.43" gradientTransform="translate(13.45 -84.08) rotate(-30) skewX(-49.11)" xlink:href="#linear-gradient"/>
    <linearGradient id="linear-gradient-86" x1="446.36" y1="334.73" x2="517.38" y2="334.73" gradientTransform="translate(13.45 -84.08) rotate(-30) skewX(-49.11)" xlink:href="#linear-gradient"/>
    <linearGradient id="linear-gradient-87" x1="462.71" y1="363.06" x2="533.74" y2="363.06" gradientTransform="translate(13.45 -84.08) rotate(-30) skewX(-49.11)" xlink:href="#linear-gradient"/>
    <linearGradient id="linear-gradient-88" x1="459.42" y1="357.35" x2="530.45" y2="357.35" gradientTransform="translate(13.45 -84.08) rotate(-30) skewX(-49.11)" xlink:href="#linear-gradient"/>
    <linearGradient id="linear-gradient-89" x1="209.73" y1="335.88" x2="298.81" y2="424.96" gradientTransform="translate(-29.5 -142.82) rotate(-30) skewX(-30)" xlink:href="#linear-gradient"/>
  </defs>
  <path class="cls-3" d="M198.78,362.61L12.18,254.88c-4.88-2.82-4.27-7.74,1.37-10.99l199.21-115.02c5.63-3.25,14.15-3.61,19.03-.79l186.6,107.73c4.88,2.82,4.27,7.74-1.37,10.99l-199.21,115.02c-5.63,3.25-14.15,3.61-19.03,.79Z"/>
  <g>
    <g>
      <g>
        <path class="cls-8" d="M323.51,287.79c0,.44-.29,.88-.86,1.21l-76.84,44.36c-1.15,.66-3,.66-4.14,0l-27.93-16.23c-.56-.33-.85-.76-.85-1.19v1.84c0,.43,.29,.86,.85,1.19l27.93,16.23c1.14,.66,2.99,.66,4.14,0l76.84-44.36c.58-.33,.87-.77,.86-1.21v-1.84Z"/>
        <path class="cls-6" d="M213.76,314.73c-1.15,.66-1.16,1.74-.02,2.4l27.93,16.23c1.14,.66,2.99,.66,4.14,0l76.84-44.36c1.15-.66,1.16-1.74,.01-2.4l-27.93-16.23c-1.14-.66-2.99-.66-4.14,0l-76.84,44.36Z"/>
      </g>
      <g>
        <polygon class="cls-7" points="225.81 312.72 222.53 314.61 225.83 316.52 229.11 314.62 225.81 312.72"/>
        <polygon class="cls-11" points="230.45 313.85 233.73 311.96 230.43 310.05 227.15 311.95 230.45 313.85"/>
        <polygon class="cls-9" points="235.07 311.19 238.35 309.29 235.05 307.39 231.77 309.28 235.07 311.19"/>
        <polygon class="cls-10" points="239.68 308.52 242.97 306.63 239.66 304.72 236.38 306.62 239.68 308.52"/>
        <polygon class="cls-4" points="244.28 302.06 241 303.95 244.3 305.86 247.58 303.96 244.28 302.06"/>
        <polygon class="cls-5" points="248.9 299.39 245.62 301.28 248.92 303.19 252.2 301.3 248.9 299.39"/>
        <polygon class="cls-74" points="253.52 296.73 250.23 298.62 253.54 300.52 256.82 298.63 253.52 296.73"/>
        <polygon class="cls-75" points="258.13 294.06 254.85 295.95 258.15 297.86 261.43 295.97 258.13 294.06"/>
        <polygon class="cls-73" points="262.75 291.39 259.47 293.29 262.77 295.19 266.05 293.3 262.75 291.39"/>
        <polygon class="cls-72" points="267.37 288.73 264.09 290.62 267.39 292.53 270.67 290.63 267.37 288.73"/>
        <polygon class="cls-62" points="272 289.86 275.28 287.97 271.98 286.06 268.7 287.96 272 289.86"/>
        <polygon class="cls-68" points="276.62 287.2 279.9 285.3 276.6 283.4 273.32 285.29 276.62 287.2"/>
        <polygon class="cls-70" points="281.24 284.53 284.52 282.64 281.22 280.73 277.94 282.63 281.24 284.53"/>
        <polygon class="cls-71" points="285.85 281.87 289.14 279.97 285.83 278.07 282.55 279.96 285.85 281.87"/>
        <polygon class="cls-63" points="287.17 277.29 290.47 279.2 293.75 277.31 290.45 275.4 287.17 277.29"/>
        <polygon class="cls-69" points="235.68 316.87 238.96 314.98 235.66 313.07 232.38 314.97 235.68 316.87"/>
        <polygon class="cls-65" points="240.3 314.21 243.58 312.31 240.28 310.41 237 312.3 240.3 314.21"/>
        <polygon class="cls-66" points="244.92 311.54 248.2 309.65 244.9 307.74 241.61 309.64 244.92 311.54"/>
        <polygon class="cls-64" points="249.51 305.08 246.23 306.97 249.53 308.88 252.81 306.98 249.51 305.08"/>
        <polygon class="cls-67" points="254.13 302.41 250.85 304.3 254.15 306.21 257.43 304.32 254.13 302.41"/>
        <polygon class="cls-77" points="258.75 299.74 255.47 301.64 258.77 303.54 262.05 301.65 258.75 299.74"/>
        <polygon class="cls-85" points="263.36 297.08 260.08 298.97 263.38 300.88 266.66 298.99 263.36 297.08"/>
        <polygon class="cls-78" points="267.98 294.41 264.7 296.31 268 298.21 271.28 296.32 267.98 294.41"/>
        <polygon class="cls-76" points="272.6 291.75 269.32 293.64 272.62 295.55 275.9 293.65 272.6 291.75"/>
        <polygon class="cls-86" points="277.23 292.88 280.52 290.99 277.21 289.08 273.93 290.98 277.23 292.88"/>
        <polygon class="cls-87" points="281.85 290.22 285.13 288.32 281.83 286.42 278.55 288.31 281.85 290.22"/>
        <polygon class="cls-89" points="286.47 287.55 289.75 285.66 286.45 283.75 283.17 285.65 286.47 287.55"/>
        <polygon class="cls-91" points="291.09 284.89 294.37 282.99 291.06 281.09 287.78 282.98 291.09 284.89"/>
        <polygon class="cls-90" points="295.7 282.22 298.98 280.33 295.68 278.42 292.4 280.31 295.7 282.22"/>
        <polygon class="cls-88" points="237.61 317.99 236.27 318.76 231.04 315.74 227.76 317.63 232.99 320.65 234.57 321.56 236.3 322.56 240.91 319.89 243.32 318.5 244.19 318 240.89 316.09 240.02 316.6 237.61 317.99"/>
        <polygon class="cls-82" points="245.53 317.23 248.81 315.33 245.51 313.43 242.23 315.32 245.53 317.23"/>
        <polygon class="cls-80" points="250.15 314.56 253.43 312.67 250.13 310.76 246.85 312.66 250.15 314.56"/>
        <polygon class="cls-84" points="254.74 308.1 251.46 309.99 254.76 311.9 258.04 310 254.74 308.1"/>
        <polygon class="cls-81" points="259.36 305.43 256.08 307.32 259.38 309.23 262.66 307.34 259.36 305.43"/>
        <polygon class="cls-79" points="263.98 302.76 260.7 304.66 264 306.56 267.28 304.67 263.98 302.76"/>
        <polygon class="cls-83" points="268.59 300.1 265.31 301.99 268.61 303.9 271.89 302.01 268.59 300.1"/>
        <polygon class="cls-53" points="273.21 297.43 269.93 299.33 273.23 301.23 276.51 299.34 273.21 297.43"/>
        <polygon class="cls-52" points="277.83 294.77 274.55 296.66 277.85 298.57 281.13 296.67 277.83 294.77"/>
        <polygon class="cls-55" points="282.47 295.9 285.75 294.01 282.44 292.1 279.16 294 282.47 295.9"/>
        <polygon class="cls-54" points="287.08 293.24 290.36 291.34 287.06 289.44 283.78 291.33 287.08 293.24"/>
        <polygon class="cls-58" points="291.7 290.57 294.98 288.68 291.68 286.77 288.4 288.67 291.7 290.57"/>
        <polygon class="cls-56" points="296.32 287.91 299.6 286.01 296.3 284.11 293.02 286 296.32 287.91"/>
        <polygon class="cls-57" points="300.93 285.24 304.21 283.35 300.91 281.44 297.63 283.33 300.93 285.24"/>
        <polygon class="cls-60" points="241.53 325.58 244.81 323.68 241.51 321.78 238.23 323.67 241.53 325.58"/>
        <polygon class="cls-61" points="246.14 322.91 249.42 321.02 246.12 319.11 242.84 321.01 246.14 322.91"/>
        <polygon class="cls-59" points="250.76 320.25 254.04 318.35 250.74 316.45 247.46 318.34 250.76 320.25"/>
        <polygon class="cls-21" points="255.38 317.58 258.66 315.69 255.36 313.78 252.08 315.68 255.38 317.58"/>
        <polygon class="cls-19" points="259.97 311.12 256.69 313.01 259.99 314.92 263.27 313.02 259.97 311.12"/>
        <polygon class="cls-20" points="264.59 308.45 261.31 310.34 264.61 312.25 267.89 310.36 264.59 308.45"/>
        <polygon class="cls-17" points="269.21 305.78 265.93 307.68 269.23 309.58 272.51 307.69 269.21 305.78"/>
        <polygon class="cls-18" points="273.82 303.12 270.54 305.01 273.85 306.92 277.13 305.03 273.82 303.12"/>
        <polygon class="cls-15" points="278.44 300.45 275.16 302.35 278.46 304.25 281.74 302.36 278.44 300.45"/>
        <polygon class="cls-16" points="283.06 297.79 279.78 299.68 283.08 301.59 286.36 299.69 283.06 297.79"/>
        <polygon class="cls-13" points="287.7 298.92 290.98 297.03 287.68 295.12 284.39 297.02 287.7 298.92"/>
        <polygon class="cls-14" points="292.31 296.26 295.59 294.36 292.29 292.46 289.01 294.35 292.31 296.26"/>
        <polygon class="cls-12" points="296.93 293.59 300.21 291.7 296.91 289.79 293.63 291.69 296.93 293.59"/>
        <polygon class="cls-39" points="301.55 290.93 304.83 289.03 301.53 287.13 298.25 289.02 301.55 290.93"/>
        <polygon class="cls-41" points="306.16 288.26 309.44 286.37 306.14 284.46 302.86 286.35 306.16 288.26"/>
        <polygon class="cls-40" points="246.76 328.6 250.04 326.7 246.74 324.8 243.46 326.69 246.76 328.6"/>
        <polygon class="cls-36" points="251.37 325.93 254.65 324.04 251.35 322.13 248.07 324.03 251.37 325.93"/>
        <polygon class="cls-35" points="255.99 323.27 259.27 321.37 255.97 319.47 252.69 321.36 255.99 323.27"/>
        <polygon class="cls-38" points="260.61 320.6 263.89 318.71 260.59 316.8 257.31 318.7 260.61 320.6"/>
        <polygon class="cls-37" points="289.63 300.04 288.29 300.81 285.01 302.7 283.67 303.47 280.39 305.37 279.06 306.14 275.77 308.03 274.44 308.8 271.16 310.7 269.82 311.47 266.54 313.36 261.92 316.03 265.22 317.94 269.84 315.27 273.12 313.38 274.46 312.6 277.74 310.71 279.08 309.94 282.36 308.05 283.69 307.27 286.97 305.38 288.31 304.61 291.59 302.71 292.93 301.94 294.57 301 296.21 300.05 292.91 298.14 291.27 299.09 289.63 300.04"/>
        <polygon class="cls-33" points="297.54 299.28 300.82 297.38 297.52 295.48 294.24 297.37 297.54 299.28"/>
        <polygon class="cls-32" points="302.16 296.61 305.44 294.72 302.14 292.81 298.86 294.71 302.16 296.61"/>
        <polygon class="cls-34" points="306.78 293.95 310.06 292.05 306.76 290.15 303.48 292.04 306.78 293.95"/>
        <polygon class="cls-28" points="311.39 291.28 314.68 289.39 311.37 287.48 308.09 289.37 311.39 291.28"/>
      </g>
    </g>
    <g>
      <path class="cls-29" d="M335.75,278.41h0c-3.93,2.5-10.01,3.04-14.34,1.29l-12.61-5.1c-5.42-2.19-7.27-7.93-2.35-11.05l5-1.35c4.92-3.12,12.87-3.08,16.75,.1l9.01,7.38c3.1,2.54,2.48,6.24-1.45,8.73Z"/>
      <path class="cls-30" d="M335.19,276.85h0c-3.74,2.16-9.65,2.42-13.95,.61l-12.52-5.26c-5.38-2.26-6.02-6.74-1.34-9.44l3.42-1.97c4.67-2.7,12.44-2.33,16.35,.78l9.1,7.23c3.13,2.48,2.68,5.9-1.06,8.05Z"/>
      <path class="cls-31" d="M319.5,265.79h0c-.57,.33-1.43,.37-1.93,.08l-4.43-2.56c-.49-.29-.43-.78,.14-1.11h0c.57-.33,1.43-.37,1.93-.08l4.43,2.56c.49,.29,.43,.78-.14,1.11Z"/>
    </g>
    <g>
      <g>
        <g>
          <path class="cls-25" d="M277.71,268.12c0,.19-.03,.38-.09,.57-.19,.56-.66,1.1-1.41,1.54l-39.92,23.05c-.24,.14-.5,.26-.78,.37-.04,.02-.09,.03-.13,.04-.23,.08-.46,.15-.71,.21-.05,.01-.1,.02-.14,.04-.27,.06-.54,.11-.82,.14-.04,0-.09,0-.13,.01-.28,.03-.56,.04-.85,.05-.05,0-.09,0-.14,0-.29,0-.57-.02-.86-.05-.05,0-.1-.01-.15-.02-.21-.03-.41-.06-.62-.11-.17-.04-.34-.08-.51-.13-.16-.05-.32-.09-.48-.15-.07-.02-.13-.05-.2-.07-.25-.1-.49-.21-.71-.34l-21.17-12.3c-.12-.07-.21-.15-.32-.23-.12-.09-.25-.17-.36-.26-.16-.14-.29-.29-.4-.45-.02-.03-.04-.06-.06-.08-.1-.15-.19-.31-.24-.47,0-.02-.01-.04-.02-.06-.05-.17-.09-.35-.09-.52v2.2s0,.03,0,.04c0,.1,.01,.2,.03,.29,.01,.06,.03,.12,.05,.19,0,.02,0,.04,.02,.06,0,.02,0,.03,.01,.05,.04,.1,.08,.19,.14,.29,.03,.05,.06,.09,.09,.14,.02,.03,.04,.06,.06,.08,.02,.03,.03,.06,.06,.08,.09,.12,.2,.23,.32,.34,0,0,.02,.02,.03,.02,.1,.09,.23,.18,.35,.26,.09,.06,.16,.13,.26,.19,.02,.01,.04,.02,.06,.04l21.17,12.3c.22,.13,.46,.24,.71,.34,.07,.03,.13,.05,.2,.08,.07,.03,.14,.06,.21,.08,.09,.03,.18,.04,.27,.07,.17,.05,.34,.09,.51,.13,.06,.01,.12,.03,.18,.05,.14,.03,.29,.04,.43,.06,.05,0,.1,.02,.15,.02,.02,0,.04,0,.07,0,.19,.02,.38,.03,.57,.04,.08,0,.15,0,.23,0,.05,0,.09,0,.14,0,.05,0,.11,0,.16,0,.17,0,.34-.01,.5-.03,.06,0,.12-.01,.18-.02,.04,0,.08,0,.13-.01,.06,0,.12-.01,.19-.02,.17-.02,.34-.05,.51-.09,.04,0,.09-.02,.13-.03,.05-.01,.1-.02,.14-.04,.09-.02,.17-.04,.26-.06,.15-.04,.3-.1,.45-.15,.04-.02,.08-.03,.13-.04,.01,0,.03,0,.04-.01,.26-.1,.5-.22,.73-.35l39.92-23.05c1.01-.58,1.51-1.34,1.51-2.1v-2.2Z"/>
          <path class="cls-26" d="M207.92,276.8c-1.99,1.15-2,3.02-.02,4.17l21.17,12.3c1.99,1.15,5.22,1.15,7.21,0l39.92-23.05c2-1.15,2.01-3.03,.02-4.18l-21.17-12.3c-1.98-1.15-5.21-1.15-7.21,0l-39.92,23.05Z"/>
        </g>
        <g class="cls-92">
          <polygon class="cls-27" points="254.1 234.77 254.19 268.22 228.48 283.06 228.39 249.61 254.1 234.77"/>
          <polygon class="cls-22" points="228.48 283.06 225.94 281.59 225.85 248.14 228.39 249.61 228.48 283.06"/>
          <polygon class="cls-23" points="228.39 249.61 225.85 248.14 251.56 233.29 254.1 234.77 228.39 249.61"/>
        </g>
        <g>
          <path class="cls-24" d="M297.67,102.26c-.95-.55-2.27-.48-3.74,.37l-130.48,75.33c-2.9,1.67-5.24,5.73-5.23,9.06l.28,99.31c0,1.65,.59,2.82,1.53,3.37l6.1,3.54c-.94-.55-1.53-1.71-1.53-3.37l-.28-99.31c0-3.33,2.34-7.39,5.23-9.06l130.48-75.33c1.46-.84,2.78-.92,3.74-.37l-6.1-3.54Z"/>
          <path class="cls-43" d="M300.03,106.18c2.9-1.68,5.26-.33,5.27,3l.28,99.31c0,3.33-2.33,7.39-5.23,9.06l-130.48,75.33c-2.9,1.67-5.26,.33-5.27-3l-.28-99.31c0-3.33,2.34-7.39,5.23-9.06l130.48-75.33Z"/>
          <path class="cls-42" d="M169.87,292.88l130.48-75.33c2.9-1.68,5.24-5.73,5.23-9.06l-.06-20.04-140.98,81.39,.06,20.04c0,3.33,2.37,4.67,5.27,3Z"/>
        </g>
      </g>
      <path class="cls-2" d="M294.06,185.03l-117.01,67.31c-2.89,1.67-5.22-.1-5.22-3.95v-51.89c0-3.85,2.34-8.32,5.22-9.98l117.01-67.31c2.89-1.67,5.22,.1,5.22,3.95v51.89c0,3.85-2.34,8.32-5.22,9.98Z"/>
      <g>
        <path class="cls-1" d="M222.76,216.16l-40.87,23.59c-.58,.34-1.06-.02-1.06-.8v-34.04c0-.78,.47-1.68,1.06-2.02l40.87-23.59c.58-.34,1.06,.02,1.06,.8v34.04c0,.78-.47,1.68-1.06,2.02Z"/>
        <path class="cls-51" d="M181.89,239.76l40.87-23.59c.58-.34,1.06-1.15,1.06-1.82v-13.81l-1.38,.17-1.14-3.59-3.41,4.91-1.99-4.4-2.27,4.25-2.43,7.33-2.4-2.61-2.83-6.36-4.29,15.07-2.84-2.93-2.27,4.25-3.41-2.92-3.41,5.89-3.7,.18-3.98,8.17-1.22,1.75v9.47c0,.67,.47,.94,1.06,.6Z"/>
      </g>
      <g>
        <path class="cls-50" d="M293.34,161.43l-59.91,35c-.42,.24-.77-.01-.77-.58h0c0-.57,.34-1.22,.77-1.47l59.91-35c.42-.24,.77,.02,.77,.58h0c0,.57-.34,1.22-.77,1.47Z"/>
        <path class="cls-49" d="M293.34,154.84l-59.91,35c-.42,.24-.77-.02-.77-.58h0c0-.57,.34-1.22,.77-1.47l59.91-35c.42-.24,.77,.01,.77,.58h0c0,.57-.34,1.22-.77,1.47Z"/>
        <path class="cls-48" d="M293.34,148.25l-59.91,35c-.42,.24-.77-.02-.77-.58h0c0-.57,.34-1.22,.77-1.47l59.91-35c.42-.24,.77,.01,.77,.58h0c0,.57-.34,1.22-.77,1.47Z"/>
        <path class="cls-47" d="M293.34,141.65l-59.91,35c-.42,.24-.77-.02-.77-.58h0c0-.57,.34-1.22,.77-1.47l59.91-35c.42-.24,.77,.02,.77,.58h0c0,.57-.34,1.22-.77,1.47Z"/>
        <g>
          <path class="cls-46" d="M293.34,174.37l-59.91,35c-.42,.24-.77-.01-.77-.58h0c0-.57,.34-1.22,.77-1.47l59.91-35c.42-.24,.77,.01,.77,.58h0c0,.57-.34,1.22-.77,1.47Z"/>
          <path class="cls-44" d="M293.34,167.77l-59.91,35c-.42,.24-.77-.01-.77-.58h0c0-.57,.34-1.22,.77-1.47l59.91-35c.42-.24,.77,.01,.77,.58h0c0,.57-.34,1.22-.77,1.47Z"/>
        </g>
      </g>
      <polygon class="cls-45" points="227.48 167.9 180.6 194.96 180.6 190.91 227.48 163.85 227.48 167.9"/>
    </g>
  </g>
</svg>