<?xml version="1.0" encoding="UTF-8"?>
<svg id="BACKGROUND" xmlns="http://www.w3.org/2000/svg" xmlns:xlink="http://www.w3.org/1999/xlink" viewBox="0 0 449.28 373.03">
  <defs>
    <style>
      .cls-1 {
        fill: url(#linear-gradient);
      }

      .cls-2 {
        fill: #fff;
      }

      .cls-3 {
        fill: url(#linear-gradient-8);
      }

      .cls-4 {
        fill: url(#linear-gradient-9);
      }

      .cls-5 {
        fill: url(#linear-gradient-3);
      }

      .cls-6 {
        fill: url(#linear-gradient-4);
      }

      .cls-7 {
        fill: url(#linear-gradient-2);
      }

      .cls-8 {
        fill: url(#linear-gradient-6);
      }

      .cls-9 {
        fill: url(#linear-gradient-7);
      }

      .cls-10 {
        fill: url(#linear-gradient-5);
      }

      .cls-11 {
        fill: url(#linear-gradient-41);
      }

      .cls-12 {
        fill: url(#linear-gradient-40);
      }

      .cls-13 {
        fill: url(#linear-gradient-43);
      }

      .cls-14 {
        fill: url(#linear-gradient-42);
      }

      .cls-15 {
        fill: url(#linear-gradient-45);
      }

      .cls-16 {
        fill: url(#linear-gradient-46);
      }

      .cls-17 {
        fill: url(#linear-gradient-44);
      }

      .cls-18 {
        fill: url(#linear-gradient-14);
      }

      .cls-19 {
        fill: url(#linear-gradient-18);
      }

      .cls-20 {
        fill: url(#linear-gradient-22);
      }

      .cls-21 {
        fill: url(#linear-gradient-20);
      }

      .cls-22 {
        fill: url(#linear-gradient-21);
      }

      .cls-23 {
        fill: url(#linear-gradient-23);
      }

      .cls-24 {
        fill: url(#linear-gradient-15);
      }

      .cls-25 {
        fill: url(#linear-gradient-19);
      }

      .cls-26 {
        fill: url(#linear-gradient-16);
      }

      .cls-27 {
        fill: url(#linear-gradient-17);
      }

      .cls-28 {
        fill: url(#linear-gradient-13);
      }

      .cls-29 {
        fill: url(#linear-gradient-12);
      }

      .cls-30 {
        fill: url(#linear-gradient-10);
      }

      .cls-31 {
        fill: url(#linear-gradient-11);
      }

      .cls-32 {
        fill: url(#linear-gradient-27);
      }

      .cls-33 {
        fill: url(#linear-gradient-24);
      }

      .cls-34 {
        fill: url(#linear-gradient-26);
      }

      .cls-35 {
        fill: url(#linear-gradient-38);
      }

      .cls-36 {
        fill: url(#linear-gradient-35);
      }

      .cls-37 {
        fill: url(#linear-gradient-37);
      }

      .cls-38 {
        fill: url(#linear-gradient-34);
      }

      .cls-39 {
        fill: url(#linear-gradient-39);
      }

      .cls-40 {
        fill: url(#linear-gradient-36);
      }

      .cls-41 {
        fill: url(#linear-gradient-25);
      }

      .cls-42 {
        fill: url(#linear-gradient-28);
      }

      .cls-43 {
        fill: url(#linear-gradient-29);
      }

      .cls-44 {
        fill: url(#linear-gradient-33);
      }

      .cls-45 {
        fill: url(#linear-gradient-30);
      }

      .cls-46 {
        fill: url(#linear-gradient-32);
      }

      .cls-47 {
        fill: url(#linear-gradient-31);
      }

      .cls-48 {
        isolation: isolate;
      }
    </style>
    <linearGradient id="linear-gradient" x1="19.12" y1="100.42" x2="117" y2="198.29" gradientUnits="userSpaceOnUse">
      <stop offset="0" stop-color="#0763bd"/>
      <stop offset="1" stop-color="#172a7c"/>
    </linearGradient>
    <linearGradient id="linear-gradient-2" x1="50.4" y1="122.28" x2="241.36" y2="313.25" gradientUnits="userSpaceOnUse">
      <stop offset=".04" stop-color="#e3ebff"/>
      <stop offset="1" stop-color="#978ef0"/>
    </linearGradient>
    <linearGradient id="linear-gradient-3" x1="248.74" y1="642.6" x2="252.75" y2="646.62" gradientTransform="translate(-105.49 -414.44) rotate(-30) skewX(-30)" gradientUnits="userSpaceOnUse">
      <stop offset="0" stop-color="#ffe30b"/>
      <stop offset="1" stop-color="#ff712f"/>
    </linearGradient>
    <linearGradient id="linear-gradient-4" x1="259.49" y1="643.15" x2="263.5" y2="647.16" xlink:href="#linear-gradient-3"/>
    <linearGradient id="linear-gradient-5" x1="270.23" y1="643.69" x2="274.24" y2="647.7" gradientTransform="translate(538.82 -316.68) rotate(29.69) skewX(-30)" xlink:href="#linear-gradient-3"/>
    <linearGradient id="linear-gradient-6" x1="280.98" y1="644.24" x2="284.99" y2="648.25" xlink:href="#linear-gradient-3"/>
    <linearGradient id="linear-gradient-7" x1="37.07" y1="102.11" x2="113.74" y2="178.77" xlink:href="#linear-gradient-2"/>
    <linearGradient id="linear-gradient-8" x1="56.61" y1="119.03" x2="224.56" y2="286.98" xlink:href="#linear-gradient-2"/>
    <linearGradient id="linear-gradient-9" x1="37.07" y1="93.88" x2="113.74" y2="170.54" xlink:href="#linear-gradient-2"/>
    <linearGradient id="linear-gradient-10" x1="56.61" y1="110.8" x2="224.56" y2="278.76" xlink:href="#linear-gradient-2"/>
    <linearGradient id="linear-gradient-11" x1="37.07" y1="85.66" x2="113.74" y2="162.32" xlink:href="#linear-gradient-2"/>
    <linearGradient id="linear-gradient-12" x1="56.61" y1="102.58" x2="224.56" y2="270.53" xlink:href="#linear-gradient-2"/>
    <linearGradient id="linear-gradient-13" x1="19.12" y1="52.11" x2="117" y2="149.99" xlink:href="#linear-gradient"/>
    <linearGradient id="linear-gradient-14" y1="73.98" y2="264.94" xlink:href="#linear-gradient-2"/>
    <linearGradient id="linear-gradient-15" x1="248.74" y1="600.77" x2="252.75" y2="604.78" xlink:href="#linear-gradient-3"/>
    <linearGradient id="linear-gradient-16" x1="259.49" y1="601.32" x2="263.5" y2="605.33" xlink:href="#linear-gradient-3"/>
    <linearGradient id="linear-gradient-17" x1="270.23" y1="601.86" x2="274.24" y2="605.87" xlink:href="#linear-gradient-3"/>
    <linearGradient id="linear-gradient-18" x1="280.98" y1="602.4" x2="284.99" y2="606.42" xlink:href="#linear-gradient-3"/>
    <linearGradient id="linear-gradient-19" x1="37.07" y1="53.8" x2="113.74" y2="130.46" xlink:href="#linear-gradient-2"/>
    <linearGradient id="linear-gradient-20" x1="56.61" y1="70.72" x2="224.56" y2="238.68" xlink:href="#linear-gradient-2"/>
    <linearGradient id="linear-gradient-21" x1="37.07" y1="45.58" x2="113.74" y2="122.24" xlink:href="#linear-gradient-2"/>
    <linearGradient id="linear-gradient-22" x1="56.61" y1="62.5" x2="224.56" y2="230.45" xlink:href="#linear-gradient-2"/>
    <linearGradient id="linear-gradient-23" x1="37.07" y1="37.36" x2="113.74" y2="114.02" xlink:href="#linear-gradient-2"/>
    <linearGradient id="linear-gradient-24" x1="56.61" y1="54.28" x2="224.56" y2="222.23" xlink:href="#linear-gradient-2"/>
    <linearGradient id="linear-gradient-25" x1="19.12" y1="3.81" x2="117" y2="101.69" xlink:href="#linear-gradient"/>
    <linearGradient id="linear-gradient-26" x1="50.4" y1="25.68" x2="241.36" y2="216.64" xlink:href="#linear-gradient-2"/>
    <linearGradient id="linear-gradient-27" x1="248.74" y1="558.94" x2="252.75" y2="562.95" xlink:href="#linear-gradient-3"/>
    <linearGradient id="linear-gradient-28" x1="259.49" y1="559.48" x2="263.5" y2="563.5" xlink:href="#linear-gradient-3"/>
    <linearGradient id="linear-gradient-29" x1="270.23" y1="560.03" x2="274.24" y2="564.04" xlink:href="#linear-gradient-3"/>
    <linearGradient id="linear-gradient-30" x1="280.98" y1="560.57" x2="284.99" y2="564.58" xlink:href="#linear-gradient-3"/>
    <linearGradient id="linear-gradient-31" x1="90.83" y1="57.44" x2="139.09" y2="105.71" xlink:href="#linear-gradient-2"/>
    <linearGradient id="linear-gradient-32" x1="35.52" y1="32.17" x2="98.61" y2="95.26" xlink:href="#linear-gradient-2"/>
    <linearGradient id="linear-gradient-33" x1="-302.57" y1="-402.19" x2="-206.92" y2="-306.54" gradientTransform="translate(-31.26 399.79) rotate(30) skewX(-30)" xlink:href="#linear-gradient-2"/>
    <linearGradient id="linear-gradient-34" x1="-250.67" y1="-356.33" x2="-245.49" y2="-356.33" gradientTransform="translate(-31.26 399.79) rotate(30) skewX(-30)" xlink:href="#linear-gradient"/>
    <linearGradient id="linear-gradient-35" x1="-255.85" y1="-344.24" x2="-250.67" y2="-344.24" gradientTransform="translate(-31.26 399.79) rotate(30) skewX(-30)" xlink:href="#linear-gradient"/>
    <linearGradient id="linear-gradient-36" x1="-259.8" y1="-355.88" x2="-249.93" y2="-355.88" gradientTransform="translate(-31.26 399.79) rotate(30) skewX(-30)" xlink:href="#linear-gradient"/>
    <linearGradient id="linear-gradient-37" x1="-251.28" y1="-344.69" x2="-241.53" y2="-344.69" gradientTransform="translate(-31.26 399.79) rotate(30) skewX(-30)" xlink:href="#linear-gradient"/>
    <linearGradient id="linear-gradient-38" x1="-264.72" y1="-352.51" x2="-250.67" y2="-352.51" gradientTransform="translate(-31.26 399.79) rotate(30) skewX(-30)" xlink:href="#linear-gradient"/>
    <linearGradient id="linear-gradient-39" x1="-250.67" y1="-348.06" x2="-236.61" y2="-348.06" gradientTransform="translate(-31.26 399.79) rotate(30) skewX(-30)" xlink:href="#linear-gradient"/>
    <linearGradient id="linear-gradient-40" x1="-263.66" y1="-346.67" x2="-250.67" y2="-346.67" gradientTransform="translate(-31.26 399.79) rotate(30) skewX(-30)" xlink:href="#linear-gradient"/>
    <linearGradient id="linear-gradient-41" x1="-250.67" y1="-353.95" x2="-237.67" y2="-353.95" gradientTransform="translate(-31.26 399.79) rotate(30) skewX(-30)" xlink:href="#linear-gradient"/>
    <linearGradient id="linear-gradient-42" x1="336.43" y1="66.14" x2="334.59" y2="192.04" xlink:href="#linear-gradient-2"/>
    <linearGradient id="linear-gradient-43" x1="310.08" y1="128.4" x2="417.16" y2="235.49" xlink:href="#linear-gradient-2"/>
    <linearGradient id="linear-gradient-44" x1="311.34" y1="129.66" x2="413.64" y2="231.97" xlink:href="#linear-gradient"/>
    <linearGradient id="linear-gradient-45" x1="338.37" y1="139.84" x2="338.37" y2="215.82" xlink:href="#linear-gradient"/>
    <linearGradient id="linear-gradient-46" x1="774.5" y1="548.52" x2="792.16" y2="566.18" gradientTransform="translate(-60.11 -288.12) rotate(-30) skewX(-49.11)" xlink:href="#linear-gradient"/>
  </defs>
  <g>
    <g>
      <g>
        <g>
          <path class="cls-1" d="M149.46,176.74l-42.37,24.62c-2.72,1.58-7.15,1.58-9.88,0l-42.64-24.62c-1.38-.8-2.07-1.84-2.07-2.89l-.08,17.65c0,1.04,.69,2.09,2.07,2.89l42.64,24.62c2.74,1.58,7.16,1.58,9.88,0l42.37-24.62c1.35-.78,2.02-1.81,2.03-2.84l.08-17.65c0,1.03-.68,2.06-2.03,2.84Z"/>
          <path class="cls-7" d="M149.42,171.01c2.74,1.58,2.75,4.15,.04,5.73l-42.37,24.62c-2.72,1.58-7.15,1.58-9.88,0l-42.64-24.62c-2.74-1.58-2.76-4.14-.04-5.73l42.37-24.62c2.72-1.58,7.15-1.58,9.88,0l42.64,24.62Z"/>
        </g>
        <g>
          <path class="cls-5" d="M114.44,204.51c0,1-.71,2.23-1.58,2.73-.87,.5-1.58,.1-1.58-.9s.71-2.23,1.58-2.73c.87-.5,1.58-.1,1.58,.9Z"/>
          <path class="cls-6" d="M123.75,199.77c0,1-.71,2.23-1.58,2.73-.87,.5-1.58,.1-1.58-.9s.71-2.23,1.58-2.73c.87-.51,1.58-.1,1.58,.9Z"/>
          <ellipse class="cls-10" cx="131.47" cy="195.94" rx="2.23" ry="1.29" transform="translate(-104.04 210.55) rotate(-59.69)"/>
          <path class="cls-8" d="M142.36,190.28c0,1-.71,2.23-1.58,2.73-.87,.5-1.58,.1-1.58-.9s.71-2.23,1.58-2.73c.87-.5,1.58-.1,1.58,.9Z"/>
        </g>
      </g>
      <g>
        <g>
          <g>
            <path class="cls-9" d="M143.73,166.92l-37.26,21.65c-2.39,1.39-6.28,1.39-8.69,0l-37.5-21.65c-1.21-.7-1.82-1.62-1.82-2.54l-.07,4.19c0,.92,.6,1.84,1.82,2.54l37.5,21.65c2.41,1.39,6.3,1.39,8.69,0l37.26-21.65c1.19-.69,1.78-1.59,1.78-2.5l.07-4.19c0,.91-.6,1.81-1.78,2.5Z"/>
            <path class="cls-3" d="M143.7,161.88c2.41,1.39,2.42,3.65,.03,5.04l-37.26,21.65c-2.39,1.39-6.28,1.39-8.69,0l-37.5-21.65c-2.41-1.39-2.43-3.64-.03-5.04l37.26-21.65c2.39-1.39,6.28-1.39,8.69,0l37.5,21.65Z"/>
          </g>
          <g>
            <path class="cls-4" d="M143.73,158.7l-37.26,21.65c-2.39,1.39-6.28,1.39-8.69,0l-37.5-21.65c-1.21-.7-1.82-1.62-1.82-2.54l-.07,4.19c0,.92,.6,1.84,1.82,2.54l37.5,21.65c2.41,1.39,6.3,1.39,8.69,0l37.26-21.65c1.19-.69,1.78-1.59,1.78-2.5l.07-4.19c0,.91-.6,1.81-1.78,2.5Z"/>
            <path class="cls-30" d="M143.7,153.66c2.41,1.39,2.42,3.65,.03,5.04l-37.26,21.65c-2.39,1.39-6.28,1.39-8.69,0l-37.5-21.65c-2.41-1.39-2.43-3.64-.03-5.04l37.26-21.65c2.39-1.39,6.28-1.39,8.69,0l37.5,21.65Z"/>
          </g>
          <g>
            <path class="cls-31" d="M143.73,150.47l-37.26,21.65c-2.39,1.39-6.28,1.39-8.69,0l-37.5-21.65c-1.21-.7-1.82-1.62-1.82-2.54l-.07,4.19c0,.92,.6,1.84,1.82,2.54l37.5,21.65c2.41,1.39,6.3,1.39,8.69,0l37.26-21.65c1.19-.69,1.78-1.59,1.78-2.5l.07-4.19c0,.91-.6,1.81-1.78,2.5Z"/>
            <path class="cls-29" d="M143.7,145.44c2.41,1.39,2.42,3.65,.03,5.04l-37.26,21.65c-2.39,1.39-6.28,1.39-8.69,0l-37.5-21.65c-2.41-1.39-2.43-3.64-.03-5.04l37.26-21.65c2.39-1.39,6.28-1.39,8.69,0l37.5,21.65Z"/>
          </g>
        </g>
        <g>
          <path class="cls-28" d="M149.46,128.43l-42.37,24.62c-2.72,1.58-7.15,1.58-9.88,0l-42.64-24.62c-1.38-.8-2.07-1.84-2.07-2.89l-.08,17.65c0,1.04,.69,2.09,2.07,2.89l42.64,24.62c2.74,1.58,7.16,1.58,9.88,0l42.37-24.62c1.35-.78,2.02-1.81,2.03-2.84l.08-17.65c0,1.03-.68,2.06-2.03,2.84Z"/>
          <path class="cls-18" d="M149.42,122.71c2.74,1.58,2.75,4.15,.04,5.73l-42.37,24.62c-2.72,1.58-7.15,1.58-9.88,0l-42.64-24.62c-2.74-1.58-2.76-4.14-.04-5.73l42.37-24.62c2.72-1.58,7.15-1.58,9.88,0l42.64,24.62Z"/>
        </g>
        <g>
          <path class="cls-24" d="M114.44,156.21c0,1-.71,2.23-1.58,2.73-.87,.5-1.58,.1-1.58-.9s.71-2.23,1.58-2.73c.87-.5,1.58-.1,1.58,.9Z"/>
          <path class="cls-26" d="M123.75,151.46c0,1-.71,2.23-1.58,2.73-.87,.5-1.58,.1-1.58-.9s.71-2.23,1.58-2.73c.87-.51,1.58-.1,1.58,.9Z"/>
          <path class="cls-27" d="M133.05,146.72c0,1-.71,2.23-1.58,2.73s-1.58,.1-1.58-.9,.71-2.23,1.58-2.73c.87-.5,1.58-.1,1.58,.9Z"/>
          <path class="cls-19" d="M142.36,141.97c0,1-.71,2.23-1.58,2.73-.87,.5-1.58,.1-1.58-.9s.71-2.23,1.58-2.73c.87-.5,1.58-.1,1.58,.9Z"/>
        </g>
      </g>
      <g>
        <g>
          <g>
            <path class="cls-25" d="M143.73,118.62l-37.26,21.65c-2.39,1.39-6.28,1.39-8.69,0l-37.5-21.65c-1.21-.7-1.82-1.62-1.82-2.54l-.07,4.19c0,.92,.6,1.84,1.82,2.54l37.5,21.65c2.41,1.39,6.3,1.39,8.69,0l37.26-21.65c1.19-.69,1.78-1.59,1.78-2.5l.07-4.19c0,.91-.6,1.81-1.78,2.5Z"/>
            <path class="cls-21" d="M143.7,113.58c2.41,1.39,2.42,3.65,.03,5.04l-37.26,21.65c-2.39,1.39-6.28,1.39-8.69,0l-37.5-21.65c-2.41-1.39-2.43-3.64-.03-5.04l37.26-21.65c2.39-1.39,6.28-1.39,8.69,0l37.5,21.65Z"/>
          </g>
          <g>
            <path class="cls-22" d="M143.73,110.39l-37.26,21.65c-2.39,1.39-6.28,1.39-8.69,0l-37.5-21.65c-1.21-.7-1.82-1.62-1.82-2.54l-.07,4.19c0,.92,.6,1.84,1.82,2.54l37.5,21.65c2.41,1.39,6.3,1.39,8.69,0l37.26-21.65c1.19-.69,1.78-1.59,1.78-2.5l.07-4.19c0,.91-.6,1.81-1.78,2.5Z"/>
            <path class="cls-20" d="M143.7,105.36c2.41,1.39,2.42,3.65,.03,5.04l-37.26,21.65c-2.39,1.39-6.28,1.39-8.69,0l-37.5-21.65c-2.41-1.39-2.43-3.64-.03-5.04l37.26-21.65c2.39-1.39,6.28-1.39,8.69,0l37.5,21.65Z"/>
          </g>
          <g>
            <path class="cls-23" d="M143.73,102.17l-37.26,21.65c-2.39,1.39-6.28,1.39-8.69,0l-37.5-21.65c-1.21-.7-1.82-1.62-1.82-2.54l-.07,4.19c0,.92,.6,1.84,1.82,2.54l37.5,21.65c2.41,1.39,6.3,1.39,8.69,0l37.26-21.65c1.19-.69,1.78-1.59,1.78-2.5l.07-4.19c0,.91-.6,1.81-1.78,2.5Z"/>
            <path class="cls-33" d="M143.7,97.13c2.41,1.39,2.42,3.65,.03,5.04l-37.26,21.65c-2.39,1.39-6.28,1.39-8.69,0l-37.5-21.65c-2.41-1.39-2.43-3.64-.03-5.04l37.26-21.65c2.39-1.39,6.28-1.39,8.69,0l37.5,21.65Z"/>
          </g>
        </g>
        <g>
          <path class="cls-41" d="M149.46,80.13l-42.37,24.62c-2.72,1.58-7.15,1.58-9.88,0l-42.64-24.62c-1.38-.8-2.07-1.84-2.07-2.89l-.08,17.65c0,1.04,.69,2.09,2.07,2.89l42.64,24.62c2.74,1.58,7.16,1.58,9.88,0l42.37-24.62c1.35-.78,2.02-1.81,2.03-2.84l.08-17.65c0,1.03-.68,2.06-2.03,2.84Z"/>
          <path class="cls-34" d="M149.42,74.4c2.74,1.58,2.75,4.15,.04,5.73l-42.37,24.62c-2.72,1.58-7.15,1.58-9.88,0l-42.64-24.62c-2.74-1.58-2.76-4.14-.04-5.73l42.37-24.62c2.72-1.58,7.15-1.58,9.88,0l42.64,24.62Z"/>
        </g>
        <g>
          <path class="cls-32" d="M114.44,107.9c0,1-.71,2.23-1.58,2.73-.87,.51-1.58,.1-1.58-.9s.71-2.23,1.58-2.73c.87-.5,1.58-.1,1.58,.9Z"/>
          <path class="cls-42" d="M123.75,103.16c0,1-.71,2.23-1.58,2.73-.87,.5-1.58,.1-1.58-.9s.71-2.23,1.58-2.73c.87-.5,1.58-.1,1.58,.9Z"/>
          <path class="cls-43" d="M133.05,98.42c0,1-.71,2.23-1.58,2.73s-1.58,.1-1.58-.9,.71-2.23,1.58-2.73c.87-.51,1.58-.1,1.58,.9Z"/>
          <path class="cls-45" d="M142.36,93.67c0,1-.71,2.23-1.58,2.73-.87,.5-1.58,.1-1.58-.9s.71-2.23,1.58-2.73c.87-.5,1.58-.1,1.58,.9Z"/>
        </g>
      </g>
    </g>
    <g>
      <g class="cls-48">
        <polygon class="cls-47" points="132 71.83 131.98 78.04 102.04 95.43 102.06 89.23 132 71.83"/>
        <polygon class="cls-46" points="102.06 89.23 102.04 95.43 71.91 78.04 71.92 71.83 102.06 89.23"/>
        <polygon class="cls-2" points="132 71.83 102.06 89.23 71.92 71.83 101.86 54.43 132 71.83"/>
      </g>
      <g>
        <path class="cls-44" d="M114.13,79.24c-6.69,3.86-17.56,3.84-24.29-.04-6.73-3.88-6.76-10.16-.08-14.02,6.69-3.86,17.56-3.84,24.29,.04,6.73,3.88,6.76,10.16,.08,14.02Z"/>
        <g>
          <path class="cls-38" d="M117.44,67.98c-.77-.92-1.79-1.8-3.08-2.58-1.85,3.62-4.64,6.85-12.41,6.81,7.39,1.38,11.7-1.11,15.49-4.23Z"/>
          <path class="cls-36" d="M86.46,76.43c.77,.93,1.8,1.8,3.09,2.58,1.88-3.66,4.63-6.78,12.4-6.81-7.34-1.45-11.75,1.14-15.49,4.23Z"/>
          <path class="cls-40" d="M108.47,63.06c-1.68-.4-3.45-.65-5.23-.73,2.53,3.44,4.38,7-1.29,9.88,7.01-1.71,7.1-5.42,6.52-9.15Z"/>
          <path class="cls-37" d="M101.95,72.21h0c-7.01,2.04-7.13,5.31-6.52,9.15,1.68,.4,3.45,.65,5.23,.73-2.61-3.53-4.2-6.69,1.29-9.88h0Z"/>
          <path class="cls-35" d="M94.53,63.24c-1.6,.44-3.1,1.02-4.45,1.76,6.28,1.09,11.9,2.72,11.87,7.21h0c2.47-4.23-2.05-6.79-7.42-8.97Z"/>
          <path class="cls-39" d="M101.95,72.21h0c-2.35,4.26,2,6.76,7.42,8.97,1.6-.44,3.1-1.03,4.45-1.76-6.35-1.11-11.77-2.72-11.87-7.2Z"/>
          <path class="cls-12" d="M101.95,72.21c-3.01-4.06-9.43-4.14-15.89-3.82-.69,.97-1.1,1.99-1.23,3.02,5.94-1.44,12.09-2.49,17.12,.81h0s0,0,0,0h0Z"/>
          <path class="cls-11" d="M117.84,76.03c.69-.97,1.1-1.99,1.23-3.02-6.1,1.49-11.56,2.38-17.12-.81,3.58,4.06,9.24,4.15,15.89,3.82Z"/>
        </g>
      </g>
    </g>
  </g>
  <g>
    <path class="cls-14" d="M350.7,107.96c-.58-.34-1.38-.29-2.27,.22l-28.93,16.7c-1.76,1.02-3.18,3.47-3.17,5.49l.16,68.68c0,1,.36,1.71,.93,2.04l4.25,2.1c-.57-.33-.93-1.04-.93-2.04l-.16-68.69c0-2.02,1.41-4.47,3.17-5.49l28.93-16.7c.89-.51,1.69-.56,2.27-.22l-4.25-2.1Z"/>
    <g>
      <path class="cls-13" d="M352.69,110.29c1.76-1.02,3.19-.2,3.19,1.81l.16,68.68c0,2.02-1.41,4.48-3.17,5.5l-28.93,16.7c-1.76,1.02-3.19,.2-3.19-1.82l-.16-68.68c0-2.02,1.41-4.47,3.17-5.49l28.93-16.7Z"/>
      <path class="cls-17" d="M354.48,112.11c0-.2-.03-.85-.36-.85-.11,0-.35,.03-.73,.25l-8.19,4.73v2.27l-14.39,8.31v-2.27l-6.35,3.67c-1.32,.76-2.48,2.76-2.47,4.27l.16,68.68c0,.2,.03,.86,.36,.86,.11,0,.35-.03,.73-.25l28.93-16.7c1.32-.76,2.48-2.76,2.47-4.28l-.16-68.68Z"/>
      <path class="cls-15" d="M322.51,202.02c.11,0,.35-.03,.73-.25l28.93-16.7c1.32-.76,2.48-2.76,2.47-4.28l-.12-50.88-32.43,47.21,.06,24.04c0,.2,.03,.86,.36,.86Z"/>
    </g>
    <path class="cls-16" d="M343.62,118.1l-11.14,6.43c-.23,.13-.42,0-.42-.31h0c0-.31,.19-.66,.42-.79l11.14-6.43c.23-.13,.42,0,.42,.31h0c0,.31-.19,.66-.42,.79Z"/>
  </g>
</svg>