<?xml version="1.0" encoding="UTF-8"?>
<svg id="BACKGROUND" xmlns="http://www.w3.org/2000/svg" xmlns:xlink="http://www.w3.org/1999/xlink" viewBox="0 0 449.28 373.03">
  <defs>
    <style>
      .cls-1 {
        fill: url(#linear-gradient);
      }

      .cls-2 {
        fill: #fff;
      }

      .cls-3 {
        fill: url(#linear-gradient-8);
      }

      .cls-4 {
        fill: url(#linear-gradient-9);
      }

      .cls-5 {
        fill: url(#linear-gradient-3);
      }

      .cls-6 {
        fill: url(#linear-gradient-4);
      }

      .cls-7 {
        fill: url(#linear-gradient-2);
      }

      .cls-8 {
        fill: url(#linear-gradient-6);
      }

      .cls-9 {
        fill: url(#linear-gradient-7);
      }

      .cls-10 {
        fill: url(#linear-gradient-5);
      }

      .cls-11 {
        fill: url(#linear-gradient-59);
      }

      .cls-12 {
        fill: url(#linear-gradient-57);
      }

      .cls-13 {
        fill: url(#linear-gradient-58);
      }

      .cls-14 {
        fill: url(#linear-gradient-55);
      }

      .cls-15 {
        fill: url(#linear-gradient-56);
      }

      .cls-16 {
        fill: url(#linear-gradient-53);
      }

      .cls-17 {
        fill: url(#linear-gradient-54);
      }

      .cls-18 {
        fill: url(#linear-gradient-51);
      }

      .cls-19 {
        fill: url(#linear-gradient-52);
      }

      .cls-20 {
        fill: url(#linear-gradient-50);
      }

      .cls-21 {
        fill: url(#linear-gradient-77);
      }

      .cls-22 {
        fill: url(#linear-gradient-78);
      }

      .cls-23 {
        fill: url(#linear-gradient-79);
      }

      .cls-24 {
        fill: url(#linear-gradient-74);
      }

      .cls-25 {
        fill: url(#linear-gradient-75);
      }

      .cls-26 {
        fill: url(#linear-gradient-76);
      }

      .cls-27 {
        fill: url(#linear-gradient-70);
      }

      .cls-28 {
        fill: url(#linear-gradient-71);
      }

      .cls-29 {
        fill: url(#linear-gradient-72);
      }

      .cls-30 {
        fill: url(#linear-gradient-73);
      }

      .cls-31 {
        fill: url(#linear-gradient-68);
      }

      .cls-32 {
        fill: url(#linear-gradient-67);
      }

      .cls-33 {
        fill: url(#linear-gradient-69);
      }

      .cls-34 {
        fill: url(#linear-gradient-64);
      }

      .cls-35 {
        fill: url(#linear-gradient-63);
      }

      .cls-36 {
        fill: url(#linear-gradient-66);
      }

      .cls-37 {
        fill: url(#linear-gradient-65);
      }

      .cls-38 {
        fill: url(#linear-gradient-60);
      }

      .cls-39 {
        fill: url(#linear-gradient-62);
      }

      .cls-40 {
        fill: url(#linear-gradient-61);
      }

      .cls-41 {
        fill: url(#linear-gradient-98);
      }

      .cls-42 {
        fill: url(#linear-gradient-91);
      }

      .cls-43 {
        fill: url(#linear-gradient-95);
      }

      .cls-44 {
        fill: url(#linear-gradient-96);
      }

      .cls-45 {
        fill: url(#linear-gradient-97);
      }

      .cls-46 {
        fill: url(#linear-gradient-94);
      }

      .cls-47 {
        fill: url(#linear-gradient-92);
      }

      .cls-48 {
        fill: url(#linear-gradient-93);
      }

      .cls-49 {
        fill: url(#linear-gradient-90);
      }

      .cls-50 {
        fill: url(#linear-gradient-81);
      }

      .cls-51 {
        fill: url(#linear-gradient-80);
      }

      .cls-52 {
        fill: url(#linear-gradient-88);
      }

      .cls-53 {
        fill: url(#linear-gradient-89);
      }

      .cls-54 {
        fill: url(#linear-gradient-87);
      }

      .cls-55 {
        fill: url(#linear-gradient-86);
      }

      .cls-56 {
        fill: url(#linear-gradient-85);
      }

      .cls-57 {
        fill: url(#linear-gradient-84);
      }

      .cls-58 {
        fill: url(#linear-gradient-83);
      }

      .cls-59 {
        fill: url(#linear-gradient-82);
      }

      .cls-60 {
        fill: url(#linear-gradient-41);
      }

      .cls-61 {
        fill: url(#linear-gradient-40);
      }

      .cls-62 {
        fill: url(#linear-gradient-43);
      }

      .cls-63 {
        fill: url(#linear-gradient-42);
      }

      .cls-64 {
        fill: url(#linear-gradient-45);
      }

      .cls-65 {
        fill: url(#linear-gradient-46);
      }

      .cls-66 {
        fill: url(#linear-gradient-44);
      }

      .cls-67 {
        fill: url(#linear-gradient-49);
      }

      .cls-68 {
        fill: url(#linear-gradient-47);
      }

      .cls-69 {
        fill: url(#linear-gradient-48);
      }

      .cls-70 {
        fill: url(#linear-gradient-14);
      }

      .cls-71 {
        fill: url(#linear-gradient-18);
      }

      .cls-72 {
        fill: url(#linear-gradient-22);
      }

      .cls-73 {
        fill: url(#linear-gradient-20);
      }

      .cls-74 {
        fill: url(#linear-gradient-21);
      }

      .cls-75 {
        fill: url(#linear-gradient-23);
      }

      .cls-76 {
        fill: url(#linear-gradient-15);
      }

      .cls-77 {
        fill: url(#linear-gradient-19);
      }

      .cls-78 {
        fill: url(#linear-gradient-16);
      }

      .cls-79 {
        fill: url(#linear-gradient-17);
      }

      .cls-80 {
        fill: url(#linear-gradient-13);
      }

      .cls-81 {
        fill: url(#linear-gradient-12);
      }

      .cls-82 {
        fill: url(#linear-gradient-10);
      }

      .cls-83 {
        fill: url(#linear-gradient-11);
      }

      .cls-84 {
        fill: url(#linear-gradient-27);
      }

      .cls-85 {
        fill: url(#linear-gradient-24);
      }

      .cls-86 {
        fill: url(#linear-gradient-26);
      }

      .cls-87 {
        fill: url(#linear-gradient-38);
      }

      .cls-88 {
        fill: url(#linear-gradient-35);
      }

      .cls-89 {
        fill: url(#linear-gradient-37);
      }

      .cls-90 {
        fill: url(#linear-gradient-34);
      }

      .cls-91 {
        fill: url(#linear-gradient-39);
      }

      .cls-92 {
        fill: url(#linear-gradient-36);
      }

      .cls-93 {
        fill: url(#linear-gradient-25);
      }

      .cls-94 {
        fill: url(#linear-gradient-28);
      }

      .cls-95 {
        fill: url(#linear-gradient-29);
      }

      .cls-96 {
        fill: url(#linear-gradient-33);
      }

      .cls-97 {
        fill: url(#linear-gradient-30);
      }

      .cls-98 {
        fill: url(#linear-gradient-32);
      }

      .cls-99 {
        fill: url(#linear-gradient-31);
      }

      .cls-100 {
        isolation: isolate;
      }
    </style>
    <linearGradient id="linear-gradient" x1="183.12" y1="67.12" x2="227.47" y2="111.48" gradientUnits="userSpaceOnUse">
      <stop offset=".04" stop-color="#e3ebff"/>
      <stop offset="1" stop-color="#978ef0"/>
    </linearGradient>
    <linearGradient id="linear-gradient-2" x1="172.64" y1="85.85" x2="261.43" y2="85.85" gradientUnits="userSpaceOnUse">
      <stop offset="0" stop-color="#0763bd"/>
      <stop offset="1" stop-color="#172a7c"/>
    </linearGradient>
    <linearGradient id="linear-gradient-3" x1="190.31" y1="67.27" x2="256.19" y2="133.15" xlink:href="#linear-gradient"/>
    <linearGradient id="linear-gradient-4" x1="824.59" y1="760.57" x2="867.26" y2="760.57" gradientTransform="translate(-112.32 -553.36) rotate(-30) skewX(-49.11)" xlink:href="#linear-gradient-2"/>
    <linearGradient id="linear-gradient-5" x1="822.14" y1="756.33" x2="864.81" y2="756.33" gradientTransform="translate(-112.32 -553.36) rotate(-30) skewX(-49.11)" xlink:href="#linear-gradient-2"/>
    <linearGradient id="linear-gradient-6" x1="819.69" y1="752.09" x2="862.36" y2="752.09" gradientTransform="translate(-112.32 -553.36) rotate(-30) skewX(-49.11)" xlink:href="#linear-gradient-2"/>
    <linearGradient id="linear-gradient-7" x1="817.24" y1="747.84" x2="859.91" y2="747.84" gradientTransform="translate(-112.32 -553.36) rotate(-30) skewX(-49.11)" xlink:href="#linear-gradient-2"/>
    <linearGradient id="linear-gradient-8" x1="159.54" y1="74.04" x2="236.92" y2="151.42" xlink:href="#linear-gradient-2"/>
    <linearGradient id="linear-gradient-9" x1="157.15" y1="76.44" x2="234.52" y2="153.81" xlink:href="#linear-gradient-2"/>
    <linearGradient id="linear-gradient-10" x1="154.76" y1="78.83" x2="232.13" y2="156.2" xlink:href="#linear-gradient-2"/>
    <linearGradient id="linear-gradient-11" x1="152.36" y1="81.23" x2="229.73" y2="158.6" xlink:href="#linear-gradient-2"/>
    <linearGradient id="linear-gradient-12" x1="205.34" y1="64.48" x2="256.02" y2="115.16" gradientUnits="userSpaceOnUse">
      <stop offset="0" stop-color="#ffe30b"/>
      <stop offset="1" stop-color="#ff712f"/>
    </linearGradient>
    <linearGradient id="linear-gradient-13" x1="147.25" y1="37.93" x2="213.51" y2="104.19" xlink:href="#linear-gradient-12"/>
    <linearGradient id="linear-gradient-14" x1="221.88" y1="79.59" x2="303.76" y2="79.59" xlink:href="#linear-gradient"/>
    <linearGradient id="linear-gradient-15" x1="230.32" y1="11.32" x2="251.76" y2="11.32" xlink:href="#linear-gradient-2"/>
    <linearGradient id="linear-gradient-16" x1="214.23" y1="11.79" x2="237.43" y2="11.79" xlink:href="#linear-gradient-2"/>
    <linearGradient id="linear-gradient-17" x1="173.75" y1="52.98" x2="194.05" y2="52.98" xlink:href="#linear-gradient-2"/>
    <linearGradient id="linear-gradient-18" x1="183.67" y1="23.17" x2="219.91" y2="23.17" xlink:href="#linear-gradient-2"/>
    <linearGradient id="linear-gradient-19" x1="254.88" y1="-62.69" x2="219.96" y2="39.59" xlink:href="#linear-gradient"/>
    <linearGradient id="linear-gradient-20" x1="226.25" y1="44.16" x2="236.76" y2="44.16" xlink:href="#linear-gradient-12"/>
    <linearGradient id="linear-gradient-21" x1="216.21" y1="-3.28" x2="216.21" y2="48.75" xlink:href="#linear-gradient-12"/>
    <linearGradient id="linear-gradient-22" x1="221.5" y1="12.72" x2="221.5" y2="197.15" xlink:href="#linear-gradient-12"/>
    <linearGradient id="linear-gradient-23" x1="52.79" y1="316.98" x2="156.1" y2="316.98" xlink:href="#linear-gradient"/>
    <linearGradient id="linear-gradient-24" x1="91.52" y1="333.85" x2="156.1" y2="333.85" xlink:href="#linear-gradient-2"/>
    <linearGradient id="linear-gradient-25" x1="52.76" y1="341.41" x2="91.55" y2="341.41" xlink:href="#linear-gradient-2"/>
    <linearGradient id="linear-gradient-26" x1="283.5" y1="983.75" x2="290.09" y2="990.34" gradientTransform="translate(-153.34 -650.64) rotate(-30) skewX(-30)" xlink:href="#linear-gradient-12"/>
    <linearGradient id="linear-gradient-27" x1="286.33" y1="983.75" x2="292.92" y2="990.34" gradientTransform="translate(-153.34 -650.64) rotate(-30) skewX(-30)" xlink:href="#linear-gradient-12"/>
    <linearGradient id="linear-gradient-28" x1="289.17" y1="983.75" x2="295.76" y2="990.34" gradientTransform="translate(-153.34 -650.64) rotate(-30) skewX(-30)" xlink:href="#linear-gradient-12"/>
    <linearGradient id="linear-gradient-29" x1="292" y1="983.75" x2="298.59" y2="990.34" gradientTransform="translate(-153.34 -650.64) rotate(-30) skewX(-30)" xlink:href="#linear-gradient-12"/>
    <linearGradient id="linear-gradient-30" x1="283.5" y1="985.67" x2="290.09" y2="992.26" gradientTransform="translate(-153.34 -650.64) rotate(-30) skewX(-30)" xlink:href="#linear-gradient-12"/>
    <linearGradient id="linear-gradient-31" x1="286.33" y1="985.67" x2="292.92" y2="992.26" gradientTransform="translate(-153.34 -650.64) rotate(-30) skewX(-30)" xlink:href="#linear-gradient-12"/>
    <linearGradient id="linear-gradient-32" x1="289.17" y1="985.67" x2="295.76" y2="992.26" gradientTransform="translate(-153.34 -650.64) rotate(-30) skewX(-30)" xlink:href="#linear-gradient-12"/>
    <linearGradient id="linear-gradient-33" x1="292" y1="985.67" x2="298.59" y2="992.26" gradientTransform="translate(-153.34 -650.64) rotate(-30) skewX(-30)" xlink:href="#linear-gradient-12"/>
    <linearGradient id="linear-gradient-34" x1="283.5" y1="987.58" x2="290.09" y2="994.17" gradientTransform="translate(-153.34 -650.64) rotate(-30) skewX(-30)" xlink:href="#linear-gradient-12"/>
    <linearGradient id="linear-gradient-35" x1="286.33" y1="987.58" x2="292.92" y2="994.17" gradientTransform="translate(-153.34 -650.64) rotate(-30) skewX(-30)" xlink:href="#linear-gradient-12"/>
    <linearGradient id="linear-gradient-36" x1="289.17" y1="987.58" x2="295.76" y2="994.17" gradientTransform="translate(-153.34 -650.64) rotate(-30) skewX(-30)" xlink:href="#linear-gradient-12"/>
    <linearGradient id="linear-gradient-37" x1="292" y1="987.58" x2="298.59" y2="994.17" gradientTransform="translate(-153.34 -650.64) rotate(-30) skewX(-30)" xlink:href="#linear-gradient-12"/>
    <linearGradient id="linear-gradient-38" x1="52.79" y1="304.01" x2="156.1" y2="304.01" xlink:href="#linear-gradient"/>
    <linearGradient id="linear-gradient-39" x1="91.52" y1="320.88" x2="156.1" y2="320.88" xlink:href="#linear-gradient-2"/>
    <linearGradient id="linear-gradient-40" x1="52.76" y1="328.44" x2="91.55" y2="328.44" xlink:href="#linear-gradient-2"/>
    <linearGradient id="linear-gradient-41" x1="283.5" y1="972.52" x2="290.09" y2="979.11" gradientTransform="translate(-153.34 -650.64) rotate(-30) skewX(-30)" xlink:href="#linear-gradient-12"/>
    <linearGradient id="linear-gradient-42" x1="286.33" y1="972.52" x2="292.92" y2="979.11" gradientTransform="translate(-153.34 -650.64) rotate(-30) skewX(-30)" xlink:href="#linear-gradient-12"/>
    <linearGradient id="linear-gradient-43" x1="289.17" y1="972.52" x2="295.76" y2="979.11" gradientTransform="translate(-153.34 -650.64) rotate(-30) skewX(-30)" xlink:href="#linear-gradient-12"/>
    <linearGradient id="linear-gradient-44" x1="292" y1="972.52" x2="298.59" y2="979.11" gradientTransform="translate(-153.34 -650.64) rotate(-30) skewX(-30)" xlink:href="#linear-gradient-12"/>
    <linearGradient id="linear-gradient-45" x1="283.5" y1="974.44" x2="290.09" y2="981.02" gradientTransform="translate(-153.34 -650.64) rotate(-30) skewX(-30)" xlink:href="#linear-gradient-12"/>
    <linearGradient id="linear-gradient-46" x1="286.33" y1="974.44" x2="292.92" y2="981.02" gradientTransform="translate(-153.34 -650.64) rotate(-30) skewX(-30)" xlink:href="#linear-gradient-12"/>
    <linearGradient id="linear-gradient-47" x1="289.17" y1="974.44" x2="295.76" y2="981.02" gradientTransform="translate(-153.34 -650.64) rotate(-30) skewX(-30)" xlink:href="#linear-gradient-12"/>
    <linearGradient id="linear-gradient-48" x1="292" y1="974.44" x2="298.59" y2="981.02" gradientTransform="translate(-153.34 -650.64) rotate(-30) skewX(-30)" xlink:href="#linear-gradient-12"/>
    <linearGradient id="linear-gradient-49" x1="283.5" y1="976.35" x2="290.09" y2="982.94" gradientTransform="translate(-153.34 -650.64) rotate(-30) skewX(-30)" xlink:href="#linear-gradient-12"/>
    <linearGradient id="linear-gradient-50" x1="286.33" y1="976.35" x2="292.92" y2="982.94" gradientTransform="translate(-153.34 -650.64) rotate(-30) skewX(-30)" xlink:href="#linear-gradient-12"/>
    <linearGradient id="linear-gradient-51" x1="289.17" y1="976.35" x2="295.76" y2="982.94" gradientTransform="translate(-153.34 -650.64) rotate(-30) skewX(-30)" xlink:href="#linear-gradient-12"/>
    <linearGradient id="linear-gradient-52" x1="292" y1="976.35" x2="298.59" y2="982.94" gradientTransform="translate(-153.34 -650.64) rotate(-30) skewX(-30)" xlink:href="#linear-gradient-12"/>
    <linearGradient id="linear-gradient-53" x1="52.79" y1="291.04" x2="156.1" y2="291.04" xlink:href="#linear-gradient"/>
    <linearGradient id="linear-gradient-54" x1="91.52" y1="307.91" x2="156.1" y2="307.91" xlink:href="#linear-gradient-2"/>
    <linearGradient id="linear-gradient-55" x1="52.76" y1="315.47" x2="91.55" y2="315.47" xlink:href="#linear-gradient-2"/>
    <linearGradient id="linear-gradient-56" x1="283.5" y1="961.29" x2="290.09" y2="967.88" gradientTransform="translate(-153.34 -650.64) rotate(-30) skewX(-30)" xlink:href="#linear-gradient-12"/>
    <linearGradient id="linear-gradient-57" x1="286.33" y1="961.29" x2="292.92" y2="967.88" gradientTransform="translate(-153.34 -650.64) rotate(-30) skewX(-30)" xlink:href="#linear-gradient-12"/>
    <linearGradient id="linear-gradient-58" x1="289.17" y1="961.29" x2="295.76" y2="967.88" gradientTransform="translate(-153.34 -650.64) rotate(-30) skewX(-30)" xlink:href="#linear-gradient-12"/>
    <linearGradient id="linear-gradient-59" x1="292" y1="961.29" x2="298.59" y2="967.88" gradientTransform="translate(-153.34 -650.64) rotate(-30) skewX(-30)" xlink:href="#linear-gradient-12"/>
    <linearGradient id="linear-gradient-60" x1="283.5" y1="963.2" x2="290.09" y2="969.79" gradientTransform="translate(-153.34 -650.64) rotate(-30) skewX(-30)" xlink:href="#linear-gradient-12"/>
    <linearGradient id="linear-gradient-61" x1="286.33" y1="963.2" x2="292.92" y2="969.79" gradientTransform="translate(-153.34 -650.64) rotate(-30) skewX(-30)" xlink:href="#linear-gradient-12"/>
    <linearGradient id="linear-gradient-62" x1="289.17" y1="963.2" x2="295.76" y2="969.79" gradientTransform="translate(-153.34 -650.64) rotate(-30) skewX(-30)" xlink:href="#linear-gradient-12"/>
    <linearGradient id="linear-gradient-63" x1="292" y1="963.2" x2="298.59" y2="969.79" gradientTransform="translate(-153.34 -650.64) rotate(-30) skewX(-30)" xlink:href="#linear-gradient-12"/>
    <linearGradient id="linear-gradient-64" x1="283.5" y1="965.12" x2="290.09" y2="971.71" gradientTransform="translate(-153.34 -650.64) rotate(-30) skewX(-30)" xlink:href="#linear-gradient-12"/>
    <linearGradient id="linear-gradient-65" x1="286.33" y1="965.12" x2="292.92" y2="971.71" gradientTransform="translate(-153.34 -650.64) rotate(-30) skewX(-30)" xlink:href="#linear-gradient-12"/>
    <linearGradient id="linear-gradient-66" x1="289.17" y1="965.12" x2="295.76" y2="971.71" gradientTransform="translate(-153.34 -650.64) rotate(-30) skewX(-30)" xlink:href="#linear-gradient-12"/>
    <linearGradient id="linear-gradient-67" x1="292" y1="965.12" x2="298.59" y2="971.71" gradientTransform="translate(-153.34 -650.64) rotate(-30) skewX(-30)" xlink:href="#linear-gradient-12"/>
    <linearGradient id="linear-gradient-68" x1="105.07" y1="291.65" x2="108.69" y2="291.65" xlink:href="#linear-gradient-2"/>
    <linearGradient id="linear-gradient-69" x1="77.49" y1="291.65" x2="81.14" y2="291.65" xlink:href="#linear-gradient-2"/>
    <linearGradient id="linear-gradient-70" x1="87.1" y1="295.37" x2="99.16" y2="295.37" xlink:href="#linear-gradient-2"/>
    <linearGradient id="linear-gradient-71" x1="105.11" y1="299.81" x2="112.67" y2="299.81" xlink:href="#linear-gradient-2"/>
    <linearGradient id="linear-gradient-72" x1="73.58" y1="298.35" x2="81.19" y2="298.35" xlink:href="#linear-gradient-2"/>
    <linearGradient id="linear-gradient-73" x1="77.57" y1="306.23" x2="108.76" y2="306.23" xlink:href="#linear-gradient-2"/>
    <linearGradient id="linear-gradient-74" x1="73.6" y1="294.6" x2="112.67" y2="294.6" xlink:href="#linear-gradient-12"/>
    <linearGradient id="linear-gradient-75" x1="128.1" y1="272.38" x2="131.02" y2="272.38" xlink:href="#linear-gradient-2"/>
    <linearGradient id="linear-gradient-76" x1="105.88" y1="272.38" x2="108.82" y2="272.38" xlink:href="#linear-gradient-2"/>
    <linearGradient id="linear-gradient-77" x1="113.62" y1="275.37" x2="123.34" y2="275.37" xlink:href="#linear-gradient-2"/>
    <linearGradient id="linear-gradient-78" x1="128.13" y1="278.95" x2="134.23" y2="278.95" xlink:href="#linear-gradient-2"/>
    <linearGradient id="linear-gradient-79" x1="102.73" y1="277.77" x2="108.86" y2="277.77" xlink:href="#linear-gradient-2"/>
    <linearGradient id="linear-gradient-80" x1="105.94" y1="284.12" x2="131.08" y2="284.12" xlink:href="#linear-gradient-2"/>
    <linearGradient id="linear-gradient-81" x1="102.74" y1="274.75" x2="134.23" y2="274.75" xlink:href="#linear-gradient-12"/>
    <linearGradient id="linear-gradient-82" x1="120.58" y1="228.61" x2="129.86" y2="228.61" xlink:href="#linear-gradient-2"/>
    <linearGradient id="linear-gradient-83" x1="102.13" y1="226.95" x2="122.32" y2="226.95" xlink:href="#linear-gradient-2"/>
    <linearGradient id="linear-gradient-84" x1="74.07" y1="269.96" x2="95.11" y2="269.96" xlink:href="#linear-gradient-2"/>
    <linearGradient id="linear-gradient-85" x1="109.26" y1="221.29" x2="88.03" y2="242.53" xlink:href="#linear-gradient-2"/>
    <linearGradient id="linear-gradient-86" x1="81.55" y1="235.88" x2="104.22" y2="235.88" xlink:href="#linear-gradient-2"/>
    <linearGradient id="linear-gradient-87" x1="78.66" y1="254.88" x2="129.86" y2="254.88" xlink:href="#linear-gradient-2"/>
    <linearGradient id="linear-gradient-88" x1="84.97" y1="256.13" x2="124.96" y2="256.13" xlink:href="#linear-gradient"/>
    <linearGradient id="linear-gradient-89" x1="352.86" y1="176.38" x2="352.86" y2="220.66" xlink:href="#linear-gradient"/>
    <linearGradient id="linear-gradient-90" x1="354.56" y1="184.85" x2="354.56" y2="273.66" xlink:href="#linear-gradient"/>
    <linearGradient id="linear-gradient-91" x1="385.04" y1="158.45" x2="385.04" y2="202.72" xlink:href="#linear-gradient"/>
    <linearGradient id="linear-gradient-92" x1="386.74" y1="166.91" x2="386.74" y2="255.73" xlink:href="#linear-gradient"/>
    <linearGradient id="linear-gradient-93" x1="342.59" y1="263.08" x2="442.2" y2="263.08" xlink:href="#linear-gradient-2"/>
    <linearGradient id="linear-gradient-94" x1="342.64" y1="243.54" x2="442.2" y2="243.54" xlink:href="#linear-gradient"/>
    <linearGradient id="linear-gradient-95" x1="372.3" y1="246.82" x2="415.3" y2="289.82" xlink:href="#linear-gradient-12"/>
    <linearGradient id="linear-gradient-96" x1="380.54" y1="238.58" x2="423.54" y2="281.58" xlink:href="#linear-gradient-12"/>
    <linearGradient id="linear-gradient-97" x1="388.77" y1="230.34" x2="431.78" y2="273.34" xlink:href="#linear-gradient-12"/>
    <linearGradient id="linear-gradient-98" x1="397.02" y1="222.1" x2="440.02" y2="265.1" xlink:href="#linear-gradient-12"/>
  </defs>
  <g>
    <g>
      <path class="cls-1" d="M260.48,87.19l-41,23.83c-1.27,.74-3.33,.74-4.6,0l-41.28-23.83c-.64-.37-.96-.86-.96-1.34l-.08,29.78c0,.49,.32,.97,.96,1.34l41.28,23.83c1.27,.74,3.33,.74,4.6,0l41-23.83c.63-.37,.94-.84,.94-1.32l.08-29.78c0,.48-.32,.96-.94,1.32Z"/>
      <path class="cls-7" d="M260.47,84.52c1.27,.74,1.28,1.93,.01,2.67l-41,23.83c-1.27,.74-3.33,.74-4.6,0l-41.28-23.83c-1.27-.74-1.28-1.93-.01-2.67l41-23.83c1.27-.74,3.33-.74,4.6,0l41.28,23.83Z"/>
      <path class="cls-5" d="M173.52,102.59l41.28,23.83c1.27,.74,3.33,.74,4.6,0l41-23.83c.63-.37,.94-.84,.94-1.32l.04-15.15c-.09,.39-.38,.77-.9,1.08l-41,23.83c-1.27,.74-3.33,.74-4.6,0l-41.28-23.83c-.64-.37-.96-.86-.96-1.34l-.04,15.65c.09,.4,.39,.79,.92,1.1Z"/>
      <g>
        <path class="cls-6" d="M257.78,111.97l-35.63,20.57c-.32,.18-.57-.01-.57-.43h0c0-.42,.26-.91,.57-1.09l35.63-20.57c.32-.18,.57,.01,.57,.43h0c0,.42-.26,.91-.57,1.09Z"/>
        <path class="cls-10" d="M257.78,107.07l-35.63,20.57c-.32,.18-.57-.01-.57-.43h0c0-.42,.26-.91,.57-1.09l35.63-20.57c.32-.18,.57,.01,.57,.43h0c0,.42-.26,.91-.57,1.09Z"/>
        <path class="cls-8" d="M257.78,102.17l-35.63,20.57c-.32,.18-.57-.01-.57-.43h0c0-.42,.26-.91,.57-1.09l35.63-20.57c.32-.18,.57,.01,.57,.43h0c0,.42-.26,.91-.57,1.09Z"/>
        <path class="cls-9" d="M257.78,97.27l-35.63,20.57c-.32,.18-.57-.01-.57-.43h0c0-.42,.26-.91,.57-1.09l35.63-20.57c.32-.18,.57,.01,.57,.43h0c0,.42-.26,.91-.57,1.09Z"/>
      </g>
      <g>
        <path class="cls-3" d="M206.79,122c0,1.05,.74,2.34,1.66,2.87,.92,.53,1.66,.11,1.66-.95s-.74-2.34-1.66-2.87c-.92-.53-1.66-.11-1.66,.95Z"/>
        <path class="cls-4" d="M197.02,117.01c0,1.05,.74,2.34,1.66,2.87,.92,.53,1.66,.11,1.66-.95s-.74-2.34-1.66-2.87c-.92-.53-1.66-.11-1.66,.95Z"/>
        <path class="cls-82" d="M187.25,112.03c0,1.05,.74,2.34,1.66,2.87,.92,.53,1.66,.11,1.66-.95s-.74-2.34-1.66-2.87c-.92-.53-1.66-.11-1.66,.95Z"/>
        <path class="cls-83" d="M177.48,107.05c0,1.05,.74,2.34,1.66,2.87,.92,.53,1.66,.11,1.66-.95s-.74-2.34-1.66-2.87c-.92-.53-1.66-.11-1.66,.95Z"/>
      </g>
      <g class="cls-100">
        <polygon class="cls-81" points="248.57 79.59 248.56 86.11 217.11 104.38 217.13 97.86 248.57 79.59"/>
        <polygon class="cls-80" points="217.13 97.86 217.11 104.38 185.47 86.11 185.49 79.59 217.13 97.86"/>
        <polygon class="cls-70" points="248.57 79.59 217.13 97.86 185.49 79.59 216.93 61.32 248.57 79.59"/>
      </g>
    </g>
    <g>
      <g class="cls-100">
        <path class="cls-76" d="M241.84,7.24l9.92,5.76c-2.13-1.24-5.08-1.06-8.33,.82-1.11,.64-2.18,1.44-3.2,2.36l-9.92-5.76c1.02-.92,2.09-1.72,3.2-2.36,3.25-1.88,6.2-2.05,8.33-.82Z"/>
        <path class="cls-78" d="M227.51,6.82l9.92,5.76c-2.13-1.24-5.07-1.06-8.32,.82-1.77,1.02-3.45,2.45-4.96,4.14l-9.92-5.76c1.51-1.68,3.19-3.11,4.96-4.14,3.25-1.88,6.2-2.05,8.32-.82Z"/>
        <path class="cls-79" d="M187.08,69.31l-9.92-5.76c-2.1-1.22-3.41-3.82-3.42-7.51-.02-6.93,4.52-15.26,10.38-19.38l9.92,5.76c-5.86,4.12-10.4,12.46-10.38,19.38,.01,3.69,1.31,6.29,3.42,7.51Z"/>
        <path class="cls-71" d="M209.99,4.96c-2.8-1.63-6.68-1.4-10.96,1.07-8.51,4.92-15.39,16.83-15.36,26.61,0,1.47,.17,2.81,.47,4.01l9.92,5.76c-.3-1.2-.46-2.53-.47-4.01-.03-9.78,6.85-21.7,15.36-26.61,4.28-2.47,8.16-2.7,10.96-1.07l-9.92-5.76Z"/>
        <path class="cls-77" d="M208.95,11.8c7.56-4.36,13.86-1.74,15.2,5.74,1.51-1.68,3.19-3.11,4.96-4.14,5.17-2.98,9.56-1.67,11.13,2.78,1.02-.92,2.09-1.72,3.2-2.36,6.47-3.73,11.72-.74,11.75,6.69,.02,7.43-5.2,16.48-11.67,20.21l-48.1,27.77c-6.46,3.73-11.72,.73-11.74-6.7-.02-6.93,4.52-15.26,10.38-19.38-.3-1.2-.46-2.53-.47-4.01-.03-9.78,6.85-21.7,15.36-26.61Z"/>
      </g>
      <g>
        <polygon class="cls-73" points="232.43 41.12 226.25 44.69 230.59 47.2 236.76 43.64 232.43 41.12"/>
        <polygon class="cls-74" points="230.52 23.06 226.19 20.54 208.01 31.04 208.08 55.18 201.91 58.74 206.24 61.26 212.41 57.7 212.35 33.55 230.52 23.06"/>
        <polygon class="cls-72" points="230.59 47.2 236.76 43.64 221.55 69.98 206.24 61.26 212.41 57.7 212.35 33.55 230.52 23.06 230.59 47.2"/>
      </g>
    </g>
  </g>
  <g>
    <g>
      <g>
        <g class="cls-100">
          <polygon class="cls-75" points="156.1 309.42 91.55 346.92 52.79 324.54 117.33 287.04 156.1 309.42"/>
          <polygon class="cls-85" points="156.1 309.42 156.06 320.77 91.52 358.28 91.55 346.92 156.1 309.42"/>
          <polygon class="cls-93" points="91.55 346.92 91.52 358.28 52.76 335.9 52.79 324.54 91.55 346.92"/>
        </g>
        <g>
          <g>
            <g>
              <polygon class="cls-2" points="108.46 341.63 107.04 342.45 107.04 340.82 108.46 340 108.46 341.63"/>
              <polygon class="cls-2" points="108.46 343.66 107.04 344.48 107.04 342.85 108.46 342.03 108.46 343.66"/>
              <polygon class="cls-2" points="108.46 345.7 107.04 346.52 107.04 344.89 108.46 344.07 108.46 345.7"/>
            </g>
            <g>
              <polygon class="cls-2" points="110.24 340.6 108.82 341.42 108.82 339.79 110.24 338.98 110.24 340.6"/>
              <polygon class="cls-2" points="110.24 342.64 108.82 343.46 108.82 341.83 110.24 341.01 110.24 342.64"/>
            </g>
            <g>
              <polygon class="cls-2" points="112.01 341.61 110.59 342.43 110.59 340.81 112.01 339.99 112.01 341.61"/>
              <polygon class="cls-2" points="112.01 343.65 110.59 344.47 110.59 342.84 112.01 342.02 112.01 343.65"/>
            </g>
            <g>
              <polygon class="cls-2" points="113.78 338.56 112.36 339.38 112.36 337.75 113.78 336.93 113.78 338.56"/>
              <polygon class="cls-2" points="113.78 340.59 112.36 341.41 112.36 339.78 113.78 338.96 113.78 340.59"/>
              <polygon class="cls-2" points="113.78 342.63 112.36 343.44 112.36 341.82 113.78 341 113.78 342.63"/>
            </g>
            <g>
              <polygon class="cls-2" points="115.56 337.53 114.14 338.35 114.14 336.72 115.56 335.9 115.56 337.53"/>
              <polygon class="cls-2" points="115.56 339.57 114.14 340.39 114.14 338.76 115.56 337.94 115.56 339.57"/>
              <polygon class="cls-2" points="115.56 341.6 114.14 342.42 114.14 340.79 115.56 339.97 115.56 341.6"/>
            </g>
            <g>
              <polygon class="cls-2" points="117.33 336.51 115.91 337.33 115.91 335.7 117.33 334.88 117.33 336.51"/>
              <polygon class="cls-2" points="117.33 340.58 115.91 341.4 115.91 339.77 117.33 338.95 117.33 340.58"/>
            </g>
            <g>
              <polygon class="cls-2" points="119.1 335.48 117.68 336.3 117.68 334.68 119.1 333.86 119.1 335.48"/>
              <polygon class="cls-2" points="119.1 337.52 117.68 338.34 117.68 336.71 119.1 335.89 119.1 337.52"/>
              <polygon class="cls-2" points="119.1 339.55 117.68 340.37 117.68 338.75 119.1 337.93 119.1 339.55"/>
            </g>
            <g>
              <polygon class="cls-2" points="120.88 334.46 119.46 335.28 119.46 333.65 120.88 332.83 120.88 334.46"/>
              <polygon class="cls-2" points="120.88 336.5 119.46 337.31 119.46 335.69 120.88 334.87 120.88 336.5"/>
              <polygon class="cls-2" points="120.88 338.53 119.46 339.35 119.46 337.72 120.88 336.9 120.88 338.53"/>
            </g>
            <g>
              <polygon class="cls-2" points="122.65 333.44 121.23 334.26 121.23 332.63 122.65 331.81 122.65 333.44"/>
              <polygon class="cls-2" points="122.65 335.47 121.23 336.29 121.23 334.66 122.65 333.84 122.65 335.47"/>
              <polygon class="cls-2" points="122.65 337.51 121.23 338.33 121.23 336.7 122.65 335.88 122.65 337.51"/>
            </g>
            <g>
              <polygon class="cls-2" points="124.42 332.41 123 333.23 123 331.6 124.42 330.79 124.42 332.41"/>
              <polygon class="cls-2" points="124.42 334.45 123 335.27 123 333.64 124.42 332.82 124.42 334.45"/>
              <polygon class="cls-2" points="124.42 336.48 123 337.3 123 335.67 124.42 334.86 124.42 336.48"/>
            </g>
            <g>
              <polygon class="cls-2" points="126.2 331.39 124.78 332.21 124.78 330.58 126.2 329.76 126.2 331.39"/>
              <polygon class="cls-2" points="126.2 333.42 124.78 334.24 124.78 332.62 126.2 331.8 126.2 333.42"/>
              <polygon class="cls-2" points="126.2 335.46 124.78 336.28 124.78 334.65 126.2 333.83 126.2 335.46"/>
            </g>
            <g>
              <polygon class="cls-2" points="127.97 330.37 126.55 331.18 126.55 329.56 127.97 328.74 127.97 330.37"/>
              <polygon class="cls-2" points="127.97 332.4 126.55 333.22 126.55 331.59 127.97 330.77 127.97 332.4"/>
            </g>
            <g>
              <polygon class="cls-2" points="129.74 329.34 128.32 330.16 128.32 328.53 129.74 327.71 129.74 329.34"/>
              <polygon class="cls-2" points="129.74 331.38 128.32 332.2 128.32 330.57 129.74 329.75 129.74 331.38"/>
              <polygon class="cls-2" points="129.74 333.41 128.32 334.23 128.32 332.6 129.74 331.78 129.74 333.41"/>
            </g>
            <g>
              <polygon class="cls-2" points="131.52 328.32 130.1 329.14 130.1 327.51 131.52 326.69 131.52 328.32"/>
              <polygon class="cls-2" points="131.52 330.35 130.1 331.17 130.1 329.54 131.52 328.73 131.52 330.35"/>
              <polygon class="cls-2" points="131.52 332.39 130.1 333.21 130.1 331.58 131.52 330.76 131.52 332.39"/>
            </g>
            <g>
              <polygon class="cls-2" points="133.29 327.29 131.87 328.11 131.87 326.49 133.29 325.67 133.29 327.29"/>
              <polygon class="cls-2" points="133.29 329.33 131.87 330.15 131.87 328.52 133.29 327.7 133.29 329.33"/>
              <polygon class="cls-2" points="133.29 331.36 131.87 332.18 131.87 330.56 133.29 329.74 133.29 331.36"/>
            </g>
            <g>
              <polygon class="cls-2" points="135.06 326.27 133.64 327.09 133.64 325.46 135.06 324.64 135.06 326.27"/>
              <polygon class="cls-2" points="135.06 328.31 133.64 329.12 133.64 327.5 135.06 326.68 135.06 328.31"/>
              <polygon class="cls-2" points="135.06 330.34 133.64 331.16 133.64 329.53 135.06 328.71 135.06 330.34"/>
            </g>
            <g>
              <polygon class="cls-2" points="136.83 325.25 135.42 326.07 135.42 324.44 136.83 323.62 136.83 325.25"/>
              <polygon class="cls-2" points="136.83 329.32 135.42 330.14 135.42 328.51 136.83 327.69 136.83 329.32"/>
            </g>
            <g>
              <polygon class="cls-2" points="138.61 324.22 137.19 325.04 137.19 323.41 138.61 322.6 138.61 324.22"/>
              <polygon class="cls-2" points="138.61 326.26 137.19 327.08 137.19 325.45 138.61 324.63 138.61 326.26"/>
              <polygon class="cls-2" points="138.61 328.29 137.19 329.11 137.19 327.48 138.61 326.66 138.61 328.29"/>
            </g>
            <g>
              <polygon class="cls-2" points="140.38 323.2 138.96 324.02 138.96 322.39 140.38 321.57 140.38 323.2"/>
              <polygon class="cls-2" points="140.38 325.23 138.96 326.05 138.96 324.43 140.38 323.61 140.38 325.23"/>
              <polygon class="cls-2" points="140.38 327.27 138.96 328.09 138.96 326.46 140.38 325.64 140.38 327.27"/>
            </g>
            <g>
              <polygon class="cls-2" points="142.15 322.18 140.74 322.99 140.74 321.37 142.15 320.55 142.15 322.18"/>
              <polygon class="cls-2" points="142.15 324.21 140.74 325.03 140.74 323.4 142.15 322.58 142.15 324.21"/>
            </g>
            <g>
              <polygon class="cls-2" points="143.93 323.19 142.51 324.01 142.51 322.38 143.93 321.56 143.93 323.19"/>
              <polygon class="cls-2" points="143.93 325.22 142.51 326.04 142.51 324.41 143.93 323.59 143.93 325.22"/>
            </g>
            <g>
              <polygon class="cls-2" points="145.7 320.13 144.28 320.95 144.28 319.32 145.7 318.5 145.7 320.13"/>
              <polygon class="cls-2" points="145.7 322.16 144.28 322.98 144.28 321.35 145.7 320.54 145.7 322.16"/>
              <polygon class="cls-2" points="145.7 324.2 144.28 325.02 144.28 323.39 145.7 322.57 145.7 324.2"/>
            </g>
            <g>
              <polygon class="cls-2" points="147.47 319.1 146.06 319.92 146.06 318.3 147.47 317.48 147.47 319.1"/>
              <polygon class="cls-2" points="147.47 321.14 146.06 321.96 146.06 320.33 147.47 319.51 147.47 321.14"/>
            </g>
            <g>
              <polygon class="cls-2" points="149.25 318.08 147.83 318.9 147.83 317.27 149.25 316.45 149.25 318.08"/>
              <polygon class="cls-2" points="149.25 320.12 147.83 320.93 147.83 319.31 149.25 318.49 149.25 320.12"/>
              <polygon class="cls-2" points="149.25 322.15 147.83 322.97 147.83 321.34 149.25 320.52 149.25 322.15"/>
            </g>
            <g>
              <polygon class="cls-2" points="151.02 317.06 149.6 317.88 149.6 316.25 151.02 315.43 151.02 317.06"/>
              <polygon class="cls-2" points="151.02 319.09 149.6 319.91 149.6 318.28 151.02 317.46 151.02 319.09"/>
              <polygon class="cls-2" points="151.02 321.13 149.6 321.95 149.6 320.32 151.02 319.5 151.02 321.13"/>
            </g>
          </g>
          <g>
            <g>
              <path class="cls-86" d="M97.13,346.58c-.35,.2-.63,.69-.63,1.09s.28,.56,.63,.36c.35-.2,.63-.69,.63-1.09s-.28-.56-.63-.36Z"/>
              <path class="cls-84" d="M99.58,345.16c-.35,.2-.63,.69-.63,1.09s.28,.56,.63,.36c.35-.2,.63-.69,.63-1.09s-.28-.56-.63-.36Z"/>
              <path class="cls-94" d="M102.04,343.74c-.35,.2-.63,.69-.63,1.09s.28,.56,.63,.36c.35-.2,.63-.69,.63-1.09s-.28-.56-.63-.36Z"/>
              <path class="cls-95" d="M104.49,342.32c-.35,.2-.63,.69-.63,1.09s.28,.56,.63,.36c.35-.2,.63-.69,.63-1.09s-.28-.56-.63-.36Z"/>
            </g>
            <g>
              <path class="cls-97" d="M97.13,348.79c-.35,.2-.63,.69-.63,1.09s.28,.56,.63,.36c.35-.2,.63-.69,.63-1.09s-.28-.56-.63-.36Z"/>
              <path class="cls-99" d="M99.58,347.37c-.35,.2-.63,.69-.63,1.09s.28,.56,.63,.36c.35-.2,.63-.69,.63-1.09s-.28-.56-.63-.36Z"/>
              <path class="cls-98" d="M102.04,345.95c-.35,.2-.63,.69-.63,1.09s.28,.56,.63,.36c.35-.2,.63-.69,.63-1.09s-.28-.56-.63-.36Z"/>
              <path class="cls-96" d="M104.49,344.53c-.35,.2-.63,.69-.63,1.09s.28,.56,.63,.36c.35-.2,.63-.69,.63-1.09s-.28-.56-.63-.36Z"/>
            </g>
            <g>
              <path class="cls-90" d="M97.13,351c-.35,.2-.63,.69-.63,1.09s.28,.56,.63,.36c.35-.2,.63-.69,.63-1.09s-.28-.56-.63-.36Z"/>
              <path class="cls-88" d="M99.58,349.58c-.35,.2-.63,.69-.63,1.09s.28,.56,.63,.36c.35-.2,.63-.69,.63-1.09s-.28-.56-.63-.36Z"/>
              <path class="cls-92" d="M102.04,348.16c-.35,.2-.63,.69-.63,1.09s.28,.56,.63,.36c.35-.2,.63-.69,.63-1.09s-.28-.56-.63-.36Z"/>
              <path class="cls-89" d="M104.49,346.74c-.35,.2-.63,.69-.63,1.09s.28,.56,.63,.36c.35-.2,.63-.69,.63-1.09s-.28-.56-.63-.36Z"/>
            </g>
          </g>
        </g>
      </g>
      <g>
        <g class="cls-100">
          <polygon class="cls-87" points="156.1 296.44 91.55 333.95 52.79 311.57 117.33 274.06 156.1 296.44"/>
          <polygon class="cls-91" points="156.1 296.44 156.06 307.8 91.52 345.31 91.55 333.95 156.1 296.44"/>
          <polygon class="cls-61" points="91.55 333.95 91.52 345.31 52.76 322.93 52.79 311.57 91.55 333.95"/>
        </g>
        <g>
          <g>
            <g>
              <polygon class="cls-2" points="108.46 328.66 107.04 329.48 107.04 327.85 108.46 327.03 108.46 328.66"/>
              <polygon class="cls-2" points="108.46 330.69 107.04 331.51 107.04 329.88 108.46 329.06 108.46 330.69"/>
              <polygon class="cls-2" points="108.46 332.73 107.04 333.55 107.04 331.92 108.46 331.1 108.46 332.73"/>
            </g>
            <g>
              <polygon class="cls-2" points="110.24 327.63 108.82 328.45 108.82 326.82 110.24 326 110.24 327.63"/>
              <polygon class="cls-2" points="110.24 329.67 108.82 330.49 108.82 328.86 110.24 328.04 110.24 329.67"/>
            </g>
            <g>
              <polygon class="cls-2" points="112.01 328.64 110.59 329.46 110.59 327.83 112.01 327.02 112.01 328.64"/>
              <polygon class="cls-2" points="112.01 330.68 110.59 331.5 110.59 329.87 112.01 329.05 112.01 330.68"/>
            </g>
            <g>
              <polygon class="cls-2" points="113.78 325.59 112.36 326.4 112.36 324.78 113.78 323.96 113.78 325.59"/>
              <polygon class="cls-2" points="113.78 327.62 112.36 328.44 112.36 326.81 113.78 325.99 113.78 327.62"/>
              <polygon class="cls-2" points="113.78 329.65 112.36 330.47 112.36 328.85 113.78 328.03 113.78 329.65"/>
            </g>
            <g>
              <polygon class="cls-2" points="115.56 324.56 114.14 325.38 114.14 323.75 115.56 322.93 115.56 324.56"/>
              <polygon class="cls-2" points="115.56 326.6 114.14 327.42 114.14 325.79 115.56 324.97 115.56 326.6"/>
              <polygon class="cls-2" points="115.56 328.63 114.14 329.45 114.14 327.82 115.56 327 115.56 328.63"/>
            </g>
            <g>
              <polygon class="cls-2" points="117.33 323.54 115.91 324.36 115.91 322.73 117.33 321.91 117.33 323.54"/>
              <polygon class="cls-2" points="117.33 327.61 115.91 328.43 115.91 326.8 117.33 325.98 117.33 327.61"/>
            </g>
            <g>
              <polygon class="cls-2" points="119.1 322.51 117.68 323.33 117.68 321.71 119.1 320.89 119.1 322.51"/>
              <polygon class="cls-2" points="119.1 324.55 117.68 325.37 117.68 323.74 119.1 322.92 119.1 324.55"/>
              <polygon class="cls-2" points="119.1 326.58 117.68 327.4 117.68 325.77 119.1 324.96 119.1 326.58"/>
            </g>
            <g>
              <polygon class="cls-2" points="120.88 321.49 119.46 322.31 119.46 320.68 120.88 319.86 120.88 321.49"/>
              <polygon class="cls-2" points="120.88 323.52 119.46 324.34 119.46 322.72 120.88 321.9 120.88 323.52"/>
              <polygon class="cls-2" points="120.88 325.56 119.46 326.38 119.46 324.75 120.88 323.93 120.88 325.56"/>
            </g>
            <g>
              <polygon class="cls-2" points="122.65 320.47 121.23 321.29 121.23 319.66 122.65 318.84 122.65 320.47"/>
              <polygon class="cls-2" points="122.65 322.5 121.23 323.32 121.23 321.69 122.65 320.87 122.65 322.5"/>
              <polygon class="cls-2" points="122.65 324.54 121.23 325.35 121.23 323.73 122.65 322.91 122.65 324.54"/>
            </g>
            <g>
              <polygon class="cls-2" points="124.42 319.44 123 320.26 123 318.63 124.42 317.81 124.42 319.44"/>
              <polygon class="cls-2" points="124.42 321.48 123 322.3 123 320.67 124.42 319.85 124.42 321.48"/>
              <polygon class="cls-2" points="124.42 323.51 123 324.33 123 322.7 124.42 321.88 124.42 323.51"/>
            </g>
            <g>
              <polygon class="cls-2" points="126.2 318.42 124.78 319.24 124.78 317.61 126.2 316.79 126.2 318.42"/>
              <polygon class="cls-2" points="126.2 320.45 124.78 321.27 124.78 319.64 126.2 318.83 126.2 320.45"/>
              <polygon class="cls-2" points="126.2 322.49 124.78 323.31 124.78 321.68 126.2 320.86 126.2 322.49"/>
            </g>
            <g>
              <polygon class="cls-2" points="127.97 317.4 126.55 318.21 126.55 316.59 127.97 315.77 127.97 317.4"/>
              <polygon class="cls-2" points="127.97 319.43 126.55 320.25 126.55 318.62 127.97 317.8 127.97 319.43"/>
            </g>
            <g>
              <polygon class="cls-2" points="129.74 316.37 128.32 317.19 128.32 315.56 129.74 314.74 129.74 316.37"/>
              <polygon class="cls-2" points="129.74 318.41 128.32 319.23 128.32 317.6 129.74 316.78 129.74 318.41"/>
              <polygon class="cls-2" points="129.74 320.44 128.32 321.26 128.32 319.63 129.74 318.81 129.74 320.44"/>
            </g>
            <g>
              <polygon class="cls-2" points="131.52 315.35 130.1 316.17 130.1 314.54 131.52 313.72 131.52 315.35"/>
              <polygon class="cls-2" points="131.52 317.38 130.1 318.2 130.1 316.57 131.52 315.75 131.52 317.38"/>
              <polygon class="cls-2" points="131.52 319.42 130.1 320.24 130.1 318.61 131.52 317.79 131.52 319.42"/>
            </g>
            <g>
              <polygon class="cls-2" points="133.29 314.32 131.87 315.14 131.87 313.51 133.29 312.7 133.29 314.32"/>
              <polygon class="cls-2" points="133.29 316.36 131.87 317.18 131.87 315.55 133.29 314.73 133.29 316.36"/>
              <polygon class="cls-2" points="133.29 318.39 131.87 319.21 131.87 317.58 133.29 316.77 133.29 318.39"/>
            </g>
            <g>
              <polygon class="cls-2" points="135.06 313.3 133.64 314.12 133.64 312.49 135.06 311.67 135.06 313.3"/>
              <polygon class="cls-2" points="135.06 315.33 133.64 316.15 133.64 314.53 135.06 313.71 135.06 315.33"/>
              <polygon class="cls-2" points="135.06 317.37 133.64 318.19 133.64 316.56 135.06 315.74 135.06 317.37"/>
            </g>
            <g>
              <polygon class="cls-2" points="136.83 312.28 135.42 313.1 135.42 311.47 136.83 310.65 136.83 312.28"/>
              <polygon class="cls-2" points="136.83 316.35 135.42 317.16 135.42 315.54 136.83 314.72 136.83 316.35"/>
            </g>
            <g>
              <polygon class="cls-2" points="138.61 311.25 137.19 312.07 137.19 310.44 138.61 309.62 138.61 311.25"/>
              <polygon class="cls-2" points="138.61 313.29 137.19 314.11 137.19 312.48 138.61 311.66 138.61 313.29"/>
              <polygon class="cls-2" points="138.61 315.32 137.19 316.14 137.19 314.51 138.61 313.69 138.61 315.32"/>
            </g>
            <g>
              <polygon class="cls-2" points="140.38 310.23 138.96 311.05 138.96 309.42 140.38 308.6 140.38 310.23"/>
              <polygon class="cls-2" points="140.38 312.26 138.96 313.08 138.96 311.45 140.38 310.64 140.38 312.26"/>
              <polygon class="cls-2" points="140.38 314.3 138.96 315.12 138.96 313.49 140.38 312.67 140.38 314.3"/>
            </g>
            <g>
              <polygon class="cls-2" points="142.15 309.2 140.74 310.02 140.74 308.4 142.15 307.58 142.15 309.2"/>
              <polygon class="cls-2" points="142.15 311.24 140.74 312.06 140.74 310.43 142.15 309.61 142.15 311.24"/>
            </g>
            <g>
              <polygon class="cls-2" points="143.93 310.22 142.51 311.03 142.51 309.41 143.93 308.59 143.93 310.22"/>
              <polygon class="cls-2" points="143.93 312.25 142.51 313.07 142.51 311.44 143.93 310.62 143.93 312.25"/>
            </g>
            <g>
              <polygon class="cls-2" points="145.7 307.16 144.28 307.98 144.28 306.35 145.7 305.53 145.7 307.16"/>
              <polygon class="cls-2" points="145.7 309.19 144.28 310.01 144.28 308.38 145.7 307.56 145.7 309.19"/>
              <polygon class="cls-2" points="145.7 311.23 144.28 312.05 144.28 310.42 145.7 309.6 145.7 311.23"/>
            </g>
            <g>
              <polygon class="cls-2" points="147.47 306.13 146.06 306.95 146.06 305.32 147.47 304.51 147.47 306.13"/>
              <polygon class="cls-2" points="147.47 308.17 146.06 308.99 146.06 307.36 147.47 306.54 147.47 308.17"/>
            </g>
            <g>
              <polygon class="cls-2" points="149.25 305.11 147.83 305.93 147.83 304.3 149.25 303.48 149.25 305.11"/>
              <polygon class="cls-2" points="149.25 307.14 147.83 307.96 147.83 306.34 149.25 305.52 149.25 307.14"/>
              <polygon class="cls-2" points="149.25 309.18 147.83 310 147.83 308.37 149.25 307.55 149.25 309.18"/>
            </g>
            <g>
              <polygon class="cls-2" points="151.02 304.09 149.6 304.91 149.6 303.28 151.02 302.46 151.02 304.09"/>
              <polygon class="cls-2" points="151.02 306.12 149.6 306.94 149.6 305.31 151.02 304.49 151.02 306.12"/>
              <polygon class="cls-2" points="151.02 308.16 149.6 308.97 149.6 307.35 151.02 306.53 151.02 308.16"/>
            </g>
          </g>
          <g>
            <g>
              <path class="cls-60" d="M97.13,333.61c-.35,.2-.63,.69-.63,1.09s.28,.56,.63,.36c.35-.2,.63-.69,.63-1.09s-.28-.56-.63-.36Z"/>
              <path class="cls-63" d="M99.58,332.19c-.35,.2-.63,.69-.63,1.09s.28,.56,.63,.36c.35-.2,.63-.69,.63-1.09s-.28-.56-.63-.36Z"/>
              <path class="cls-62" d="M102.04,330.77c-.35,.2-.63,.69-.63,1.09s.28,.56,.63,.36c.35-.2,.63-.69,.63-1.09s-.28-.56-.63-.36Z"/>
              <path class="cls-66" d="M104.49,329.35c-.35,.2-.63,.69-.63,1.09s.28,.56,.63,.36c.35-.2,.63-.69,.63-1.09s-.28-.56-.63-.36Z"/>
            </g>
            <g>
              <path class="cls-64" d="M97.13,335.82c-.35,.2-.63,.69-.63,1.09s.28,.56,.63,.36c.35-.2,.63-.69,.63-1.09s-.28-.56-.63-.36Z"/>
              <path class="cls-65" d="M99.58,334.4c-.35,.2-.63,.69-.63,1.09s.28,.56,.63,.36c.35-.2,.63-.69,.63-1.09s-.28-.56-.63-.36Z"/>
              <path class="cls-68" d="M102.04,332.98c-.35,.2-.63,.69-.63,1.09s.28,.56,.63,.36c.35-.2,.63-.69,.63-1.09s-.28-.56-.63-.36Z"/>
              <path class="cls-69" d="M104.49,331.56c-.35,.2-.63,.69-.63,1.09s.28,.56,.63,.36c.35-.2,.63-.69,.63-1.09s-.28-.56-.63-.36Z"/>
            </g>
            <g>
              <path class="cls-67" d="M97.13,338.03c-.35,.2-.63,.69-.63,1.09s.28,.56,.63,.36c.35-.2,.63-.69,.63-1.09s-.28-.56-.63-.36Z"/>
              <path class="cls-20" d="M99.58,336.61c-.35,.2-.63,.69-.63,1.09s.28,.56,.63,.36c.35-.2,.63-.69,.63-1.09s-.28-.56-.63-.36Z"/>
              <path class="cls-18" d="M102.04,335.19c-.35,.2-.63,.69-.63,1.09s.28,.56,.63,.36c.35-.2,.63-.69,.63-1.09s-.28-.56-.63-.36Z"/>
              <path class="cls-19" d="M104.49,333.77c-.35,.2-.63,.69-.63,1.09s.28,.56,.63,.36c.35-.2,.63-.69,.63-1.09s-.28-.56-.63-.36Z"/>
            </g>
          </g>
        </g>
      </g>
      <g>
        <g class="cls-100">
          <polygon class="cls-16" points="156.1 283.47 91.55 320.98 52.79 298.6 117.33 261.09 156.1 283.47"/>
          <polygon class="cls-17" points="156.1 283.47 156.06 294.83 91.52 332.34 91.55 320.98 156.1 283.47"/>
          <polygon class="cls-14" points="91.55 320.98 91.52 332.34 52.76 309.96 52.79 298.6 91.55 320.98"/>
        </g>
        <g>
          <g>
            <g>
              <polygon class="cls-2" points="108.46 315.69 107.04 316.5 107.04 314.88 108.46 314.06 108.46 315.69"/>
              <polygon class="cls-2" points="108.46 317.72 107.04 318.54 107.04 316.91 108.46 316.09 108.46 317.72"/>
              <polygon class="cls-2" points="108.46 319.76 107.04 320.57 107.04 318.95 108.46 318.13 108.46 319.76"/>
            </g>
            <g>
              <polygon class="cls-2" points="110.24 314.66 108.82 315.48 108.82 313.85 110.24 313.03 110.24 314.66"/>
              <polygon class="cls-2" points="110.24 316.7 108.82 317.52 108.82 315.89 110.24 315.07 110.24 316.7"/>
            </g>
            <g>
              <polygon class="cls-2" points="112.01 315.67 110.59 316.49 110.59 314.86 112.01 314.05 112.01 315.67"/>
              <polygon class="cls-2" points="112.01 317.71 110.59 318.53 110.59 316.9 112.01 316.08 112.01 317.71"/>
            </g>
            <g>
              <polygon class="cls-2" points="113.78 312.61 112.36 313.43 112.36 311.81 113.78 310.99 113.78 312.61"/>
              <polygon class="cls-2" points="113.78 314.65 112.36 315.47 112.36 313.84 113.78 313.02 113.78 314.65"/>
              <polygon class="cls-2" points="113.78 316.68 112.36 317.5 112.36 315.88 113.78 315.06 113.78 316.68"/>
            </g>
            <g>
              <polygon class="cls-2" points="115.56 311.59 114.14 312.41 114.14 310.78 115.56 309.96 115.56 311.59"/>
              <polygon class="cls-2" points="115.56 313.63 114.14 314.44 114.14 312.82 115.56 312 115.56 313.63"/>
              <polygon class="cls-2" points="115.56 315.66 114.14 316.48 114.14 314.85 115.56 314.03 115.56 315.66"/>
            </g>
            <g>
              <polygon class="cls-2" points="117.33 310.57 115.91 311.39 115.91 309.76 117.33 308.94 117.33 310.57"/>
              <polygon class="cls-2" points="117.33 314.64 115.91 315.46 115.91 313.83 117.33 313.01 117.33 314.64"/>
            </g>
            <g>
              <polygon class="cls-2" points="119.1 309.54 117.68 310.36 117.68 308.73 119.1 307.92 119.1 309.54"/>
              <polygon class="cls-2" points="119.1 311.58 117.68 312.4 117.68 310.77 119.1 309.95 119.1 311.58"/>
              <polygon class="cls-2" points="119.1 313.61 117.68 314.43 117.68 312.8 119.1 311.98 119.1 313.61"/>
            </g>
            <g>
              <polygon class="cls-2" points="120.88 308.52 119.46 309.34 119.46 307.71 120.88 306.89 120.88 308.52"/>
              <polygon class="cls-2" points="120.88 310.55 119.46 311.37 119.46 309.75 120.88 308.93 120.88 310.55"/>
              <polygon class="cls-2" points="120.88 312.59 119.46 313.41 119.46 311.78 120.88 310.96 120.88 312.59"/>
            </g>
            <g>
              <polygon class="cls-2" points="122.65 307.5 121.23 308.31 121.23 306.69 122.65 305.87 122.65 307.5"/>
              <polygon class="cls-2" points="122.65 309.53 121.23 310.35 121.23 308.72 122.65 307.9 122.65 309.53"/>
              <polygon class="cls-2" points="122.65 311.57 121.23 312.38 121.23 310.76 122.65 309.94 122.65 311.57"/>
            </g>
            <g>
              <polygon class="cls-2" points="124.42 306.47 123 307.29 123 305.66 124.42 304.84 124.42 306.47"/>
              <polygon class="cls-2" points="124.42 308.51 123 309.33 123 307.7 124.42 306.88 124.42 308.51"/>
              <polygon class="cls-2" points="124.42 310.54 123 311.36 123 309.73 124.42 308.91 124.42 310.54"/>
            </g>
            <g>
              <polygon class="cls-2" points="126.2 305.45 124.78 306.27 124.78 304.64 126.2 303.82 126.2 305.45"/>
              <polygon class="cls-2" points="126.2 307.48 124.78 308.3 124.78 306.67 126.2 305.85 126.2 307.48"/>
              <polygon class="cls-2" points="126.2 309.52 124.78 310.34 124.78 308.71 126.2 307.89 126.2 309.52"/>
            </g>
            <g>
              <polygon class="cls-2" points="127.97 304.42 126.55 305.24 126.55 303.62 127.97 302.8 127.97 304.42"/>
              <polygon class="cls-2" points="127.97 306.46 126.55 307.28 126.55 305.65 127.97 304.83 127.97 306.46"/>
            </g>
            <g>
              <polygon class="cls-2" points="129.74 303.4 128.32 304.22 128.32 302.59 129.74 301.77 129.74 303.4"/>
              <polygon class="cls-2" points="129.74 305.44 128.32 306.25 128.32 304.63 129.74 303.81 129.74 305.44"/>
              <polygon class="cls-2" points="129.74 307.47 128.32 308.29 128.32 306.66 129.74 305.84 129.74 307.47"/>
            </g>
            <g>
              <polygon class="cls-2" points="131.52 302.38 130.1 303.2 130.1 301.57 131.52 300.75 131.52 302.38"/>
              <polygon class="cls-2" points="131.52 304.41 130.1 305.23 130.1 303.6 131.52 302.78 131.52 304.41"/>
              <polygon class="cls-2" points="131.52 306.45 130.1 307.27 130.1 305.64 131.52 304.82 131.52 306.45"/>
            </g>
            <g>
              <polygon class="cls-2" points="133.29 301.35 131.87 302.17 131.87 300.54 133.29 299.73 133.29 301.35"/>
              <polygon class="cls-2" points="133.29 303.39 131.87 304.21 131.87 302.58 133.29 301.76 133.29 303.39"/>
              <polygon class="cls-2" points="133.29 305.42 131.87 306.24 131.87 304.61 133.29 303.79 133.29 305.42"/>
            </g>
            <g>
              <polygon class="cls-2" points="135.06 300.33 133.64 301.15 133.64 299.52 135.06 298.7 135.06 300.33"/>
              <polygon class="cls-2" points="135.06 302.36 133.64 303.18 133.64 301.56 135.06 300.74 135.06 302.36"/>
              <polygon class="cls-2" points="135.06 304.4 133.64 305.22 133.64 303.59 135.06 302.77 135.06 304.4"/>
            </g>
            <g>
              <polygon class="cls-2" points="136.83 299.31 135.42 300.12 135.42 298.5 136.83 297.68 136.83 299.31"/>
              <polygon class="cls-2" points="136.83 303.37 135.42 304.19 135.42 302.57 136.83 301.75 136.83 303.37"/>
            </g>
            <g>
              <polygon class="cls-2" points="138.61 298.28 137.19 299.1 137.19 297.47 138.61 296.65 138.61 298.28"/>
              <polygon class="cls-2" points="138.61 300.32 137.19 301.14 137.19 299.51 138.61 298.69 138.61 300.32"/>
              <polygon class="cls-2" points="138.61 302.35 137.19 303.17 137.19 301.54 138.61 300.72 138.61 302.35"/>
            </g>
            <g>
              <polygon class="cls-2" points="140.38 297.26 138.96 298.08 138.96 296.45 140.38 295.63 140.38 297.26"/>
              <polygon class="cls-2" points="140.38 299.29 138.96 300.11 138.96 298.48 140.38 297.66 140.38 299.29"/>
              <polygon class="cls-2" points="140.38 301.33 138.96 302.15 138.96 300.52 140.38 299.7 140.38 301.33"/>
            </g>
            <g>
              <polygon class="cls-2" points="142.15 296.23 140.74 297.05 140.74 295.43 142.15 294.61 142.15 296.23"/>
              <polygon class="cls-2" points="142.15 298.27 140.74 299.09 140.74 297.46 142.15 296.64 142.15 298.27"/>
            </g>
            <g>
              <polygon class="cls-2" points="143.93 297.25 142.51 298.06 142.51 296.44 143.93 295.62 143.93 297.25"/>
              <polygon class="cls-2" points="143.93 299.28 142.51 300.1 142.51 298.47 143.93 297.65 143.93 299.28"/>
            </g>
            <g>
              <polygon class="cls-2" points="145.7 294.19 144.28 295.01 144.28 293.38 145.7 292.56 145.7 294.19"/>
              <polygon class="cls-2" points="145.7 296.22 144.28 297.04 144.28 295.41 145.7 294.59 145.7 296.22"/>
              <polygon class="cls-2" points="145.7 298.26 144.28 299.08 144.28 297.45 145.7 296.63 145.7 298.26"/>
            </g>
            <g>
              <polygon class="cls-2" points="147.47 293.16 146.06 293.98 146.06 292.35 147.47 291.53 147.47 293.16"/>
              <polygon class="cls-2" points="147.47 295.2 146.06 296.02 146.06 294.39 147.47 293.57 147.47 295.2"/>
            </g>
            <g>
              <polygon class="cls-2" points="149.25 292.14 147.83 292.96 147.83 291.33 149.25 290.51 149.25 292.14"/>
              <polygon class="cls-2" points="149.25 294.17 147.83 294.99 147.83 293.36 149.25 292.55 149.25 294.17"/>
              <polygon class="cls-2" points="149.25 296.21 147.83 297.03 147.83 295.4 149.25 294.58 149.25 296.21"/>
            </g>
            <g>
              <polygon class="cls-2" points="151.02 291.12 149.6 291.93 149.6 290.31 151.02 289.49 151.02 291.12"/>
              <polygon class="cls-2" points="151.02 293.15 149.6 293.97 149.6 292.34 151.02 291.52 151.02 293.15"/>
              <polygon class="cls-2" points="151.02 295.18 149.6 296 149.6 294.38 151.02 293.56 151.02 295.18"/>
            </g>
          </g>
          <g>
            <g>
              <path class="cls-15" d="M97.13,320.64c-.35,.2-.63,.69-.63,1.09s.28,.56,.63,.36c.35-.2,.63-.69,.63-1.09s-.28-.56-.63-.36Z"/>
              <path class="cls-12" d="M99.58,319.22c-.35,.2-.63,.69-.63,1.09s.28,.56,.63,.36c.35-.2,.63-.69,.63-1.09s-.28-.56-.63-.36Z"/>
              <path class="cls-13" d="M102.04,317.8c-.35,.2-.63,.69-.63,1.09s.28,.56,.63,.36c.35-.2,.63-.69,.63-1.09s-.28-.56-.63-.36Z"/>
              <path class="cls-11" d="M104.49,316.38c-.35,.2-.63,.69-.63,1.09s.28,.56,.63,.36c.35-.2,.63-.69,.63-1.09s-.28-.56-.63-.36Z"/>
            </g>
            <g>
              <path class="cls-38" d="M97.13,322.85c-.35,.2-.63,.69-.63,1.09s.28,.56,.63,.36c.35-.2,.63-.69,.63-1.09s-.28-.56-.63-.36Z"/>
              <path class="cls-40" d="M99.58,321.43c-.35,.2-.63,.69-.63,1.09s.28,.56,.63,.36c.35-.2,.63-.69,.63-1.09s-.28-.56-.63-.36Z"/>
              <path class="cls-39" d="M102.04,320.01c-.35,.2-.63,.69-.63,1.09s.28,.56,.63,.36c.35-.2,.63-.69,.63-1.09s-.28-.56-.63-.36Z"/>
              <path class="cls-35" d="M104.49,318.59c-.35,.2-.63,.69-.63,1.09s.28,.56,.63,.36c.35-.2,.63-.69,.63-1.09s-.28-.56-.63-.36Z"/>
            </g>
            <g>
              <path class="cls-34" d="M97.13,325.06c-.35,.2-.63,.69-.63,1.09s.28,.56,.63,.36c.35-.2,.63-.69,.63-1.09s-.28-.56-.63-.36Z"/>
              <path class="cls-37" d="M99.58,323.64c-.35,.2-.63,.69-.63,1.09s.28,.56,.63,.36c.35-.2,.63-.69,.63-1.09s-.28-.56-.63-.36Z"/>
              <path class="cls-36" d="M102.04,322.22c-.35,.2-.63,.69-.63,1.09s.28,.56,.63,.36c.35-.2,.63-.69,.63-1.09s-.28-.56-.63-.36Z"/>
              <path class="cls-32" d="M104.49,320.8c-.35,.2-.63,.69-.63,1.09s.28,.56,.63,.36c.35-.2,.63-.69,.63-1.09s-.28-.56-.63-.36Z"/>
            </g>
          </g>
        </g>
      </g>
    </g>
    <g>
      <polygon class="cls-31" points="108.69 287.64 105.08 290.66 105.07 295.67 108.67 292.65 108.69 287.64"/>
      <polygon class="cls-33" points="81.14 290.66 77.5 287.64 77.49 292.65 81.13 295.67 81.14 290.66"/>
      <path class="cls-27" d="M88.85,297.15c2.34-1.36,6.16-1.36,8.52,0,1.19,.69,1.78,1.59,1.78,2.48v-5.01c.02-.9-.58-1.8-1.76-2.48-2.36-1.36-6.17-1.36-8.52,0-1.16,.68-1.75,1.56-1.75,2.45v5.01c-.01-.89,.57-1.77,1.74-2.45Z"/>
      <path class="cls-28" d="M106.42,296.71c-.29,.63-.73,1.25-1.3,1.83v5.01c.56-.58,.99-1.2,1.28-1.83l6.25-.65v-5.01s-6.23,.65-6.23,.65Z"/>
      <path class="cls-29" d="M81.17,303.56v-5.01c-.56-.58-1-1.2-1.31-1.83l-6.26-.65-.02-2.92v5.01s0,2.92,0,2.92l6.26,.65c.3,.63,.74,1.25,1.32,1.83Z"/>
      <path class="cls-30" d="M99.98,301.53c-1,.33-2.07,.59-3.16,.76l-1.1,3.62h-5.04s-1.14-3.62-1.14-3.62c-1.1-.17-2.16-.43-3.17-.76l-5.2,2.1-3.58-2.07v5.01s3.56,2.07,3.56,2.07l5.2-2.1c1.01,.33,2.07,.59,3.17,.76l1.14,3.62h5.04s1.1-3.62,1.1-3.62c1.09-.17,2.16-.43,3.16-.76h0l5.23,2.1,3.55-2.07v-5.01s-3.54,2.07-3.54,2.07l-5.23-2.1Z"/>
      <path class="cls-24" d="M105.21,303.63l-5.23-2.1c-1,.33-2.07,.59-3.16,.76l-1.1,3.62h-5.04s-1.14-3.62-1.14-3.62c-1.1-.17-2.16-.43-3.17-.76l-5.2,2.1-3.58-2.07,3.61-3.02c-.58-.58-1.02-1.2-1.32-1.83l-6.26-.65-.02-2.92,6.25-.65c.3-.63,.73-1.25,1.3-1.83l-3.64-3.02,3.55-2.07,5.23,2.1c1.01-.33,2.07-.58,3.16-.76l1.1-3.62h5.04l1.15,3.62c1.09,.17,2.16,.43,3.17,.76l5.2-2.1,3.58,2.07-3.61,3.02c.58,.58,1.02,1.2,1.32,1.83l6.25,.65,.02,2.92-6.25,.65c-.29,.63-.73,1.25-1.3,1.83l3.64,3.02-3.55,2.07Zm-16.32-6.56c2.36,1.36,6.17,1.36,8.52,0,2.35-1.36,2.33-3.57-.03-4.93-2.36-1.36-6.17-1.36-8.52,0-2.34,1.36-2.33,3.57,.03,4.93"/>
    </g>
    <g>
      <polygon class="cls-25" points="131.02 269.14 128.11 271.57 128.1 275.61 131 273.18 131.02 269.14"/>
      <polygon class="cls-26" points="108.82 271.57 105.89 269.14 105.88 273.18 108.81 275.61 108.82 271.57"/>
      <path class="cls-21" d="M115.03,276.8c1.89-1.1,4.96-1.1,6.86,0,.96,.55,1.43,1.28,1.43,2v-4.04c.01-.72-.46-1.45-1.42-2-1.9-1.1-4.97-1.1-6.86,0-.94,.55-1.41,1.26-1.41,1.97v4.04c0-.72,.46-1.43,1.4-1.97Z"/>
      <path class="cls-22" d="M129.19,276.46c-.24,.51-.59,1.01-1.05,1.48v4.04c.45-.47,.8-.97,1.04-1.48l5.03-.53v-4.04s-5.02,.53-5.02,.53Z"/>
      <path class="cls-23" d="M108.85,281.97v-4.04c-.46-.47-.81-.97-1.05-1.48l-5.04-.53v-2.35s-.03,4.04-.03,4.04v2.35s5.06,.53,5.06,.53c.24,.51,.6,1.01,1.06,1.48Z"/>
      <path class="cls-51" d="M124,280.34c-.81,.27-1.67,.47-2.55,.61l-.89,2.92h-4.06s-.92-2.92-.92-2.92c-.88-.14-1.74-.34-2.55-.61l-4.19,1.69-2.88-1.66v4.04s2.87,1.66,2.87,1.66l4.19-1.69c.81,.27,1.67,.47,2.55,.61l.92,2.92h4.06s.89-2.92,.89-2.92c.88-.14,1.74-.34,2.55-.61h0l4.21,1.69,2.86-1.66v-4.04s-2.85,1.66-2.85,1.66l-4.21-1.69Z"/>
      <path class="cls-50" d="M128.21,282.03l-4.21-1.69c-.81,.27-1.67,.47-2.55,.61l-.89,2.92h-4.06s-.92-2.92-.92-2.92c-.88-.14-1.74-.34-2.55-.61l-4.19,1.69-2.88-1.66,2.91-2.43c-.47-.47-.82-.97-1.06-1.48l-5.04-.53v-2.35s5.02-.53,5.02-.53c.24-.51,.59-1.01,1.05-1.48l-2.93-2.43,2.86-1.66,4.21,1.69c.81-.27,1.67-.47,2.55-.61l.89-2.92h4.07l.92,2.92c.88,.14,1.74,.34,2.55,.61l4.19-1.69,2.88,1.66-2.91,2.43c.46,.47,.82,.97,1.06,1.48l5.04,.52v2.35s-5.02,.53-5.02,.53c-.24,.51-.59,1.01-1.05,1.48l2.93,2.43-2.86,1.66Zm-13.15-5.29c1.9,1.1,4.97,1.1,6.86,0,1.89-1.1,1.88-2.88-.02-3.98-1.9-1.1-4.97-1.1-6.86,0-1.89,1.1-1.88,2.88,.02,3.98"/>
    </g>
    <g>
      <g class="cls-100">
        <path class="cls-59" d="M125.18,229.58l-4.6-2.67c2.04,1.19,4.47,.61,4.68,.56l4.6,2.67c-.21,.05-2.64,.62-4.68-.56Z"/>
        <path class="cls-58" d="M106.73,232.99l-4.6-2.67c1.91,1.11,4.11,.62,6.23-.61,4.85-2.8,9.13-9.09,9.36-9.42l4.6,2.67c-.23,.33-4.5,6.61-9.36,9.42-2.13,1.23-4.32,1.72-6.24,.61Z"/>
        <path class="cls-57" d="M95.11,282.9l-4.6-2.67c-6.48-3.77-14.33-10.78-16.45-23.2l4.6,2.67c2.12,12.43,9.97,19.44,16.45,23.2Z"/>
        <path class="cls-56" d="M78.66,259.7l-4.6-2.67c.38-.34,7.5-6.89,7.48-15.85l4.6,2.67c.03,8.95-7.1,15.5-7.48,15.85Z"/>
        <path class="cls-55" d="M86.14,243.85l-4.6-2.67c.23,.07,4.52,1.4,9.38-1.4,3.14-1.81,6.42-5.39,8.7-12.24l4.6,2.67c-2.28,6.85-5.56,10.43-8.7,12.24-4.85,2.8-9.15,1.47-9.38,1.4Z"/>
        <path class="cls-54" d="M104.22,230.21c2.31,4.2,5.6,3.98,8.74,2.17,4.85-2.8,9.13-9.09,9.36-9.42,.03,8.95,7.17,7.26,7.54,7.17-3.55,25.75-24.39,55.12-25.48,56.67-1.1-.28-22.03-5.54-25.72-27.11,.38-.34,7.5-6.89,7.48-15.85,.23,.07,4.52,1.4,9.38-1.4,3.14-1.81,6.42-5.39,8.7-12.24Z"/>
        <path class="cls-52" d="M104.93,236.86c1.81,3.28,4.37,3.11,6.83,1.69,3.79-2.19,7.13-7.1,7.31-7.35,.02,6.99,5.6,5.67,5.89,5.6-2.77,20.11-19.05,43.05-19.9,44.26-.86-.22-17.21-4.32-20.08-21.17,.29-.27,5.86-5.39,5.84-12.38,.18,.05,3.53,1.09,7.32-1.09,2.45-1.42,5.01-4.21,6.79-9.56Z"/>
      </g>
      <polygon class="cls-2" points="92.18 257.37 104.31 269.49 121.99 236.65 103.8 258.88 92.18 257.37"/>
    </g>
  </g>
  <g>
    <g>
      <path class="cls-53" d="M353.32,190.66c.01-.08,.03-.17,.06-.25,0,0,0-.02,0-.02,.03-.09,.06-.18,.1-.27,0,0,0,0,0,0,.04-.09,.09-.18,.14-.27,0,0,0,0,0,0,.05-.09,.1-.17,.16-.25,0,0,.01-.01,.02-.02,.05-.07,.11-.14,.17-.2,.01-.01,.03-.03,.04-.04,.05-.05,.1-.09,.15-.14,.02-.02,.04-.04,.07-.06,.07-.06,.14-.11,.22-.15,.07-.04,.14-.07,.21-.1,.01,0,.03,0,.04-.01,.07-.02,.13-.04,.19-.04,0,0,.01,0,.02,0,.07,0,.13,0,.19,0,0,0,0,0,0,0,.06,.01,.12,.03,.17,.06l-1.75-1.02h0s-.04-.02-.06-.03c-.02,0-.04-.02-.06-.02-.01,0-.03,0-.04,0,0,0,0,0,0,0,0,0,0,0-.01,0-.02,0-.05,0-.07,0-.02,0-.05,0-.08,0,0,0-.02,0-.03,0,0,0-.01,0-.02,0-.01,0-.03,0-.04,0-.03,0-.07,.01-.1,.02-.01,0-.03,.01-.04,.02-.01,0-.03,0-.04,.01-.02,0-.03,.01-.05,.02-.05,.02-.11,.05-.16,.08-.07,.04-.15,.09-.22,.15-.02,.02-.04,.04-.07,.06-.03,.03-.07,.06-.1,.09-.02,.02-.03,.03-.04,.05-.01,.01-.03,.03-.04,.04-.01,.02-.03,.03-.04,.05-.03,.04-.06,.07-.09,.11-.01,.01-.02,.03-.03,.04,0,0-.01,.01-.02,.02,0,.01-.02,.03-.03,.04-.02,.03-.05,.07-.07,.1-.02,.03-.04,.06-.06,.1,0,0,0,0,0,0,0,0,0,0,0,0-.02,.03-.03,.05-.04,.08-.02,.03-.03,.07-.05,.1-.01,.03-.03,.06-.04,.09,0,0,0,0,0,0,0,0,0,0,0,0-.01,.03-.03,.07-.04,.1-.01,.04-.03,.07-.04,.11,0,.02-.01,.04-.02,.06,0,0,0,.02,0,.02,0,.01,0,.03-.01,.04-.01,.04-.02,.09-.03,.13,0,.03,0,.05-.01,.08,0,.01,0,.03,0,.04,0,.01,0,.03,0,.04,0,.08-.01,.15-.01,.23l.06,20.36-1.15,4.43,.09,31.47c0,.53,.19,.91,.49,1.09l1.75,1.02c-.3-.18-.49-.55-.49-1.09l-.09-31.47,1.15-4.43-.06-20.36c0-.09,0-.17,.02-.26,0-.01,0-.03,0-.04Z"/>
      <path class="cls-49" d="M354.44,188.97c.64-.37,1.16-.07,1.16,.66l.06,20.36,1.17,3.1,.09,31.47c0,1.08-.75,2.39-1.69,2.93l-1.23,.71c-.94,.54-1.7,.11-1.7-.97l-.09-31.47,1.15-4.43-.06-20.36c0-.73,.51-1.63,1.15-2Z"/>
    </g>
    <g>
      <path class="cls-42" d="M385.5,172.72c.01-.08,.03-.17,.06-.25,0,0,0-.02,0-.02,.03-.09,.06-.18,.1-.27,0,0,0,0,0,0,.04-.09,.09-.18,.14-.27,0,0,0,0,0,0,.05-.09,.1-.17,.16-.25,0,0,.01-.01,.02-.02,.05-.07,.11-.14,.17-.2,.01-.01,.03-.03,.04-.04,.05-.05,.1-.09,.15-.14,.02-.02,.04-.04,.07-.06,.07-.06,.14-.11,.22-.15,.07-.04,.14-.07,.21-.1,.01,0,.03,0,.04-.01,.07-.02,.13-.04,.19-.04,0,0,.01,0,.02,0,.07,0,.13,0,.19,0,0,0,0,0,0,0,.06,.01,.12,.03,.17,.06l-1.75-1.02s0,0,0,0c-.02-.01-.04-.02-.06-.03-.02,0-.04-.02-.06-.02-.01,0-.03,0-.04,0,0,0,0,0,0,0,0,0,0,0-.01,0-.02,0-.05,0-.07,0-.02,0-.05,0-.08,0,0,0-.02,0-.03,0,0,0-.01,0-.02,0-.01,0-.03,0-.04,0-.03,0-.07,.01-.1,.02-.01,0-.03,.01-.04,.02-.01,0-.03,0-.04,.01-.02,0-.03,.01-.05,.02-.05,.02-.11,.05-.16,.08-.07,.04-.15,.09-.22,.15-.02,.02-.04,.04-.07,.06-.03,.03-.07,.06-.1,.09-.02,.02-.03,.03-.04,.05-.01,.01-.03,.03-.04,.04-.01,.02-.03,.03-.04,.05-.03,.04-.06,.07-.09,.11-.01,.01-.02,.03-.03,.04,0,0-.01,.01-.02,.02,0,.01-.02,.03-.03,.04-.02,.03-.05,.07-.07,.1-.02,.03-.04,.06-.06,.1,0,0,0,0,0,0,0,0,0,0,0,0-.01,.03-.03,.05-.04,.08-.02,.03-.03,.07-.05,.1-.01,.03-.03,.06-.04,.09,0,0,0,0,0,0s0,0,0,0c-.01,.03-.03,.07-.04,.1-.01,.04-.03,.07-.04,.11,0,.02-.01,.04-.02,.06,0,0,0,.02,0,.02,0,.01,0,.03-.01,.04-.01,.04-.02,.09-.03,.13,0,.03,0,.05-.01,.08,0,.01,0,.03,0,.04,0,.01,0,.03,0,.04,0,.08-.01,.15-.01,.23l.06,20.36-1.15,4.43,.09,31.47c0,.53,.19,.91,.49,1.09l1.75,1.02c-.3-.18-.49-.55-.49-1.09l-.09-31.47,1.15-4.43-.06-20.36c0-.09,0-.17,.02-.26,0-.01,0-.03,0-.04Z"/>
      <path class="cls-47" d="M386.62,171.03c.64-.37,1.16-.07,1.16,.66l.06,20.36,1.17,3.1,.09,31.47c0,1.08-.75,2.39-1.69,2.93l-1.23,.71c-.94,.54-1.7,.11-1.7-.97l-.09-31.47,1.15-4.43-.06-20.36c0-.73,.51-1.63,1.15-2Z"/>
    </g>
    <g>
      <g>
        <g>
          <path class="cls-48" d="M440.88,240.3l-53.8,31.26c-1.78,1.03-4.66,1.03-6.45,0l-36.65-21.04c-.9-.52-1.35-1.2-1.35-1.88l-.04,15.38c0,.68,.45,1.36,1.35,1.88l36.65,21.04c1.78,1.03,4.67,1.03,6.45,0l53.8-31.26c.88-.51,1.33-1.19,1.33-1.86l.04-15.38c0,.67-.44,1.35-1.33,1.86Z"/>
          <path class="cls-46" d="M440.86,236.56c1.78,1.03,1.79,2.71,.02,3.74l-53.8,31.26c-1.78,1.03-4.66,1.03-6.45,0l-36.65-21.04c-1.79-1.03-1.8-2.7-.02-3.73l53.8-31.26c1.78-1.03,4.66-1.04,6.45,0l36.65,21.04Z"/>
        </g>
        <g>
          <path class="cls-2" d="M389.04,240.19l23.38-13.5c.56-.33,1.42-.36,1.91-.08h0c.49,.28,.43,.78-.14,1.1l-23.38,13.5c-.56,.33-1.42,.36-1.91,.08h0c-.49-.28-.43-.78,.14-1.1Z"/>
          <path class="cls-2" d="M385.54,238.17l23.38-13.5c.56-.33,1.42-.36,1.91-.08h0c.49,.28,.43,.78-.14,1.1l-23.38,13.5c-.56,.33-1.42,.36-1.91,.08h0c-.49-.28-.43-.78,.14-1.1Z"/>
          <path class="cls-2" d="M382.03,236.14l23.38-13.5c.56-.33,1.42-.36,1.91-.08h0c.49,.28,.43,.78-.14,1.1l-23.38,13.5c-.56,.33-1.42,.36-1.91,.08h0c-.49-.28-.43-.78,.14-1.1Z"/>
          <path class="cls-2" d="M378.53,234.12l23.38-13.5c.56-.33,1.42-.36,1.91-.08h0c.49,.28,.43,.78-.14,1.1l-23.38,13.5c-.56,.33-1.42,.36-1.91,.08h0c-.49-.28-.43-.78,.14-1.1Z"/>
        </g>
      </g>
      <g>
        <path class="cls-43" d="M399.8,271.95c0,.95-.67,2.12-1.51,2.6-.83,.48-1.51,.1-1.51-.86s.67-2.12,1.51-2.6c.83-.48,1.51-.1,1.51,.86Z"/>
        <path class="cls-44" d="M410.25,265.92c0,.95-.67,2.12-1.51,2.6-.83,.48-1.51,.1-1.51-.86s.67-2.12,1.51-2.6c.83-.48,1.51-.1,1.51,.86Z"/>
        <path class="cls-45" d="M420.7,259.88c0,.95-.67,2.12-1.51,2.6-.83,.48-1.51,.1-1.51-.86s.67-2.12,1.51-2.6c.83-.48,1.51-.1,1.51,.86Z"/>
        <path class="cls-41" d="M431.15,253.85c0,.95-.67,2.12-1.51,2.6-.83,.48-1.51,.1-1.51-.86s.67-2.12,1.51-2.6c.83-.48,1.51-.1,1.51,.86Z"/>
      </g>
    </g>
  </g>
</svg>