<?xml version="1.0" encoding="UTF-8"?>
<svg xmlns="http://www.w3.org/2000/svg" xmlns:xlink="http://www.w3.org/1999/xlink" viewBox="0 0 750 500">
  <defs>
    <style>
      .cls-1 {
        fill: none;
      }

      .cls-2 {
        fill: url(#linear-gradient);
      }

      .cls-3 {
        clip-path: url(#clippath);
      }

      .cls-4, .cls-5 {
        fill: #fff;
      }

      .cls-6 {
        fill: #4e5c7f;
      }

      .cls-7 {
        clip-path: url(#clippath-1);
      }

      .cls-5 {
        opacity: .41;
      }
    </style>
    <clipPath id="clippath">
      <rect class="cls-1" x="-806.67" y="-14.74" width="750" height="500"/>
    </clipPath>
    <linearGradient id="linear-gradient" x1="375" y1="0" x2="375" y2="604.82" gradientUnits="userSpaceOnUse">
      <stop offset=".06" stop-color="#6b97d4"/>
      <stop offset=".37" stop-color="#b89ab1"/>
      <stop offset=".65" stop-color="#ff9c92"/>
      <stop offset=".96" stop-color="#ffffe1"/>
    </linearGradient>
    <clipPath id="clippath-1">
      <rect class="cls-1" width="750" height="500"/>
    </clipPath>
  </defs>
  <g id="OBJECTS">
    <g class="cls-3">
      <path class="cls-6" d="M-377.86,388.57s29.23-25.12,68.65-16.74c39.42,8.37,68.65,15.07,88.74,0,20.09-15.07,38.51-3.35,72-15.07,33.49-11.72,48.56-10.05,70.33-10.05S.56,381.88,.56,381.88l-216,50.23-162.42-43.53Z"/>
    </g>
  </g>
  <g id="DESIGNED_BY_FREEPIK" data-name="DESIGNED BY FREEPIK">
    <rect class="cls-2" width="750" height="500"/>
    <g class="cls-7">
      <g>
        <g>
          <circle class="cls-4" cx="200.6" cy="112.5" r="2.26"/>
          <circle class="cls-4" cx="318.87" cy="186.15" r="2.26"/>
          <circle class="cls-4" cx="312.2" cy="109.15" r="2.26"/>
          <circle class="cls-4" cx="295.46" cy="63.39" r="2.26"/>
          <circle class="cls-4" cx="173.78" cy="35.48" r="2.26"/>
          <circle class="cls-4" cx="397.05" cy="162.66" r="1.08"/>
          <circle class="cls-4" cx="147.03" cy="95.73" r="1.08"/>
          <circle class="cls-4" cx="270.9" cy="83.41" r="1.08"/>
          <circle class="cls-4" cx="458.47" cy="34.33" r="1.08"/>
          <circle class="cls-4" cx="221.82" cy="124.75" r="1.08"/>
          <circle class="cls-4" cx="401.46" cy="82.33" r="1.08"/>
          <circle class="cls-4" cx="273.09" cy="134.8" r="1.08"/>
          <circle class="cls-4" cx="8.56" cy="67.89" r="2.26"/>
          <circle class="cls-4" cx="120.16" cy="64.54" r="2.26"/>
          <circle class="cls-4" cx="103.42" cy="18.77" r="2.26"/>
          <circle class="cls-4" cx="78.86" cy="38.8" r="1.08"/>
          <circle class="cls-4" cx="29.78" cy="80.14" r="1.08"/>
          <circle class="cls-4" cx="81.05" cy="90.19" r="1.08"/>
          <circle class="cls-4" cx="452.84" cy="122.59" r="2.26"/>
          <circle class="cls-4" cx="564.44" cy="119.24" r="2.26"/>
          <circle class="cls-4" cx="547.7" cy="73.47" r="2.26"/>
          <circle class="cls-4" cx="523.14" cy="93.49" r="1.08"/>
          <circle class="cls-4" cx="474.06" cy="134.84" r="1.08"/>
          <circle class="cls-4" cx="525.33" cy="144.88" r="1.08"/>
          <circle class="cls-4" cx="528.52" cy="223.86" r="1.08"/>
          <circle class="cls-4" cx="562.71" cy="184.34" r="1.08"/>
          <circle class="cls-4" cx="671.71" cy="148.26" r="2.26"/>
          <circle class="cls-4" cx="742.01" cy="119.17" r="1.08"/>
          <circle class="cls-4" cx="692.93" cy="160.51" r="1.08"/>
          <circle class="cls-4" cx="744.2" cy="170.56" r="1.08"/>
          <circle class="cls-4" cx="16.46" cy="182.87" r="2.26"/>
          <circle class="cls-4" cx="128.05" cy="179.52" r="2.26"/>
          <circle class="cls-4" cx="86.75" cy="153.77" r="1.08"/>
          <circle class="cls-4" cx="37.68" cy="195.12" r="1.08"/>
          <circle class="cls-4" cx="88.95" cy="205.16" r="1.08"/>
          <circle class="cls-4" cx="611.43" cy="36.63" r="2.26"/>
          <circle class="cls-4" cx="723.03" cy="33.29" r="2.26"/>
          <circle class="cls-4" cx="681.73" cy="7.54" r="1.08"/>
          <circle class="cls-4" cx="632.65" cy="48.88" r="1.08"/>
          <circle class="cls-4" cx="570.06" cy="35.41" r="1.08"/>
          <circle class="cls-4" cx="683.92" cy="58.93" r="1.08"/>
          <circle class="cls-4" cx="656.01" cy="111.39" r="1.08"/>
          <circle class="cls-4" cx="626.95" cy="170.52" r="1.08"/>
          <circle class="cls-4" cx="128.02" cy="157.08" r="1.08"/>
        </g>
        <path class="cls-5" d="M186.02,279.41c-40.19,1.67-83.72,3.35-93.77,3.35S.16,276.06-11.56,274.39c0,0,0-11.72,98.79-3.35s123.91,8.37,123.91,8.37"/>
        <path class="cls-5" d="M318.3,300.63c20.09,0,51.91-1.12,72-1.12s41.86-1.12,88.74,0c46.88,1.12,85.4,2.24,60.28,5.61-25.12,3.37-61.95,0-82.05,0s-38.51,2.24-70.33,2.24-68.65-6.73-68.65-6.73Z"/>
        <path class="cls-5" d="M475.7,281.09c23.44,0,38.51-2.28,68.65-1.14,30.14,1.14,46.88,3.99,73.67,1.14,26.79-2.85,61.95,0,61.95,0,0,0-20.18,1.68-36.84,2.28-31.81,1.14-65.3,1.14-85.4,1.14s-82.05-3.42-82.05-3.42Z"/>
      </g>
    </g>
  </g>
</svg>