<?xml version="1.0" encoding="UTF-8"?>
<svg id="BACKGROUND" xmlns="http://www.w3.org/2000/svg" xmlns:xlink="http://www.w3.org/1999/xlink" viewBox="0 0 750 500">
  <defs>
    <style>
      .cls-1 {
        fill: none;
      }

      .cls-2 {
        clip-path: url(#clippath);
      }

      .cls-3 {
        fill: #ba9ab1;
        opacity: .86;
      }

      .cls-4 {
        opacity: .47;
      }

      .cls-4, .cls-5 {
        fill: #fff;
      }

      .cls-5 {
        opacity: .41;
      }
    </style>
    <clipPath id="clippath">
      <rect class="cls-1" width="750" height="500"/>
    </clipPath>
  </defs>
  <g class="cls-2">
    <g>
      <path class="cls-3" d="M-12.34,260.93s16.4-34.07,23.97-25.23c7.57,8.83,7.57-18.93,21.45-16.4s23.97,61.82,34.07,61.82,12.62-5.05,21.45-5.05,8.83,35.33,21.45,35.33,10.09-17.66,22.71-12.62c12.62,5.05,21.45,37.85,21.45,37.85l-87.06,26.5-82.01-29.02,2.52-73.18Z"/>
      <path class="cls-3" d="M376.91,353.21s6.1-37.9,24.38-38.87c18.29-.97,13.56,12.84,26.82,6.8,8.53-3.89,10.97-35.96,28.04-36.93,8.51-.48,14.79,13.57,31.7,9.72s19.51-26.24,30.48-26.24,23.16,44.7,31.7,45.67,6.1-9.72,21.94-11.66c15.85-1.94,18.29,27.21,29.26,25.27,10.97-1.94,24.38-20.41,31.7-13.6,7.31,6.8,21.94,38.87,21.94,38.87l-136.54,24.29-141.41-23.32Z"/>
      <path class="cls-3" d="M683.32,322.95s-6.7-35.16,11.72-40.19c18.42-5.02,18.42-43.53,40.19-38.51s23.44,65.3,23.44,65.3v35.16l-75.35-21.77Z"/>
      <path class="cls-3" d="M354.02,349.13s-17.5-31.4-36.46-49.81c-18.96-18.42-18.96,18.42-27.71,15.07-8.75-3.35-26.25,26.79-26.25,26.79l77.29,16.74,13.13-8.79Z"/>
      <path class="cls-5" d="M186.02,279.41c-40.19,1.67-83.72,3.35-93.77,3.35S.16,276.06-11.56,274.39c0,0,0-11.72,98.79-3.35s123.91,8.37,123.91,8.37"/>
      <path class="cls-5" d="M318.3,300.63c20.09,0,51.91-1.12,72-1.12s41.86-1.12,88.74,0c46.88,1.12,85.4,2.24,60.28,5.61-25.12,3.37-61.95,0-82.05,0s-38.51,2.24-70.33,2.24-68.65-6.73-68.65-6.73Z"/>
      <path class="cls-5" d="M475.7,281.09c23.44,0,38.51-2.28,68.65-1.14,30.14,1.14,46.88,3.99,73.67,1.14,26.79-2.85,61.95,0,61.95,0,0,0-20.18,1.68-36.84,2.28-31.81,1.14-65.3,1.14-85.4,1.14s-82.05-3.42-82.05-3.42Z"/>
    </g>
  </g>
  <path class="cls-4" d="M468.21,179.49c.24-1.18,.36-2.39,.36-3.64,0-10.14-8.22-18.36-18.36-18.36-3.36,0-6.49,.92-9.2,2.49-3.31-11.28-13.73-19.52-26.08-19.52-7.62,0-14.51,3.14-19.45,8.2-5.06-9.3-14.91-15.61-26.24-15.61-12.91,0-23.9,8.19-28.06,19.66-3.96-3.22-9.01-5.15-14.51-5.15-9.18,0-17.11,5.38-20.8,13.16-3.09-2.71-7.14-4.37-11.57-4.37-9.71,0-17.57,7.87-17.57,17.57,0,1.95,.33,3.83,.92,5.58h190.56Z"/>
  <path class="cls-4" d="M691.04,212.98c-2.64-7.67-9.9-13.19-18.46-13.19-5.7,0-10.82,2.46-14.39,6.36-.37-17.87-14.96-32.24-32.91-32.24-13.49,0-25.07,8.11-30.16,19.72-4.19-5.21-10.62-8.55-17.84-8.55-9.79,0-18.15,6.15-21.41,14.8-3.06-2.28-6.85-3.64-10.96-3.64-9.61,0-17.49,7.36-18.33,16.74h164.47Z"/>
  <path class="cls-4" d="M231.38,206.81c.27-1.17,.41-2.38,.41-3.63,0-8.92-7.23-16.15-16.15-16.15-4.91,0-9.31,2.2-12.27,5.66-2.39-8.59-10.27-14.89-19.62-14.89-6.28,0-11.9,2.85-15.64,7.32-4.68-7.71-13.16-12.86-22.83-12.86-11.65,0-21.55,7.47-25.2,17.87-2.86-2.51-6.6-4.03-10.7-4.03-8.96,0-16.22,7.26-16.22,16.22,0,1.56,.22,3.06,.63,4.49H231.38Z"/>
</svg>