<?xml version="1.0" encoding="UTF-8"?>
<svg id="BACKGROUND" xmlns="http://www.w3.org/2000/svg" xmlns:xlink="http://www.w3.org/1999/xlink" viewBox="0 0 750 500">
  <defs>
    <style>
      .cls-1 {
        fill: none;
      }

      .cls-2 {
        clip-path: url(#clippath);
      }

      .cls-3 {
        fill: #88799f;
      }

      .cls-4 {
        fill: #4e5c7f;
      }
    </style>
    <clipPath id="clippath">
      <rect class="cls-1" width="750" height="500"/>
    </clipPath>
  </defs>
  <g class="cls-2">
    <g>
      <path class="cls-3" d="M-36.67,316.25s40.19-15.07,80.37-13.4c40.19,1.67,73.67,40.19,108.84,35.16,35.16-5.02,58.6-15.07,95.44-18.42,18.42-1.67,44.79,3.77,70.33,9.63,25.53,5.86,50.23,12.14,65.3,12.14,30.14,0,58.6-6.7,78.7-6.7s90.42,28.47,117.21,26.79,41.86-40.19,82.05-45.21,112.19,5.02,112.19,5.02l-6.7,113.86-786.98-1.67-16.74-117.21Z"/>
      <path class="cls-4" d="M-14.91,354.76s77.02-13.4,115.53,6.7c38.51,20.09,48.56,21.77,63.63,21.77s38.51-15.07,63.63-10.05,43.53,18.42,63.63,16.74c20.09-1.67,53.58,3.35,53.58,3.35l10.05,43.53-204.28,23.44-118.88-53.58-46.88-51.91Z"/>
      <path class="cls-4" d="M428.81,403.32s29.23-25.12,68.65-16.74c39.42,8.37,68.65,15.07,88.74,0,20.09-15.07,38.51-3.35,72-15.07,33.49-11.72,48.56-10.05,70.33-10.05s78.7,35.16,78.7,35.16l-216,50.23-162.42-43.53Z"/>
    </g>
  </g>
</svg>