<?xml version="1.0" encoding="UTF-8"?>
<svg xmlns="http://www.w3.org/2000/svg" xmlns:xlink="http://www.w3.org/1999/xlink" viewBox="0 0 750 500">
  <defs>
    <style>
      .cls-1 {
        fill: none;
      }

      .cls-2 {
        clip-path: url(#clippath);
      }

      .cls-3 {
        fill: #9eb5c5;
      }

      .cls-4 {
        fill: #1f212e;
      }

      .cls-5 {
        fill: #4e5c7f;
      }

      .cls-6 {
        clip-path: url(#clippath-1);
      }
    </style>
    <clipPath id="clippath">
      <rect class="cls-1" x="-806.67" y="29.49" width="750" height="500"/>
    </clipPath>
    <clipPath id="clippath-1">
      <rect class="cls-1" width="750" height="500"/>
    </clipPath>
  </defs>
  <g id="BACKGROUND">
    <g class="cls-2">
      <path class="cls-5" d="M-377.86,432.81s29.23-25.12,68.65-16.74c39.42,8.37,68.65,15.07,88.74,0,20.09-15.07,38.51-3.35,72-15.07,33.49-11.72,48.56-10.05,70.33-10.05S.56,426.11,.56,426.11l-216,50.23-162.42-43.53Z"/>
    </g>
  </g>
  <g id="OBJECTS">
    <g class="cls-6">
      <g>
        <g>
          <g>
            <g>
              <path class="cls-3" d="M385.1,410.23c-.43,.44-.8,.93-1.11,1.45l-.47-.24c-.07-.3-.35-.5-.66-.47-.33,.04-.57,.34-.53,.67,.04,.33,.34,.57,.67,.53,.07,0,.13-.03,.18-.05l.45,.23c-.25,.55-.43,1.14-.54,1.74l.75,.13c.23-1.31,.85-2.51,1.79-3.47l-.54-.53Z"/>
              <path class="cls-3" d="M390.59,407.92c-.17,0-.34,0-.51,.02l-.07-.63c.19-.15,.3-.39,.27-.64-.05-.39-.4-.67-.8-.63-.39,.05-.67,.4-.63,.8,.03,.25,.19,.46,.4,.56l.07,.62c-.71,.12-1.4,.33-2.06,.65l.33,.68c.93-.45,1.94-.67,3-.67,.5,0,.99,.05,1.47,.16l.16-.74c-.53-.12-1.09-.17-1.64-.17Z"/>
              <path class="cls-3" d="M397.19,410.47c.33-.04,.57-.34,.53-.67-.04-.33-.34-.57-.67-.53-.31,.04-.54,.3-.53,.61l-.42,.36c-.42-.43-.89-.81-1.41-1.14l-.4,.64c1.13,.71,2.02,1.73,2.56,2.93l.69-.31c-.25-.55-.57-1.07-.94-1.55l.4-.35c.06,.01,.13,.02,.19,0Z"/>
              <path class="cls-3" d="M390.04,418.13c-.39,.02-.77,.03-1.16,.03-.88,0-1.73-.06-2.48-.18-.39-.06-.85-.15-1.27-.29,1.05,1.86,3.07,3.12,5.39,3.12,2.86,0,5.26-1.92,5.95-4.5-.68,.45-1.51,.83-2.46,1.12-1.18,.37-2.55,.61-3.97,.69Z"/>
              <path class="cls-3" d="M390.59,409.44c-3.35,0-6.08,2.67-6.08,5.94,0,.43,.05,.85,.14,1.26,.67,.48,2.71,.89,5.35,.73,2.88-.17,5.3-.96,6.67-2.16,0-.19-.02-.39-.05-.58-.38-2.96-2.97-5.2-6.03-5.2Zm-2.16,6.51c-1.02,0-1.85-.83-1.85-1.85s.83-1.85,1.85-1.85,1.85,.83,1.85,1.85-.83,1.85-1.85,1.85Zm4.74-.91c-.75,0-1.36-.61-1.36-1.36s.61-1.36,1.36-1.36,1.36,.61,1.36,1.36-.61,1.36-1.36,1.36Z"/>
            </g>
            <path class="cls-3" d="M406.6,411.31c-.29-.12-.81-.31-1.38-.24-.55,.07-.84,.34-.84,1.01v.87h2.23v1.72h-2.23v5.45h-1.93v-5.45h-1.34v-1.72h1.34v-.89c0-1.68,.9-2.78,2.57-2.78,.64,0,1.16,.12,1.59,.31v1.73Z"/>
            <path class="cls-3" d="M411.3,414.64c-.18-.03-.36-.05-.53-.05-.9,0-1.51,.55-1.51,1.61v3.91h-1.93v-7.17h1.87v.78c.45-.67,1.14-.98,2.02-.98,.41,0,.85,.13,1.09,.34l-1.02,1.55Z"/>
            <path class="cls-3" d="M418.97,416.52c0,.22-.01,.49-.04,.65h-5.08c.21,1.04,.93,1.49,1.84,1.49,.62,0,1.3-.25,1.81-.69l1.13,1.24c-.81,.75-1.85,1.09-3.06,1.09-2.2,0-3.72-1.5-3.72-3.75s1.48-3.8,3.63-3.8,3.48,1.53,3.49,3.77Zm-5.11-.67h3.18c-.18-.92-.73-1.44-1.56-1.44-.91,0-1.44,.55-1.61,1.44Z"/>
            <path class="cls-3" d="M426.62,416.52c0,.22-.01,.49-.04,.65h-5.08c.21,1.04,.93,1.49,1.84,1.49,.62,0,1.3-.25,1.81-.69l1.13,1.24c-.81,.75-1.85,1.09-3.06,1.09-2.2,0-3.72-1.5-3.72-3.75s1.48-3.8,3.63-3.8,3.48,1.53,3.49,3.77Zm-5.11-.67h3.18c-.18-.92-.73-1.44-1.56-1.44-.91,0-1.44,.55-1.61,1.44Z"/>
            <path class="cls-3" d="M434.96,416.53c0,2.15-1.5,3.77-3.47,3.77-.96,0-1.64-.38-2.11-.93v3.71h-1.92v-10.13h1.89v.79c.47-.58,1.15-.98,2.14-.98,1.98,0,3.48,1.62,3.48,3.77Zm-5.68,0c0,1.13,.75,1.98,1.84,1.98s1.85-.88,1.85-1.98-.71-1.98-1.85-1.98-1.84,.84-1.84,1.98Z"/>
            <path class="cls-3" d="M438.07,410.6c0,.7-.54,1.23-1.24,1.23s-1.23-.53-1.23-1.23,.53-1.24,1.23-1.24,1.24,.55,1.24,1.24Zm-.26,9.52h-1.93v-7.17h1.93v7.17Z"/>
            <path class="cls-3" d="M441.03,415.5l2.7-2.55h2.37l-3.48,3.38,3.5,3.8h-2.38l-2.72-2.9v2.9h-1.93v-10.66h1.93v6.04Z"/>
          </g>
          <g>
            <path class="cls-3" d="M309.41,420.05v-1.05c-.53,.72-1.39,1.23-2.39,1.23-1.85,0-3.15-1.41-3.15-3.71s1.29-3.72,3.15-3.72c.95,0,1.82,.47,2.39,1.25v-3.76h1.1v9.77h-1.1Zm0-1.92v-3.21c-.4-.62-1.24-1.14-2.12-1.14-1.42,0-2.27,1.17-2.27,2.74s.85,2.72,2.27,2.72c.88,0,1.73-.5,2.12-1.11Z"/>
            <path class="cls-3" d="M311.93,416.51c0-2.05,1.46-3.71,3.49-3.71,2.14,0,3.4,1.67,3.4,3.79v.28h-5.73c.09,1.33,1.03,2.45,2.55,2.45,.81,0,1.63-.32,2.18-.89l.53,.72c-.7,.7-1.65,1.08-2.81,1.08-2.09,0-3.6-1.51-3.6-3.72Zm3.47-2.8c-1.51,0-2.26,1.27-2.31,2.36h4.64c-.01-1.05-.72-2.36-2.33-2.36Z"/>
            <path class="cls-3" d="M319.61,419.11l.57-.79c.47,.54,1.36,1.01,2.33,1.01,1.08,0,1.67-.51,1.67-1.22,0-1.71-4.38-.66-4.38-3.28,0-1.1,.95-2.04,2.64-2.04,1.2,0,2.05,.45,2.62,1.03l-.51,.76c-.42-.51-1.2-.89-2.11-.89-.97,0-1.57,.48-1.57,1.11,0,1.55,4.38,.53,4.38,3.28,0,1.19-.95,2.14-2.78,2.14-1.16,0-2.14-.35-2.86-1.11Z"/>
            <path class="cls-3" d="M326.48,411.23c0-.41,.34-.75,.73-.75s.75,.34,.75,.75-.34,.73-.75,.73-.73-.32-.73-.73Zm.19,8.82v-7.07h1.1v7.07h-1.1Z"/>
            <path class="cls-3" d="M329.58,421.87l.56-.82c.59,.7,1.29,.97,2.3,.97,1.17,0,2.27-.57,2.27-2.12v-1.01c-.51,.72-1.38,1.26-2.37,1.26-1.85,0-3.15-1.38-3.15-3.66s1.29-3.68,3.15-3.68c.95,0,1.8,.47,2.37,1.25v-1.07h1.1v6.87c0,2.34-1.64,3.08-3.37,3.08-1.2,0-2.02-.23-2.86-1.05Zm5.13-3.85v-3.09c-.38-.62-1.23-1.14-2.11-1.14-1.42,0-2.27,1.13-2.27,2.7s.85,2.7,2.27,2.7c.88,0,1.73-.54,2.11-1.16Z"/>
            <path class="cls-3" d="M342.41,420.05v-4.63c0-1.24-.63-1.64-1.58-1.64-.86,0-1.68,.53-2.09,1.1v5.17h-1.1v-7.07h1.1v1.03c.5-.59,1.46-1.2,2.52-1.2,1.48,0,2.26,.75,2.26,2.28v4.97h-1.1Z"/>
            <path class="cls-3" d="M344.93,416.51c0-2.05,1.46-3.71,3.49-3.71,2.14,0,3.4,1.67,3.4,3.79v.28h-5.73c.09,1.33,1.03,2.45,2.55,2.45,.81,0,1.63-.32,2.18-.89l.53,.72c-.7,.7-1.66,1.08-2.81,1.08-2.09,0-3.6-1.51-3.6-3.72Zm3.47-2.8c-1.51,0-2.26,1.27-2.31,2.36h4.64c-.01-1.05-.72-2.36-2.33-2.36Z"/>
            <path class="cls-3" d="M358.35,420.05v-1.05c-.53,.72-1.39,1.23-2.39,1.23-1.85,0-3.15-1.41-3.15-3.71s1.29-3.72,3.15-3.72c.95,0,1.82,.47,2.39,1.25v-3.76h1.1v9.77h-1.1Zm0-1.92v-3.21c-.4-.62-1.25-1.14-2.12-1.14-1.42,0-2.27,1.17-2.27,2.74s.85,2.72,2.27,2.72c.88,0,1.73-.5,2.12-1.11Z"/>
            <path class="cls-3" d="M364.69,420.05v-9.77h1.1v3.76c.57-.78,1.42-1.25,2.39-1.25,1.85,0,3.15,1.46,3.15,3.72s-1.3,3.71-3.15,3.71c-1,0-1.86-.51-2.39-1.23v1.05h-1.1Zm3.21-.81c1.44,0,2.29-1.16,2.29-2.72s-.85-2.74-2.29-2.74c-.86,0-1.73,.53-2.11,1.14v3.21c.38,.62,1.25,1.11,2.11,1.11Z"/>
            <path class="cls-3" d="M372.53,421.82c.16,.07,.42,.12,.6,.12,.48,0,.81-.16,1.05-.75l.47-1.07-2.96-7.15h1.19l2.36,5.8,2.34-5.8h1.2l-3.54,8.51c-.42,1.03-1.14,1.42-2.08,1.44-.23,0-.6-.04-.81-.1l.18-1Z"/>
          </g>
        </g>
        <path class="cls-4" d="M-9.88,389.92s-33.49-28.47,28.47-23.44c61.95,5.02,112.19,58.6,185.86,56.93,73.67-1.67,155.72-41.86,214.33-48.56,58.6-6.7,113.86,41.86,157.4,41.86s83.72-33.49,125.58-36.84,85.4,8.37,85.4,8.37l-23.44,122.23L-19.53,536.64l9.65-146.72Z"/>
        <g>
          <path class="cls-4" d="M65.65,313.19c-1.17-.07-2.11,.86-2.15,2,0,.14-.5,14.53-.99,26.31-.4,9.53-2.69,14.63-4.52,17.22l-.27-34.03c0-1.14-.94-2.06-2.08-2.06,0,0-.01,0-.02,0-1.15,0-2.07,.95-2.06,2.09l.16,19.27c-1.82-1.5-3.6-3.18-4.16-4.3-.8-1.89-1.28-15.67-1.28-27.9,0-1.15-.93-2.08-2.08-2.08-1.15,0-2.08,.93-2.08,2.08,0,6.17,.12,26.57,1.71,29.74,1.42,2.84,6.09,6.4,7.93,7.73l.2,24.72c-6.57-3.89-5.21-17.12-5.2-17.26,.12-1.14-.7-2.17-1.84-2.29-1.14-.12-2.17,.69-2.29,1.83-.09,.78-1.92,18.54,9.36,22.29l.06,7.76c0,1.14,.94,2.06,2.08,2.06,0,0,.01,0,.02,0,1.15,0,2.07-.95,2.06-2.09l-.18-21.75c1.9-1.2,7.93-6.3,8.62-22.86,.49-11.79,.99-26.2,.99-26.34,.04-1.15-.86-2.11-2-2.15Z"/>
          <path class="cls-4" d="M167.59,379.42c0-1.15-.93-2.08-2.08-2.08s-2.08,.93-2.08,2.08c0,5.82-2.39,8.71-4.05,10.02,.16-7.71,.25-16.9,.25-17.45,.01-1.15-.91-2.09-2.06-2.1,0,0-.01,0-.02,0-1.14,0-2.07,.92-2.08,2.06,0,.19-.19,19.41-.5,25.75-.28,5.85-4.46,8.76-7.27,10.07v-28.84c0-1.15-.93-2.08-2.08-2.08s-2.08,.93-2.08,2.08v14.02c-1.6-.87-3.65-2.54-4.34-5.55-1.41-6.13-.95-25.61-.94-25.81,.03-1.15-.88-2.1-2.02-2.13-1.15-.02-2.1,.88-2.13,2.02-.02,.62-.29,11.89,.25,20.21-2.15-1.22-4.25-2.84-4.6-4.27-.76-3.05-.93-11.43-.93-14.4,0-1.15-.93-2.08-2.08-2.08-1.15,0-2.08,.93-2.08,2.08,0,.46,.01,11.23,1.06,15.41,1.07,4.29,7.1,7.25,9.11,8.13,.1,.65,.2,1.25,.32,1.76,1.38,5.96,6.19,8.35,8.39,9.16v23.16c0,1.15,.93,2.08,2.08,2.08s2.08-.93,2.08-2.08v-8.39c4.49-1.57,11.02-5.95,11.42-14.37,.05-.96,.09-2.2,.13-3.61,.43-.16,8.32-3.18,8.32-14.87Z"/>
          <path class="cls-4" d="M704.76,348.23c1.04-4.17,1.06-14.95,1.06-15.41,0-1.15-.93-2.08-2.08-2.08s-2.08,.93-2.08,2.08c0,2.97-.17,11.34-.93,14.4-.35,1.4-2.39,3-4.5,4.21,.4-5.6,.16-11.19,.14-11.52-.05-1.15-1.03-2.05-2.17-1.98-1.15,.05-2.03,1.02-1.98,2.17,0,.11,.47,11-.94,17.1-.7,3.01-2.75,4.68-4.34,5.55v-29.44c0-1.15-.93-2.08-2.08-2.08s-2.08,.93-2.08,2.08v44.26c-2.82-1.31-6.99-4.21-7.27-10.06-.3-6.33-.49-36.14-.5-36.44,0-1.15-.96-2.06-2.09-2.06-1.15,0-2.07,.94-2.06,2.09,0,.9,.11,16.52,.28,27.42-1.83-2.56-4.46-8.45-4.07-21.04,.03-1.15-.87-2.1-2.01-2.14-1.16-.02-2.1,.87-2.14,2.01-.67,21.95,7.25,26.26,8.16,26.68,.06,.03,.12,.04,.18,.06,.04,1.52,.07,2.77,.11,3.62,.4,8.41,6.94,12.79,11.42,14.37v8.39c0,1.15,.93,2.08,2.08,2.08s2.08-.93,2.08-2.08v-23.16c2.2-.8,7.02-3.2,8.39-9.16,.13-.56,.24-1.16,.35-1.78,2.04-.9,8.02-3.86,9.08-8.12Z"/>
          <path class="cls-4" d="M309.75,350.33c-1.15,.04-2.04,1.01-2,2.15,.21,5.72,.3,13.38,.07,19.85-1.61-.49-2.86-1.37-3.79-2.67-3.21-4.48-1.63-12.29-1.61-12.37,.24-1.12-.48-2.22-1.6-2.46-1.12-.24-2.22,.48-2.46,1.6-.08,.39-1.99,9.66,2.29,15.63,1.67,2.33,4.01,3.83,6.96,4.49-.24,3.6-.62,6.46-1.19,7.83-1.49,3.57-6.84,7.36-10.18,9.37l.27-20.96c.01-1.15-.9-2.09-2.05-2.1,0,0-.02,0-.03,0-1.13,0-2.06,.91-2.08,2.05l-.14,11.3c-1.75-.75-4.57-2.29-7.16-5.21-2.42-2.72-2.19-11.38-1.48-16.2,.17-1.13-.62-2.19-1.75-2.36-1.14-.17-2.19,.61-2.36,1.75-.22,1.47-2,14.52,2.49,19.57,3.96,4.45,8.42,6.27,10.21,6.86l-.18,14.46c-6.59-1.1-6.4-14.55-6.39-14.69,.03-1.15-.87-2.1-2.02-2.14-1.13,.01-2.1,.87-2.14,2.01-.02,.74-.41,17.97,10.49,18.98l-.06,4.9c-.01,1.15,.9,2.09,2.05,2.1,0,0,.02,0,.03,0,1.13,0,2.06-.91,2.08-2.05l.17-13.51c.07-.03,.14-.04,.21-.08,.45-.24,11.13-5.89,13.87-12.47,2.58-6.2,1.75-30.87,1.65-33.66-.04-1.15-1-2.04-2.15-2Z"/>
          <path class="cls-4" d="M376.25,371.18c-.75,.15-1.22,.88-1.07,1.62,.02,.07,1.48,7.47-1.68,12.18-.32,.47-.67,.9-1.06,1.28,1.54-6.42,.36-17.06,.18-18.52-.09-.75-.78-1.3-1.53-1.2-.75,.09-1.29,.78-1.2,1.53,.76,6.4,1.11,17.54-1.2,20.14-.1,.12-.2,.19-.28,.25-.18,.05-.36,.09-.55,.13-.11-.02-.25-.08-.42-.28-2.22-2.65-1.03-14.98,.24-22.13,.13-.75-.37-1.46-1.11-1.6-.76-.14-1.46,.37-1.6,1.11-2.11,11.85-1.67,18.14-.9,21.37-1.03-1.3-1.97-3.44-1.97-6.97v-8.89c0-.76-.62-1.38-1.38-1.38s-1.38,.62-1.38,1.38v8.89c0,3.22,.69,5.55,1.61,7.25-.03-.02-.05-.03-.08-.05-4.18-3.24-4.71-10.51-4.71-10.58-.05-.76-.7-1.34-1.46-1.28-.76,.05-1.33,.7-1.29,1.46,.02,.35,.6,8.56,5.76,12.57,1.82,1.42,3.97,2.13,6.4,2.13,.06,0,.13,0,.19,0,.11,.04,.2,.06,.23,.07,.11,.03,.21,.04,.32,.04,.22,0,.42-.07,.61-.17,.42-.04,.85-.1,1.29-.19,0,0,.02,0,.03,0,.37-.03,.73-.11,1.07-.25,2.77-.75,4.94-2.28,6.47-4.56,3.8-5.66,2.16-13.92,2.09-14.27-.15-.74-.88-1.23-1.62-1.07Z"/>
          <path class="cls-4" d="M721.74,365.62c-.16-.78-.93-1.28-1.71-1.12-.78,.16-1.29,.92-1.12,1.71,.02,.08,1.56,7.83-1.76,12.78-.33,.5-.7,.94-1.11,1.35,1.62-6.73,.37-17.89,.19-19.43-.09-.79-.82-1.36-1.61-1.26-.79,.09-1.36,.81-1.26,1.61,.8,6.72,1.17,18.4-1.26,21.13-.11,.12-.21,.2-.3,.26-.19,.05-.38,.09-.58,.13-.12-.02-.26-.09-.44-.3-2.33-2.78-1.08-15.72,.25-23.22,.14-.79-.38-1.54-1.17-1.67-.79-.14-1.54,.38-1.67,1.17-2.21,12.44-1.75,19.03-.94,22.42-1.08-1.37-2.06-3.61-2.06-7.31v-9.33c0-.8-.65-1.44-1.44-1.44s-1.44,.65-1.44,1.44v9.33c0,3.38,.72,5.83,1.69,7.61-.03-.02-.05-.04-.08-.06-4.39-3.4-4.94-11.02-4.94-11.1-.05-.8-.74-1.4-1.54-1.35-.79,.05-1.4,.74-1.35,1.53,.02,.37,.63,8.99,6.05,13.19,1.91,1.49,4.16,2.23,6.71,2.23,.07,0,.14,0,.2-.01,.12,.04,.22,.06,.24,.07,.11,.03,.22,.04,.33,.04,.23,0,.45-.07,.64-.18,.44-.05,.89-.11,1.35-.2,.01,0,.02,0,.03,0,.39-.03,.76-.11,1.12-.26,2.91-.79,5.19-2.39,6.79-4.78,3.98-5.94,2.27-14.61,2.19-14.97Z"/>
          <path class="cls-4" d="M187.14,405.74c-.82,.17-1.35,.97-1.18,1.79,.02,.08,1.63,8.21-1.84,13.39-.32,.47-.67,.9-1.05,1.29,.47-1.74,.77-3.85,.87-6.36,.2-4.97-.39-9.71-.42-9.9-.1-.83-.87-1.41-1.69-1.31-.83,.11-1.42,.86-1.31,1.69,.8,6.32,.68,15.58-1.76,18.02-.64-3.63-1.01-14.51-1.01-24.36,0-.84-.68-1.51-1.51-1.51s-1.51,.68-1.51,1.51c0,15.4,.57,22.05,1.16,25.02-1.37-.7-4.28-2.94-4.28-9.46,0-9.55,.71-15.68,.71-15.75,.1-.83-.5-1.58-1.33-1.68-.84-.1-1.58,.5-1.68,1.33-.03,.25-.73,6.35-.73,16.1,0,1.99,.24,3.66,.63,5.09-2.98-5.27-3.03-13.31-3.03-13.41,0-.83-.68-1.51-1.51-1.51h0c-.83,0-1.51,.68-1.51,1.51,0,.54,.07,13.35,6.45,18.64,1.69,1.4,3.66,2.15,5.86,2.24,.24,.08,.39,.12,.43,.13,.12,.03,.23,.04,.35,.04,.26,0,.5-.08,.72-.2,.45-.04,.91-.09,1.37-.18,0,0,0,0,.01,0,0,0,0,0,0,0,0,0,.01,0,.02,0,3.6-.69,6.39-2.47,8.28-5.28,4.17-6.22,2.38-15.3,2.3-15.68-.17-.82-.97-1.34-1.79-1.18Z"/>
          <path class="cls-4" d="M671.29,376.14c-.78,.16-1.28,.92-1.13,1.7,.02,.08,1.55,7.86-1.77,12.79-.3,.45-.64,.85-1,1.22,.45-1.66,.73-3.67,.83-6.07,.19-4.75-.37-9.27-.4-9.46-.1-.79-.82-1.35-1.61-1.25-.79,.1-1.35,.82-1.25,1.61,.76,6.03,.65,14.88-1.68,17.2-.61-3.47-.97-13.86-.97-23.26,0-.8-.65-1.44-1.44-1.44s-1.44,.65-1.44,1.44c0,14.71,.54,21.06,1.1,23.89-1.31-.67-4.09-2.81-4.09-9.03,0-9.12,.67-14.98,.68-15.03,.09-.79-.47-1.51-1.27-1.6-.79-.09-1.51,.47-1.6,1.27-.03,.24-.7,6.06-.7,15.37,0,1.9,.23,3.5,.6,4.86-2.84-5.04-2.89-12.71-2.89-12.8,0-.8-.65-1.44-1.44-1.44h0c-.8,0-1.44,.65-1.44,1.44,0,.52,.07,12.75,6.16,17.79,1.62,1.34,3.49,2.05,5.6,2.14,.23,.08,.38,.12,.41,.13,.11,.03,.22,.04,.33,.04,.25,0,.48-.08,.69-.2,.43-.04,.86-.09,1.31-.18,0,0,0,0,.01,0,0,0,0,0,0,0,0,0,0,0,.01,0,3.44-.66,6.11-2.35,7.91-5.04,3.98-5.94,2.27-14.61,2.19-14.97-.16-.78-.92-1.29-1.7-1.12Z"/>
        </g>
      </g>
    </g>
  </g>
</svg>