<?xml version="1.0" encoding="UTF-8"?>
<svg id="Layer_1" data-name="Layer 1" xmlns="http://www.w3.org/2000/svg" xmlns:xlink="http://www.w3.org/1999/xlink" viewBox="0 0 4630 3165">
  <defs>
    <style>
      .cls-1 {
        fill: url(#linear-gradient-2);
        opacity: .3;
      }

      .cls-1, .cls-2, .cls-3, .cls-4, .cls-5, .cls-6 {
        isolation: isolate;
      }

      .cls-2 {
        fill: url(#linear-gradient-3);
        opacity: .21;
      }

      .cls-3 {
        fill: url(#linear-gradient-5);
      }

      .cls-3, .cls-4, .cls-5, .cls-6 {
        opacity: .9;
      }

      .cls-4 {
        fill: url(#linear-gradient-9);
      }

      .cls-5 {
        fill: url(#linear-gradient-7);
      }

      .cls-7 {
        fill: url(#linear-gradient);
      }

      .cls-8 {
        opacity: .12;
      }

      .cls-9 {
        fill: #fff;
      }

      .cls-6 {
        fill: url(#linear-gradient-10);
      }

      .cls-10 {
        fill: url(#linear-gradient-8);
      }

      .cls-11 {
        fill: url(#linear-gradient-4);
      }

      .cls-12 {
        fill: url(#linear-gradient-6);
      }

      .cls-13 {
        opacity: .62;
      }

      .cls-14 {
        opacity: .56;
      }
    </style>
    <linearGradient id="linear-gradient" x1="2174.41" y1="3050.37" x2="2508.45" y2="-70.83" gradientTransform="translate(0 3166) scale(1 -1)" gradientUnits="userSpaceOnUse">
      <stop offset=".02" stop-color="#500978"/>
      <stop offset=".07" stop-color="#550c7c"/>
      <stop offset=".13" stop-color="#661889"/>
      <stop offset=".21" stop-color="#812a9e"/>
      <stop offset=".29" stop-color="#a744bc"/>
      <stop offset=".38" stop-color="#d765e1"/>
      <stop offset=".43" stop-color="#f57af9"/>
      <stop offset=".51" stop-color="#f57eed"/>
      <stop offset=".65" stop-color="#f88bcd"/>
      <stop offset=".83" stop-color="#fba09b"/>
      <stop offset=".98" stop-color="#ffb270"/>
    </linearGradient>
    <linearGradient id="linear-gradient-2" x1="3648.34" y1="1507.67" x2="3695.03" y2="3499.88" gradientTransform="translate(0 3166) scale(1 -1)" gradientUnits="userSpaceOnUse">
      <stop offset="0" stop-color="#cb9df4"/>
      <stop offset="1" stop-color="#e5cdf9"/>
    </linearGradient>
    <linearGradient id="linear-gradient-3" x1="1908.83" y1="3004.4" x2="1888.08" y2="2101.68" gradientTransform="translate(0 3166) scale(1 -1)" gradientUnits="userSpaceOnUse">
      <stop offset="0" stop-color="#cb9df4"/>
      <stop offset="1" stop-color="#e5cdf9"/>
    </linearGradient>
    <linearGradient id="linear-gradient-4" x1="1035.02" y1="2805.45" x2="1049.95" y2="2819.54" gradientTransform="translate(0 3166) scale(1 -1)" gradientUnits="userSpaceOnUse">
      <stop offset="0" stop-color="#faeabb"/>
      <stop offset="1" stop-color="#fcf5dd"/>
    </linearGradient>
    <linearGradient id="linear-gradient-5" x1="1008.18" y1="2784.43" x2="1300.41" y2="3060.25" gradientTransform="translate(3.17 3167.38) scale(1 -1)" gradientUnits="userSpaceOnUse">
      <stop offset="0" stop-color="#fff"/>
      <stop offset=".05" stop-color="#fdf8e9"/>
      <stop offset=".3" stop-color="#f5d578"/>
      <stop offset=".62" stop-color="#ce0cf0"/>
      <stop offset=".75" stop-color="#ce0eed"/>
      <stop offset=".82" stop-color="#cf16e6"/>
      <stop offset=".89" stop-color="#d025da"/>
      <stop offset=".94" stop-color="#d239c8"/>
      <stop offset="1" stop-color="#d553b2"/>
      <stop offset="1" stop-color="#d656b0"/>
    </linearGradient>
    <linearGradient id="linear-gradient-6" x1="1744.26" y1="2871.9" x2="1755.91" y2="2882.9" gradientTransform="translate(0 3166) scale(1 -1)" gradientUnits="userSpaceOnUse">
      <stop offset="0" stop-color="#faeabb"/>
      <stop offset="1" stop-color="#fcf5dd"/>
    </linearGradient>
    <linearGradient id="linear-gradient-7" x1="1724.18" y1="2857.11" x2="1927.73" y2="3049.24" gradientTransform="translate(3.17 3167.38) scale(1 -1)" gradientUnits="userSpaceOnUse">
      <stop offset="0" stop-color="#fff"/>
      <stop offset=".05" stop-color="#fdf8e9"/>
      <stop offset=".3" stop-color="#f5d578"/>
      <stop offset=".62" stop-color="#ce0cf0"/>
      <stop offset=".75" stop-color="#ce0eed"/>
      <stop offset=".82" stop-color="#cf16e6"/>
      <stop offset=".89" stop-color="#d025da"/>
      <stop offset=".94" stop-color="#d239c8"/>
      <stop offset="1" stop-color="#d553b2"/>
      <stop offset="1" stop-color="#d656b0"/>
    </linearGradient>
    <linearGradient id="linear-gradient-8" x1="167.16" y1="2677.31" x2="181.34" y2="2690.69" gradientTransform="translate(0 3166) scale(1 -1)" gradientUnits="userSpaceOnUse">
      <stop offset="0" stop-color="#faeabb"/>
      <stop offset="1" stop-color="#fcf5dd"/>
    </linearGradient>
    <linearGradient id="linear-gradient-9" x1="140.05" y1="2655.9" x2="412.01" y2="2912.59" gradientTransform="translate(3.17 3167.38) scale(1 -1)" gradientUnits="userSpaceOnUse">
      <stop offset="0" stop-color="#fff"/>
      <stop offset=".05" stop-color="#fdf8e9"/>
      <stop offset=".3" stop-color="#f5d578"/>
      <stop offset=".62" stop-color="#ce0cf0"/>
      <stop offset=".75" stop-color="#ce0eed"/>
      <stop offset=".82" stop-color="#cf16e6"/>
      <stop offset=".89" stop-color="#d025da"/>
      <stop offset=".94" stop-color="#d239c8"/>
      <stop offset="1" stop-color="#d553b2"/>
      <stop offset="1" stop-color="#d656b0"/>
    </linearGradient>
    <linearGradient id="linear-gradient-10" x1="671.43" y1="3084.21" x2="806.5" y2="3211.69" gradientTransform="translate(3.17 3167.38) scale(1 -1)" gradientUnits="userSpaceOnUse">
      <stop offset="0" stop-color="#fff"/>
      <stop offset=".05" stop-color="#fdf8e9"/>
      <stop offset=".3" stop-color="#f5d578"/>
      <stop offset=".62" stop-color="#ce0cf0"/>
      <stop offset=".75" stop-color="#ce0eed"/>
      <stop offset=".82" stop-color="#cf16e6"/>
      <stop offset=".89" stop-color="#d025da"/>
      <stop offset=".94" stop-color="#d239c8"/>
      <stop offset="1" stop-color="#d553b2"/>
      <stop offset="1" stop-color="#d656b0"/>
    </linearGradient>
  </defs>
  <g id="Layer_7" data-name="Layer 7">
    <g>
      <rect class="cls-7" x="-86.75" y="-77.91" width="4830.52" height="3266.91"/>
      <g>
        <path class="cls-9" d="M4570.65,297.17c0,4.79-3.88,8.66-8.66,8.66s-8.66-3.88-8.66-8.66,3.88-8.66,8.66-8.66,8.66,3.88,8.66,8.66Z"/>
        <path class="cls-9" d="M4471.32,172.79c0,3.4-2.76,6.16-6.16,6.16s-6.16-2.76-6.16-6.16,2.76-6.16,6.16-6.16,6.16,2.76,6.16,6.16Z"/>
        <path class="cls-9" d="M4371.53,72.35c0,4.38-3.55,7.92-7.92,7.92s-7.92-3.55-7.92-7.92,3.55-7.92,7.92-7.92,7.92,3.55,7.92,7.92Z"/>
        <circle class="cls-9" cx="4606.34" cy="65.21" r="7.7" transform="translate(2764.88 4287.96) rotate(-67.25)"/>
        <path class="cls-9" d="M4547.58,232.33c0,2.91-2.36,5.26-5.26,5.26s-5.26-2.36-5.26-5.26,2.36-5.26,5.26-5.26,5.26,2.36,5.26,5.26Z"/>
        <path class="cls-9" d="M4513.64,326.43c0,2.68-2.17,4.86-4.86,4.86s-4.86-2.17-4.86-4.86,2.17-4.86,4.86-4.86,4.86,2.17,4.86,4.86Z"/>
        <path class="cls-9" d="M4569.07,442.93c0,4.24-3.44,7.68-7.68,7.68s-7.68-3.44-7.68-7.68,3.44-7.68,7.68-7.68,7.68,3.44,7.68,7.68Z"/>
        <path class="cls-9" d="M4443.22,313.39c0,3.32-2.69,6.02-6.02,6.02s-6.02-2.69-6.02-6.02,2.69-6.02,6.02-6.02,6.02,2.69,6.02,6.02Z"/>
        <path class="cls-9" d="M4570.34,745.21c0,2.84-2.3,5.14-5.14,5.14s-5.14-2.3-5.14-5.14,2.3-5.14,5.14-5.14,5.14,2.3,5.14,5.14Z"/>
        <path class="cls-9" d="M4357.84,494.69c0,1.71-1.39,3.1-3.1,3.1s-3.1-1.39-3.1-3.1,1.39-3.1,3.1-3.1,3.1,1.39,3.1,3.1Z"/>
        <path class="cls-9" d="M4261.16,550.34c0,5.14-4.17,9.31-9.31,9.31s-9.31-4.17-9.31-9.31,4.17-9.31,9.31-9.31,9.31,4.17,9.31,9.31Z"/>
        <circle class="cls-9" cx="4174.95" cy="593.14" r="8.4" transform="translate(15.23 1285.06) rotate(-17.53)"/>
        <path class="cls-9" d="M4002.95,413.45c0,1.83-1.48,3.31-3.31,3.31s-3.31-1.48-3.31-3.31,1.48-3.3,3.31-3.3,3.31,1.48,3.31,3.3Z"/>
        <path class="cls-9" d="M3940.98,513.56c0,5.33-4.32,9.66-9.66,9.66s-9.66-4.32-9.66-9.66,4.32-9.66,9.66-9.66,9.66,4.32,9.66,9.66Z"/>
        <circle class="cls-9" cx="3750.07" cy="305.57" r="9.73"/>
        <path class="cls-9" d="M3912.82,317.35c0,3.84-3.12,6.96-6.96,6.96s-6.96-3.12-6.96-6.96,3.12-6.96,6.96-6.96,6.96,3.12,6.96,6.96Z"/>
        <path class="cls-9" d="M3856.91,97.1c0,1.72-1.39,3.11-3.11,3.11s-3.11-1.39-3.11-3.11,1.39-3.11,3.11-3.11,3.11,1.39,3.11,3.11Z"/>
        <path class="cls-9" d="M3852.37,176.36c0,3.81-3.09,6.9-6.9,6.9s-6.9-3.09-6.9-6.9,3.09-6.9,6.9-6.9,6.9,3.09,6.9,6.9Z"/>
        <path class="cls-9" d="M3890.67,31.31c0,4.56-3.69,8.25-8.25,8.25s-8.25-3.69-8.25-8.25,3.69-8.25,8.25-8.25,8.25,3.69,8.25,8.25Z"/>
        <path class="cls-9" d="M3607.85,270.23c0,2.3-1.87,4.17-4.17,4.17s-4.17-1.87-4.17-4.17,1.87-4.17,4.17-4.17,4.17,1.87,4.17,4.17Z"/>
        <circle class="cls-9" cx="3509.9" cy="276.4" r="8.52" transform="translate(832.58 2562.83) rotate(-45)"/>
        <circle class="cls-9" cx="3294.86" cy="5.79" r="7.91" transform="translate(15.72 327.27) rotate(-5.7)"/>
        <path class="cls-9" d="M3048.21,45.54c0,3.5-2.84,6.33-6.33,6.33s-6.34-2.84-6.34-6.33,2.84-6.33,6.34-6.33,6.33,2.84,6.33,6.33Z"/>
        <path class="cls-9" d="M2890.98,205.59c0,5.17-4.19,9.36-9.36,9.36s-9.36-4.19-9.36-9.36,4.19-9.36,9.36-9.36,9.36,4.19,9.36,9.36Z"/>
        <path class="cls-9" d="M2783.16,278.7c0,5.11-4.14,9.25-9.25,9.25s-9.25-4.14-9.25-9.25,4.14-9.25,9.25-9.25,9.25,4.14,9.25,9.25Z"/>
        <path class="cls-9" d="M2683.22,166.72c0,4.22-3.42,7.64-7.64,7.64s-7.64-3.42-7.64-7.64,3.42-7.64,7.64-7.64,7.64,3.42,7.64,7.64Z"/>
        <path class="cls-9" d="M2777.34,284.09c0,4.33-3.51,7.84-7.84,7.84s-7.84-3.51-7.84-7.84,3.51-7.84,7.84-7.84,7.84,3.51,7.84,7.84Z"/>
        <path class="cls-9" d="M2544.84,20.42c0,5.37-4.35,9.71-9.71,9.71s-9.71-4.35-9.71-9.71,4.35-9.71,9.71-9.71,9.71,4.35,9.71,9.71Z"/>
        <path class="cls-9" d="M2567.33,214.61c0,4.81-3.9,8.7-8.7,8.7s-8.7-3.9-8.7-8.7,3.9-8.7,8.7-8.7,8.7,3.9,8.7,8.7Z"/>
        <path class="cls-9" d="M2548.02,243.82c0,1.6-1.3,2.9-2.9,2.9s-2.9-1.3-2.9-2.9,1.3-2.9,2.9-2.9,2.9,1.3,2.9,2.9Z"/>
        <path class="cls-9" d="M2753.98,278.9c0,4.51-3.66,8.17-8.17,8.17s-8.17-3.66-8.17-8.17,3.66-8.17,8.17-8.17,8.17,3.66,8.17,8.17Z"/>
        <path class="cls-9" d="M2817.35,331.51c0,1.82-1.48,3.3-3.3,3.3s-3.3-1.48-3.3-3.3,1.48-3.3,3.3-3.3,3.3,1.48,3.3,3.3Z"/>
        <path class="cls-9" d="M2987.35,159.56c0,1.77-1.44,3.21-3.21,3.21s-3.21-1.44-3.21-3.21,1.44-3.21,3.21-3.21,3.21,1.44,3.21,3.21Z"/>
        <circle class="cls-9" cx="3001.33" cy="347.98" r="8.23" transform="translate(97.03 1181.13) rotate(-22.62)"/>
        <circle class="cls-9" cx="3190.11" cy="382.29" r="7.94" transform="translate(664.04 2367.72) rotate(-45)"/>
        <path class="cls-9" d="M3237.35,97.52c0,1.86-1.51,3.38-3.38,3.38s-3.38-1.51-3.38-3.38,1.51-3.38,3.38-3.38,3.38,1.51,3.38,3.38Z"/>
        <path class="cls-9" d="M3325.77,61.98c0,4.74-3.84,8.58-8.58,8.58s-8.58-3.84-8.58-8.58,3.84-8.58,8.58-8.58,8.58,3.84,8.58,8.58Z"/>
        <circle class="cls-9" cx="3171.19" cy="242.14" r="7.95" transform="translate(8.39 576.44) rotate(-10.4)"/>
        <circle class="cls-9" cx="2996.67" cy="262.03" r="6.79"/>
        <path class="cls-9" d="M2985.59,126.41c0,4.96-4.02,8.98-8.98,8.98s-8.98-4.02-8.98-8.98,4.02-8.98,8.98-8.98,8.98,4.02,8.98,8.98Z"/>
        <path class="cls-9" d="M2857.92,171.8c0,2.64-2.14,4.77-4.77,4.77s-4.77-2.14-4.77-4.77,2.14-4.77,4.77-4.77,4.77,2.14,4.77,4.77Z"/>
        <circle class="cls-9" cx="2622.26" cy="72.9" r="8.75"/>
        <path class="cls-9" d="M2603.69,119.82c0,2.98-2.42,5.39-5.39,5.39s-5.39-2.42-5.39-5.39,2.42-5.39,5.39-5.39,5.39,2.42,5.39,5.39Z"/>
        <path class="cls-9" d="M2608.61,1.48c0,2.12-1.72,3.85-3.85,3.85s-3.85-1.72-3.85-3.85,1.72-3.85,3.85-3.85,3.85,1.72,3.85,3.85Z"/>
        <path class="cls-9" d="M2543.82,3.65c0,4.03-3.27,7.3-7.3,7.3s-7.3-3.27-7.3-7.3,3.27-7.3,7.3-7.3,7.3,3.27,7.3,7.3Z"/>
        <path class="cls-9" d="M2363.4,42.06c0,2.33-1.89,4.21-4.21,4.21s-4.21-1.89-4.21-4.21,1.89-4.21,4.21-4.21,4.21,1.89,4.21,4.21Z"/>
        <path class="cls-9" d="M2279.78,236.28c0,2.91-2.36,5.27-5.27,5.27s-5.27-2.36-5.27-5.27,2.36-5.27,5.27-5.27,5.27,2.36,5.27,5.27Z"/>
        <path class="cls-9" d="M2207.56,198.65c0,1.67-1.35,3.02-3.02,3.02s-3.02-1.35-3.02-3.02,1.35-3.02,3.02-3.02,3.02,1.35,3.02,3.02Z"/>
        <path class="cls-9" d="M2152.41,247.28c0,4.93-4,8.93-8.93,8.93s-8.93-4-8.93-8.93,4-8.93,8.93-8.93,8.93,4,8.93,8.93Z"/>
        <path class="cls-9" d="M1889.52,138.33c0,5.07-4.11,9.18-9.18,9.18s-9.18-4.11-9.18-9.18,4.11-9.18,9.18-9.18,9.18,4.11,9.18,9.18h0Z"/>
        <path class="cls-9" d="M1950.79,515.31c0,4.76-3.86,8.62-8.62,8.62s-8.62-3.86-8.62-8.62,3.86-8.62,8.62-8.62,8.62,3.86,8.62,8.62Z"/>
        <path class="cls-9" d="M1858.8,461.76c0,3.42-2.78,6.2-6.2,6.2s-6.2-2.78-6.2-6.2,2.78-6.2,6.2-6.2,6.2,2.78,6.2,6.2Z"/>
        <path class="cls-9" d="M1702.61,409.62c0,2.88-2.33,5.21-5.21,5.21s-5.21-2.33-5.21-5.21,2.33-5.21,5.21-5.21,5.21,2.33,5.21,5.21Z"/>
        <circle class="cls-9" cx="1726.17" cy="484.36" r="3.98"/>
        <path class="cls-9" d="M1707.71,511.75c0,5.2-4.22,9.42-9.42,9.42s-9.42-4.22-9.42-9.42,4.22-9.42,9.42-9.42,9.42,4.22,9.42,9.42h0Z"/>
        <path class="cls-9" d="M1312.18,843.9c0,2.58-2.09,4.67-4.67,4.67s-4.67-2.09-4.67-4.67,2.09-4.67,4.67-4.67,4.67,2.09,4.67,4.67Z"/>
        <path class="cls-9" d="M1049.32,623.19c0,5.16-4.19,9.35-9.35,9.35s-9.35-4.18-9.35-9.35,4.18-9.35,9.35-9.35,9.35,4.18,9.35,9.35Z"/>
        <path class="cls-9" d="M854.01,820.82c0,4.88-3.96,8.84-8.84,8.84s-8.84-3.96-8.84-8.84,3.96-8.84,8.84-8.84,8.84,3.96,8.84,8.84Z"/>
        <path class="cls-9" d="M655.17,773.36c0,3.74-3.03,6.76-6.76,6.76s-6.76-3.03-6.76-6.76,3.03-6.76,6.76-6.76,6.76,3.03,6.76,6.76Z"/>
        <path class="cls-9" d="M632.5,535.42c0,3.42-2.77,6.18-6.18,6.18s-6.18-2.77-6.18-6.18,2.77-6.18,6.18-6.18,6.18,2.77,6.18,6.18Z"/>
        <path class="cls-9" d="M468.52,432.57c0,4.93-4,8.93-8.93,8.93s-8.93-4-8.93-8.93,4-8.93,8.93-8.93,8.93,4,8.93,8.93Z"/>
        <circle class="cls-9" cx="507.56" cy="306.58" r="8.06"/>
        <path class="cls-9" d="M495.23,76.76c0,4.05-3.28,7.33-7.33,7.33s-7.33-3.28-7.33-7.33,3.28-7.33,7.33-7.33,7.33,3.28,7.33,7.33Z"/>
        <circle class="cls-9" cx="699.54" cy="202.37" r="3.96"/>
        <circle class="cls-9" cx="1119.12" cy="106.28" r="7.71" transform="translate(834.32 1193.76) rotate(-80.75)"/>
        <path class="cls-9" d="M1385.96,76.83c0,3.74-3.03,6.77-6.77,6.77s-6.77-3.03-6.77-6.77,3.03-6.77,6.77-6.77,6.77,3.03,6.77,6.77Z"/>
        <path class="cls-9" d="M1461.89,67.92c0,3.41-2.77,6.18-6.18,6.18s-6.18-2.77-6.18-6.18,2.77-6.18,6.18-6.18,6.18,2.77,6.18,6.18Z"/>
        <path class="cls-9" d="M1482.6,160.52c0,2.89-2.34,5.23-5.23,5.23s-5.23-2.34-5.23-5.23,2.34-5.23,5.23-5.23,5.23,2.34,5.23,5.23Z"/>
        <circle class="cls-9" cx="1183.87" cy="193.42" r="6.9"/>
        <path class="cls-9" d="M1342.66,358.27c0,2.86-2.32,5.18-5.18,5.18s-5.18-2.32-5.18-5.18,2.32-5.18,5.18-5.18,5.18,2.32,5.18,5.18Z"/>
        <path class="cls-9" d="M1188.06,339.73c0,3.65-2.96,6.61-6.61,6.61s-6.61-2.96-6.61-6.61,2.96-6.61,6.61-6.61,6.61,2.96,6.61,6.61Z"/>
        <path class="cls-9" d="M1212.34,415.51c0,4.72-3.83,8.55-8.55,8.55s-8.55-3.83-8.55-8.55,3.83-8.55,8.55-8.55,8.55,3.83,8.55,8.55Z"/>
        <path class="cls-9" d="M950.93,364.27c0,3.25-2.63,5.88-5.88,5.88s-5.88-2.63-5.88-5.88,2.63-5.88,5.88-5.88,5.88,2.63,5.88,5.88Z"/>
        <path class="cls-9" d="M881.64,383.19c0,4.87-3.95,8.82-8.82,8.82s-8.82-3.95-8.82-8.82,3.95-8.82,8.82-8.82,8.82,3.95,8.82,8.82Z"/>
        <path class="cls-9" d="M836.6,391.15c0,1.57-1.27,2.84-2.84,2.84s-2.84-1.27-2.84-2.84,1.27-2.84,2.84-2.84,2.84,1.27,2.84,2.84Z"/>
        <path class="cls-9" d="M793.09,769.42c0,4.85-3.93,8.79-8.79,8.79s-8.79-3.94-8.79-8.79,3.93-8.79,8.79-8.79,8.79,3.93,8.79,8.79Z"/>
        <circle class="cls-9" cx="667.91" cy="761.74" r="9.01"/>
        <path class="cls-9" d="M593.14,660.55c0,5.37-4.35,9.72-9.72,9.72s-9.72-4.35-9.72-9.72,4.35-9.72,9.72-9.72,9.72,4.35,9.72,9.72Z"/>
        <path class="cls-9" d="M491.75,602.3c0,3.71-3.01,6.72-6.72,6.72s-6.72-3.01-6.72-6.72,3.01-6.72,6.72-6.72,6.72,3.01,6.72,6.72Z"/>
        <path class="cls-9" d="M312.78,644.93c0,4.56-3.69,8.25-8.25,8.25s-8.25-3.69-8.25-8.25,3.69-8.25,8.25-8.25,8.25,3.69,8.25,8.25Z"/>
        <path class="cls-9" d="M134.56,258.39c0,2.91-2.36,5.28-5.28,5.28s-5.28-2.36-5.28-5.28,2.36-5.28,5.28-5.28,5.28,2.36,5.28,5.28Z"/>
        <path class="cls-9" d="M427.45,306.75c0,3.59-2.91,6.49-6.49,6.49s-6.49-2.91-6.49-6.49,2.91-6.49,6.49-6.49,6.49,2.91,6.49,6.49Z"/>
        <circle class="cls-9" cx="166.82" cy="304.58" r="5.7"/>
        <path class="cls-9" d="M305.87,9.71c0,3.35-2.72,6.07-6.07,6.07s-6.07-2.72-6.07-6.07,2.72-6.07,6.07-6.07,6.07,2.72,6.07,6.07Z"/>
        <circle class="cls-9" cx="109.71" cy="317.65" r="9.06"/>
      </g>
      <path class="cls-1" d="M5371.13,211.97s-1318.99,356.93-769.39,423.03c204.65,24.61,996.11,255.29,373.53,367.54-1175.75,211.99-1712.46-117.29-1150.26-160.65,263.11-20.29,335.87-124.25-304.38-130.27-734.69-6.9-1157.35-119.5-147-153.1,456.81-15.19,491.61-332.42-1345.18-354.14-294.63-3.48-294.63-65.74,403.83-62.47,685.24,3.21,2792.02-92.81,2792.02-92.81,0,0,561.9,144.91,146.84,162.87h0Z"/>
      <path class="cls-2" d="M920.21,480.46c-442.46-83.7,2095.21-103.63,1853.61-27.69-241.6,75.93-1483.77,37.76-1263.05,108.62,220.71,70.86,1283.26,232.56,1683.88,251.8,400.62,19.24,1696.47,283.12,317.55,313.3-1378.92,30.18-4262.77-119.85-3819.66-144.93,692-39.16,4000.03-62.17,1591.87-135.32-1197.17-36.37-1660.64-108.27-959.42-131.16,1029.47-33.59,1753.5-15.51,595.22-234.62h0Z"/>
      <g>
        <g>
          <path class="cls-11" d="M1050.72,367.33c-11.91,0-21.6-9.69-21.6-21.59,0-5.23,1.9-10.29,5.34-14.22l7.81,6.83c-1.79,2.05-2.77,4.67-2.77,7.39,0,6.18,5.03,11.22,11.22,11.22,2.53,0,4.91-.82,6.9-2.37l6.39,8.17c-3.83,2.99-8.42,4.57-13.29,4.57h0Z"/>
          <path class="cls-3" d="M1313.55,84.66s-89.81,87.86-124.89,121.11c-29.67,28.12-117.84,105.82-142.79,122.16-7.49,4.91-17.89,19.04-7,29.92,10.89,10.89,24.73,.44,30.45-7.48,14.06-19.51,92.41-109.3,121.4-138.79,33.61-34.19,125.4-124.34,125.4-124.34l-2.57-2.58Z"/>
        </g>
        <g class="cls-13">
          <path class="cls-12" d="M1756.34,299.32c-9.16,0-16.62-7.45-16.62-16.62,0-4.03,1.46-7.92,4.11-10.95l7.81,6.84c-.99,1.13-1.54,2.59-1.54,4.11,0,3.44,2.8,6.24,6.24,6.24,1.41,0,2.73-.46,3.84-1.32l6.39,8.18c-2.94,2.3-6.48,3.52-10.22,3.52h-.01Z"/>
          <path class="cls-5" d="M1937.85,102.49s-62.56,61.2-86.99,84.36c-20.67,19.59-82.09,73.71-99.46,85.09-5.22,3.42-12.46,13.26-4.88,20.84s17.23,.31,21.21-5.21c9.8-13.59,64.37-76.13,84.56-96.67,23.41-23.81,87.35-86.61,87.35-86.61,0,0-1.79-1.8-1.79-1.8Z"/>
        </g>
        <g class="cls-8">
          <path class="cls-10" d="M182.03,495.11c-11.28,0-20.46-9.18-20.46-20.46,0-4.96,1.8-9.75,5.06-13.47l7.81,6.84c-1.61,1.84-2.49,4.19-2.49,6.64,0,5.56,4.52,10.08,10.08,10.08,2.27,0,4.41-.74,6.2-2.13l6.39,8.18c-3.63,2.83-7.98,4.33-12.59,4.33h0Z"/>
          <path class="cls-4" d="M424.46,233.88s-83.58,81.76-116.23,112.71c-27.61,26.17-109.67,98.48-132.88,113.68-6.97,4.57-16.65,17.72-6.52,27.85,10.13,10.13,23.02,.41,28.34-6.96,13.09-18.16,86-101.72,112.98-129.16,31.28-31.82,116.7-115.72,116.7-115.72l-2.39-2.4h0Z"/>
        </g>
        <g class="cls-14">
          <path class="cls-6" d="M814.27-54.69s-41.51,40.61-57.72,55.98c-13.71,13-54.47,48.91-66,56.46-3.46,2.27-8.27,8.8-3.24,13.83s11.43,.2,14.07-3.46c6.5-9.02,42.71-50.52,56.11-64.15,15.53-15.8,57.96-57.47,57.96-57.47l-1.19-1.19h0Z"/>
        </g>
      </g>
    </g>
  </g>
</svg>