<?xml version="1.0" encoding="UTF-8"?>
<svg xmlns="http://www.w3.org/2000/svg" xmlns:xlink="http://www.w3.org/1999/xlink" viewBox="0 0 4630 3165">
  <defs>
    <style>
      .cls-1 {
        fill: none;
      }

      .cls-2 {
        fill: #dbfffc;
        mix-blend-mode: screen;
        opacity: .36;
      }

      .cls-3 {
        fill: url(#linear-gradient);
      }

      .cls-4 {
        filter: url(#luminosity-noclip-4);
      }

      .cls-5 {
        clip-path: url(#clippath);
      }

      .cls-6 {
        mask: url(#mask);
      }

      .cls-7 {
        filter: url(#luminosity-noclip-2);
      }

      .cls-8 {
        fill: #ed74a6;
      }

      .cls-9 {
        fill: #ffe8fc;
      }

      .cls-10 {
        fill: #ffe4d4;
      }

      .cls-11 {
        fill: #fcf5dd;
      }

      .cls-12 {
        fill: #9100b5;
      }

      .cls-13 {
        fill: #d4fff9;
      }

      .cls-14 {
        fill: #413db3;
      }

      .cls-15 {
        fill: #4394e5;
      }

      .cls-16, .cls-17 {
        fill: #731a87;
      }

      .cls-18, .cls-19 {
        fill: #6ed7ff;
      }

      .cls-20 {
        fill: #7af7e5;
      }

      .cls-21 {
        fill: url(#linear-gradient-8);
      }

      .cls-21, .cls-17, .cls-22, .cls-23 {
        mix-blend-mode: multiply;
      }

      .cls-24 {
        clip-path: url(#clippath-1);
      }

      .cls-25 {
        clip-path: url(#clippath-2);
      }

      .cls-17, .cls-23 {
        opacity: .28;
      }

      .cls-26 {
        fill: #e2fffd;
        mix-blend-mode: lighten;
        opacity: .18;
      }

      .cls-27 {
        fill: url(#linear-gradient-9);
      }

      .cls-28 {
        fill: url(#linear-gradient-3);
      }

      .cls-29 {
        fill: url(#linear-gradient-4);
      }

      .cls-30 {
        fill: url(#linear-gradient-2);
      }

      .cls-31 {
        fill: url(#linear-gradient-6);
      }

      .cls-32 {
        fill: url(#linear-gradient-7);
      }

      .cls-33 {
        fill: url(#linear-gradient-5);
      }

      .cls-34 {
        fill: url(#linear-gradient-14);
      }

      .cls-35 {
        fill: url(#linear-gradient-18);
      }

      .cls-36 {
        fill: url(#linear-gradient-15);
      }

      .cls-37 {
        fill: url(#linear-gradient-16);
      }

      .cls-38 {
        fill: url(#linear-gradient-17);
      }

      .cls-39 {
        fill: url(#linear-gradient-13);
      }

      .cls-40 {
        fill: url(#linear-gradient-12);
      }

      .cls-41 {
        fill: url(#linear-gradient-11);
      }

      .cls-42 {
        isolation: isolate;
      }

      .cls-22 {
        fill: url(#linear-gradient-10);
      }

      .cls-43 {
        mask: url(#mask-3);
      }

      .cls-44 {
        mask: url(#mask-2);
      }

      .cls-45 {
        mask: url(#mask-1);
      }

      .cls-19 {
        opacity: .71;
      }
    </style>
    <linearGradient id="linear-gradient" x1="2180.96" y1="2443.66" x2="2432.9" y2="1819.81" gradientUnits="userSpaceOnUse">
      <stop offset=".02" stop-color="#33aeff"/>
      <stop offset=".25" stop-color="#37b3ff"/>
      <stop offset=".56" stop-color="#43c4ff"/>
      <stop offset=".91" stop-color="#56dfff"/>
      <stop offset="1" stop-color="#5ce7ff"/>
    </linearGradient>
    <linearGradient id="linear-gradient-2" x1="1824.15" y1="3024.45" x2="2470.95" y2="2543.81" gradientUnits="userSpaceOnUse">
      <stop offset=".02" stop-color="#5286ff"/>
      <stop offset=".47" stop-color="#528bff"/>
      <stop offset="1" stop-color="#529aff"/>
    </linearGradient>
    <linearGradient id="linear-gradient-3" x1="1926.03" y1="2430.43" x2="938.24" y2="3284.41" gradientUnits="userSpaceOnUse">
      <stop offset=".02" stop-color="#535ae6"/>
      <stop offset=".31" stop-color="#5454e0"/>
      <stop offset=".7" stop-color="#5843d0"/>
      <stop offset="1" stop-color="#5c32bf"/>
    </linearGradient>
    <linearGradient id="linear-gradient-4" x1="2619.37" y1="1584.06" x2="2619.37" y2="1708.58" gradientUnits="userSpaceOnUse">
      <stop offset="0" stop-color="#ffd4d4"/>
      <stop offset=".66" stop-color="#ffc1bd"/>
    </linearGradient>
    <clipPath id="clippath">
      <path class="cls-11" d="M3260.68,1818.1l86.38-99.34,69.08-148.63,112.31-76.48,77.76-110.21h254.64l86.39,516.93-409.86-47.86s-108.72-2.06-155.87-3.85c-49.68-1.88-120.83-30.56-120.83-30.56Z"/>
    </clipPath>
    <linearGradient id="linear-gradient-5" x1="3567.94" y1="1602.51" x2="3464.17" y2="1571.38" gradientUnits="userSpaceOnUse">
      <stop offset="0" stop-color="#f9a6c6"/>
      <stop offset="1" stop-color="#f9b1b5"/>
    </linearGradient>
    <linearGradient id="linear-gradient-6" x1="916.97" y1="2254.99" x2="1018.43" y2="1544.77" gradientUnits="userSpaceOnUse">
      <stop offset="0" stop-color="#6d145b"/>
      <stop offset="1" stop-color="#911ea6"/>
    </linearGradient>
    <clipPath id="clippath-1">
      <path class="cls-1" d="M-122.53,2636.41V1414.25l1764.03-33.48c0-10.84,246.53,104.92,246.53,104.92l72.11,158.34,42.82,37.79,17.95,334.17s60.4,19.41,79.6,36.17c23.53,20.54-265.03,29.24-265.03,29.24l-41.58-13.61s-65.45,14.36-96.64,16.87c-27.96,2.24-80.56-.39-80.56-.39l-249.95,51.53-760.33,293.91-728.96,206.71Z"/>
    </clipPath>
    <linearGradient id="linear-gradient-7" x1="879.29" y1="1529.81" x2="844.7" y2="1377.62" gradientUnits="userSpaceOnUse">
      <stop offset="0" stop-color="#ffabed"/>
      <stop offset="1" stop-color="#ff8ae4"/>
    </linearGradient>
    <filter id="luminosity-noclip-2" data-name="luminosity-noclip" x="175.18" y="841.43" width="518.88" height="523.2" color-interpolation-filters="sRGB" filterUnits="userSpaceOnUse">
      <feFlood flood-color="#fff" result="bg"/>
      <feBlend in="SourceGraphic" in2="bg"/>
    </filter>
    <filter id="luminosity-noclip-3" x="10667" y="-8576" width="-32766" height="32766" color-interpolation-filters="sRGB" filterUnits="userSpaceOnUse">
      <feFlood flood-color="#fff" result="bg"/>
      <feBlend in="SourceGraphic" in2="bg"/>
    </filter>
    <mask id="mask-1" x="10667" y="-8576" width="-32766" height="32766" maskUnits="userSpaceOnUse"/>
    <linearGradient id="linear-gradient-8" x1="410.26" y1="1229.48" x2="473.75" y2="856.29" gradientUnits="userSpaceOnUse">
      <stop offset=".12" stop-color="#ccc"/>
      <stop offset=".89" stop-color="#ccc"/>
    </linearGradient>
    <mask id="mask" x="175.18" y="841.43" width="518.88" height="523.2" maskUnits="userSpaceOnUse">
      <g class="cls-7">
        <g class="cls-45">
          <path class="cls-21" d="M175.18,921.5l148.73-80.07,48.42,15.5c7.38-.36,76.1,74.2,76.1,74.2l78.58,32.28,103.41,40.35,63.64,247.41-457.2,113.46-61.68-443.13Z"/>
        </g>
      </g>
    </mask>
    <linearGradient id="linear-gradient-9" x1="410.26" y1="1229.48" x2="473.75" y2="856.29" gradientUnits="userSpaceOnUse">
      <stop offset=".12" stop-color="#f7c8e7"/>
      <stop offset=".89" stop-color="#ffc9e6"/>
    </linearGradient>
    <filter id="luminosity-noclip-4" x="972.79" y="1163.13" width="497.33" height="280.46" color-interpolation-filters="sRGB" filterUnits="userSpaceOnUse">
      <feFlood flood-color="#fff" result="bg"/>
      <feBlend in="SourceGraphic" in2="bg"/>
    </filter>
    <filter id="luminosity-noclip-5" x="10667" y="-8576" width="-32766" height="32766" color-interpolation-filters="sRGB" filterUnits="userSpaceOnUse">
      <feFlood flood-color="#fff" result="bg"/>
      <feBlend in="SourceGraphic" in2="bg"/>
    </filter>
    <mask id="mask-3" x="10667" y="-8576" width="-32766" height="32766" maskUnits="userSpaceOnUse"/>
    <linearGradient id="linear-gradient-10" x1="1221.88" y1="1269.04" x2="1229.95" y2="1182.57" gradientUnits="userSpaceOnUse">
      <stop offset="0" stop-color="#4d4d4d"/>
      <stop offset=".79" stop-color="#fff"/>
    </linearGradient>
    <mask id="mask-2" x="972.79" y="1163.13" width="497.33" height="280.46" maskUnits="userSpaceOnUse">
      <g class="cls-4">
        <g class="cls-43">
          <path class="cls-22" d="M997.88,1210.7l-25.09-47.58,206.95,3.94c6.72-.19,81.85,43.64,81.85,43.64l56.5,22.03,65.57,3.72,86.47,147.51-416.1,59.63-56.14-232.88Z"/>
        </g>
      </g>
    </mask>
    <linearGradient id="linear-gradient-11" x1="1221.88" y1="1269.04" x2="1229.95" y2="1182.57" gradientUnits="userSpaceOnUse">
      <stop offset="0" stop-color="#f2dbbf"/>
      <stop offset=".79" stop-color="#ffdbee"/>
    </linearGradient>
    <linearGradient id="linear-gradient-12" x1="90.58" y1="1380.78" x2="474.5" y2="846.41" gradientUnits="userSpaceOnUse">
      <stop offset="0" stop-color="#ffa6dc"/>
      <stop offset="1" stop-color="#ffa6cc"/>
    </linearGradient>
    <linearGradient id="linear-gradient-13" x1="720.03" y1="1419.79" x2="1052.08" y2="1233.01" gradientUnits="userSpaceOnUse">
      <stop offset="0" stop-color="#f277d6"/>
      <stop offset="1" stop-color="#ffa3d6"/>
    </linearGradient>
    <clipPath id="clippath-2">
      <polygon class="cls-39" points="-121.38 1489.17 -49.89 1256.27 53.87 1128.29 215.88 1145.58 319.15 1324.02 455.64 1199.89 513.9 1197.01 571.47 1093.7 650.39 1093.7 813.49 841.43 915 880.85 1046.6 1052.18 1106.32 1225.14 1258.86 1232.91 1311.54 1204.38 1472.37 1204.38 1548.11 1283.94 1686.62 1280.69 1799.22 1364.64 1832.77 1460.09 1802.34 1456.06 1508.86 1441.89 1027.55 1460.34 960.94 1432.97 801.52 1444.86 731.81 1436.13 681.83 1466.28 334.32 1444.86 339.81 1505.31 -121.38 1489.17"/>
    </clipPath>
    <linearGradient id="linear-gradient-14" x1="705.82" y1="1382.95" x2="811.89" y2="1126.99" gradientUnits="userSpaceOnUse">
      <stop offset="0" stop-color="#cc49b4"/>
      <stop offset="1" stop-color="#e65cb3"/>
    </linearGradient>
    <linearGradient id="linear-gradient-15" x1="1017.77" y1="1512.23" x2="1123.84" y2="1256.27" xlink:href="#linear-gradient-14"/>
    <linearGradient id="linear-gradient-16" x1="560.79" y1="1322.85" x2="666.86" y2="1066.89" xlink:href="#linear-gradient-14"/>
    <linearGradient id="linear-gradient-17" x1="1456.44" y1="1694.02" x2="1562.51" y2="1438.06" xlink:href="#linear-gradient-14"/>
    <linearGradient id="linear-gradient-18" x1="297.53" y1="1213.75" x2="403.6" y2="957.79" xlink:href="#linear-gradient-14"/>
  </defs>
  <g class="cls-42">
    <g id="Layer_2" data-name="Layer 2">
      <g>
        <polygon class="cls-18" points="4091 2593.94 3849.1 2629.93 2412.59 2843.57 1579.28 2301.11 882.56 1847.58 830.68 1813.8 738.11 1753.56 798.68 1752.89 3469.97 1734.08 3766.95 1720.41 4091 2593.94"/>
        <path class="cls-2" d="M3519.65,1946.44c-1116.88,95.2-2069.75-67.33-978.76-117.19,530.46-24.24-357.59,.85-792.74-19.09-499.11-22.88-1165.22,0-1067.21-28.14,100.4-28.82,2302.15-42.9,2302.15-42.9,58.36,123.48,519.61,24.42,536.57,207.32Z"/>
        <path class="cls-13" d="M3225.26,1932.04c-176.01,3.57-1642.05-41.99-551.06-91.85,530.46-24.24-376.75-46.29-808.13-50.91-499.55-5.35-1165.22,0-1067.21-28.14,100.4-28.82,2302.15-42.9,2302.15-42.9,58.36,123.48,107.31,30.9,124.26,213.8Z"/>
        <path class="cls-15" d="M3849.1,3189.87l-1436.52-346.3-856.89-358.76-11.87-121.7c1097.05-4.18,383.46,100.77,938.69,200.4,571.06,102.47,1331.61-127,1331.61-127l34.98,753.36Z"/>
        <path class="cls-20" d="M798.63,1844.51c2132.81-28.36,162.48,182.66,1138.8,182.51,828.9-.12,1475.78-8,1206.27,87.29-172.62,61.03,242.59,113.59,665.6,127.8,246.32,8.28,222.74,171.29,222.74,171.29l-94.34,669.97-2782.94-352.76-356.13-886.09Z"/>
        <path class="cls-3" d="M586.37,1886.26c2414.68-100.46,163.3,140.02,1138.8,182.51,862.64,37.57,1499.38,18.88,1288.81,123.16-164.89,81.66,160.04,77.71,583.05,91.92,246.32,8.28,222.74,171.29,222.74,171.29l-94.34,669.97-2782.94-352.76-356.13-886.09Z"/>
        <path class="cls-30" d="M672.85,2211.91c2093.5-59.64,1832.98,100.6,1566.99,144.94-1183.34,197.27,1999.19,275.82,1258.61,152.6-576.59-95.94-131.68-253.49,316.42-246,246.42,4.12,91.39,517.35,91.39,517.35l-178.73,497.32L171.36,2935.08l501.48-723.18Z"/>
        <path class="cls-28" d="M1093.05,2285.65c1152.81-22.74,140.32,224.25,344.91,288.33,364.23,114.09,2645.28,153.22,1899.01,78.2-343.63-34.55-643.34,604.38-643.34,604.38,0,0-1628.24,143.03-1781.32-7.36-174.21-171.13-1117.94-350.31-1113.77-535.25,3.99-176.95,767.96-417.92,1294.51-428.31Z"/>
        <path class="cls-14" d="M1589.91,2365.23c4.3,39.06-152.05,79.86-400.99,84.13-239.5,4.11-601.42,136.57-668.79,217.12-76.82,91.85-348.76,294.37-348.76,294.37l-491.36-212.49,1193.26-415.98,670.57,42.68,46.08-9.84Z"/>
      </g>
    </g>
    <g id="Layer_4" data-name="Layer 4">
      <g>
        <path class="cls-26" d="M3545.73,1448.68c282.1,8.05,1149.56,205.42,178.59,218.04-970.97,12.62-3001.66-50.13-2689.64-60.62,487.28-16.38,2816.65-26,1120.93-56.6-843-15.21-1168.88-78.39-675.58-54.86,1707.3,81.44,1783.25-54.03,2065.71-45.97Z"/>
        <path class="cls-29" d="M1228.74,1693.97c76.68-62.8,383.91-132.05,383.91-132.05l165.95,59.81,259.72,3.91h118.09l171.61,33.65,149.33,21.93,304.62-84.57h150.95l100.53,43.49,94.69,3.11,86.59-16.28c20.11-3.78,40.89-1.42,59.64,6.77l58.51,25.55,596.33,32.75,80.75,18.94-1179.64-4.41-292.29,4.26-344.25-2.35h-835.41l-129.66-14.49Z"/>
        <path class="cls-10" d="M1236.78,1718.31c76.68-45.8,549.86-52.91,549.86-52.91l549.42,27.28,149.33,15.94,650.8-27.73,204.74,11.68,596.33,23.88,80.75,13.81-1179.64-3.22-292.29,3.55-344.25-1.27h-835.41l-129.66-11.02Z"/>
        <g>
          <path class="cls-19" d="M3286.75,1812.09c-115.56,6.3-73,40.03,60.07,46.84,86.3,4.42,137.37,12.55,182.24,14.47,44.87,1.92,243.24,26.76,243.24,26.76l41.03-122.44-526.59,34.37Z"/>
          <g>
            <path class="cls-11" d="M3260.68,1818.1l86.38-99.34,69.08-148.63,112.31-76.48,77.76-110.21h254.64l86.39,516.93-409.86-47.86s-108.72-2.06-155.87-3.85c-49.68-1.88-120.83-30.56-120.83-30.56Z"/>
            <g class="cls-5">
              <path class="cls-33" d="M3299.33,1833.85l54.71-96.62,79.38-167.09,112.31-76.48,77.76-110.21h254.64l86.39,516.93-409.86-47.86s-122.31,2-150.27,.18c-66.18-4.3-105.05-18.85-105.05-18.85Z"/>
              <polygon class="cls-8" points="3351.04 1847.89 3404.57 1777.72 3440.43 1737.22 3485.27 1620.95 3508.1 1593.06 3574.33 1498.42 3622.81 1383.44 3643.92 1383.44 3541.22 1587.69 3522.26 1718.86 3491.95 1860.7 3368.48 1884.36 3351.04 1847.89"/>
              <polygon class="cls-8" points="3641.31 1547.16 3642 1627.8 3608.93 1708.47 3548.97 1794.98 3538.34 1861.05 3672.24 1910 3699.94 1425.52 3641.31 1547.16"/>
            </g>
          </g>
        </g>
      </g>
    </g>
    <g id="Layer_3" data-name="Layer 3">
      <g>
        <path class="cls-31" d="M-122.53,2677.87V1415.38l1764.03-34.59c0-11.2,246.53,108.38,246.53,108.38l72.11,163.56,42.82,39.04,20.75,316.09s57.6,49.15,76.8,66.47c23.53,21.22-267.73,24-267.73,24l-38.87-8.46s-65.44,12.75-96.63,15.34c-27.96,2.32-80.57-1.28-80.57-1.28l-246.45,46.52-776.79,271.45-715.99,255.99Z"/>
        <g class="cls-24">
          <polygon class="cls-17" points="572.7 1505.62 503.53 1671.33 600.38 1736.87 587.12 2006.85 641.88 2006.85 759.48 1505.12 572.7 1505.62"/>
          <polygon class="cls-17" points="814.75 1460.34 884.68 1987.96 886.47 2288 963.56 2309.55 963.56 1394.08 814.75 1460.34"/>
          <polygon class="cls-17" points="1476.92 1432.97 1676.09 2007.86 1724.51 1869.64 1690.13 1523.18 1476.92 1432.97"/>
          <polygon class="cls-17" points="1831.75 1512.23 1855.95 1998.2 1871.52 1807.91 1871.52 1643.49 1911.29 1586.89 1868.3 1505.31 1831.75 1512.23"/>
          <polygon class="cls-17" points="1960.14 1652.73 1951.13 2105.2 1911.29 2091.05 1916.6 1804.46 1888.73 1730.45 1960.14 1652.73"/>
          <polygon class="cls-17" points="319.15 1505.31 384.13 1569.3 353.61 1987.82 533.28 2138.02 503.53 1719.76 462.02 1692.33 492 1489.17 319.15 1505.31"/>
          <polygon class="cls-17" points="1197.71 1539.9 1262.69 1603.89 1232.17 1984.36 1353.4 2058.73 1382.08 1754.35 1340.58 1726.92 1370.55 1523.76 1197.71 1539.9"/>
          <g class="cls-23">
            <polygon class="cls-16" points="176.46 1695.11 264.86 1560.65 -2.62 1505.31 54.43 1751.43 176.46 1695.11"/>
            <polygon class="cls-16" points="136.89 1752.62 108.66 1806.2 44.33 1804.11 5.45 2006.85 185.31 2031.06 264.86 1851.2 239.89 1802.72 187.04 1720.3 136.89 1752.62"/>
          </g>
          <polygon class="cls-17" points="2026.25 1913.01 1963.18 2148.21 2034.53 1984.76 2026.25 1913.01"/>
          <polygon class="cls-17" points="1448.23 1608.21 1604.24 1903.08 1565.4 2015.97 1629.97 2126.67 1361.45 2211.64 1448.23 1608.21"/>
          <polygon class="cls-17" points="773.32 1811.9 766.57 1478.99 808.84 1522.88 818.17 2091.05 732.91 2159.3 743.01 2354.53 624.57 2421.91 578.02 2071.86 762.94 2042.46 773.32 1811.9"/>
          <polygon class="cls-17" points="1095.49 1522.01 1132.42 1747.47 1128.3 1806.2 1081.56 2091.05 1144.35 2225.82 1007.41 2288 1017.18 1961.94 1098.46 1720.3 1058.92 1505.31 1095.49 1522.01"/>
          <polygon class="cls-17" points="1399.61 1535.29 1484.9 1595.34 1495.71 1505.31 1394.18 1518.74 1399.61 1535.29"/>
          <polygon class="cls-17" points="1763.71 1870.8 1786.77 1831.24 1816.81 1523.14 1748.73 1516.84 1763.71 1870.8"/>
          <polygon class="cls-17" points="1779.86 1865.31 1821.36 1901.83 1793.69 2025.28 1832.77 2071.86 1845.72 2117.41 1690.13 2125.96 1779.86 1865.31"/>
          <polygon class="cls-17" points="1202.22 2034.65 1189.76 2103.7 1180.33 2197.56 1167.61 2079.48 1152.93 1856.97 1195.3 1822.27 1202.22 2034.65"/>
        </g>
        <polygon class="cls-12" points="-135.93 1576.51 126.51 1180.17 215.88 1180.17 319.15 1358.61 455.64 1234.48 513.9 1231.6 571.47 1128.29 650.39 1128.29 813.49 876.02 915 915.44 1046.6 1086.77 1106.32 1259.73 1258.86 1267.5 1311.54 1238.97 1472.37 1238.97 1548.11 1318.53 1686.62 1315.27 1772.94 1470.46 1888.03 1489.17 1845.74 1523.76 1468.56 1515.68 1191.19 1531.25 970.69 1500.83 813.49 1508.12 759.48 1539.9 656.62 1565.26 341.37 1539.9 383.04 1552 384.13 1569.3 -135.93 1576.51"/>
        <polygon class="cls-32" points="-135.93 1541.92 126.51 1145.58 215.88 1145.58 319.15 1324.02 455.64 1199.89 513.9 1197.01 571.47 1093.7 650.39 1093.7 813.49 841.43 915 880.85 1046.6 1052.18 1106.32 1225.14 1258.86 1232.91 1311.54 1204.38 1472.37 1204.38 1548.11 1283.94 1686.62 1280.69 1832.77 1460.09 1888.03 1489.17 1832.77 1501.85 1476.92 1491.35 1192.22 1512.31 955.18 1464.1 813.49 1473.53 759.48 1505.31 656.62 1530.67 371.07 1522.9 383.04 1552 -135.93 1541.92"/>
        <g>
          <g class="cls-6">
            <path class="cls-27" d="M175.18,921.5l148.73-80.07,48.42,15.5c7.38-.36,76.1,74.2,76.1,74.2l78.58,32.28,103.41,40.35,63.64,247.41-457.2,113.46-61.68-443.13Z"/>
          </g>
          <g class="cls-44">
            <path class="cls-41" d="M997.88,1210.7l-25.09-47.58,206.95,3.94c6.72-.19,81.85,43.64,81.85,43.64l56.5,22.03,65.57,3.72,86.47,147.51-416.1,59.63-56.14-232.88Z"/>
          </g>
          <polygon class="cls-40" points="641.88 1436.13 -139.83 1443.59 -162.1 1168.38 .4 683.62 163.24 754.73 249.37 901.97 309.83 944.69 309.83 1283.42 333.3 1304.98 359.17 1007.23 413.6 1010.69 475.86 1076.41 524.72 1225.14 641.88 1436.13"/>
          <g>
            <polygon class="cls-39" points="-121.38 1489.17 -49.89 1256.27 53.87 1128.29 215.88 1145.58 319.15 1324.02 455.64 1199.89 513.9 1197.01 571.47 1093.7 650.39 1093.7 813.49 841.43 915 880.85 1046.6 1052.18 1106.32 1225.14 1258.86 1232.91 1311.54 1204.38 1472.37 1204.38 1548.11 1283.94 1686.62 1280.69 1799.22 1364.64 1832.77 1460.09 1802.34 1456.06 1508.86 1441.89 1027.55 1460.34 960.94 1432.97 801.52 1444.86 731.81 1436.13 681.83 1466.28 334.32 1444.86 339.81 1505.31 -121.38 1489.17"/>
            <g class="cls-25">
              <g>
                <polygon class="cls-34" points="572.29 1145.55 648.8 1111 783.74 1308.15 814.83 1324.02 813.49 1473.53 969.81 1467.08 881.26 1126.49 843.22 1145.55 800.99 920.76 813.49 841.43 813.48 740.89 572.7 983.02 572.29 1145.55"/>
                <polygon class="cls-36" points="967.02 1034.9 905.46 893.42 1030.53 1048.74 1064.63 1259.73 1290.44 1304.13 1402.3 1474.18 1008.52 1475.17 1008.52 1055.65 967.02 1034.9"/>
                <polygon class="cls-37" points="717.98 1522.9 572.7 1261.38 489.28 1231.34 572.78 1197.69 571.54 1066.25 454.78 1111 432.45 1220.88 320.21 1324.02 341.37 1505.31 374.11 1507.94 370.65 1524.96 717.98 1522.9"/>
                <polygon class="cls-38" points="1405.14 1221.68 1460.49 1221.68 1481.02 1495.23 1587.58 1470.4 1551.57 1308.15 1648.42 1297.77 1686.62 1444.86 1674.36 1313.34 1703.76 1315.07 1809.16 1520.19 1523.45 1501.85 1278.32 1446.51 1405.14 1221.68"/>
                <polygon class="cls-35" points="-42.66 1567.57 438.96 1545.89 254.49 1473.03 249.88 1334.67 222.2 1297.77 199.44 1184.94 53.87 1128.29 -42.66 1567.57"/>
              </g>
              <polygon class="cls-9" points="806.61 841.43 905.46 893.42 1034.33 1059.87 1064.63 1259.73 1106.32 1225.14 1143.13 1083.32 934.38 841.43 746.24 830.97 806.61 841.43"/>
              <polygon class="cls-9" points="1460.49 1221.68 1542.84 1290.6 1576.33 1276.2 1494.14 1133.48 1460.49 1221.68"/>
              <polygon class="cls-9" points="1686.62 1280.89 1790.23 1380.78 2023.13 1474.18 2080.78 1474.18 1943.93 1324.02 1686.62 1280.89"/>
            </g>
          </g>
        </g>
      </g>
    </g>
  </g>
</svg>