<?xml version="1.0" encoding="UTF-8"?>
<svg id="Layer_1" data-name="Layer 1" xmlns="http://www.w3.org/2000/svg" xmlns:xlink="http://www.w3.org/1999/xlink" viewBox="0 0 4630 3165">
  <defs>
    <style>
      .cls-1 {
        fill: url(#New_Gradient_Swatch);
      }

      .cls-2 {
        fill: url(#linear-gradient);
      }

      .cls-3 {
        fill: #120837;
      }

      .cls-4 {
        fill: #180f40;
      }

      .cls-5 {
        fill: #0b1860;
      }

      .cls-6 {
        fill: #0c1a69;
      }

      .cls-7 {
        fill: #99fcff;
      }

      .cls-8 {
        fill: #471eda;
      }

      .cls-9 {
        fill: #5cfcff;
      }

      .cls-10 {
        fill: url(#New_Gradient_Swatch-5);
      }

      .cls-11 {
        fill: url(#New_Gradient_Swatch-4);
      }

      .cls-12 {
        fill: url(#New_Gradient_Swatch-7);
      }

      .cls-13 {
        fill: url(#New_Gradient_Swatch-6);
      }

      .cls-14 {
        fill: url(#New_Gradient_Swatch-3);
      }

      .cls-15 {
        fill: url(#New_Gradient_Swatch-2);
      }
    </style>
    <linearGradient id="New_Gradient_Swatch" data-name="New Gradient Swatch" x1="2542.26" y1="2435.21" x2="2659.86" y2="2677.33" gradientUnits="userSpaceOnUse">
      <stop offset="0" stop-color="#1e50da"/>
      <stop offset="1" stop-color="#471eda"/>
    </linearGradient>
    <linearGradient id="New_Gradient_Swatch-2" data-name="New Gradient Swatch" x1="2258.2" y1="2573.17" x2="2375.81" y2="2815.3" xlink:href="#New_Gradient_Swatch"/>
    <linearGradient id="New_Gradient_Swatch-3" data-name="New Gradient Swatch" x1="1662.46" y1="2862.53" x2="1780.06" y2="3104.66" xlink:href="#New_Gradient_Swatch"/>
    <linearGradient id="New_Gradient_Swatch-4" data-name="New Gradient Swatch" x1="2538.38" y1="2437.09" x2="2655.98" y2="2679.21" xlink:href="#New_Gradient_Swatch"/>
    <linearGradient id="New_Gradient_Swatch-5" data-name="New Gradient Swatch" x1="1953.92" y1="2720.97" x2="2071.52" y2="2963.09" xlink:href="#New_Gradient_Swatch"/>
    <linearGradient id="New_Gradient_Swatch-6" data-name="New Gradient Swatch" x1="2786.2" y1="2316.72" x2="2903.8" y2="2558.84" xlink:href="#New_Gradient_Swatch"/>
    <linearGradient id="linear-gradient" x1="3242.45" y1="1735.88" x2="4210.07" y2="1735.88" gradientUnits="userSpaceOnUse">
      <stop offset="0" stop-color="#3369ff"/>
      <stop offset="1" stop-color="#461ed6"/>
    </linearGradient>
    <linearGradient id="New_Gradient_Swatch-7" data-name="New Gradient Swatch" x1="898.4" y1="2665.48" x2="828.53" y2="2815.61" xlink:href="#New_Gradient_Swatch"/>
  </defs>
  <g>
    <path class="cls-4" d="M4939.69,3417.24L11.85,3396.42l-37.41-404.9c15.57,0,671.07-122.72,671.07-122.72l376.98,44.76,110.55,13.11,108.44-56.28,436.4,39.95,205.72,59.69,110.19-9.71,117.6,23.49,.59-.1,213.86-36.53,166.34-21.17,188.86-90.24,18.09-8.65,22.52,7.09,39.15,12.35,31.75,10,14.25,8.47,147.11,87.72,12.24-2.91,155.51-36.8,4.46-1.04,.45-.1h77.82l38.05-2.56,24.64-18.19,1082.41-151.5,555.12-41.71,35.07,719.31Z"/>
    <polygon class="cls-7" points="3224.36 2969.01 3154.25 2977.62 2975.87 2957.04 2953.67 2954.48 2966.16 2949.85 3121.67 2913.04 3126.13 2912 3150.06 2925.91 3224.36 2969.01"/>
    <polygon class="cls-3" points="2944.57 2947.18 2791.97 2877.07 2803.1 2862.85 2944.57 2947.18"/>
    <polygon class="cls-5" points="3306.54 3028.64 3121.67 2913.04 3126.58 2911.9 3204.4 2911.9 3211.3 2911.44 3306.54 3028.64"/>
    <polygon class="cls-1" points="2806.8 2865.03 2730.54 2927.05 2681.04 2835.77 2699.13 2827.12 2721.65 2834.21 2760.8 2846.56 2792.55 2856.56 2806.8 2865.03"/>
    <polygon class="cls-7" points="2749.04 2912 2713.31 2993.53 2587.34 2943 2260.16 2993.57 2111.98 2983.71 2325.85 2947.18 2492.18 2926.01 2699.13 2827.12 2708.05 2841.86 2749.04 2912"/>
    <polygon class="cls-15" points="2325.85 3008.75 2587.29 2975.89 2619.85 3021.43 2325.85 3008.75"/>
    <polygon class="cls-6" points="1690.75 3075.33 1883.6 3049.08 2087.18 3015.94 2713.24 3036.42 2981.41 3102.14 3121.39 3093.07 3648.97 3264.71 2045.68 3280.33 1690.75 3075.33"/>
    <polygon class="cls-14" points="1770.12 3042.7 1876.54 2998.65 1690.75 2847.01 1551.06 2908.44 1550.73 2937.13 1629.46 2916.68 1770.12 3042.7"/>
    <polygon class="cls-4" points="1819.7 3040.14 2308.55 3093.07 1732.19 3067.64 1819.7 3040.14"/>
    <polygon class="cls-4" points="2113.7 3140.45 2874.11 3301.17 2761.7 3327.53 2113.7 3140.45"/>
    <polygon class="cls-5" points="3306.54 3067.07 3200.94 3074.47 2953.91 3074.47 2713.31 3026.11 2727.08 3008.75 2736.52 3005.81 2882.73 2960.33 3028 2993.53 3073.31 2975.89 3225.92 3001.83 3306.54 3067.07"/>
    <polygon class="cls-7" points="2412.91 3065.4 2316.68 3062.02 1978.92 2964.96 1993.79 2960.33 2412.91 3065.4"/>
    <polygon class="cls-5" points="2587.29 2975.89 2681.04 3008.75 2619.85 3021.43 2587.29 2975.89"/>
    <polygon class="cls-5" points="2944.57 2947.18 2791.97 2877.07 2803.1 2862.85 2944.57 2947.18"/>
    <polygon class="cls-11" points="2959.13 3074.47 2953.91 3074.47 2713.31 3026.11 2727.08 3008.75 2736.52 3005.81 2959.13 3074.47"/>
    <polygon class="cls-4" points="2841.45 3067.64 2692.89 3093.07 2749.04 3102.14 2983.03 3102.14 2841.45 3067.64"/>
    <polygon class="cls-7" points="1417.55 2921.66 1476.06 2913.72 1535.14 2908.04 1371.19 2892.3 1417.55 2921.66"/>
    <polygon class="cls-10" points="2299.39 3058.56 1910.78 3005.81 1951.77 2964.58 2299.39 3058.56"/>
    <polygon class="cls-13" points="3224.36 2969.01 3154.25 2977.62 2975.87 2957.04 2987.64 2955.28 3145.88 2926.88 3150.06 2925.91 3224.36 2969.01"/>
  </g>
  <g>
    <polygon class="cls-9" points="3411.22 3066.61 3213.05 3219.74 3367.59 2993.95 3476.1 2941.75 3505.33 2827.24 3537.61 2655.94 3568.98 2456.87 3629.85 2398.26 3674.25 2134.38 3729.42 2075.15 3825.51 1597.52 3929.62 496.45 4049.52 383.84 3993.03 2209.75 3411.22 3066.61"/>
    <polygon class="cls-4" points="4804.35 2453.88 4848.11 3219.74 3190.57 3219.74 3367.59 2993.95 3476.1 2941.75 3859.86 2038.53 3877.16 1727.23 3898.14 1580.23 3937.69 1611.36 3977.83 511.82 4135.7 336.19 4180.86 489.11 4342.58 855.94 4328.54 1067.16 4482.67 1219.12 4633.13 1862.79 4897.7 2127.05 4804.35 2453.88"/>
    <g>
      <polygon class="cls-2" points="4127.93 2081.77 4166.22 1862.79 3978.31 515.28 4079.5 411.13 4079.5 369.62 3971.48 466.31 3971.38 465.58 3960.88 475.79 3960.88 475.8 3960.88 475.8 3939.81 496.29 3841.14 1613.16 3763.45 2054.07 3698.19 2134.61 3640.22 2403.45 3586.03 2457.63 3551.79 2663.73 3521.47 2768.93 3363.51 2824 3242.45 2927.05 3342.76 3015.94 3554.07 3102.14 3749.75 2996.02 3886.08 2791.36 3972.1 2575.16 4077.88 2542.08 4210.07 2312.22 4127.93 2081.77"/>
      <polygon class="cls-4" points="3698.19 2134.61 3840.84 2140.57 3742.84 2402.29 3640.22 2403.45 3729.42 2441.49 3740.53 2801.22 3547.75 2885.55 3519.16 2968.99 3320.28 2996.02 3213.05 3193.22 3571.64 3097.19 3632.15 2984.54 3742.26 2944.81 3844.3 2674.39 3856.64 2551.46 3925 2524.51 3908.92 2311.66 3942.88 1879.42 3898.14 1934.18 3885.45 2040.22 3763.45 2054.07 3698.19 2134.61"/>
    </g>
    <polygon class="cls-4" points="4184.08 2351.56 4055.38 2410.36 4157.76 2458.79 4228.23 2410.36 4240.2 2351.56 4184.08 2351.56"/>
    <polygon class="cls-4" points="4042.36 974.64 3984.96 1046.41 3971.12 1097.14 4079.5 1048.71 4042.36 974.64"/>
    <polygon class="cls-7" points="3521.47 2768.93 3701.33 2803.52 3545.1 2873.85 3363.51 2824 3521.47 2768.93"/>
    <polygon class="cls-4" points="3242.45 2927.05 3404.76 2984.54 3320.28 2996.02 3242.45 2927.05"/>
    <polygon class="cls-7" points="3391.17 2831.53 3273.15 2901.13 3363.75 2824 3391.17 2831.53"/>
    <polygon class="cls-5" points="3320.28 2996.02 3597.95 2984.87 3574.5 3053.72 3386.86 3032.96 3320.28 2996.02"/>
    <polygon class="cls-9" points="3919.23 1655.75 4025.31 1641.61 3933.08 1690.91 3882.34 1690.91 3919.23 1655.75"/>
    <polygon class="cls-4" points="3882.34 1690.91 3898.14 1934.19 3980.92 1879.44 3931.63 1690.91 3882.34 1690.91"/>
    <polygon class="cls-5" points="3972.1 2575.16 3856.64 2551.46 3925 2524.51 4077.88 2542.08 3972.1 2575.16"/>
    <polygon class="cls-5" points="3941.55 1905.48 4125.04 1887.21 4155.16 1871.21 3980.92 1879.44 3941.55 1905.48"/>
    <polygon class="cls-5" points="4187.45 2351.56 3913.84 2376.72 3914.99 2392 4056.24 2410.36 4187.45 2351.56"/>
    <polygon class="cls-4" points="4125.04 1887.21 4127.93 2081.77 4170.59 1861.55 4125.04 1887.21"/>
  </g>
  <g>
    <polygon class="cls-4" points="2025.87 3199.18 -310.15 3226.84 -193.02 2495.98 1.89 2215.13 101.2 2131.01 119.65 2112.79 310.7 2303.96 536.87 2360.81 724.91 2693.81 1170.89 2881.83 1346.57 2940.95 1593.1 2982.19 1742.08 3100.34 1757.46 3112.54 2025.87 3199.18"/>
    <polygon class="cls-7" points="1433.25 2992.42 1209.59 2891.42 1118.93 2912.96 671.12 2662.08 523.2 2399.58 395.07 2355.02 210.58 2262.22 115.98 2123.74 123.52 2101.19 318.05 2296.83 558.7 2355.16 691.84 2581.56 779.65 2687.67 890.27 2727.3 1164.04 2878.12 1235.81 2859.12 1373.37 2942.87 1586.26 2978.48 1433.25 2992.42"/>
    <polygon class="cls-12" points="1735.23 3096.62 1657.47 3085.11 1290.4 3025.85 1193.43 2905.22 1098.71 2937.13 863.12 2818.39 700.53 2727.3 578.23 2575.43 515.97 2405.61 189.3 2326.48 189.06 2325.85 115.98 2123.79 123.51 2101.21 318.04 2296.83 318.39 2296.94 536.87 2360.81 671.12 2586.5 774.24 2686.44 919.9 2753.99 1164.05 2878.13 1223.91 2860.4 1339.74 2937.24 1586.27 2978.48 1735.23 3096.62"/>
    <polygon class="cls-7" points="561.16 2363.56 556.61 2367.01 292.69 2295.01 119.65 2112.79 123.51 2101.21 313.22 2292.24 561.16 2363.56"/>
    <polygon class="cls-5" points="292.69 2295.01 189.06 2325.85 515.97 2405.61 536.87 2360.81 292.69 2295.01"/>
    <polygon class="cls-5" points="1165.9 2877.63 1224.87 2859.24 1193.43 2905.22 1098.71 2937.13 1165.9 2877.63"/>
    <polygon class="cls-4" points="1586.26 2992.42 1417.55 3046.38 1742.08 3100.34 1586.26 2992.42"/>
    <polygon class="cls-4" points="1290.4 3026.45 1455.43 2952.94 1494.7 2956.64 1417.55 3047.27 1290.4 3026.45"/>
    <polygon class="cls-4" points="700.53 2727.3 857.86 2753.99 919.9 2847.01 851.12 2830.79 700.53 2727.3"/>
    <polygon class="cls-7" points="700.53 2727.3 774.24 2686.44 880.88 2731.56 857.86 2753.99 700.53 2727.3"/>
    <polygon class="cls-5" points="491.13 2495.81 349.08 2529.13 246.51 2489.5 362.96 2477.45 491.13 2495.81"/>
    <polygon class="cls-5" points="811.28 2963.78 738.17 2963.78 284.14 2661.33 585.78 2683.47 811.28 2963.78"/>
    <polygon class="cls-5" points="687.58 2970.7 464.22 2970.7 343.48 2961.88 393.52 2881.59 687.58 2970.7"/>
    <polygon class="cls-5" points="1014.58 3000.04 932.2 2993.98 849.82 3017.77 899.86 2937.67 1014.58 3000.04"/>
    <polygon class="cls-8" points="348.63 2529.54 480.86 2631.73 515.07 2631.73 491.13 2493.65 348.63 2529.54"/>
  </g>
  <polygon class="cls-5" points="1658.55 2861.17 1798.07 3031.13 1770.12 3042.7 1476.06 2913.72 1658.55 2861.17"/>
</svg>