<?xml version="1.0" encoding="UTF-8"?>
<svg xmlns="http://www.w3.org/2000/svg" xmlns:xlink="http://www.w3.org/1999/xlink" viewBox="0 0 355.46 300.44">
  <defs>
    <style>
      .cls-1 {
        fill: url(#linear-gradient-2);
        opacity: .09;
      }

      .cls-2 {
        fill: #fff;
      }

      .cls-3 {
        fill: #b086cc;
      }

      .cls-4 {
        fill: url(#New_Gradient_Swatch_copy_26-4);
      }

      .cls-4, .cls-5, .cls-6, .cls-7, .cls-8, .cls-9 {
        opacity: .8;
      }

      .cls-5 {
        fill: url(#New_Gradient_Swatch_copy_26-3);
      }

      .cls-6 {
        fill: url(#New_Gradient_Swatch_copy_26-2);
      }

      .cls-10 {
        fill: url(#New_Gradient_Swatch_copy_26-8);
      }

      .cls-10, .cls-11, .cls-12, .cls-13, .cls-14, .cls-15 {
        opacity: .6;
      }

      .cls-11 {
        fill: url(#New_Gradient_Swatch_copy_26-6);
      }

      .cls-12 {
        fill: url(#New_Gradient_Swatch_copy_26-5);
      }

      .cls-13 {
        fill: url(#New_Gradient_Swatch_copy_26-7);
      }

      .cls-14 {
        fill: url(#New_Gradient_Swatch_copy_26-9);
      }

      .cls-16 {
        fill: url(#linear-gradient);
        opacity: 0;
      }

      .cls-17 {
        fill: url(#Radial_Gradient_1);
      }

      .cls-17, .cls-18, .cls-19, .cls-20, .cls-21, .cls-22 {
        mix-blend-mode: screen;
      }

      .cls-23 {
        fill: url(#New_Gradient_Swatch_copy_8-2);
      }

      .cls-23, .cls-24, .cls-25 {
        opacity: .9;
      }

      .cls-7 {
        fill: url(#New_Gradient_Swatch_copy_7);
      }

      .cls-24 {
        fill: url(#New_Gradient_Swatch_copy_8);
      }

      .cls-26 {
        fill: url(#radial-gradient);
        mix-blend-mode: color-dodge;
      }

      .cls-9 {
        fill: url(#New_Gradient_Swatch_copy_26);
      }

      .cls-27 {
        fill: url(#linear-gradient-11);
        opacity: .91;
      }

      .cls-28 {
        fill: url(#linear-gradient-10);
        opacity: .82;
      }

      .cls-29 {
        fill: url(#linear-gradient-12);
      }

      .cls-30 {
        isolation: isolate;
      }

      .cls-19 {
        fill: url(#Radial_Gradient_1-2);
      }

      .cls-20 {
        fill: url(#Radial_Gradient_1-5);
      }

      .cls-21 {
        fill: url(#Radial_Gradient_1-3);
      }

      .cls-22 {
        fill: url(#Radial_Gradient_1-4);
      }

      .cls-15 {
        fill: url(#New_Gradient_Swatch_copy_26-10);
      }

      .cls-31 {
        fill: url(#linear-gradient-3);
        opacity: .18;
      }

      .cls-32 {
        fill: url(#linear-gradient-4);
        opacity: .27;
      }

      .cls-33 {
        fill: url(#linear-gradient-6);
        opacity: .45;
      }

      .cls-34 {
        opacity: .3;
      }

      .cls-34, .cls-35 {
        mix-blend-mode: multiply;
      }

      .cls-36 {
        fill: url(#linear-gradient-5);
        opacity: .36;
      }

      .cls-37 {
        fill: url(#linear-gradient-8);
        opacity: .64;
      }

      .cls-35 {
        opacity: .5;
      }

      .cls-38 {
        fill: url(#linear-gradient-7);
        opacity: .55;
      }

      .cls-39 {
        fill: url(#New_Gradient_Swatch_copy_8-6);
      }

      .cls-40 {
        fill: url(#New_Gradient_Swatch_copy_8-5);
      }

      .cls-41 {
        fill: url(#New_Gradient_Swatch_copy_8-4);
      }

      .cls-42 {
        fill: url(#New_Gradient_Swatch_copy_8-7);
      }

      .cls-43 {
        fill: url(#New_Gradient_Swatch_copy_8-3);
      }

      .cls-44 {
        fill: url(#linear-gradient-9);
        opacity: .73;
      }
    </style>
    <linearGradient id="New_Gradient_Swatch_copy_26" data-name="New Gradient Swatch copy 26" x1="294.41" y1="187.26" x2="155.41" y2="-9.74" gradientUnits="userSpaceOnUse">
      <stop offset=".03" stop-color="#7c1dc9"/>
      <stop offset=".21" stop-color="#6e41d1"/>
      <stop offset=".62" stop-color="#4c9be8"/>
      <stop offset="1" stop-color="#2af6ff"/>
    </linearGradient>
    <linearGradient id="New_Gradient_Swatch_copy_26-2" data-name="New Gradient Swatch copy 26" x1="268.3" y1="205.69" x2="129.3" y2="8.69" xlink:href="#New_Gradient_Swatch_copy_26"/>
    <linearGradient id="New_Gradient_Swatch_copy_26-3" data-name="New Gradient Swatch copy 26" x1="310.99" y1="175.56" x2="171.99" y2="-21.44" xlink:href="#New_Gradient_Swatch_copy_26"/>
    <linearGradient id="New_Gradient_Swatch_copy_26-4" data-name="New Gradient Swatch copy 26" x1="264.01" y1="208.71" x2="125.01" y2="11.71" xlink:href="#New_Gradient_Swatch_copy_26"/>
    <linearGradient id="New_Gradient_Swatch_copy_8" data-name="New Gradient Swatch copy 8" x1="294.12" y1="187.47" x2="155.12" y2="-9.53" gradientUnits="userSpaceOnUse">
      <stop offset=".04" stop-color="#ffa98c"/>
      <stop offset=".32" stop-color="#feb892"/>
      <stop offset=".86" stop-color="#fee0a3"/>
      <stop offset="1" stop-color="#feeca8"/>
    </linearGradient>
    <radialGradient id="Radial_Gradient_1" data-name="Radial Gradient 1" cx="235.61" cy="103.93" fx="235.61" fy="103.93" r="19.88" gradientUnits="userSpaceOnUse">
      <stop offset="0" stop-color="#fff"/>
      <stop offset="1" stop-color="#000"/>
    </radialGradient>
    <radialGradient id="Radial_Gradient_1-2" data-name="Radial Gradient 1" cx="169.95" cy="66.3" fx="169.95" fy="66.3" r="19.88" xlink:href="#Radial_Gradient_1"/>
    <radialGradient id="Radial_Gradient_1-3" data-name="Radial Gradient 1" cx="205.18" cy="24.71" fx="205.18" fy="24.71" r="17.89" xlink:href="#Radial_Gradient_1"/>
    <radialGradient id="Radial_Gradient_1-4" data-name="Radial Gradient 1" cx="203.56" cy="122.15" fx="203.56" fy="122.15" r="17.89" xlink:href="#Radial_Gradient_1"/>
    <radialGradient id="Radial_Gradient_1-5" data-name="Radial Gradient 1" cx="204.02" cy="57.49" fx="204.02" fy="57.49" r="16.5" xlink:href="#Radial_Gradient_1"/>
    <linearGradient id="linear-gradient" x1="221.09" y1="53.72" x2="299.45" y2="203.14" gradientUnits="userSpaceOnUse">
      <stop offset=".01" stop-color="#9f19ab"/>
      <stop offset=".43" stop-color="#5f27bd"/>
      <stop offset=".9" stop-color="#3d065f"/>
    </linearGradient>
    <linearGradient id="linear-gradient-2" x1="220.98" y1="55.07" x2="298.41" y2="202.71" xlink:href="#linear-gradient"/>
    <linearGradient id="linear-gradient-3" x1="220.87" y1="56.43" x2="297.36" y2="202.29" xlink:href="#linear-gradient"/>
    <linearGradient id="linear-gradient-4" x1="220.76" y1="57.78" x2="296.32" y2="201.86" xlink:href="#linear-gradient"/>
    <linearGradient id="linear-gradient-5" x1="220.65" y1="59.14" x2="295.28" y2="201.44" xlink:href="#linear-gradient"/>
    <linearGradient id="linear-gradient-6" x1="220.55" y1="60.49" x2="294.24" y2="201.01" xlink:href="#linear-gradient"/>
    <linearGradient id="linear-gradient-7" x1="220.44" y1="61.84" x2="293.2" y2="200.58" xlink:href="#linear-gradient"/>
    <linearGradient id="linear-gradient-8" x1="220.34" y1="63.19" x2="292.17" y2="200.15" xlink:href="#linear-gradient"/>
    <linearGradient id="linear-gradient-9" x1="220.25" y1="64.54" x2="291.14" y2="199.72" xlink:href="#linear-gradient"/>
    <linearGradient id="linear-gradient-10" x1="220.15" y1="65.88" x2="290.11" y2="199.29" xlink:href="#linear-gradient"/>
    <linearGradient id="linear-gradient-11" x1="220.06" y1="67.23" x2="289.09" y2="198.85" xlink:href="#linear-gradient"/>
    <linearGradient id="linear-gradient-12" x1="219.97" y1="68.57" x2="288.07" y2="198.42" xlink:href="#linear-gradient"/>
    <linearGradient id="New_Gradient_Swatch_copy_7" data-name="New Gradient Swatch copy 7" x1="350.11" y1="239.78" x2="201.64" y2="108.28" gradientUnits="userSpaceOnUse">
      <stop offset=".04" stop-color="#138bbd"/>
      <stop offset=".23" stop-color="#169ac6"/>
      <stop offset=".59" stop-color="#1ec2df"/>
      <stop offset="1" stop-color="#2af6ff"/>
    </linearGradient>
    <radialGradient id="radial-gradient" cx="270.72" cy="159.54" fx="270.72" fy="159.54" r="120.54" gradientUnits="userSpaceOnUse">
      <stop offset="0" stop-color="#711f56"/>
      <stop offset=".16" stop-color="#6b1d51"/>
      <stop offset=".36" stop-color="#5c1946"/>
      <stop offset=".58" stop-color="#421232"/>
      <stop offset=".82" stop-color="#1f0818"/>
      <stop offset="1" stop-color="#000"/>
    </radialGradient>
    <linearGradient id="New_Gradient_Swatch_copy_26-5" data-name="New Gradient Swatch copy 26" x1="329.17" y1="244.95" x2="133.92" y2="42.7" gradientTransform="translate(113.06 -102.05) rotate(30.31)" xlink:href="#New_Gradient_Swatch_copy_26"/>
    <linearGradient id="New_Gradient_Swatch_copy_26-6" data-name="New Gradient Swatch copy 26" x1="335.94" y1="238.41" x2="140.69" y2="36.16" gradientTransform="translate(126.51 -115.07) rotate(30.31)" xlink:href="#New_Gradient_Swatch_copy_26"/>
    <linearGradient id="New_Gradient_Swatch_copy_26-7" data-name="New Gradient Swatch copy 26" x1="343.16" y1="231.44" x2="147.91" y2="29.19" gradientTransform="translate(139.66 -128.31) rotate(30.31)" xlink:href="#New_Gradient_Swatch_copy_26"/>
    <linearGradient id="New_Gradient_Swatch_copy_26-8" data-name="New Gradient Swatch copy 26" x1="372.07" y1="293.89" x2="-192.72" y2="-291.15" xlink:href="#New_Gradient_Swatch_copy_26"/>
    <linearGradient id="New_Gradient_Swatch_copy_26-9" data-name="New Gradient Swatch copy 26" x1="378.84" y1="287.35" x2="-185.95" y2="-297.69" xlink:href="#New_Gradient_Swatch_copy_26"/>
    <linearGradient id="New_Gradient_Swatch_copy_26-10" data-name="New Gradient Swatch copy 26" x1="386.06" y1="280.38" x2="-178.73" y2="-304.66" xlink:href="#New_Gradient_Swatch_copy_26"/>
    <linearGradient id="New_Gradient_Swatch_copy_8-2" data-name="New Gradient Swatch copy 8" x1="324.83" y1="218.45" x2="85.83" y2="8.11" xlink:href="#New_Gradient_Swatch_copy_8"/>
    <linearGradient id="New_Gradient_Swatch_copy_8-3" data-name="New Gradient Swatch copy 8" x1="302.04" y1="215.97" x2="207.29" y2="122.22" xlink:href="#New_Gradient_Swatch_copy_8"/>
    <linearGradient id="New_Gradient_Swatch_copy_8-4" data-name="New Gradient Swatch copy 8" x1="303.81" y1="214.18" x2="209.06" y2="120.43" xlink:href="#New_Gradient_Swatch_copy_8"/>
    <linearGradient id="New_Gradient_Swatch_copy_8-5" data-name="New Gradient Swatch copy 8" x1="308.16" y1="209.78" x2="213.41" y2="116.03" xlink:href="#New_Gradient_Swatch_copy_8"/>
    <linearGradient id="New_Gradient_Swatch_copy_8-6" data-name="New Gradient Swatch copy 8" x1="309.65" y1="208.28" x2="214.9" y2="114.53" xlink:href="#New_Gradient_Swatch_copy_8"/>
    <linearGradient id="New_Gradient_Swatch_copy_8-7" data-name="New Gradient Swatch copy 8" x1="315.23" y1="202.64" x2="220.48" y2="108.89" xlink:href="#New_Gradient_Swatch_copy_8"/>
  </defs>
  <g class="cls-30">
    <g id="Layer_3" data-name="Layer 3">
      <g>
        <g>
          <polygon class="cls-9" points="254.44 124.8 216.77 103.05 216.77 83.06 254.44 104.81 254.44 124.8"/>
          <polygon class="cls-6" points="188.78 87.17 151.11 65.42 151.11 45.43 188.78 67.18 188.78 87.17"/>
          <path class="cls-5" d="M220.24,40.3l-31.04-17.92c-2.65-1.53-4.79-5.63-4.79-9.16h0c0-3.53,2.15-5.15,4.79-3.62l31.04,17.92c2.65,1.53,4.79,5.63,4.79,9.16h0c0,3.53-2.15,5.15-4.79,3.62Z"/>
          <path class="cls-4" d="M218.62,137.74l-31.04-17.92c-2.65-1.53-4.79-5.63-4.79-9.16h0c0-3.53,2.15-5.15,4.79-3.62l31.04,17.92c2.65,1.53,4.79,5.63,4.79,9.16h0c0,3.53-2.15,5.15-4.79,3.62Z"/>
          <g>
            <polygon class="cls-3" points="237.73 89.13 237.73 78.65 222.51 70.11 222.02 70.98 236.73 79.23 236.73 88.55 234.57 87.3 237 93.55 239.43 90.11 237.73 89.13"/>
            <polygon class="cls-3" points="204.14 43.45 206.57 40.01 204.66 38.91 204.66 33.05 203.66 32.75 203.66 38.33 201.71 37.2 204.14 43.45"/>
            <polygon class="cls-3" points="172.23 56.62 174.66 53.17 172.92 52.17 172.92 42.6 184.14 49.11 184.64 48.24 171.92 40.87 171.92 51.59 169.8 50.37 172.23 56.62"/>
            <polygon class="cls-3" points="234.23 119.86 170.23 83.02 170.23 76.99 169.23 76.69 169.23 83.59 203.66 103.48 203.66 110.96 201.71 109.83 204.14 116.08 206.57 112.63 204.66 111.53 204.66 104.06 234.48 121.16 235.23 121.59 235.23 114.24 234.23 113.94 234.23 119.86"/>
          </g>
          <polygon class="cls-24" points="204.02 75.5 184.95 48.76 204.02 44.02 223.08 70.77 204.02 75.5"/>
          <polygon class="cls-17" points="216.77 83.06 216.77 83.85 253.94 105.31 253.94 124.51 254.44 124.8 254.44 104.81 216.77 83.06"/>
          <polygon class="cls-19" points="151.11 45.43 151.11 46.22 188.28 67.68 188.28 86.88 188.78 87.17 188.78 67.18 151.11 45.43"/>
          <path class="cls-21" d="M220.24,27.52l-31.04-17.92c-1.6-.92-3.01-.69-3.88,.41,.87-.65,2.06-.67,3.38,.09l31.04,17.92c2.65,1.53,4.79,5.63,4.79,9.16,0,1.4-.34,2.49-.91,3.21,.87-.65,1.41-1.94,1.41-3.71,0-3.53-2.15-7.63-4.79-9.16Z"/>
          <path class="cls-22" d="M218.62,124.96l-31.04-17.92c-1.6-.92-3.01-.69-3.88,.41,.87-.65,2.06-.67,3.38,.09l31.04,17.92c2.65,1.53,4.79,5.63,4.79,9.16,0,1.4-.34,2.49-.91,3.21,.87-.65,1.41-1.94,1.41-3.71,0-3.53-2.15-7.63-4.79-9.16Z"/>
          <polygon class="cls-20" points="203.52 44.52 222.35 70.95 223.08 70.77 204.02 44.02 184.95 48.76 185.18 49.08 203.52 44.52"/>
        </g>
        <g>
          <g class="cls-34">
            <path class="cls-16" d="M236.33,119.81c-8.85-5.11-16.02-1.02-16.02,9.14v16.06c0,10.16,7.17,22.53,16.02,27.64l91.84,53.23c8.85,5.11,19.57,.46,19.57-9.7v-16.06c0-10.16-10.72-21.97-19.57-27.08l-91.84-53.23Z"/>
            <path class="cls-1" d="M235.86,120.52c-8.81-5.08-15.95-1.01-15.95,9.09v14.93c0,10.11,7.14,22.42,15.95,27.5l91.32,52.92c8.81,5.08,19.17,.5,19.17-9.6v-14.93c0-10.11-10.36-21.91-19.17-26.99l-91.32-52.92Z"/>
            <path class="cls-31" d="M235.38,121.24c-8.76-5.06-15.87-1.01-15.87,9.05v13.81c0,10.06,7.1,22.31,15.87,27.37l90.79,52.62c8.76,5.06,18.77,.55,18.77-9.51v-13.81c0-10.06-10.01-21.85-18.77-26.91l-90.79-52.62Z"/>
            <path class="cls-32" d="M234.91,121.95c-8.72-5.03-15.79-1-15.79,9v12.68c0,10.01,7.07,22.2,15.79,27.23l90.26,52.31c8.72,5.03,18.37,.6,18.37-9.41v-12.68c0-10.01-9.65-21.79-18.37-26.83l-90.26-52.31Z"/>
            <path class="cls-36" d="M234.43,122.66c-8.68-5.01-15.71-1-15.71,8.96v11.55c0,9.96,7.03,22.09,15.71,27.1l89.74,52.01c8.68,5.01,17.97,.64,17.97-9.31v-11.55c0-9.96-9.29-21.73-17.97-26.74l-89.74-52.01Z"/>
            <path class="cls-33" d="M233.96,123.38c-8.63-4.98-15.63-.99-15.63,8.91v10.43c0,9.91,7,21.98,15.63,26.96l89.21,51.71c8.63,4.98,17.57,.69,17.57-9.22v-10.43c0-9.91-8.93-21.67-17.57-26.66l-89.21-51.71Z"/>
            <path class="cls-38" d="M233.48,124.09c-8.59-4.96-15.56-.99-15.56,8.87v9.3c0,9.86,6.96,21.87,15.56,26.83l88.68,51.4c8.59,4.96,17.17,.73,17.17-9.12v-9.3c0-9.86-8.58-21.62-17.17-26.58l-88.68-51.4Z"/>
            <path class="cls-37" d="M233,124.81c-8.55-4.94-15.48-.98-15.48,8.82v8.18c0,9.81,6.93,21.76,15.48,26.7l88.16,51.1c8.55,4.94,16.77,.78,16.77-9.03v-8.18c0-9.81-8.22-21.56-16.77-26.49l-88.16-51.1Z"/>
            <path class="cls-44" d="M232.53,125.52c-8.5-4.91-15.4-.98-15.4,8.78v7.05c0,9.76,6.89,21.65,15.4,26.56l87.63,50.8c8.5,4.91,16.37,.83,16.37-8.93v-7.05c0-9.76-7.86-21.5-16.37-26.41l-87.63-50.8Z"/>
            <path class="cls-28" d="M232.05,126.23c-8.46-4.89-15.32-.97-15.32,8.73v5.93c0,9.71,6.86,21.54,15.32,26.43l87.11,50.49c8.46,4.89,15.97,.87,15.97-8.84v-5.93c0-9.71-7.5-21.44-15.97-26.32l-87.11-50.49Z"/>
            <path class="cls-27" d="M231.58,126.95c-8.42-4.86-15.24-.97-15.24,8.69v4.8c0,9.66,6.82,21.43,15.24,26.29l86.58,50.19c8.42,4.86,15.56,.92,15.56-8.74v-4.8c0-9.66-7.15-21.38-15.56-26.24l-86.58-50.19Z"/>
            <path class="cls-29" d="M231.1,127.66c-8.37-4.84-15.16-.96-15.16,8.65v3.67c0,9.61,6.79,21.32,15.16,26.16l86.05,49.88c8.37,4.84,15.16,.96,15.16-8.65v-3.67c0-9.61-6.79-21.32-15.16-26.16l-86.05-49.88Z"/>
          </g>
          <path class="cls-7" d="M327.31,225.14l-100.67-58.31c-7.24-4.18-13.16-15.5-13.16-25.15v-6.85c0-9.65,5.92-14.13,13.16-9.95l100.67,58.31c7.24,4.18,13.16,15.5,13.16,25.15v6.85c0,9.65-5.92,14.13-13.16,9.95Z"/>
          <path class="cls-26" d="M327.31,183.19l-100.67-58.31c-7.24-4.18-13.16,.3-13.16,9.95v1.48c0-9.65,5.92-14.13,13.16-9.95l100.67,58.31c7.24,4.18,13.16,15.5,13.16,25.15v-1.48c0-9.65-5.92-20.97-13.16-25.15Z"/>
          <ellipse class="cls-12" cx="244.92" cy="157.68" rx="10.69" ry="18.52" transform="translate(-46.1 145.16) rotate(-30.31)"/>
          <ellipse class="cls-11" cx="275.68" cy="175.99" rx="10.69" ry="18.52" transform="translate(-51.14 163.19) rotate(-30.31)"/>
          <ellipse class="cls-13" cx="306.68" cy="193.66" rx="10.69" ry="18.52" transform="translate(-55.82 181.25) rotate(-30.31)"/>
          <g class="cls-35">
            <path class="cls-10" d="M245.59,172.42c-7.25-4.19-13.13-14.33-13.13-22.66,0-4.1,1.43-6.98,3.74-8.36-2.7,1.2-4.41,4.22-4.41,8.7,0,8.32,5.88,18.47,13.13,22.66,3.68,2.13,7.01,2.3,9.39,.88-2.32,1.03-5.37,.73-8.73-1.21Z"/>
            <path class="cls-14" d="M276.35,190.73c-7.25-4.19-13.13-14.33-13.13-22.66,0-4.1,1.43-6.98,3.74-8.36-2.7,1.2-4.41,4.22-4.41,8.7,0,8.32,5.88,18.47,13.13,22.66,3.68,2.13,7.01,2.3,9.39,.88-2.32,1.03-5.37,.73-8.73-1.21Z"/>
            <path class="cls-15" d="M307.35,208.4c-7.25-4.19-13.13-14.33-13.13-22.66,0-4.1,1.43-6.98,3.74-8.36-2.7,1.2-4.41,4.22-4.41,8.7,0,8.32,5.88,18.47,13.13,22.66,3.68,2.13,7.01,2.3,9.39,.88-2.32,1.03-5.37,.73-8.73-1.21Z"/>
          </g>
          <path class="cls-23" d="M324.83,197.12v13.48l7.28-2.54-7.28-10.94Zm-98.02-43.61v-13.48l-7.28,2.54,7.28,10.94Z"/>
          <g class="cls-18">
            <path class="cls-43" d="M237.71,161.36c-.61-1.11-.91-2.35-.91-3.73v-9.49c0-1.38,.3-2.27,.91-2.68,.61-.41,1.49-.27,2.65,.39,1.16,.67,2.04,1.56,2.65,2.67,.61,1.11,.91,2.35,.91,3.73v1.87l-2.29-1.32v-2.04c0-1.09-.4-1.87-1.21-2.34-.81-.47-1.21-.15-1.21,.94v9.87c0,1.08,.4,1.85,1.21,2.31,.81,.47,1.21,.16,1.21-.92v-2.7l2.29,1.32v2.5c0,1.38-.3,2.27-.91,2.68-.61,.41-1.49,.27-2.65-.39-1.16-.67-2.04-1.56-2.65-2.67Z"/>
            <path class="cls-41" d="M245.91,161.93l-1.08-.62,.18-1.87,1.08,.62,.42-4.38-1.1-.63,.18-1.87,1.1,.64,.37-3.85,1.91,1.1-.37,3.85,1.56,.9,.37-3.85,1.91,1.1-.37,3.85,1.12,.65-.18,1.87-1.12-.65-.42,4.38,1.12,.65-.18,1.87-1.12-.65-.46,4.78-1.91-1.1,.46-4.78-1.56-.9-.46,4.78-1.91-1.1,.46-4.78Zm3.65,.14l.42-4.38-1.56-.9-.42,4.38,1.56,.9Z"/>
            <path class="cls-40" d="M269.83,181.66v-2.52c.23,.2,.5,.39,.79,.56,.48,.28,.84,.35,1.08,.21,.23-.14,.35-.5,.35-1.07v-13.55l2.42,1.4v13.48c0,1.45-.29,2.36-.87,2.73-.58,.37-1.46,.22-2.65-.47-.44-.25-.81-.5-1.12-.75Z"/>
            <path class="cls-39" d="M276.7,184.72c-.6-1.11-.9-2.38-.9-3.81v-1.01l2.29,1.32v1.21c0,1.14,.42,1.96,1.25,2.44,.41,.24,.72,.28,.93,.12,.21-.15,.32-.54,.32-1.17,0-.74-.15-1.48-.44-2.21-.29-.73-.84-1.72-1.63-2.97-1-1.59-1.69-2.9-2.09-3.94-.4-1.04-.59-2.08-.59-3.11,0-1.4,.31-2.3,.92-2.71,.62-.41,1.51-.28,2.68,.4,1.16,.67,2.03,1.56,2.63,2.67,.59,1.11,.89,2.38,.89,3.81v.73l-2.29-1.32v-.91c0-.61-.1-1.11-.31-1.5-.21-.4-.51-.71-.9-.94-.81-.47-1.21-.13-1.21,.99,0,.64,.15,1.32,.45,2.05,.3,.73,.85,1.72,1.64,2.97,1.01,1.59,1.71,2.91,2.09,3.96,.38,1.04,.57,2.12,.57,3.23,0,1.45-.31,2.38-.93,2.79-.62,.41-1.53,.28-2.72-.41-1.17-.68-2.06-1.57-2.66-2.69Z"/>
            <g class="cls-25">
              <path class="cls-42" d="M303.08,182.37l3.75,2.16c1.3,.75,2.25,1.65,2.85,2.69,.6,1.04,.9,2.28,.9,3.72v1.13c0,1.92-.55,2.81-1.66,2.69v.05c.61,.56,1.05,1.25,1.3,2.04,.25,.8,.38,1.74,.38,2.83v3.25c0,.53,.01,.96,.05,1.31,.03,.34,.11,.71,.23,1.1l-2.58-1.49c-.09-.35-.15-.67-.18-.95-.03-.28-.05-.77-.05-1.45v-3.38c0-.84-.12-1.5-.36-1.97-.24-.47-.65-.88-1.23-1.21l-.87-.5v7.92l-2.53-1.46v-18.47Zm3.45,9.91c.51,.29,.89,.36,1.14,.21,.25-.15,.38-.58,.38-1.29v-1.43c0-.67-.1-1.21-.31-1.63-.21-.42-.53-.76-.98-1.01l-1.15-.66v5.28l.92,.53Z"/>
            </g>
          </g>
        </g>
        <g class="cls-8">
          <path class="cls-2" d="M209.28,67.47c-.07-.04-.14-.11-.2-.2-.06-.09-.08-.18-.08-.28v-1.25c0-.13,.03-.22,.08-.26,.06-.05,.14-.09,.27-.11l3.38-.65-3.38-4.55c-.12-.17-.21-.31-.27-.42-.06-.11-.08-.24-.08-.38v-1.23c0-.11,.03-.17,.08-.2,.05-.03,.12-.02,.2,.03,.08,.05,.18,.15,.28,.31l4.74,6.44c.15,.2,.25,.38,.31,.52,.06,.14,.09,.29,.09,.44v.38c0,.15-.03,.26-.1,.33-.07,.07-.17,.12-.31,.14l-4.74,.98c-.09,.03-.19,.02-.28-.03Z"/>
          <path class="cls-2" d="M207.13,68.45l-.91-.52c-.12-.07-.22-.16-.29-.27-.07-.11-.12-.22-.15-.32l-4.78-15.86c-.02-.06-.03-.13-.03-.19,0-.1,.03-.16,.08-.19,.06-.03,.13-.02,.21,.02l.91,.52c.11,.06,.21,.15,.28,.27,.07,.11,.13,.22,.17,.33l4.75,15.84c.02,.06,.03,.13,.03,.19,0,.1-.03,.16-.08,.19-.06,.03-.12,.03-.2-.02Z"/>
          <path class="cls-2" d="M199.12,61.6c-.09-.05-.19-.15-.28-.29l-4.74-6.45c-.14-.19-.24-.35-.31-.5s-.1-.29-.1-.44v-.38c0-.15,.03-.26,.09-.33,.06-.07,.17-.12,.31-.15l4.74-.97c.1-.04,.2-.03,.28,.02,.07,.04,.14,.11,.2,.2,.06,.09,.08,.19,.08,.3v1.23c0,.14-.03,.23-.08,.28-.06,.05-.14,.09-.27,.11l-3.38,.65,3.38,4.55c.12,.17,.21,.3,.27,.42,.06,.11,.08,.23,.08,.36v1.25c0,.1-.03,.16-.08,.18-.06,.03-.12,.02-.2-.02Z"/>
        </g>
      </g>
    </g>
  </g>
</svg>