<?xml version="1.0" encoding="UTF-8"?>
<svg id="Layer_2" data-name="Layer 2" xmlns="http://www.w3.org/2000/svg" viewBox="0 0 65 74.28">
  <g id="Layer_1-2" data-name="Layer 1">
    <path d="M52.54,27.85c-1.99-3.14-5.62-4.94-9.43-4.4V10.74c0-5.92-4.76-10.74-10.61-10.74s-10.61,4.82-10.61,10.74l1.33,13.64-2.71-11.44c-2.14-5.56-8.34-8.28-13.8-6.09C1.27,9.03-1.39,15.23,.73,20.72l8.09,21.03c-4.43,3.62-6.38,8.39-3.59,13.38l7.96,14.22c1.7,3.04,4.91,4.93,8.37,4.93h29.84c4.46,0,8.35-3.11,9.37-7.51l3.98-17.26c.17-.72,.25-1.46,.25-2.21v-10.16c0-6.52-6.27-11.22-12.45-9.29Zm5.49,19.44c0,.22-.02,.43-.07,.64l-3.98,17.26c-.29,1.25-1.35,2.11-2.58,2.11H21.56c-.94,0-1.82-.53-2.29-1.37l-7.96-14.22c-.66-1.18-.38-2.71,.65-3.55l3.87-3.16c.78-.63,1.06-1.7,.7-2.63L7.22,18.22c-1.82-4.74,5.02-7.37,6.78-2.79l8.67,22.54c.34,.9,1.21,1.49,2.17,1.49h1.69c1.28,0,2.32-1.04,2.32-2.32V10.74c0-4.99,7.29-5,7.29,0v26.4c0,1.28,1.04,2.32,2.32,2.32h.99c1.28,0,2.32-1.04,2.32-2.32v-4.06c0-3.64,5.31-3.65,5.31,0v4.06c0,1.28,1.04,2.32,2.32,2.32h.99c1.28,0,2.32-1.04,2.32-2.32,0-3.64,5.31-3.65,5.31,0v10.16h0Z"/>
  </g>
</svg>