<?xml version="1.0" encoding="UTF-8"?>
<svg xmlns="http://www.w3.org/2000/svg" xmlns:xlink="http://www.w3.org/1999/xlink" viewBox="0 0 355.46 300.44">
  <defs>
    <style>
      .cls-1 {
        fill: url(#linear-gradient-2);
        opacity: .09;
      }

      .cls-2, .cls-3, .cls-4, .cls-5, .cls-6, .cls-7, .cls-8, .cls-9 {
        fill: #7c1dc9;
      }

      .cls-10, .cls-3, .cls-4, .cls-5, .cls-6, .cls-7, .cls-11, .cls-8, .cls-9, .cls-12, .cls-13 {
        mix-blend-mode: color-dodge;
      }

      .cls-10, .cls-6 {
        opacity: .6;
      }

      .cls-14 {
        fill: url(#New_Gradient_Swatch_copy_8-11);
      }

      .cls-14, .cls-15, .cls-16 {
        opacity: .9;
      }

      .cls-15 {
        fill: url(#New_Gradient_Swatch_copy_8-10);
      }

      .cls-16 {
        fill: url(#New_Gradient_Swatch_copy_8-12);
      }

      .cls-17 {
        fill: url(#linear-gradient);
        opacity: 0;
      }

      .cls-18 {
        fill: url(#New_Gradient_Swatch_copy_9);
      }

      .cls-19 {
        fill: url(#New_Gradient_Swatch_copy_8);
      }

      .cls-20 {
        fill: url(#New_Gradient_Swatch_copy_9-13);
      }

      .cls-21 {
        fill: url(#New_Gradient_Swatch_copy_9-10);
      }

      .cls-22 {
        fill: url(#New_Gradient_Swatch_copy_9-16);
      }

      .cls-23 {
        fill: url(#New_Gradient_Swatch_copy_9-18);
      }

      .cls-24 {
        fill: url(#New_Gradient_Swatch_copy_9-15);
      }

      .cls-25 {
        fill: url(#New_Gradient_Swatch_copy_9-19);
      }

      .cls-26 {
        fill: url(#New_Gradient_Swatch_copy_9-12);
      }

      .cls-27 {
        fill: url(#New_Gradient_Swatch_copy_9-14);
      }

      .cls-28 {
        fill: url(#New_Gradient_Swatch_copy_9-11);
      }

      .cls-29 {
        fill: url(#New_Gradient_Swatch_copy_9-17);
      }

      .cls-30 {
        fill: url(#New_Gradient_Swatch_copy_9-20);
      }

      .cls-31 {
        fill: url(#New_Gradient_Swatch_copy_9-21);
      }

      .cls-32 {
        fill: url(#New_Gradient_Swatch_copy_9-22);
      }

      .cls-3 {
        opacity: .15;
      }

      .cls-4 {
        opacity: .4;
      }

      .cls-5 {
        opacity: .25;
      }

      .cls-7, .cls-11 {
        opacity: .5;
      }

      .cls-11 {
        fill: #9f19ab;
      }

      .cls-8, .cls-33, .cls-34, .cls-13 {
        opacity: .8;
      }

      .cls-9 {
        opacity: .7;
      }

      .cls-35 {
        mix-blend-mode: screen;
      }

      .cls-12 {
        fill: url(#radial-gradient);
      }

      .cls-34 {
        fill: url(#New_Gradient_Swatch_copy_26);
      }

      .cls-36 {
        fill: url(#linear-gradient-11);
        opacity: .91;
      }

      .cls-37 {
        fill: url(#linear-gradient-10);
        opacity: .82;
      }

      .cls-38 {
        fill: url(#linear-gradient-59);
      }

      .cls-39 {
        fill: url(#linear-gradient-57);
      }

      .cls-40 {
        fill: url(#linear-gradient-58);
      }

      .cls-41 {
        fill: url(#linear-gradient-55);
      }

      .cls-42 {
        fill: url(#linear-gradient-56);
      }

      .cls-43 {
        fill: url(#linear-gradient-53);
      }

      .cls-44 {
        fill: url(#linear-gradient-54);
      }

      .cls-45 {
        fill: url(#linear-gradient-51);
      }

      .cls-46 {
        fill: url(#linear-gradient-52);
      }

      .cls-47 {
        fill: url(#linear-gradient-50);
      }

      .cls-48 {
        fill: url(#linear-gradient-74);
      }

      .cls-49 {
        fill: url(#linear-gradient-75);
      }

      .cls-50 {
        fill: url(#linear-gradient-76);
      }

      .cls-51 {
        fill: url(#linear-gradient-70);
      }

      .cls-52 {
        fill: url(#linear-gradient-71);
      }

      .cls-53 {
        fill: url(#linear-gradient-72);
      }

      .cls-54 {
        fill: url(#linear-gradient-73);
      }

      .cls-55 {
        fill: url(#linear-gradient-68);
      }

      .cls-56 {
        fill: url(#linear-gradient-67);
      }

      .cls-57 {
        fill: url(#linear-gradient-69);
      }

      .cls-58 {
        fill: url(#linear-gradient-64);
      }

      .cls-59 {
        fill: url(#linear-gradient-63);
      }

      .cls-60 {
        fill: url(#linear-gradient-66);
      }

      .cls-61 {
        fill: url(#linear-gradient-65);
      }

      .cls-62 {
        fill: url(#linear-gradient-60);
      }

      .cls-63 {
        fill: url(#linear-gradient-62);
      }

      .cls-64 {
        fill: url(#linear-gradient-61);
      }

      .cls-65 {
        fill: url(#linear-gradient-41);
      }

      .cls-66 {
        fill: url(#linear-gradient-40);
      }

      .cls-67 {
        fill: url(#linear-gradient-43);
      }

      .cls-68 {
        fill: url(#linear-gradient-42);
      }

      .cls-69 {
        fill: url(#linear-gradient-45);
      }

      .cls-70 {
        fill: url(#linear-gradient-46);
      }

      .cls-71 {
        fill: url(#linear-gradient-44);
      }

      .cls-72 {
        fill: url(#linear-gradient-49);
      }

      .cls-73 {
        fill: url(#linear-gradient-47);
      }

      .cls-74 {
        fill: url(#linear-gradient-48);
      }

      .cls-75 {
        fill: url(#linear-gradient-14);
      }

      .cls-76 {
        fill: url(#linear-gradient-18);
      }

      .cls-77 {
        fill: url(#linear-gradient-22);
      }

      .cls-78 {
        fill: url(#linear-gradient-20);
      }

      .cls-79 {
        fill: url(#linear-gradient-21);
      }

      .cls-80 {
        fill: url(#linear-gradient-23);
      }

      .cls-81 {
        fill: url(#linear-gradient-15);
      }

      .cls-82 {
        fill: url(#linear-gradient-19);
      }

      .cls-83 {
        fill: url(#linear-gradient-16);
      }

      .cls-84 {
        fill: url(#linear-gradient-17);
      }

      .cls-85 {
        fill: url(#linear-gradient-13);
      }

      .cls-86 {
        fill: url(#linear-gradient-12);
      }

      .cls-87 {
        fill: url(#linear-gradient-27);
      }

      .cls-88 {
        fill: url(#linear-gradient-24);
      }

      .cls-89 {
        fill: url(#linear-gradient-26);
      }

      .cls-90 {
        fill: url(#linear-gradient-38);
      }

      .cls-91 {
        fill: url(#linear-gradient-35);
      }

      .cls-92 {
        fill: url(#linear-gradient-37);
      }

      .cls-93 {
        fill: url(#linear-gradient-34);
      }

      .cls-94 {
        fill: url(#linear-gradient-39);
      }

      .cls-95 {
        fill: url(#linear-gradient-36);
      }

      .cls-96 {
        fill: url(#linear-gradient-25);
      }

      .cls-97 {
        fill: url(#linear-gradient-28);
      }

      .cls-98 {
        fill: url(#linear-gradient-29);
      }

      .cls-99 {
        fill: url(#linear-gradient-33);
      }

      .cls-100 {
        fill: url(#linear-gradient-30);
      }

      .cls-101 {
        fill: url(#linear-gradient-32);
      }

      .cls-102 {
        fill: url(#linear-gradient-31);
      }

      .cls-103 {
        isolation: isolate;
      }

      .cls-104 {
        fill: url(#linear-gradient-3);
        opacity: .18;
      }

      .cls-105 {
        fill: url(#linear-gradient-4);
        opacity: .27;
      }

      .cls-106 {
        fill: url(#linear-gradient-6);
        opacity: .45;
      }

      .cls-107 {
        mix-blend-mode: multiply;
        opacity: .3;
      }

      .cls-108 {
        fill: url(#linear-gradient-5);
        opacity: .36;
      }

      .cls-109 {
        fill: url(#linear-gradient-8);
        opacity: .64;
      }

      .cls-110 {
        fill: url(#linear-gradient-7);
        opacity: .55;
      }

      .cls-111 {
        fill: url(#New_Gradient_Swatch_copy_8-6);
      }

      .cls-112 {
        fill: url(#New_Gradient_Swatch_copy_8-9);
      }

      .cls-113 {
        fill: url(#New_Gradient_Swatch_copy_8-8);
      }

      .cls-114 {
        fill: url(#New_Gradient_Swatch_copy_8-2);
      }

      .cls-115 {
        fill: url(#New_Gradient_Swatch_copy_8-5);
      }

      .cls-116 {
        fill: url(#New_Gradient_Swatch_copy_8-4);
      }

      .cls-117 {
        fill: url(#New_Gradient_Swatch_copy_8-7);
      }

      .cls-118 {
        fill: url(#New_Gradient_Swatch_copy_8-3);
      }

      .cls-119 {
        fill: url(#New_Gradient_Swatch_copy_9-4);
      }

      .cls-120 {
        fill: url(#New_Gradient_Swatch_copy_9-7);
      }

      .cls-121 {
        fill: url(#New_Gradient_Swatch_copy_9-9);
      }

      .cls-122 {
        fill: url(#New_Gradient_Swatch_copy_9-6);
      }

      .cls-123 {
        fill: url(#New_Gradient_Swatch_copy_9-3);
      }

      .cls-124 {
        fill: url(#New_Gradient_Swatch_copy_9-8);
      }

      .cls-125 {
        fill: url(#New_Gradient_Swatch_copy_9-5);
      }

      .cls-126 {
        fill: url(#New_Gradient_Swatch_copy_9-2);
      }

      .cls-127 {
        fill: url(#linear-gradient-9);
        opacity: .73;
      }
    </style>
    <linearGradient id="linear-gradient" x1="67.98" y1="-13.36" x2="149.71" y2="142.48" gradientUnits="userSpaceOnUse">
      <stop offset=".01" stop-color="#9f19ab"/>
      <stop offset=".43" stop-color="#5f27bd"/>
      <stop offset=".9" stop-color="#3d065f"/>
    </linearGradient>
    <linearGradient id="linear-gradient-2" x1="67.27" y1="-12.78" x2="148.84" y2="142.76" xlink:href="#linear-gradient"/>
    <linearGradient id="linear-gradient-3" x1="66.55" y1="-12.2" x2="147.97" y2="143.05" xlink:href="#linear-gradient"/>
    <linearGradient id="linear-gradient-4" x1="65.84" y1="-11.63" x2="147.11" y2="143.34" xlink:href="#linear-gradient"/>
    <linearGradient id="linear-gradient-5" x1="65.12" y1="-11.06" x2="146.25" y2="143.63" xlink:href="#linear-gradient"/>
    <linearGradient id="linear-gradient-6" x1="64.41" y1="-10.5" x2="145.4" y2="143.94" xlink:href="#linear-gradient"/>
    <linearGradient id="linear-gradient-7" x1="63.69" y1="-9.94" x2="144.55" y2="144.25" xlink:href="#linear-gradient"/>
    <linearGradient id="linear-gradient-8" x1="62.97" y1="-9.39" x2="143.71" y2="144.57" xlink:href="#linear-gradient"/>
    <linearGradient id="linear-gradient-9" x1="62.25" y1="-8.85" x2="142.88" y2="144.9" xlink:href="#linear-gradient"/>
    <linearGradient id="linear-gradient-10" x1="61.53" y1="-8.31" x2="142.06" y2="145.25" xlink:href="#linear-gradient"/>
    <linearGradient id="linear-gradient-11" x1="60.8" y1="-7.79" x2="141.25" y2="145.61" xlink:href="#linear-gradient"/>
    <linearGradient id="linear-gradient-12" x1="60.08" y1="-7.27" x2="140.45" y2="145.98" xlink:href="#linear-gradient"/>
    <linearGradient id="New_Gradient_Swatch_copy_26" data-name="New Gradient Swatch copy 26" x1="161.86" y1="193.95" x2="33.46" y2="-56.88" gradientUnits="userSpaceOnUse">
      <stop offset=".03" stop-color="#7c1dc9"/>
      <stop offset=".21" stop-color="#6e41d1"/>
      <stop offset=".62" stop-color="#4c9be8"/>
      <stop offset="1" stop-color="#2af6ff"/>
    </linearGradient>
    <radialGradient id="radial-gradient" cx="121.38" cy="67.33" fx="121.38" fy="67.33" r="69.4" gradientUnits="userSpaceOnUse">
      <stop offset="0" stop-color="#711f56"/>
      <stop offset=".16" stop-color="#6b1d51"/>
      <stop offset=".36" stop-color="#5c1946"/>
      <stop offset=".58" stop-color="#421232"/>
      <stop offset=".82" stop-color="#1f0818"/>
      <stop offset="1" stop-color="#000"/>
    </radialGradient>
    <linearGradient id="linear-gradient-13" x1="125.45" y1="77.01" x2="129.86" y2="77.01" gradientUnits="userSpaceOnUse">
      <stop offset="0" stop-color="#3d065f"/>
      <stop offset="1" stop-color="#5f27bd"/>
    </linearGradient>
    <linearGradient id="linear-gradient-14" x1="121.24" y1="93.46" x2="128.5" y2="93.46" xlink:href="#linear-gradient-13"/>
    <linearGradient id="New_Gradient_Swatch_copy_9" data-name="New Gradient Swatch copy 9" x1="120" y1="79.6" x2="128.11" y2="79.6" gradientUnits="userSpaceOnUse">
      <stop offset=".04" stop-color="#9f19ab"/>
      <stop offset=".24" stop-color="#ae24b0"/>
      <stop offset=".65" stop-color="#d643bf"/>
      <stop offset="1" stop-color="#ff63ce"/>
    </linearGradient>
    <linearGradient id="linear-gradient-15" x1="119.59" y1="87.01" x2="123.71" y2="87.01" xlink:href="#linear-gradient-13"/>
    <linearGradient id="linear-gradient-16" x1="106.66" y1="84.98" x2="113.36" y2="84.98" xlink:href="#linear-gradient-13"/>
    <linearGradient id="linear-gradient-17" x1="125.86" y1="90.3" x2="128.72" y2="90.3" xlink:href="#linear-gradient-13"/>
    <linearGradient id="New_Gradient_Swatch_copy_9-2" data-name="New Gradient Swatch copy 9" x1="123.35" y1="84.6" x2="126.76" y2="84.6" xlink:href="#New_Gradient_Swatch_copy_9"/>
    <linearGradient id="linear-gradient-18" x1="132.01" y1="80.06" x2="133.86" y2="80.06" xlink:href="#linear-gradient-13"/>
    <linearGradient id="linear-gradient-19" x1="114.26" y1="80.43" x2="121.2" y2="80.43" xlink:href="#linear-gradient-13"/>
    <linearGradient id="linear-gradient-20" x1="130.26" y1="85.25" x2="137.6" y2="85.25" xlink:href="#linear-gradient-13"/>
    <linearGradient id="New_Gradient_Swatch_copy_8" data-name="New Gradient Swatch copy 8" x1="108.75" y1="82.16" x2="117.47" y2="82.16" gradientUnits="userSpaceOnUse">
      <stop offset=".04" stop-color="#ffa98c"/>
      <stop offset=".32" stop-color="#feb892"/>
      <stop offset=".86" stop-color="#fee0a3"/>
      <stop offset="1" stop-color="#feeca8"/>
    </linearGradient>
    <linearGradient id="New_Gradient_Swatch_copy_9-3" data-name="New Gradient Swatch copy 9" x1="110.85" y1="69.32" x2="117.67" y2="69.32" xlink:href="#New_Gradient_Swatch_copy_9"/>
    <linearGradient id="linear-gradient-21" x1="119.82" y1="73.5" x2="123.29" y2="73.5" xlink:href="#linear-gradient-13"/>
    <linearGradient id="New_Gradient_Swatch_copy_9-4" data-name="New Gradient Swatch copy 9" x1="115.51" y1="89.12" x2="119.12" y2="89.12" xlink:href="#New_Gradient_Swatch_copy_9"/>
    <linearGradient id="linear-gradient-22" x1="135.69" y1="97.88" x2="144.99" y2="97.88" xlink:href="#linear-gradient-13"/>
    <linearGradient id="linear-gradient-23" x1="101.22" y1="80.92" x2="104.51" y2="80.92" xlink:href="#linear-gradient-13"/>
    <linearGradient id="New_Gradient_Swatch_copy_8-2" data-name="New Gradient Swatch copy 8" x1="94.49" y1="62.48" x2="109.11" y2="62.48" xlink:href="#New_Gradient_Swatch_copy_8"/>
    <linearGradient id="linear-gradient-24" x1="137.84" y1="92.94" x2="141.28" y2="92.94" xlink:href="#linear-gradient-13"/>
    <linearGradient id="linear-gradient-25" x1="139.76" y1="91.43" x2="149.43" y2="91.43" xlink:href="#linear-gradient-13"/>
    <linearGradient id="New_Gradient_Swatch_copy_9-5" data-name="New Gradient Swatch copy 9" x1="128.92" y1="88.76" x2="135.72" y2="88.76" xlink:href="#New_Gradient_Swatch_copy_9"/>
    <linearGradient id="linear-gradient-26" x1="136.02" y1="84.04" x2="143.74" y2="84.04" xlink:href="#linear-gradient-13"/>
    <linearGradient id="linear-gradient-27" x1="101.22" y1="77.01" x2="106.6" y2="77.01" xlink:href="#linear-gradient-13"/>
    <linearGradient id="linear-gradient-28" x1="130.87" y1="93.17" x2="133.57" y2="93.17" xlink:href="#linear-gradient-13"/>
    <linearGradient id="New_Gradient_Swatch_copy_9-6" data-name="New Gradient Swatch copy 9" x1="101.22" y1="74.12" x2="112.1" y2="74.12" xlink:href="#New_Gradient_Swatch_copy_9"/>
    <linearGradient id="linear-gradient-29" x1="130.5" y1="102.7" x2="136.35" y2="102.7" xlink:href="#linear-gradient-13"/>
    <linearGradient id="New_Gradient_Swatch_copy_8-3" data-name="New Gradient Swatch copy 8" x1="101.22" y1="71.3" x2="117.85" y2="71.3" xlink:href="#New_Gradient_Swatch_copy_8"/>
    <linearGradient id="linear-gradient-30" y1="143.28" y2="143.28" xlink:href="#linear-gradient-13"/>
    <linearGradient id="linear-gradient-31" x1="121.24" y1="159.73" x2="128.5" y2="159.73" xlink:href="#linear-gradient-13"/>
    <linearGradient id="New_Gradient_Swatch_copy_8-4" data-name="New Gradient Swatch copy 8" x1="120" y1="145.87" x2="128.11" y2="145.87" xlink:href="#New_Gradient_Swatch_copy_8"/>
    <linearGradient id="linear-gradient-32" x1="119.59" y1="153.29" x2="123.71" y2="153.29" xlink:href="#linear-gradient-13"/>
    <linearGradient id="linear-gradient-33" x1="106.66" y1="151.26" x2="113.36" y2="151.26" xlink:href="#linear-gradient-13"/>
    <linearGradient id="linear-gradient-34" x1="125.86" y1="156.57" x2="128.72" y2="156.57" xlink:href="#linear-gradient-13"/>
    <linearGradient id="New_Gradient_Swatch_copy_9-7" data-name="New Gradient Swatch copy 9" x1="123.35" y1="150.88" x2="126.76" y2="150.88" xlink:href="#New_Gradient_Swatch_copy_9"/>
    <linearGradient id="linear-gradient-35" x1="132.01" y1="146.34" x2="133.86" y2="146.34" xlink:href="#linear-gradient-13"/>
    <linearGradient id="linear-gradient-36" x1="114.26" y1="146.7" x2="121.2" y2="146.7" xlink:href="#linear-gradient-13"/>
    <linearGradient id="linear-gradient-37" x1="130.26" y1="151.53" x2="137.6" y2="151.53" xlink:href="#linear-gradient-13"/>
    <linearGradient id="New_Gradient_Swatch_copy_8-5" data-name="New Gradient Swatch copy 8" y1="148.43" y2="148.43" xlink:href="#New_Gradient_Swatch_copy_8"/>
    <linearGradient id="linear-gradient-38" x1="110.85" y1="135.59" x2="117.67" y2="135.59" xlink:href="#linear-gradient-13"/>
    <linearGradient id="linear-gradient-39" x1="119.82" y1="139.77" x2="123.29" y2="139.77" xlink:href="#linear-gradient-13"/>
    <linearGradient id="linear-gradient-40" x1="115.51" y1="155.39" x2="119.12" y2="155.39" xlink:href="#linear-gradient-13"/>
    <linearGradient id="linear-gradient-41" x1="135.69" y1="164.15" x2="144.99" y2="164.15" xlink:href="#linear-gradient-13"/>
    <linearGradient id="linear-gradient-42" x1="101.22" y1="147.2" x2="104.51" y2="147.2" xlink:href="#linear-gradient-13"/>
    <linearGradient id="New_Gradient_Swatch_copy_8-6" data-name="New Gradient Swatch copy 8" x1="94.49" y1="128.76" x2="109.11" y2="128.76" xlink:href="#New_Gradient_Swatch_copy_8"/>
    <linearGradient id="linear-gradient-43" x1="137.84" y1="159.21" x2="141.28" y2="159.21" xlink:href="#linear-gradient-13"/>
    <linearGradient id="linear-gradient-44" x1="139.76" y1="157.71" x2="149.43" y2="157.71" xlink:href="#linear-gradient-13"/>
    <linearGradient id="linear-gradient-45" x1="128.92" y1="155.03" x2="135.72" y2="155.03" xlink:href="#linear-gradient-13"/>
    <linearGradient id="New_Gradient_Swatch_copy_9-8" data-name="New Gradient Swatch copy 9" x1="136.02" y1="150.32" x2="143.74" y2="150.32" xlink:href="#New_Gradient_Swatch_copy_9"/>
    <linearGradient id="New_Gradient_Swatch_copy_9-9" data-name="New Gradient Swatch copy 9" x1="101.22" y1="143.28" x2="106.6" y2="143.28" xlink:href="#New_Gradient_Swatch_copy_9"/>
    <linearGradient id="New_Gradient_Swatch_copy_9-10" data-name="New Gradient Swatch copy 9" x1="130.87" y1="159.45" x2="133.57" y2="159.45" xlink:href="#New_Gradient_Swatch_copy_9"/>
    <linearGradient id="linear-gradient-46" x1="101.22" y1="140.4" x2="112.1" y2="140.4" xlink:href="#linear-gradient-13"/>
    <linearGradient id="New_Gradient_Swatch_copy_9-11" data-name="New Gradient Swatch copy 9" x1="101.22" y1="137.58" x2="117.85" y2="137.58" xlink:href="#New_Gradient_Swatch_copy_9"/>
    <linearGradient id="linear-gradient-47" x1="121.24" y1="111.25" x2="128.5" y2="111.25" xlink:href="#linear-gradient-13"/>
    <linearGradient id="linear-gradient-48" x1="120" y1="97.39" x2="128.11" y2="97.39" xlink:href="#linear-gradient-13"/>
    <linearGradient id="linear-gradient-49" x1="119.59" y1="104.81" x2="123.71" y2="104.81" xlink:href="#linear-gradient-13"/>
    <linearGradient id="New_Gradient_Swatch_copy_9-12" data-name="New Gradient Swatch copy 9" x1="106.66" y1="102.78" x2="113.36" y2="102.78" xlink:href="#New_Gradient_Swatch_copy_9"/>
    <linearGradient id="linear-gradient-50" x1="125.86" y1="108.09" x2="128.72" y2="108.09" xlink:href="#linear-gradient-13"/>
    <linearGradient id="New_Gradient_Swatch_copy_9-13" data-name="New Gradient Swatch copy 9" x1="123.35" y1="102.4" x2="126.76" y2="102.4" xlink:href="#New_Gradient_Swatch_copy_9"/>
    <linearGradient id="linear-gradient-51" x1="114.26" y1="98.23" x2="121.2" y2="98.23" xlink:href="#linear-gradient-13"/>
    <linearGradient id="linear-gradient-52" x1="108.75" y1="99.96" x2="117.47" y2="99.96" xlink:href="#linear-gradient-13"/>
    <linearGradient id="New_Gradient_Swatch_copy_9-14" data-name="New Gradient Swatch copy 9" x1="115.51" y1="106.91" x2="119.12" y2="106.91" xlink:href="#New_Gradient_Swatch_copy_9"/>
    <linearGradient id="linear-gradient-53" x1="135.69" y1="115.68" x2="144.99" y2="115.68" xlink:href="#linear-gradient-13"/>
    <linearGradient id="linear-gradient-54" x1="101.22" y1="98.72" x2="104.51" y2="98.72" xlink:href="#linear-gradient-13"/>
    <linearGradient id="linear-gradient-55" x1="137.84" y1="110.74" x2="141.28" y2="110.74" xlink:href="#linear-gradient-13"/>
    <linearGradient id="linear-gradient-56" x1="128.92" y1="106.55" x2="135.72" y2="106.55" xlink:href="#linear-gradient-13"/>
    <linearGradient id="New_Gradient_Swatch_copy_9-15" data-name="New Gradient Swatch copy 9" x1="101.22" y1="94.8" x2="106.6" y2="94.8" xlink:href="#New_Gradient_Swatch_copy_9"/>
    <linearGradient id="linear-gradient-57" x1="130.87" y1="110.97" x2="133.57" y2="110.97" xlink:href="#linear-gradient-13"/>
    <linearGradient id="linear-gradient-58" x1="101.22" y1="91.92" x2="112.1" y2="91.92" xlink:href="#linear-gradient-13"/>
    <linearGradient id="linear-gradient-59" x1="118.42" y1="112.84" x2="121.83" y2="112.84" xlink:href="#linear-gradient-13"/>
    <linearGradient id="New_Gradient_Swatch_copy_8-7" data-name="New Gradient Swatch copy 8" x1="109.32" y1="108.67" x2="116.26" y2="108.67" xlink:href="#New_Gradient_Swatch_copy_8"/>
    <linearGradient id="linear-gradient-60" x1="132.91" y1="121.17" x2="136.35" y2="121.17" xlink:href="#linear-gradient-13"/>
    <linearGradient id="New_Gradient_Swatch_copy_9-16" data-name="New Gradient Swatch copy 9" x1="123.98" y1="116.99" x2="130.79" y2="116.99" xlink:href="#New_Gradient_Swatch_copy_9"/>
    <linearGradient id="New_Gradient_Swatch_copy_8-8" data-name="New Gradient Swatch copy 8" x1="96.28" y1="102.36" x2="107.17" y2="102.36" xlink:href="#New_Gradient_Swatch_copy_8"/>
    <linearGradient id="New_Gradient_Swatch_copy_9-17" data-name="New Gradient Swatch copy 9" x1="101.22" y1="89.1" x2="117.85" y2="89.1" xlink:href="#New_Gradient_Swatch_copy_9"/>
    <linearGradient id="linear-gradient-61" x1="121.24" y1="133.3" x2="128.5" y2="133.3" xlink:href="#linear-gradient-13"/>
    <linearGradient id="linear-gradient-62" x1="120" y1="119.44" x2="128.11" y2="119.44" xlink:href="#linear-gradient-13"/>
    <linearGradient id="New_Gradient_Swatch_copy_9-18" data-name="New Gradient Swatch copy 9" x1="119.59" y1="126.86" x2="123.71" y2="126.86" xlink:href="#New_Gradient_Swatch_copy_9"/>
    <linearGradient id="New_Gradient_Swatch_copy_9-19" data-name="New Gradient Swatch copy 9" x1="106.66" y1="124.83" x2="113.36" y2="124.83" xlink:href="#New_Gradient_Swatch_copy_9"/>
    <linearGradient id="linear-gradient-63" x1="125.86" y1="130.14" x2="128.72" y2="130.14" xlink:href="#linear-gradient-13"/>
    <linearGradient id="New_Gradient_Swatch_copy_8-9" data-name="New Gradient Swatch copy 8" x1="123.35" y1="124.45" x2="126.76" y2="124.45" xlink:href="#New_Gradient_Swatch_copy_8"/>
    <linearGradient id="linear-gradient-64" x1="114.26" y1="120.28" x2="121.2" y2="120.28" xlink:href="#linear-gradient-13"/>
    <linearGradient id="linear-gradient-65" x1="108.75" y1="122.01" x2="117.47" y2="122.01" xlink:href="#linear-gradient-13"/>
    <linearGradient id="linear-gradient-66" x1="115.51" y1="128.96" x2="119.12" y2="128.96" xlink:href="#linear-gradient-13"/>
    <linearGradient id="linear-gradient-67" x1="135.69" y1="137.73" x2="144.99" y2="137.73" xlink:href="#linear-gradient-13"/>
    <linearGradient id="linear-gradient-68" x1="101.22" y1="120.77" x2="104.51" y2="120.77" xlink:href="#linear-gradient-13"/>
    <linearGradient id="linear-gradient-69" x1="137.84" y1="132.79" x2="141.28" y2="132.79" xlink:href="#linear-gradient-13"/>
    <linearGradient id="linear-gradient-70" x1="128.92" y1="128.6" x2="135.72" y2="128.6" xlink:href="#linear-gradient-13"/>
    <linearGradient id="linear-gradient-71" x1="101.22" y1="116.85" x2="106.6" y2="116.85" xlink:href="#linear-gradient-13"/>
    <linearGradient id="linear-gradient-72" x1="130.87" y1="133.02" x2="133.57" y2="133.02" xlink:href="#linear-gradient-13"/>
    <linearGradient id="New_Gradient_Swatch_copy_9-20" data-name="New Gradient Swatch copy 9" x1="101.22" y1="113.97" x2="112.1" y2="113.97" xlink:href="#New_Gradient_Swatch_copy_9"/>
    <linearGradient id="New_Gradient_Swatch_copy_9-21" data-name="New Gradient Swatch copy 9" x1="118.42" y1="134.89" x2="121.83" y2="134.89" xlink:href="#New_Gradient_Swatch_copy_9"/>
    <linearGradient id="linear-gradient-73" x1="109.32" y1="130.72" x2="116.26" y2="130.72" xlink:href="#linear-gradient-13"/>
    <linearGradient id="linear-gradient-74" x1="132.91" y1="143.22" x2="136.35" y2="143.22" xlink:href="#linear-gradient-13"/>
    <linearGradient id="New_Gradient_Swatch_copy_9-22" data-name="New Gradient Swatch copy 9" x1="123.98" y1="139.04" x2="130.79" y2="139.04" xlink:href="#New_Gradient_Swatch_copy_9"/>
    <linearGradient id="linear-gradient-75" x1="100.95" y1="125.73" x2="107.17" y2="125.73" xlink:href="#linear-gradient-13"/>
    <linearGradient id="linear-gradient-76" x1="101.22" y1="111.15" x2="117.85" y2="111.15" xlink:href="#linear-gradient-13"/>
    <linearGradient id="New_Gradient_Swatch_copy_8-10" data-name="New Gradient Swatch copy 8" x1="153.06" y1="125.03" x2="83.4" y2="40.03" xlink:href="#New_Gradient_Swatch_copy_8"/>
    <linearGradient id="New_Gradient_Swatch_copy_8-11" data-name="New Gradient Swatch copy 8" x1="120.57" y1="151.66" x2="50.9" y2="66.66" xlink:href="#New_Gradient_Swatch_copy_8"/>
    <linearGradient id="New_Gradient_Swatch_copy_8-12" data-name="New Gradient Swatch copy 8" x1="133.47" y1="141.09" x2="63.8" y2="56.09" xlink:href="#New_Gradient_Swatch_copy_8"/>
  </defs>
  <g class="cls-103">
    <g id="Layer_2" data-name="Layer 2">
      <g>
        <g class="cls-107">
          <path class="cls-17" d="M105.38,41.88c-6.22-3.59-11.25-.72-11.25,6.42v88.4c0,7.13,5.04,15.82,11.25,19.41l48.3,29.19c6.22,3.59,24.96-14.2,24.96-21.33V95.82c0-7.13-7.53-15.43-13.75-19.02l-59.52-34.92Z"/>
          <path class="cls-1" d="M104.54,42.34c-6.15-3.55-11.14-.71-11.14,6.35v87.66c0,7.06,4.99,15.66,11.14,19.22l48.97,29.46c6.15,3.55,23.6-12.85,23.6-19.91V95.87c0-7.06-7.25-15.31-13.41-18.86l-59.16-34.67Z"/>
          <path class="cls-104" d="M103.71,42.79c-6.09-3.52-11.03-.7-11.03,6.29v86.92c0,6.99,4.94,15.5,11.03,19.02l49.63,29.73c6.09,3.52,22.24-11.5,22.24-18.49V95.92c0-6.99-6.97-15.18-13.06-18.7l-58.81-34.42Z"/>
          <path class="cls-105" d="M102.88,43.25c-6.03-3.48-10.91-.69-10.91,6.22v86.17c0,6.92,4.89,15.34,10.91,18.82l50.29,30.01c6.03,3.48,20.88-10.15,20.88-17.07V95.97c0-6.92-6.7-15.06-12.72-18.54l-58.45-34.18Z"/>
          <path class="cls-108" d="M102.04,43.71c-5.96-3.44-10.8-.69-10.8,6.16v85.43c0,6.84,4.84,15.18,10.8,18.63l50.95,30.28c5.96,3.44,19.52-8.81,19.52-15.65V96.02c0-6.84-6.42-14.93-12.38-18.38l-58.09-33.93Z"/>
          <path class="cls-106" d="M101.21,44.17c-5.9-3.41-10.69-.68-10.69,6.09v84.69c0,6.77,4.78,15.02,10.69,18.43l51.61,30.55c5.9,3.41,18.16-7.46,18.16-14.23V96.07c0-6.77-6.14-14.81-12.04-18.22l-57.73-33.68Z"/>
          <path class="cls-110" d="M100.38,44.63c-5.84-3.37-10.57-.67-10.57,6.03v83.95c0,6.7,4.73,14.86,10.57,18.24l52.28,30.83c5.84,3.37,16.8-6.11,16.8-12.81V96.12c0-6.7-5.87-14.68-11.7-18.06l-57.38-33.43Z"/>
          <path class="cls-109" d="M99.54,45.08c-5.78-3.33-10.46-.67-10.46,5.96v83.21c0,6.63,4.68,14.7,10.46,18.04l52.94,31.1c5.78,3.33,15.44-4.76,15.44-11.39V96.17c0-6.63-5.59-14.56-11.36-17.9l-57.02-33.19Z"/>
          <path class="cls-127" d="M98.71,45.54c-5.71-3.3-10.34-.66-10.34,5.9v82.47c0,6.56,4.63,14.54,10.34,17.84l53.6,31.38c5.71,3.3,14.08-3.41,14.08-9.97V96.22c0-6.56-5.31-14.44-11.02-17.74l-56.66-32.94Z"/>
          <path class="cls-37" d="M97.87,46c-5.65-3.26-10.23-.65-10.23,5.83v81.73c0,6.48,4.58,14.38,10.23,17.65l54.26,31.65c5.65,3.26,12.72-2.06,12.72-8.55V96.27c0-6.48-5.03-14.31-10.68-17.57l-56.3-32.69Z"/>
          <path class="cls-36" d="M97.04,46.46c-5.59-3.23-10.12-.64-10.12,5.77v80.99c0,6.41,4.53,14.22,10.12,17.45l54.93,31.92c5.59,3.23,11.36-.71,11.36-7.12V96.32c0-6.41-4.76-14.19-10.34-17.41l-55.95-32.44Z"/>
          <path class="cls-86" d="M96.21,46.92c-5.52-3.19-10-.64-10,5.7v80.25c0,6.34,4.48,14.06,10,17.25l55.59,32.2c5.52,3.19,10,.64,10-5.7V96.37c0-6.34-4.48-14.06-10-17.25l-55.59-32.2Z"/>
        </g>
        <path class="cls-34" d="M94.53,43.18c-5.62-3.24-10.18-.65-10.18,5.8v88.88c0,6.45,4.56,14.31,10.18,17.55l53.7,31.16c5.62,3.24,10.18,.65,10.18-5.8V91.89c0-6.45-4.56-14.31-10.18-17.55l-53.7-31.16Z"/>
        <path class="cls-12" d="M148.23,74.34l-53.7-31.16c-5.62-3.24-10.18-.65-10.18,5.8v.98c0-6.45,4.56-9.05,10.18-5.8l53.7,31.16c5.62,3.24,10.18,11.1,10.18,17.55v-.98c0-6.45-4.56-14.31-10.18-17.55Z"/>
        <g class="cls-35">
          <g class="cls-10">
            <polygon class="cls-85" points="125.45 76.8 129.86 79.37 129.86 77.21 125.45 74.65 125.45 76.8"/>
            <polygon class="cls-75" points="128.5 94.47 121.24 90.28 121.24 92.44 128.5 96.63 128.5 94.47"/>
            <polygon class="cls-18" points="128.11 82.97 128.11 80.82 120 76.22 120 78.38 128.11 82.97"/>
            <polygon class="cls-81" points="119.59 84.74 119.59 86.9 123.71 89.28 123.71 87.12 119.59 84.74"/>
            <polygon class="cls-83" points="113.36 87.96 113.36 85.8 106.66 82.01 106.66 84.17 113.36 87.96"/>
            <polygon class="cls-84" points="128.72 90.07 125.86 88.37 125.86 90.52 128.72 92.22 128.72 90.07"/>
            <polygon class="cls-126" points="123.35 82.56 123.35 84.71 126.76 86.65 126.76 84.5 123.35 82.56"/>
            <polygon class="cls-76" points="132.01 78.44 132.01 80.6 133.86 81.68 133.86 79.52 132.01 78.44"/>
            <polygon class="cls-82" points="121.2 83.48 121.2 81.33 114.26 77.37 114.26 79.53 121.2 83.48"/>
            <polygon class="cls-78" points="130.26 82.05 130.26 84.21 137.6 88.45 137.6 86.29 130.26 82.05"/>
            <polygon class="cls-19" points="117.47 85.67 117.47 83.52 108.75 78.64 108.75 80.8 117.47 85.67"/>
            <polygon class="cls-123" points="110.85 66.29 110.85 68.44 117.67 72.35 117.67 70.19 110.85 66.29"/>
            <polygon class="cls-79" points="123.29 73.41 119.82 71.43 119.82 73.58 123.29 75.57 123.29 73.41"/>
            <polygon class="cls-119" points="119.12 89.06 115.51 87.02 115.51 89.18 119.12 91.21 119.12 89.06"/>
            <polygon class="cls-77" points="135.69 96.25 144.99 101.66 144.99 99.5 135.69 94.1 135.69 96.25"/>
            <polygon class="cls-80" points="104.51 80.79 101.22 78.9 101.22 81.06 104.51 82.95 104.51 80.79"/>
            <polygon class="cls-114" points="94.49 57.24 94.49 59.39 109.11 67.73 109.11 65.57 94.49 57.24"/>
            <polygon class="cls-88" points="137.84 93.01 141.28 95.02 141.28 92.86 137.84 90.86 137.84 93.01"/>
            <polygon class="cls-96" points="139.76 89.68 149.43 95.33 149.43 93.18 139.76 87.53 139.76 89.68"/>
            <polygon class="cls-125" points="128.92 87.88 135.72 91.79 135.72 89.63 128.92 85.73 128.92 87.88"/>
            <polygon class="cls-89" points="136.02 80.76 136.02 82.91 143.74 87.33 143.74 85.17 136.02 80.76"/>
            <polygon class="cls-87" points="106.6 77.44 101.22 74.42 101.22 76.58 106.6 79.59 106.6 77.44"/>
            <polygon class="cls-97" points="133.57 92.87 130.87 91.31 130.87 93.47 133.57 95.03 133.57 92.87"/>
            <polygon class="cls-122" points="112.1 76.15 101.22 69.94 101.22 72.1 112.1 78.3 112.1 76.15"/>
            <polygon class="cls-98" points="130.5 102.09 136.35 105.46 136.35 103.3 130.5 99.94 130.5 102.09"/>
            <polygon class="cls-118" points="117.85 74.99 101.22 65.47 101.22 67.62 117.85 77.14 117.85 74.99"/>
          </g>
          <g class="cls-10">
            <polygon class="cls-100" points="125.45 143.08 129.86 145.64 129.86 143.49 125.45 140.92 125.45 143.08"/>
            <polygon class="cls-102" points="128.5 160.75 121.24 156.56 121.24 158.71 128.5 162.91 128.5 160.75"/>
            <polygon class="cls-116" points="128.11 149.25 128.11 147.09 120 142.5 120 144.65 128.11 149.25"/>
            <polygon class="cls-101" points="119.59 151.02 119.59 153.18 123.71 155.56 123.71 153.4 119.59 151.02"/>
            <polygon class="cls-99" points="113.36 154.23 113.36 152.08 106.66 148.29 106.66 150.44 113.36 154.23"/>
            <polygon class="cls-93" points="128.72 156.35 125.86 154.64 125.86 156.8 128.72 158.5 128.72 156.35"/>
            <polygon class="cls-120" points="123.35 148.83 123.35 150.99 126.76 152.93 126.76 150.77 123.35 148.83"/>
            <polygon class="cls-91" points="132.01 144.72 132.01 146.88 133.86 147.95 133.86 145.8 132.01 144.72"/>
            <polygon class="cls-95" points="121.2 149.76 121.2 147.6 114.26 143.65 114.26 145.81 121.2 149.76"/>
            <polygon class="cls-92" points="130.26 148.33 130.26 150.48 137.6 154.72 137.6 152.57 130.26 148.33"/>
            <polygon class="cls-115" points="117.47 151.95 117.47 149.8 108.75 144.92 108.75 147.07 117.47 151.95"/>
            <polygon class="cls-90" points="110.85 132.57 110.85 134.72 117.67 138.62 117.67 136.47 110.85 132.57"/>
            <polygon class="cls-94" points="123.29 139.69 119.82 137.7 119.82 139.86 123.29 141.84 123.29 139.69"/>
            <polygon class="cls-66" points="119.12 155.33 115.51 153.3 115.51 155.45 119.12 157.49 119.12 155.33"/>
            <polygon class="cls-65" points="135.69 162.53 144.99 167.94 144.99 165.78 135.69 160.37 135.69 162.53"/>
            <polygon class="cls-68" points="104.51 147.07 101.22 145.18 101.22 147.33 104.51 149.22 104.51 147.07"/>
            <polygon class="cls-111" points="94.49 123.51 94.49 125.67 109.11 134 109.11 131.85 94.49 123.51"/>
            <polygon class="cls-67" points="137.84 159.29 141.28 161.29 141.28 159.14 137.84 157.13 137.84 159.29"/>
            <polygon class="cls-71" points="139.76 155.96 149.43 161.61 149.43 159.45 139.76 153.8 139.76 155.96"/>
            <polygon class="cls-69" points="128.92 154.16 135.72 158.06 135.72 155.91 128.92 152 128.92 154.16"/>
            <polygon class="cls-124" points="136.02 147.03 136.02 149.19 143.74 153.6 143.74 151.45 136.02 147.03"/>
            <polygon class="cls-121" points="106.6 143.71 101.22 140.7 101.22 142.85 106.6 145.87 106.6 143.71"/>
            <polygon class="cls-21" points="133.57 159.15 130.87 157.59 130.87 159.74 133.57 161.3 133.57 159.15"/>
            <polygon class="cls-70" points="112.1 142.42 101.22 136.22 101.22 138.38 112.1 144.58 112.1 142.42"/>
            <polygon class="cls-28" points="117.85 141.26 101.22 131.74 101.22 133.9 117.85 143.42 117.85 141.26"/>
          </g>
          <g class="cls-10">
            <polygon class="cls-73" points="128.5 112.27 121.24 108.08 121.24 110.24 128.5 114.43 128.5 112.27"/>
            <polygon class="cls-74" points="128.11 100.77 128.11 98.61 120 94.02 120 96.17 128.11 100.77"/>
            <polygon class="cls-72" points="119.59 102.54 119.59 104.7 123.71 107.08 123.71 104.92 119.59 102.54"/>
            <polygon class="cls-26" points="113.36 105.75 113.36 103.6 106.66 99.81 106.66 101.96 113.36 105.75"/>
            <polygon class="cls-47" points="128.72 107.87 125.86 106.16 125.86 108.32 128.72 110.02 128.72 107.87"/>
            <polygon class="cls-20" points="123.35 100.35 123.35 102.51 126.76 104.45 126.76 102.29 123.35 100.35"/>
            <polygon class="cls-45" points="121.2 101.28 121.2 99.13 114.26 95.17 114.26 97.33 121.2 101.28"/>
            <polygon class="cls-46" points="117.47 103.47 117.47 101.32 108.75 96.44 108.75 98.59 117.47 103.47"/>
            <polygon class="cls-27" points="119.12 106.85 115.51 104.82 115.51 106.97 119.12 109.01 119.12 106.85"/>
            <polygon class="cls-43" points="135.69 114.05 144.99 119.46 144.99 117.3 135.69 111.89 135.69 114.05"/>
            <polygon class="cls-44" points="104.51 98.59 101.22 96.7 101.22 98.85 104.51 100.74 104.51 98.59"/>
            <polygon class="cls-41" points="137.84 110.81 141.28 112.82 141.28 110.66 137.84 108.65 137.84 110.81"/>
            <polygon class="cls-42" points="128.92 105.68 135.72 109.58 135.72 107.43 128.92 103.52 128.92 105.68"/>
            <polygon class="cls-24" points="106.6 95.23 101.22 92.22 101.22 94.38 106.6 97.39 106.6 95.23"/>
            <polygon class="cls-39" points="133.57 110.67 130.87 109.11 130.87 111.26 133.57 112.82 133.57 110.67"/>
            <polygon class="cls-40" points="112.1 93.94 101.22 87.74 101.22 89.9 112.1 96.1 112.1 93.94"/>
            <polygon class="cls-38" points="118.42 110.79 118.42 112.95 121.83 114.89 121.83 112.73 118.42 110.79"/>
            <polygon class="cls-117" points="116.26 111.72 116.26 109.57 109.32 105.61 109.32 107.77 116.26 111.72"/>
            <polygon class="cls-62" points="132.91 121.25 136.35 123.26 136.35 121.1 132.91 119.09 132.91 121.25"/>
            <polygon class="cls-22" points="123.98 116.12 130.79 120.02 130.79 117.87 123.98 113.96 123.98 116.12"/>
            <polygon class="cls-113" points="107.17 104.38 96.28 98.18 96.28 100.34 107.17 106.54 107.17 104.38"/>
            <polygon class="cls-29" points="117.85 92.78 101.22 83.26 101.22 85.42 117.85 94.94 117.85 92.78"/>
          </g>
          <g class="cls-10">
            <polygon class="cls-64" points="128.5 134.32 121.24 130.13 121.24 132.29 128.5 136.48 128.5 134.32"/>
            <polygon class="cls-63" points="128.11 122.82 128.11 120.66 120 116.07 120 118.22 128.11 122.82"/>
            <polygon class="cls-23" points="119.59 124.59 119.59 126.75 123.71 129.13 123.71 126.97 119.59 124.59"/>
            <polygon class="cls-25" points="113.36 127.8 113.36 125.65 106.66 121.86 106.66 124.01 113.36 127.8"/>
            <polygon class="cls-59" points="128.72 129.92 125.86 128.21 125.86 130.37 128.72 132.07 128.72 129.92"/>
            <polygon class="cls-112" points="123.35 122.4 123.35 124.56 126.76 126.5 126.76 124.34 123.35 122.4"/>
            <polygon class="cls-58" points="121.2 123.33 121.2 121.18 114.26 117.22 114.26 119.38 121.2 123.33"/>
            <polygon class="cls-61" points="117.47 125.52 117.47 123.37 108.75 118.49 108.75 120.64 117.47 125.52"/>
            <polygon class="cls-60" points="119.12 128.9 115.51 126.87 115.51 129.02 119.12 131.06 119.12 128.9"/>
            <polygon class="cls-56" points="135.69 136.1 144.99 141.51 144.99 139.35 135.69 133.94 135.69 136.1"/>
            <polygon class="cls-55" points="104.51 120.64 101.22 118.75 101.22 120.9 104.51 122.79 104.51 120.64"/>
            <polygon class="cls-57" points="137.84 132.86 141.28 134.87 141.28 132.71 137.84 130.7 137.84 132.86"/>
            <polygon class="cls-51" points="128.92 127.73 135.72 131.63 135.72 129.48 128.92 125.57 128.92 127.73"/>
            <polygon class="cls-52" points="106.6 117.28 101.22 114.27 101.22 116.43 106.6 119.44 106.6 117.28"/>
            <polygon class="cls-53" points="133.57 132.72 130.87 131.16 130.87 133.31 133.57 134.87 133.57 132.72"/>
            <polygon class="cls-30" points="112.1 115.99 101.22 109.79 101.22 111.95 112.1 118.15 112.1 115.99"/>
            <polygon class="cls-31" points="118.42 132.84 118.42 135 121.83 136.94 121.83 134.78 118.42 132.84"/>
            <polygon class="cls-54" points="116.26 133.77 116.26 131.62 109.32 127.66 109.32 129.82 116.26 133.77"/>
            <polygon class="cls-48" points="132.91 143.3 136.35 145.31 136.35 143.15 132.91 141.14 132.91 143.3"/>
            <polygon class="cls-32" points="123.98 138.17 130.79 142.07 130.79 139.92 123.98 136.01 123.98 138.17"/>
            <polygon class="cls-49" points="107.17 126.43 100.95 122.87 100.95 125.02 107.17 128.59 107.17 126.43"/>
            <polygon class="cls-50" points="117.85 114.83 101.22 105.31 101.22 107.47 117.85 116.99 117.85 114.83"/>
          </g>
        </g>
      </g>
      <g class="cls-13">
        <path class="cls-5" d="M40.24,61.42c-1.3-1.17-2.23-2.38-2.78-3.61-.55-1.24-.82-2.51-.82-3.82v-2.33c0-.76-.14-1.43-.43-2.02-.29-.59-.74-1.06-1.34-1.4v-2.31c.6,.35,1.04,.4,1.34,.15,.29-.25,.43-.76,.43-1.54v-2.33c0-1.31,.28-2.26,.82-2.86,.55-.6,1.48-.73,2.78-.4l.56,2.12c-.57-.09-.97,.1-1.2,.58-.23,.47-.35,1.16-.35,2.07v2.33c0,.8-.15,1.42-.45,1.86-.3,.44-.75,.67-1.35,.66,.6,.71,1.05,1.45,1.35,2.24,.3,.79,.45,1.57,.45,2.35v2.33c0,.9,.12,1.72,.35,2.47,.23,.74,.63,1.4,1.2,1.96l-.56,1.49Z"/>
        <path class="cls-2" d="M91.25,86.94c.57,.09,.97-.1,1.2-.58,.23-.47,.35-1.16,.35-2.07v-2.33c0-.8,.15-1.41,.46-1.85,.31-.43,.77-.64,1.4-.63-.63-.71-1.09-1.46-1.4-2.25s-.46-1.59-.46-2.4v-2.33c0-.9-.12-1.73-.35-2.47-.23-.74-.63-1.4-1.2-1.96l.56-1.48c1.29,1.17,2.22,2.37,2.77,3.6,.55,1.23,.83,2.51,.83,3.81v2.33c0,.77,.14,1.45,.43,2.04s.74,1.05,1.35,1.4v2.31c-.61-.35-1.06-.4-1.35-.15-.29,.25-.43,.76-.43,1.52v2.33c0,1.31-.28,2.26-.83,2.86-.55,.6-1.48,.74-2.77,.41l-.56-2.14Z"/>
      </g>
      <g>
        <polygon class="cls-8" points="82.03 78.66 82.03 66.36 88.67 76.34 82.03 78.66 82.03 78.66"/>
        <polygon class="cls-6" points="73 73.49 73 61.2 79.63 71.17 73 73.49 73 73.49"/>
        <polygon class="cls-4" points="63.96 68.32 63.96 56.03 70.59 66 63.96 68.32 63.96 68.32"/>
        <polygon class="cls-5" points="54.92 63.15 54.92 50.86 61.56 60.83 54.92 63.15 54.92 63.15"/>
        <polygon class="cls-3" points="45.88 57.98 45.88 45.69 52.52 55.67 45.88 57.98 45.88 57.98"/>
      </g>
      <g class="cls-33">
        <path class="cls-9" d="M235.75,35.8l3.56,2.06c1.2,.69,2.1,1.59,2.71,2.67,.6,1.09,.9,2.35,.9,3.78v1.74c0,1.43-.3,2.34-.9,2.74-.6,.39-1.5,.24-2.71-.45l-1.14-.66v7.19l-2.42-1.4v-17.67Zm3.56,10.01c.4,.23,.69,.27,.89,.14,.2-.14,.3-.51,.3-1.12v-2.09c0-.61-.1-1.09-.3-1.46s-.49-.66-.89-.89l-1.14-.66v5.43l1.14,.66Z"/>
        <path class="cls-9" d="M244.24,40.7l2.42,1.4v7.19l2.6,1.5v-7.19l2.42,1.4v17.67l-2.42-1.4v-7.95l-2.6-1.5v7.95l-2.42-1.4v-17.67Z"/>
        <path class="cls-9" d="M253.48,46.03l3.56,2.06c1.2,.69,2.1,1.59,2.71,2.67,.6,1.09,.9,2.35,.9,3.78v1.74c0,1.43-.3,2.34-.9,2.74-.6,.39-1.5,.24-2.71-.45l-1.14-.66v7.19l-2.42-1.4v-17.67Zm3.56,10.01c.4,.23,.69,.27,.89,.14,.2-.14,.3-.51,.3-1.12v-2.09c0-.61-.1-1.09-.3-1.46-.2-.37-.49-.66-.89-.89l-1.14-.66v5.43l1.14,.66Z"/>
        <path class="cls-9" d="M311.45,174.86c-.61-1.11-.91-2.35-.91-3.73v-9.49c0-1.38,.3-2.27,.91-2.68,.61-.41,1.49-.27,2.65,.39,1.16,.67,2.04,1.56,2.65,2.67,.61,1.11,.91,2.35,.91,3.73v1.87l-2.29-1.32v-2.04c0-1.09-.4-1.87-1.21-2.34-.81-.47-1.21-.15-1.21,.94v9.87c0,1.08,.4,1.85,1.21,2.31,.81,.47,1.21,.16,1.21-.92v-2.7l2.29,1.32v2.5c0,1.38-.3,2.27-.91,2.68-.61,.41-1.49,.27-2.65-.39-1.16-.67-2.04-1.56-2.65-2.67Z"/>
        <path class="cls-9" d="M319.64,179.58c-.6-1.11-.9-2.38-.9-3.81v-1.01l2.29,1.32v1.21c0,1.14,.42,1.96,1.25,2.44,.41,.24,.72,.28,.93,.12,.21-.15,.32-.54,.32-1.17,0-.74-.15-1.48-.44-2.21-.29-.73-.84-1.72-1.63-2.97-1-1.59-1.69-2.9-2.09-3.94-.4-1.04-.59-2.08-.59-3.11,0-1.4,.31-2.3,.92-2.71,.62-.41,1.51-.28,2.68,.4,1.16,.67,2.03,1.56,2.63,2.67,.59,1.11,.89,2.38,.89,3.81v.73l-2.29-1.32v-.91c0-.61-.1-1.11-.31-1.5-.21-.4-.51-.71-.9-.94-.81-.47-1.21-.13-1.21,.99,0,.64,.15,1.32,.45,2.05,.3,.73,.85,1.72,1.64,2.97,1.01,1.59,1.71,2.91,2.09,3.96,.38,1.04,.57,2.12,.57,3.23,0,1.45-.31,2.38-.93,2.79-.62,.41-1.53,.28-2.72-.41-1.17-.68-2.06-1.57-2.66-2.69Z"/>
        <path class="cls-9" d="M327.82,184.31c-.6-1.11-.9-2.38-.9-3.81v-1.01l2.29,1.32v1.21c0,1.14,.42,1.96,1.25,2.44,.41,.24,.72,.28,.93,.12,.21-.16,.32-.54,.32-1.17,0-.74-.15-1.48-.44-2.21-.29-.73-.84-1.72-1.63-2.97-1-1.59-1.69-2.9-2.09-3.94-.4-1.04-.59-2.08-.59-3.11,0-1.4,.31-2.3,.92-2.71,.62-.41,1.51-.28,2.68,.4,1.16,.67,2.03,1.56,2.63,2.67,.59,1.11,.89,2.38,.89,3.81v.73l-2.29-1.32v-.91c0-.61-.1-1.11-.31-1.5-.21-.4-.51-.71-.9-.94-.81-.47-1.21-.13-1.21,.99,0,.64,.15,1.32,.45,2.05,.3,.73,.85,1.72,1.64,2.97,1.01,1.59,1.71,2.91,2.09,3.96,.38,1.04,.57,2.12,.57,3.23,0,1.45-.31,2.38-.93,2.79-.62,.41-1.53,.28-2.72-.41-1.17-.68-2.06-1.57-2.66-2.69Z"/>
        <path class="cls-7" d="M289.26,242.66c-.6-1.11-.9-2.38-.9-3.81v-1.01l2.29,1.32v1.21c0,1.14,.42,1.96,1.25,2.44,.41,.24,.72,.28,.93,.12,.21-.16,.32-.54,.32-1.17,0-.74-.15-1.48-.44-2.21-.29-.73-.84-1.72-1.63-2.97-1-1.59-1.69-2.9-2.09-3.94-.4-1.04-.59-2.08-.59-3.11,0-1.4,.31-2.3,.92-2.71,.62-.41,1.51-.28,2.68,.4,1.16,.67,2.03,1.56,2.63,2.67,.59,1.11,.89,2.38,.89,3.81v.73l-2.29-1.32v-.91c0-.61-.1-1.11-.31-1.5-.21-.4-.51-.71-.9-.94-.81-.47-1.21-.13-1.21,.99,0,.64,.15,1.32,.45,2.05,.3,.73,.85,1.72,1.64,2.97,1.01,1.59,1.71,2.91,2.09,3.96,.38,1.04,.57,2.12,.57,3.23,0,1.45-.31,2.38-.93,2.79-.62,.41-1.53,.28-2.72-.41-1.17-.68-2.06-1.57-2.66-2.68Z"/>
        <path class="cls-7" d="M302.07,250.9c-.45-.06-.99-.27-1.61-.62-1.19-.69-2.1-1.6-2.73-2.74-.63-1.14-.95-2.41-.95-3.83v-9.29c0-1.41,.32-2.33,.95-2.74,.63-.41,1.54-.27,2.73,.41,1.19,.69,2.1,1.6,2.73,2.74,.63,1.14,.95,2.41,.95,3.83v9.29c0,1.18-.23,2.01-.68,2.51,.09,.22,.2,.39,.33,.52,.13,.13,.32,.26,.57,.41l.37,.22v2.52l-.64-.37c-1.1-.63-1.77-1.59-2.02-2.86Zm-.35-4.17v-9.64c0-1.16-.42-1.98-1.25-2.47-.84-.48-1.25-.14-1.25,1.02v9.64c0,1.16,.42,1.98,1.25,2.47,.84,.48,1.25,.14,1.25-1.02Z"/>
        <path class="cls-7" d="M305.76,235.42l2.42,1.4v15.14l3.98,2.3v2.52l-6.4-3.7v-17.67Z"/>
        <path class="cls-11" d="M41.07,114.36l-2.66-10.17,2.55,1.47,1.63,6.64,.04,.03,1.67-4.74,2.29,1.32-2.66,7.1,2.79,10.65-2.55-1.47-1.76-7.17-.04-.03-1.8,5.12-2.29-1.32,2.79-7.42Z"/>
        <path class="cls-11" d="M47.86,109.65l3.45,1.99,1.54,13.53,.04,.03,1.54-11.76,3.45,1.99v17.67l-2.29-1.32v-13.38l-.04-.03-1.76,12.36-2.02-1.17-1.76-14.39-.04-.03v13.38l-2.11-1.22v-17.67Z"/>
        <path class="cls-11" d="M59.7,116.48l2.42,1.4v15.14l3.98,2.3v2.52l-6.4-3.7v-17.67Z"/>
      </g>
      <polygon class="cls-15" points="94.49 57.24 94.49 59.39 109.11 67.73 109.11 65.57 94.49 57.24"/>
      <polygon class="cls-14" points="94.49 123.51 94.49 125.67 109.11 134 109.11 131.85 94.49 123.51"/>
      <polygon class="cls-16" points="107.17 104.38 96.28 98.18 96.28 100.34 107.17 106.54 107.17 104.38"/>
    </g>
  </g>
</svg>