<?xml version="1.0" encoding="UTF-8"?>
<svg xmlns="http://www.w3.org/2000/svg" xmlns:xlink="http://www.w3.org/1999/xlink" viewBox="0 0 750 500">
  <defs>
    <style>
      .cls-1 {
        opacity: .04;
      }

      .cls-1, .cls-2, .cls-3, .cls-4 {
        fill: #cc569d;
      }

      .cls-5 {
        fill: none;
      }

      .cls-2 {
        opacity: .11;
      }

      .cls-6 {
        fill: #85cee0;
      }

      .cls-6, .cls-3 {
        opacity: .1;
      }

      .cls-7 {
        clip-path: url(#clippath);
      }

      .cls-8, .cls-9 {
        fill: #6743bf;
      }

      .cls-10 {
        fill: #fff;
      }

      .cls-11 {
        fill: #ff7683;
      }

      .cls-12 {
        fill: #663236;
      }

      .cls-13 {
        fill: #804446;
      }

      .cls-14 {
        fill: #b597ff;
      }

      .cls-15, .cls-16 {
        fill: #c42d9a;
      }

      .cls-17 {
        fill: #d8ceed;
      }

      .cls-18, .cls-19 {
        fill: #251863;
      }

      .cls-20 {
        fill: #a35152;
      }

      .cls-21 {
        fill: #28003c;
      }

      .cls-22 {
        fill: #68324c;
        opacity: .38;
      }

      .cls-22, .cls-23 {
        mix-blend-mode: soft-light;
      }

      .cls-24 {
        fill: url(#Gradiente_sem_nome_77);
      }

      .cls-25 {
        fill: url(#Gradiente_sem_nome_80);
        opacity: .06;
      }

      .cls-26 {
        clip-path: url(#clippath-1);
      }

      .cls-4 {
        opacity: .18;
      }

      .cls-27 {
        opacity: .3;
      }

      .cls-28, .cls-16 {
        opacity: .51;
      }

      .cls-29 {
        opacity: .49;
      }

      .cls-30 {
        fill: url(#Gradiente_sem_nome_79);
        opacity: .27;
      }

      .cls-31 {
        isolation: isolate;
      }

      .cls-9 {
        opacity: .5;
      }

      .cls-32 {
        fill: #ddd2ff;
        opacity: .47;
      }

      .cls-19 {
        opacity: .35;
      }
    </style>
    <clipPath id="clippath">
      <rect class="cls-5" width="750" height="500"/>
    </clipPath>
    <linearGradient id="Gradiente_sem_nome_77" data-name="Gradiente sem nome 77" x1="375" y1="500" x2="375" y2="0" gradientUnits="userSpaceOnUse">
      <stop offset=".04" stop-color="#78358f"/>
      <stop offset=".12" stop-color="#5e2b83"/>
      <stop offset=".23" stop-color="#462378"/>
      <stop offset=".33" stop-color="#361d70"/>
      <stop offset=".45" stop-color="#2c1a6c"/>
      <stop offset=".6" stop-color="#29196b"/>
    </linearGradient>
    <linearGradient id="Gradiente_sem_nome_80" data-name="Gradiente sem nome 80" x1="-164.58" y1="-5.65" x2="730.84" y2="-5.65" gradientTransform="translate(72.14 -70.6) rotate(13.24)" gradientUnits="userSpaceOnUse">
      <stop offset=".03" stop-color="#1caba4"/>
      <stop offset=".52" stop-color="#78358f"/>
      <stop offset=".64" stop-color="#625093"/>
      <stop offset=".9" stop-color="#2c949f"/>
      <stop offset="1" stop-color="#15b3a5"/>
    </linearGradient>
    <linearGradient id="Gradiente_sem_nome_79" data-name="Gradiente sem nome 79" x1="-17.99" y1="366.25" x2="808.95" y2="366.25" gradientUnits="userSpaceOnUse">
      <stop offset=".04" stop-color="#78358f"/>
      <stop offset=".23" stop-color="#662e86"/>
      <stop offset=".74" stop-color="#3a1f72"/>
      <stop offset="1" stop-color="#29196b"/>
    </linearGradient>
    <clipPath id="clippath-1">
      <rect class="cls-5" width="750" height="500"/>
    </clipPath>
  </defs>
  <g class="cls-31">
    <g id="BACKGROUND">
      <g class="cls-7">
        <rect class="cls-21" width="750" height="500"/>
        <rect class="cls-24" width="750" height="500"/>
        <path class="cls-25" d="M1.25-141.45c5.84-4.58,73.05-22.1,97.2-3.32,24.15,18.78,15.26,46.44,45.65,48.83,30.39,2.39,42.87-20.31,74.71-8.93,31.84,11.38,74.7-19.01,145.16,55.9,70.46,74.9,121.5,4.69,137.81-3.93,16.31-8.61,70.52-66.62,148.6-75.1,93.93-10.2,162.68,16.85,162.68,77.55,0,60.71-28.19,94.54-28.19,94.54,0,0-49.96-35.56-93.62-22.02-43.66,13.54-57.12,75.84-122.08,73.65-64.95-2.19-90.23-41.46-140.86-43.85-50.62-2.39-105.41,76.16-204.81,97.77C124.11,171.26,82.6,89.57-13.94,79.95-110.47,70.33-116.05-7.16-105.7-30.91-95.35-54.66,1.25-141.45,1.25-141.45Z"/>
        <g>
          <path class="cls-6" d="M768.23,462.31s-21.55,10.77-33.4,6.82c-11.85-3.95-44.53-25.5-44.53-31.6s28.01,17.6,45.96,13.65c17.95-3.95,38.78-29.8,39.5-19.03,.72,10.77-7.54,30.16-7.54,30.16Z"/>
          <path class="cls-6" d="M-101.04,505.93s24.93-44.73,44.73-45.46c19.8-.73,49.74,6.01,60.13-15.4,16.6-34.21,63.28-21.79,69.66-29.33,11.44-13.52-34.6-22.67-58.64-16.05-40.63,11.17-57.95,23.39-78.48,19.72s-41.8-19.8-41.8-19.8l4.4,106.32Z"/>
          <path class="cls-22" d="M688.21,175s-23.51-45.69-36.38-45.69-13.75,25.73-25.73,32.83c-11.98,7.1-43.03-7.99-51.02,12.87-7.99,20.85,43.03,36.38,62.11,53.68,19.08,17.3,26.71,56.76,44.36,58.56,21.74,2.22,44.36-42.59,6.65-112.24Z"/>
          <path class="cls-1" d="M270.8,492.64s-40.65-9.63-54.56-47.07c-13.91-37.45-67.4-7.49-81.31-29.96s54.56-58.84,83.45-48.14c28.89,10.7,12.84,69.54,52.42,86.66,39.58,17.12,26.75,42.79,0,38.52Z"/>
          <path class="cls-3" d="M767.85,472.67s-17.53,10.62-31.34,7.97c-13.81-2.66-41.84-32.25-55.25-23.91-16.5,10.27,9.56,29.22,9.56,41.44s-15.52,21.78-13.07,40.37h90.1v-65.87Z"/>
          <g>
            <path class="cls-22" d="M794.38,139.1s-28.39,29.53-69.84,18.74c-41.45-10.79-59.05-86.31-101.64-86.31s-52.81,.57-71.54-6.25c-18.74-6.81-32.93-21.01-52.24-10.79-19.31,10.22-42.59,67.57-92.55,62.46-49.97-5.11-45.43-60.76-83.47-59.05-38.04,1.7-54.51-3.41-76.65-19.31S214,2.53,159.56,5.66C95.21,9.35,47.21,105.36-112.02,104.19l2.34-114.99H794.38V139.1Z"/>
            <path class="cls-22" d="M759.17,436.74s-7.61-51.56-64.24-42.26c-56.63,9.3-75.23,25.36-103.12,16.91-27.89-8.45-44.8-65.93-80.3-72.69s-57.48-9.3-77.76-34.66c-20.29-25.36-27.05-60.86-67.62-52.41-40.57,8.45-87.06,79.45-136.93,71.85-49.87-7.61-65.08-49.02-114.95-18.6-49.87,30.43-48.18,92.98-126.79,81.14v-38.88s54.94,21.13,68.47-21.98c13.52-43.11,11.83-85.37,49.02-94.67,37.19-9.3,86.22,20.29,124.25-21.98,38.04-42.26,98.9-73.54,144.12-43.95,45.22,29.58,26.63,68.47,67.2,92.13,40.57,23.67,32.12,45.64,71.85,43.95s86.22-52.41,136.93-30.43c50.72,21.98,5.07,98.05,113.26,82.84l-3.38,83.68Z"/>
            <path class="cls-22" d="M343.75,542.36s-74.1-.74-108.18-37.79c-34.08-37.05-33.34-72.61-72.61-62.24-39.27,10.37-36.31,45.94-67.43,58.54-31.12,12.6-37.79-.74-62.98,13.34-25.19,14.08-62.98,17.04-92.62-1.48-29.64-18.52-59.28-11.86-65.95-5.19v34.82H343.75Z"/>
          </g>
          <g>
            <path class="cls-4" d="M755.9,65.8s-18.46-30.27-47.99-33.23-54.64-22.15-51.69-51.69c2.95-29.53,127.74-14.77,127.74-11.81s-28.06,96.73-28.06,96.73Z"/>
            <path class="cls-2" d="M-100.5,66.43l6.7,21.44s41.55-8.31,50.93-37.53C-33.49,21.13-10.8,29.58,16.09,32.93c20.96,2.61,88.45-6.56,96.49-38.13H-89.78l-10.72,71.63Z"/>
          </g>
        </g>
        <path class="cls-30" d="M-17.99,492.55c9.55-41.9,12.34-123.95,115.45-180.94,51.63-28.54,61.49-33.88,97.88-69.02,36.39-35.14,144.8-68.33,214.58-35.14,37.41,17.8,99.13,32.63,151.84,32.63s89.55,20.61,118.41,57c28.86,36.39,29.66,93.58,53.5,104.88,23.84,11.29,65.25,62.74,75.29,107.92v28.86l-826.94-2.51v-43.68Z"/>
      </g>
    </g>
    <g id="Camada_2" data-name="Camada 2">
      <g class="cls-26">
        <g>
          <path class="cls-9" d="M14.06,521.06c3.13-4.18,9.29-62.95,52.88-109.51,40.86-43.65,35.56-45.83,63.77-74.05s74.28-38.41,119.22-60.36c44.93-21.94,116.29-33.01,195.71-17.33,79.42,15.67,100.32,12.54,144.21,40.75,43.89,28.21,59.56,75.24,77.33,91.96,17.76,16.72,58.56,62.78,59.61,127.57l-712.73,.96Z"/>
          <g class="cls-28">
            <path class="cls-18" d="M198.2,507.13s-7.51-12.14,10.95-25.17c13.15-9.28,24.24-21.71,31.36-30.86,7.11-9.15,26.78-29.07,37.63-33.99,35.22-15.98,45.58-23.11,56.42-28.7,10.84-5.59,50.43-11.16,51.08-6.65,.91,6.3-29.55,6.95-29.55,12.03s23.1-1.67,36.82-5.22c13.72-3.56,32.49-.78,45.2,3.28,12.71,4.07,20.51,10.53,30.67,11.55,10.16,1.02,15.75,2.54,22.87,9.66,7.11,7.11,10.3,4.12,19.95,10.72,9.66,6.61,25.92,16.16,21.34,21.29-4.57,5.13-22.36-18.75-28.46-14.18-6.1,4.57,29.48,22.87,39.13,39.13,9.66,16.26,4.57,23.38,0,22.36-4.57-1.02-11.69-27.44-27.44-39.13-15.75-11.69-27.1-17.64-41.84-26.79-14.74-9.15-18.42-15.62-39.26-16.13s-26-8.12-66.28-.28c-22.45,4.37-36.62,5.29-52.37,10.88-15.75,5.59-30.16,15.54-39.31,26.26-9.15,10.72-6.69,17.33,6.89,10.54,13.8-6.9,26.86-21.76,52.27-25.32,25.41-3.56,11.69,4.57-1.02,8.64-12.71,4.07-20.84,10.67-17.79,12.2,3.05,1.52,34.56-17.28,67.59-17.28s47.77,9.66,56.92,16.26,16.77,13.72,28.46,18.8c11.69,5.08,17.79,.51,33.54,20.33,15.75,19.82,11.66,16.9,11.66,16.9l-317.44-1.13Z"/>
            <path class="cls-16" d="M252.57,507.32s10.42-13.56,24.8-15.55c14.38-1.98,33.73-11.9,52.08-17.36,18.35-5.46,37.2,2.98,47.62,10.91,10.42,7.94,11.41,8.43,31.25,7.44,19.84-.99,54.07-10.88,63.49,15.64l-219.24-1.08Z"/>
            <path class="cls-14" d="M201.52,415.14c-4.83-6.47-62.29,65.64-68.95,63.73-8.13-2.32,13.53-33.25,38.47-54.87,24.94-21.61,57.08-47.11,70.38-51.54s27.71-14.96,53.2-27.16c25.49-12.19,62.07-7.2,83.68-12.19,21.61-4.99,34.91-9.98,57.64,0,22.72,9.98,46,4.99,67.61,4.99s53.2,25.49,67.61,48.77c14.41,23.28,26.19,21.31,49.8,57.38,30.31,46.29,35.06,64.15,35.06,64.15h-72.11c0-28.66-21.61-77.75-34.81-92.71-13.19-14.96-46.11-37.69-73.26-40.46-27.16-2.77-58.75-27.71-92.55-18.29-33.81,9.42-38.79,5.54-86.46,17.18-47.66,11.64-100.16,61.52-100.16,61.52,0,0-13.33,12.16-15.68,8.61-2.34-3.56,24.03-24.41,20.51-29.11Z"/>
            <path class="cls-15" d="M173.32,507.12s7.88-18.4,26.63-41.39c14.04-17.21-7.98-4.4-23.58,15.6-15.6,20.01-14.76,25.79-14.76,25.79h11.71Z"/>
            <path class="cls-18" d="M93.66,510.39s19.07-82.15,103.26-131.54c66.64-39.09,95.88-57.25,124.27-62.12,28.39-4.87,101.6-6.25,106.33-8.96,10.57-6.04-34.47-9.17-84.72-2.4-24.25,3.27-27.79-7.65,31.76-13.8,59.55-6.15,139.02,23.43,142.35,14.94,2.8-7.15-70.71-28.5-138.71-26.91-68,1.59-87.81,26.98-134.04,38.58-46.49,11.66-100.45,51.55-118.67,72.5-18.22,20.95-27.57,36.06-43.79,54.4-16.22,18.33-28.32,33.93-32.56,65.31h44.5Z"/>
            <path class="cls-15" d="M228.57,436.21s17.59-17.21,38.63-28.69c21.04-11.47,30.22-16.06,30.98-19.51s-20.65,4.59-47.05,21.42-34.81,34.81-22.57,26.77Z"/>
            <path class="cls-15" d="M447.18,438.55s22.96,8.86,42.14,23.23c19.18,14.37,27.16,20.81,30.61,20.08,3.45-.73-12.75-16.88-39.02-33.9-26.27-17.02-46.13-17.2-33.73-9.41Z"/>
            <path class="cls-15" d="M559.37,327.36s24.68,15.94,41.46,49.21c24.44,48.46,60.88,66.08,70.49,131.84h21.28s4.72-31.92-27.87-72.23c-31.19-38.58-22.73-18.29-42.44-48.94-25.52-39.68-51.93-65.01-67.31-70.78-15.39-5.77,4.39,10.9,4.39,10.9Z"/>
          </g>
          <path class="cls-19" d="M478.49,508.12s.58-13.37-17.49-19.68c-18.06-6.31-42.71,.29-54.76-2.29-12.04-2.58,16.05-9.75,32.68-7.45,16.63,2.29,32.68-3.15,42.71,3.15,9.48,5.96,18.44,14.73,21.34,22.69,.17,.47,.32,.93,.45,1.39,2.29,8.31-24.94,2.19-24.94,2.19Z"/>
          <path class="cls-19" d="M349.33,405.09s1.89-5.46,12.8-5.46,18.94-3.57,29.93-5.67c10.99-2.1,15.61-5.67,28.41-2.31,12.8,3.36,23.08,7.35,30.85,9.23,7.76,1.89,14.69,6.09,14.69,7.76s-9.23,0-18.47-3.36c-9.23-3.36-16.37-4.71-28.96-5.5-12.59-.79-13.22-2.26-31.9,2.56-18.68,4.83-40.65,6.1-37.36,2.73Z"/>
          <path class="cls-19" d="M202.34,504.7s2.33-12.5,13.2-19.07c10.87-6.57,22.44-15.63,29.32-24.7s15.01-22.54,19.07-15.02c4.06,7.52-13.13,22.21-3.13,25.96,10,3.75,34.39-16.88,41.27-13.13,6.88,3.75,7.82,6.25,22.51,.94,14.69-5.31,24.38-2.81,23.45,1.88-.94,4.69-27.51,5.94-38.14,11.25s-21.88,11.25-37.51,14.07c-15.63,2.81-23.45,10.94-27.2,17.82h-42.83Z"/>
          <path class="cls-32" d="M397.2,345.85s22.92-1.29,42.77,8.2c19.85,9.49,28.91,16.67,52.21,17.18s56.96,16.11,73.36,45.42c16.4,29.31,18.56,18.5,15.53,6.43-3.02-12.07-27.19-24.48-36.25-40.28-9.06-15.81-28.91-28.32-49.62-28.75-20.71-.43-31.93,.86-52.65-6.04s-56.53-7.45-75.95-2.22,30.59,.06,30.59,.06Z"/>
          <path class="cls-19" d="M117.27,441.9c.86-1.34,20.17-38.9,65.53-64.24,45.36-25.34,76.62-39.1,83.92-48.27s-22.76,5.42-37.03,12.9c-14.27,7.48-52.49,20.79-67.27,30.44-14.78,9.66-27.52,30.26-35.67,41.35-8.15,11.09-22.51,48.02-9.47,27.82Z"/>
          <g>
            <path class="cls-14" d="M219.56,445.91c0,2.22-1.8,4.02-4.02,4.02s-4.02-1.8-4.02-4.02,1.8-4.02,4.02-4.02,4.02,1.8,4.02,4.02Z"/>
            <path class="cls-10" d="M169.44,468.18c0,1.24-1.01,2.25-2.25,2.25s-2.25-1.01-2.25-2.25,1.01-2.25,2.25-2.25,2.25,1.01,2.25,2.25Z"/>
            <path class="cls-15" d="M124.02,488.97c0,3.73-3.02,6.75-6.75,6.75s-6.75-3.02-6.75-6.75,3.02-6.75,6.75-6.75,6.75,3.02,6.75,6.75Z"/>
            <path class="cls-15" d="M97.02,408.4c0,2.31-1.87,4.18-4.18,4.18s-4.18-1.87-4.18-4.18,1.87-4.18,4.18-4.18,4.18,1.87,4.18,4.18Z"/>
            <path class="cls-15" d="M383.92,423.08c0,2.13-1.73,3.86-3.86,3.86s-3.86-1.73-3.86-3.86,1.73-3.86,3.86-3.86,3.86,1.73,3.86,3.86Z"/>
            <path class="cls-14" d="M397.2,416.65c0,1.42-1.15,2.57-2.57,2.57s-2.57-1.15-2.57-2.57,1.15-2.57,2.57-2.57,2.57,1.15,2.57,2.57Z"/>
            <path class="cls-10" d="M407.06,372.73c0,2.72-2.21,4.93-4.93,4.93s-4.93-2.21-4.93-4.93,2.21-4.93,4.93-4.93,4.93,2.21,4.93,4.93Z"/>
            <path class="cls-14" d="M343.74,374.92c0,1.21-.98,2.2-2.2,2.2s-2.2-.98-2.2-2.2,.98-2.2,2.2-2.2,2.2,.98,2.2,2.2Z"/>
            <path class="cls-14" d="M559.61,456.93c0,2.84-2.3,5.14-5.14,5.14s-5.14-2.3-5.14-5.14,2.3-5.14,5.14-5.14,5.14,2.3,5.14,5.14Z"/>
            <path class="cls-15" d="M589.61,377.01c0,3.19-2.59,5.79-5.79,5.79s-5.79-2.59-5.79-5.79,2.59-5.79,5.79-5.79,5.79,2.59,5.79,5.79Z"/>
            <path class="cls-14" d="M471.34,322.59c0,2.01-1.63,3.64-3.64,3.64s-3.64-1.63-3.64-3.64,1.63-3.64,3.64-3.64,3.64,1.63,3.64,3.64Z"/>
            <path class="cls-14" d="M457.62,311.23c0,2.37-1.92,4.29-4.29,4.29s-4.29-1.92-4.29-4.29,1.92-4.29,4.29-4.29,4.29,1.92,4.29,4.29Z"/>
            <circle class="cls-14" cx="531.55" cy="299.45" r="7.5" transform="translate(117.64 747.66) rotate(-76.67)"/>
            <circle class="cls-10" cx="531.97" cy="322.59" r="3.64"/>
            <path class="cls-10" d="M338.06,270.95c0,2.13-1.73,3.86-3.86,3.86s-3.86-1.73-3.86-3.86,1.73-3.86,3.86-3.86,3.86,1.73,3.86,3.86Z"/>
            <path class="cls-14" d="M266.71,294.63c0,2.66-2.16,4.82-4.82,4.82s-4.82-2.16-4.82-4.82,2.16-4.82,4.82-4.82,4.82,2.16,4.82,4.82Z"/>
            <circle class="cls-15" cx="280.64" cy="288.52" r="3.43"/>
            <path class="cls-15" d="M604.36,466.64c0,2.52-2.05,4.57-4.57,4.57s-4.57-2.05-4.57-4.57,2.05-4.57,4.57-4.57,4.57,2.05,4.57,4.57Z"/>
            <path class="cls-10" d="M633.02,437.2c0,1.77-1.44,3.21-3.21,3.21s-3.21-1.44-3.21-3.21,1.44-3.21,3.21-3.21,3.21,1.44,3.21,3.21Z"/>
            <path class="cls-10" d="M639.52,370.55c0,3.57-2.89,6.46-6.46,6.46s-6.46-2.89-6.46-6.46,2.89-6.46,6.46-6.46,6.46,2.89,6.46,6.46Z"/>
            <circle class="cls-15" cx="701.79" cy="464.5" r="2.43"/>
            <path class="cls-8" d="M518.19,263.17c0,2.17-1.76,3.93-3.93,3.93s-3.93-1.76-3.93-3.93,1.76-3.93,3.93-3.93,3.93,1.76,3.93,3.93Z"/>
            <path class="cls-10" d="M214.51,281.8c0,1.82-1.48,3.3-3.3,3.3s-3.3-1.48-3.3-3.3,1.48-3.3,3.3-3.3,3.3,1.48,3.3,3.3Z"/>
            <path class="cls-8" d="M110.52,341.42c0,1.66-1.35,3.01-3.01,3.01s-3.01-1.35-3.01-3.01,1.35-3.01,3.01-3.01,3.01,1.35,3.01,3.01Z"/>
          </g>
        </g>
        <g>
          <g>
            <path class="cls-20" d="M206.21,359.93s4.74-.87,5.93,1.35c1.19,2.22-1.93,6.04-.42,7.08s2.86,2.04,3.98,4.47c1.12,2.43-9.14,7.1-11.46,4.99s-3.42-3.71-5.38-7.37,1.87-8.41,3.98-9.54c2.11-1.13,3.38-.98,3.38-.98Z"/>
            <path class="cls-11" d="M212.41,376.46c2.16-1.15,3.76-2.59,3.29-3.63-1.12-2.43,.44-2.45,.11-4.25-.21-1.19-.16-3.48-4.11-3.24-.55,.03,.94-3.13,.44-4.05-.47-.87-1.49-1.27-2.55-1.42l-.08,.21s1.24,1.5,.51,2.98c-.73,1.48-1.29,1.74-.8,3.25,.48,1.5,3.48,3.86,3.48,3.86l-2.68,1.87,3.65,3.06-2.81-1.5,1.55,2.88Z"/>
            <path class="cls-13" d="M209.2,362.32s-2.73,2.8-2.51,3.66c.22,.86,1.62,3.01,1.62,3.01,0,0-.82-2.91-.09-4.12,.73-1.2,.98-2.55,.98-2.55Z"/>
            <path class="cls-13" d="M198.85,370.45c1.96,3.65,3.06,5.25,5.38,7.37,.71,.65,2.17,.66,3.82,.29-.95-2.74-1.56-5.48-1.8-6.13-.32-.86-1.61-3.77-2.04-5.39-.26-.98,1.15-4.46,3.22-6.8-.72,.05-1.22,.14-1.22,.14,0,0-1.27-.16-3.38,.98-2.11,1.13-5.94,5.89-3.98,9.54Z"/>
            <path class="cls-12" d="M198.21,370.79c-2.03-3.78,1.73-8.92,4.37-10.34,2.01-1.08,3.35-1.12,3.78-1.1,.77-.13,5.18-.73,6.42,1.58,.71,1.32,.03,2.05-.67,3.62-.53,1.18,2.47,.68,2.93,1,.35,.24,.9,2.26,1.3,2.49,1.35,.78-.91,2.5,0,4.46,.48,1.05-.47,2.43-2.62,3.79-2.94,1.87-8.22,3.64-10.06,1.96-2.4-2.19-3.52-3.86-5.46-7.47Zm7.72-10.3c-.07,0-1.11-.08-2.86,.87-1.65,.89-5.45,5.27-3.58,8.74,1.89,3.52,2.98,5.15,5.3,7.27,1.2,1.1,5.54-.15,8.32-1.91,.55-.35,2.29-1.53,1.93-2.31-.79-1.75,1.31-3.37,0-4.12-.42-.24-.33-2.43-.7-2.68-1.01-.69-4.32,.66-3.63-.87,.61-1.35,1.29-2.89,.78-3.85-1.02-1.9-5.29-1.15-5.34-1.14h-.23Z"/>
          </g>
          <g>
            <path class="cls-20" d="M128.45,251.22s4.74-.87,5.93,1.35c1.19,2.22-1.93,6.04-.42,7.08,1.51,1.04,2.86,2.04,3.98,4.47s-9.14,7.1-11.46,4.99c-2.32-2.12-3.42-3.71-5.38-7.37-1.96-3.65,1.87-8.41,3.98-9.54,2.11-1.13,3.38-.98,3.38-.98Z"/>
            <path class="cls-11" d="M134.65,267.75c2.16-1.15,3.76-2.59,3.29-3.63-1.12-2.43,.44-2.45,.11-4.25-.21-1.19-.16-3.48-4.11-3.24-.55,.03,.94-3.13,.44-4.05-.47-.87-1.49-1.27-2.55-1.42l-.08,.21s1.24,1.5,.51,2.98c-.73,1.48-1.29,1.74-.8,3.25,.48,1.5,3.48,3.86,3.48,3.86l-2.68,1.87,3.65,3.06-2.81-1.5,1.55,2.88Z"/>
            <path class="cls-13" d="M131.44,253.61s-2.73,2.8-2.51,3.66c.22,.86,1.62,3.01,1.62,3.01,0,0-.82-2.91-.09-4.12,.73-1.2,.98-2.55,.98-2.55Z"/>
            <path class="cls-13" d="M121.09,261.74c1.96,3.65,3.06,5.25,5.38,7.37,.71,.65,2.17,.66,3.82,.29-.95-2.74-1.56-5.48-1.8-6.13-.32-.86-1.61-3.77-2.04-5.39-.26-.98,1.15-4.46,3.22-6.8-.72,.05-1.22,.14-1.22,.14,0,0-1.27-.16-3.38,.98-2.11,1.13-5.94,5.89-3.98,9.54Z"/>
            <path class="cls-12" d="M120.45,262.08c-2.03-3.78,1.73-8.92,4.37-10.34,2.01-1.08,3.35-1.12,3.78-1.1,.77-.13,5.18-.73,6.42,1.58,.71,1.32,.03,2.05-.67,3.62-.53,1.18,2.47,.68,2.93,1,.35,.24,.9,2.27,1.3,2.49,1.35,.78-.91,2.5,0,4.46,.48,1.05-.47,2.43-2.62,3.79-2.94,1.87-8.22,3.64-10.05,1.96-2.4-2.19-3.52-3.86-5.46-7.47Zm7.72-10.3c-.07,0-1.11-.08-2.86,.87-1.65,.89-5.45,5.27-3.58,8.74,1.89,3.52,2.98,5.15,5.3,7.27,1.2,1.1,5.54-.15,8.32-1.91,.55-.35,2.29-1.53,1.93-2.31-.79-1.75,1.31-3.37,0-4.12-.42-.24-.33-2.43-.7-2.68-1.01-.69-4.32,.66-3.63-.87,.61-1.35,1.29-2.89,.78-3.85-1.02-1.9-5.29-1.15-5.34-1.14h-.23Z"/>
          </g>
          <g>
            <path class="cls-20" d="M633.68,472.59s1.34-3.53,3.31-3.43c1.97,.1,3.27,3.74,4.58,3.15s2.53-1.09,4.61-.86,1.06,9.01-1.3,9.71c-2.36,.7-3.88,.79-7.12,.62-3.25-.16-4.88-4.66-4.79-6.54,.09-1.88,.72-2.66,.72-2.66Z"/>
            <path class="cls-11" d="M647.27,475.13c.1-1.92-.21-3.58-1.1-3.68-2.08-.23-1.46-1.28-2.8-1.8-.88-.34-2.4-1.3-3.84,1.44-.2,.38-1.72-1.9-2.54-1.94-.78-.04-1.45,.49-1.99,1.14l.11,.14s1.51-.23,2.2,.86c.69,1.09,.65,1.57,1.85,1.86,1.2,.29,4-.77,4-.77l.17,2.55,3.53-1.2-2.15,1.27,2.56,.13Z"/>
            <path class="cls-13" d="M636.49,471.55s.77,2.96,1.44,3.16,2.67,.13,2.67,.13c0,0-2.29-.63-2.8-1.61-.51-.98-1.31-1.69-1.31-1.69Z"/>
            <path class="cls-13" d="M637.75,481.79c3.25,.16,4.76,.08,7.12-.62,.72-.21,1.32-1.19,1.74-2.45-2.22-.47-4.31-1.17-4.84-1.27-.7-.13-3.18-.45-4.44-.81-.76-.22-2.52-2.58-3.25-4.92-.26,.5-.4,.88-.4,.88,0,0-.62,.79-.72,2.66-.09,1.88,1.54,6.37,4.79,6.54Z"/>
            <path class="cls-12" d="M637.72,482.35c-3.36-.17-5.28-4.77-5.16-7.12,.09-1.78,.61-2.7,.8-2.98,.23-.57,1.61-3.77,3.66-3.66,1.17,.06,1.39,.81,2.15,1.91,.58,.83,1.45-1.38,1.86-1.56,.3-.14,1.88,.31,2.2,.14,1.07-.59,1.31,1.62,2.99,1.81,.9,.1,1.44,1.3,1.48,3.29,.06,2.73-.89,6.99-2.76,7.54-2.45,.72-4.02,.8-7.22,.63Zm-3.77-9.35s-.5,.71-.58,2.27c-.07,1.47,1.33,5.79,4.41,5.95,3.13,.16,4.66,.09,7.02-.61,1.23-.36,2.15-3.77,2.09-6.36-.01-.51-.1-2.16-.76-2.23-1.49-.18-1.73-2.25-2.76-1.68-.33,.18-1.76-.76-2.08-.62-.87,.4-1.31,3.17-2.06,2.08-.66-.96-1.41-2.04-2.27-2.08-1.69-.08-2.92,3.08-2.93,3.12l-.09,.16Z"/>
          </g>
          <g>
            <path class="cls-20" d="M743.55,393.98s1.34-3.53,3.31-3.43c1.97,.1,3.27,3.74,4.58,3.15,1.31-.59,2.53-1.09,4.61-.86,2.08,.23,1.06,9.01-1.3,9.71-2.36,.7-3.88,.79-7.12,.62-3.25-.16-4.88-4.66-4.79-6.54,.09-1.88,.72-2.66,.72-2.66Z"/>
            <path class="cls-11" d="M757.15,396.52c.1-1.92-.21-3.58-1.1-3.68-2.08-.23-1.46-1.28-2.8-1.8-.88-.34-2.4-1.3-3.84,1.44-.2,.38-1.72-1.9-2.54-1.94-.78-.04-1.45,.49-1.99,1.14l.11,.14s1.51-.23,2.2,.86c.69,1.09,.65,1.57,1.85,1.86,1.2,.29,4-.77,4-.77l.17,2.55,3.53-1.2-2.15,1.27,2.56,.13Z"/>
            <path class="cls-13" d="M746.36,392.94s.77,2.96,1.44,3.16c.67,.2,2.67,.13,2.67,.13,0,0-2.29-.63-2.8-1.61-.51-.98-1.31-1.69-1.31-1.69Z"/>
            <path class="cls-13" d="M747.62,403.17c3.25,.16,4.76,.08,7.12-.62,.72-.21,1.32-1.19,1.74-2.45-2.22-.47-4.31-1.17-4.84-1.27-.7-.13-3.18-.45-4.44-.81-.76-.22-2.52-2.58-3.25-4.92-.26,.5-.4,.88-.4,.88,0,0-.62,.79-.72,2.66-.09,1.88,1.54,6.37,4.79,6.54Z"/>
            <path class="cls-12" d="M747.59,403.74c-3.36-.17-5.28-4.77-5.16-7.12,.09-1.78,.61-2.7,.8-2.98,.23-.57,1.61-3.77,3.66-3.66,1.17,.06,1.39,.81,2.15,1.91,.58,.83,1.45-1.38,1.86-1.56,.3-.14,1.88,.31,2.2,.14,1.07-.59,1.31,1.62,2.99,1.81,.9,.1,1.44,1.3,1.48,3.29,.06,2.73-.89,6.99-2.76,7.54-2.45,.72-4.02,.8-7.22,.63Zm-3.77-9.35s-.5,.71-.58,2.27c-.07,1.47,1.33,5.79,4.41,5.95,3.13,.16,4.66,.09,7.02-.61,1.23-.36,2.15-3.77,2.09-6.36-.01-.51-.1-2.16-.76-2.23-1.49-.18-1.73-2.25-2.76-1.68-.33,.18-1.76-.76-2.08-.62-.87,.4-1.31,3.17-2.06,2.08-.66-.96-1.41-2.04-2.27-2.08-1.69-.08-2.92,3.08-2.93,3.12l-.09,.16Z"/>
          </g>
          <g>
            <path class="cls-20" d="M398.4,247.18c-.83,.41-1.48,1.11-1.93,1.92-.6,1.09-1.3,6.64-.64,7.68,.97,1.53,2.66,1.69,3.23,3.15,.56,1.45,1.4,2.98,3.58,3.7,2.18,.73,6.94-1.05,7.34-1.94,.4-.89,1.13-3.38,1.94-4.51,.81-1.13,2.02-2.51,1.69-3.88-.32-1.37-.89-3.23-2.9-3.71s-4.3,1.53-5.26,.97c-.95-.56-3.45-3.69-5.31-3.77-.66-.03-1.25,.15-1.74,.39Z"/>
            <path class="cls-13" d="M412.99,251.5c0,.07-.07,2.27-.17,2.73-.17,.82-1.87,1.61-2.81,1.72-.94,.11-4.47-1.41-4.57-1.04-.06,.22,1.34,.97,2.45,1.53,.78,.39,.93,1.43,.31,2.04-.46,.45-1.07,.85-1.77,.89-1.71,.1-2.19-.2-2.6-.83-.16-.25,.1-1.77-.36-2.08-.47-.31-4.36,1.38-6.73,.03-.49-.28-.94-4.77-1.11-5.43-.21,.75-.13,5.19,.2,5.72,.97,1.53,3.07,1.6,3.23,3.15,.31,3.02,1.4,2.98,3.58,3.7,2.18,.73,6.94-1.05,7.34-1.94,.4-.89,1.13-3.38,1.94-4.51,.81-1.13,2.02-2.51,1.69-3.88-.13-.57-.31-1.21-.61-1.81Z"/>
            <path class="cls-11" d="M410.7,249.6c-2.02-.48-4.3,1.53-5.26,.97-.95-.56-3.45-3.69-5.31-3.77-.66-.03-1.25,.15-1.74,.39-.83,.41-1.48,1.11-1.93,1.92-.11,.19-.22,.41-.33,.65,1.17-.59,2.44,.5,3.4,.38,1.74-.22,4.27,4.05,4.27,4.05l3.51-1.99c-.21-.4-.06-.89,.33-1.1,.73-.4,1.91-.94,2.83-.81,1.37,.19,2.33,1,2.43,1.09-.43-.8-1.09-1.49-2.21-1.76Z"/>
            <path class="cls-12" d="M403.89,264.18c-.51,0-.98-.06-1.37-.19-1.72-.57-3.48-.93-3.57-2.32-.04-.61-.08-1.2-.24-1.61-.25-.65-.79-1.01-1.41-1.43-.6-.4-1.28-.86-1.78-1.65-.73-1.15-.12-6.71,.63-8.06,.52-.94,1.24-1.66,2.09-2.08h0c.63-.31,1.27-.45,1.92-.43,1.57,.07,4.18,2.96,4.92,3.46,.19,.13,.37,.25,.56,.37,.28,.17,1-.12,1.69-.39,1.01-.4,2.26-.91,3.47-.62,2.37,.57,2.92,2.88,3.18,3.99,.32,1.36-.65,2.67-1.43,3.73-.11,.15-.22,.3-.33,.45-.53,.74-1.05,2.17-1.43,3.22-.18,.51-.37,.94-.48,1.24-.58,1.59-3.94,2.32-6.43,2.32Zm-5.33-16.66c-.71,.35-1.32,.96-1.77,1.77-.91,1.64-1.06,6.66-.65,7.31,.42,.66,1,1.05,1.57,1.43,.67,.45,1.35,.91,1.69,1.78,.2,.52,.24,1.15,.29,1.83,.09,1.35,1.82,1.25,3.06,1.66,2.1,.7,6.37-.47,6.89-1.74,.11-.27,.27-.69,.45-1.18,.42-1.15,.93-2.57,1.52-3.39,.11-.15,.22-.3,.33-.46,.72-.98,1.54-2.09,1.3-3.12-.36-1.54-.93-3.03-2.63-3.43-.97-.23-2.06,.2-3.02,.58-.94,.37-1.74,.7-2.34,.34-.21-.12-.4-.26-.6-.39-.72-.49-3.17-3.27-4.53-3.33-.52-.03-1.04,.1-1.56,.35h0Z"/>
          </g>
          <g>
            <path class="cls-20" d="M644.98,299.77c-.83,.41-1.48,1.11-1.93,1.92-.6,1.09-1.3,6.64-.64,7.68,.97,1.53,2.66,1.69,3.23,3.15,.56,1.45,1.4,2.98,3.58,3.7,2.18,.73,6.94-1.05,7.34-1.94,.4-.89,1.13-3.38,1.94-4.51,.81-1.13,2.02-2.51,1.69-3.88-.32-1.37-.89-3.23-2.9-3.71-2.02-.48-4.3,1.53-5.26,.97-.95-.56-3.45-3.69-5.31-3.77-.66-.03-1.25,.15-1.74,.39Z"/>
            <path class="cls-13" d="M659.58,304.09c0,.07-.07,2.27-.17,2.73-.17,.82-1.87,1.61-2.81,1.72-.94,.11-4.47-1.41-4.57-1.04-.06,.22,1.34,.97,2.45,1.53,.78,.39,.93,1.43,.31,2.04-.46,.45-1.07,.85-1.77,.89-1.71,.1-2.19-.2-2.6-.83-.16-.25,.1-1.77-.36-2.08-.47-.31-4.36,1.38-6.73,.03-.49-.28-.94-4.77-1.11-5.43-.21,.75-.13,5.19,.2,5.72,.97,1.53,3.07,1.6,3.23,3.15,.31,3.02,1.4,2.98,3.58,3.7,2.18,.73,6.94-1.05,7.34-1.94,.4-.89,1.13-3.38,1.94-4.51,.81-1.13,2.02-2.51,1.69-3.88-.13-.57-.31-1.21-.61-1.81Z"/>
            <path class="cls-11" d="M657.29,302.18c-2.02-.48-4.3,1.53-5.26,.97-.95-.56-3.45-3.69-5.31-3.77-.66-.03-1.25,.15-1.74,.39-.83,.41-1.48,1.11-1.93,1.92-.11,.19-.22,.41-.33,.65,1.17-.59,2.44,.5,3.4,.38,1.74-.22,4.27,4.05,4.27,4.05l3.51-1.99c-.21-.4-.06-.89,.33-1.1,.73-.4,1.91-.94,2.83-.81,1.37,.19,2.33,1,2.43,1.09-.43-.8-1.09-1.49-2.21-1.76Z"/>
            <path class="cls-12" d="M650.48,316.76c-.51,0-.98-.06-1.37-.19-1.72-.57-3.48-.93-3.57-2.32-.04-.62-.08-1.2-.24-1.61-.25-.65-.79-1.01-1.41-1.43-.6-.4-1.28-.86-1.78-1.65-.73-1.15-.12-6.71,.63-8.06,.52-.94,1.24-1.66,2.09-2.08h0c.63-.31,1.27-.45,1.92-.43,1.57,.07,4.18,2.96,4.92,3.46,.19,.13,.37,.25,.56,.37,.28,.17,1-.12,1.69-.39,1.01-.4,2.26-.91,3.47-.62,2.37,.57,2.92,2.88,3.18,3.99,.32,1.36-.65,2.67-1.43,3.73-.11,.15-.22,.3-.33,.45-.53,.74-1.05,2.17-1.43,3.22-.18,.51-.37,.94-.48,1.24-.58,1.59-3.94,2.32-6.43,2.32Zm-5.33-16.66c-.71,.35-1.32,.96-1.77,1.77-.91,1.64-1.06,6.66-.65,7.31,.42,.66,1,1.05,1.57,1.43,.67,.45,1.35,.91,1.69,1.78,.2,.52,.24,1.15,.29,1.83,.09,1.35,1.82,1.25,3.06,1.66,2.1,.7,6.37-.47,6.89-1.74,.11-.27,.27-.69,.45-1.18,.42-1.15,.93-2.57,1.52-3.39,.11-.15,.22-.3,.33-.46,.72-.98,1.54-2.09,1.3-3.12-.36-1.54-.93-3.03-2.63-3.43-.97-.23-2.06,.2-3.02,.58-.94,.37-1.74,.7-2.34,.34-.21-.12-.4-.26-.6-.39-.72-.49-3.17-3.27-4.53-3.33-.52-.03-1.04,.1-1.56,.35h0Z"/>
          </g>
          <g>
            <path class="cls-20" d="M23.61,446.2c.63-.68,.98-1.57,1.1-2.49,.17-1.23-1.18-6.66-2.17-7.4-1.46-1.08-3.09-.62-4.14-1.77-1.05-1.15-2.38-2.27-4.67-2.17-2.29,.11-6.09,3.48-6.15,4.45-.06,.97,.16,3.56-.18,4.91-.34,1.35-.98,3.06-.18,4.23,.8,1.16,1.99,2.69,4.05,2.42,2.06-.28,3.46-2.98,4.56-2.8,1.09,.18,4.55,2.2,6.31,1.61,.63-.21,1.12-.59,1.48-.99Z"/>
            <path class="cls-13" d="M8.44,447.43c-.02-.07-.75-2.14-.83-2.6-.13-.83,1.16-2.18,2-2.61,.83-.44,4.67-.3,4.64-.67-.02-.23-1.6-.42-2.84-.54-.87-.08-1.39-1-1.02-1.79,.27-.59,.69-1.18,1.33-1.47,1.56-.71,2.11-.61,2.72-.16,.24,.18,.54,1.68,1.09,1.81s3.57-2.86,6.27-2.45c.56,.08,2.6,4.11,2.99,4.66-.07-.77-1.74-4.89-2.25-5.27-1.46-1.08-3.44-.38-4.14-1.77-1.38-2.7-2.38-2.27-4.67-2.17-2.29,.11-6.09,3.48-6.15,4.45-.06,.97,.16,3.56-.18,4.91-.34,1.35-.98,3.06-.18,4.23,.33,.48,.73,1.01,1.22,1.47Z"/>
            <path class="cls-11" d="M11.26,448.38c2.06-.27,3.46-2.98,4.56-2.8,1.09,.18,4.55,2.2,6.31,1.61,.63-.21,1.12-.59,1.48-.99,.63-.68,.98-1.57,1.1-2.49,.03-.22,.05-.46,.07-.72-.88,.97-2.46,.41-3.31,.87-1.54,.83-5.44-2.24-5.44-2.24l-2.56,3.12c.33,.3,.38,.81,.09,1.15-.54,.64-1.44,1.57-2.35,1.78-1.35,.32-2.54-.1-2.66-.14,.69,.59,1.56,1,2.7,.84Z"/>
            <path class="cls-12" d="M12.36,432.33c.48-.18,.94-.3,1.35-.32,1.81-.08,3.58-.39,4.16,.87,.26,.56,.5,1.09,.8,1.41,.47,.52,1.1,.66,1.83,.82,.7,.16,1.5,.34,2.26,.9,1.09,.81,2.53,6.21,2.32,7.75-.15,1.06-.56,1.99-1.2,2.69h0c-.48,.52-1.02,.88-1.64,1.09-1.49,.5-4.97-1.25-5.83-1.46-.22-.05-.44-.1-.66-.14-.33-.05-.89,.47-1.43,.97-.8,.74-1.79,1.66-3.01,1.82-2.42,.32-3.76-1.63-4.4-2.57-.79-1.15-.36-2.73-.01-3.99,.05-.18,.1-.36,.14-.53,.22-.88,.19-2.4,.17-3.51-.01-.54,0-1,0-1.32-.03-1.69,2.84-3.59,5.16-4.48Zm10.97,13.62c.53-.58,.88-1.37,1.01-2.29,.26-1.86-1.41-6.59-2.02-7.05-.63-.47-1.32-.62-1.98-.77-.78-.18-1.59-.36-2.22-1.05-.37-.41-.64-.99-.93-1.6-.57-1.23-2.14-.51-3.45-.45-2.21,.1-5.78,2.74-5.8,4.1,0,.29,0,.74,0,1.27,.02,1.22,.06,2.74-.19,3.71-.05,.18-.1,.36-.15,.55-.32,1.18-.69,2.51-.09,3.38,.89,1.31,1.96,2.49,3.69,2.26,.99-.13,1.85-.93,2.61-1.63,.74-.69,1.37-1.28,2.06-1.16,.24,.04,.47,.09,.7,.15,.85,.2,4.14,1.91,5.43,1.47,.49-.16,.94-.46,1.33-.89h0Z"/>
          </g>
        </g>
        <g>
          <g class="cls-29">
            <path class="cls-17" d="M56.95,394.14c0,.25-.2,.45-.45,.45s-.45-.2-.45-.45,.2-.45,.45-.45,.45,.2,.45,.45Z"/>
            <circle class="cls-17" cx="58.38" cy="393.09" r=".1"/>
            <path class="cls-17" d="M57.15,392.01c0,.05-.04,.1-.1,.1s-.1-.04-.1-.1,.04-.1,.1-.1,.1,.04,.1,.1Z"/>
            <circle class="cls-17" cx="58.76" cy="398.79" r=".1"/>
            <path class="cls-17" d="M55.65,397.16c0,.05-.04,.09-.09,.09s-.09-.04-.09-.09,.04-.09,.09-.09,.09,.04,.09,.09Z"/>
            <circle class="cls-17" cx="58.97" cy="396.01" r=".1"/>
            <path class="cls-17" d="M29.06,368.91c0,.4-.32,.72-.72,.72s-.72-.32-.72-.72,.32-.72,.72-.72,.72,.32,.72,.72Z"/>
            <path class="cls-17" d="M20.88,370.25c0,.34-.28,.62-.62,.62s-.62-.28-.62-.62,.28-.62,.62-.62,.62,.28,.62,.62Z"/>
            <path class="cls-17" d="M28.34,373.26c0,.2-.16,.36-.36,.36s-.36-.16-.36-.36,.16-.36,.36-.36,.36,.16,.36,.36Z"/>
            <path class="cls-17" d="M66.8,345.76c0,.38-.31,.69-.69,.69s-.69-.31-.69-.69,.31-.69,.69-.69,.69,.31,.69,.69Z"/>
            <path class="cls-17" d="M71.54,265.89c0,.34-.28,.62-.62,.62s-.62-.28-.62-.62,.28-.62,.62-.62,.62,.28,.62,.62Z"/>
            <circle class="cls-17" cx="62.66" cy="265.04" r=".85"/>
            <path class="cls-17" d="M77.27,260.52c0,.51-.41,.92-.92,.92s-.92-.41-.92-.92,.41-.92,.92-.92,.92,.41,.92,.92Z"/>
            <path class="cls-17" d="M35.74,228.75c0,.4-.32,.72-.72,.72s-.72-.32-.72-.72,.32-.72,.72-.72,.72,.32,.72,.72Z"/>
            <circle class="cls-17" cx="44.75" cy="222.63" r=".49"/>
            <path class="cls-17" d="M26.97,218.67c0,.4-.32,.72-.72,.72s-.72-.32-.72-.72,.32-.72,.72-.72,.72,.32,.72,.72Z"/>
            <circle class="cls-17" cx="49.89" cy="189.65" r=".92"/>
            <circle class="cls-17" cx="32.99" cy="185.59" r=".79"/>
            <circle class="cls-17" cx="44.19" cy="177.67" r=".72"/>
            <circle class="cls-17" cx="37.15" cy="197.22" r=".49"/>
            <path class="cls-17" d="M22.47,192.28c0,.25-.21,.46-.46,.46s-.46-.21-.46-.46,.21-.46,.46-.46,.46,.21,.46,.46Z"/>
            <path class="cls-17" d="M35.94,148.23c0,.27-.22,.49-.49,.49s-.49-.22-.49-.49,.22-.49,.49-.49,.49,.22,.49,.49Z"/>
            <circle class="cls-17" cx="59.55" cy="148.23" r=".49"/>
            <path class="cls-17" d="M157.82,46.06c0,.67-.54,1.22-1.22,1.22s-1.22-.54-1.22-1.22,.54-1.22,1.22-1.22,1.22,.54,1.22,1.22Z"/>
            <circle class="cls-17" cx="131.53" cy="28.84" r=".84"/>
            <circle class="cls-17" cx="147.72" cy="26.69" r="1.31"/>
            <circle class="cls-17" cx="87.82" cy="26.69" r="1.31"/>
            <path class="cls-17" d="M97.74,1.61c0,1.14-.92,2.06-2.06,2.06s-2.06-.92-2.06-2.06,.92-2.06,2.06-2.06,2.06,.92,2.06,2.06Z"/>
            <path class="cls-17" d="M38.95,63.95c0,.83-.67,1.51-1.51,1.51s-1.51-.67-1.51-1.51,.67-1.51,1.51-1.51,1.51,.67,1.51,1.51Z"/>
            <path class="cls-17" d="M55.81,83.78c0,.62-.5,1.12-1.12,1.12s-1.12-.5-1.12-1.12,.5-1.12,1.12-1.12,1.12,.5,1.12,1.12Z"/>
            <circle class="cls-17" cx="112.25" cy="78.82" r="1.4"/>
            <g>
              <circle class="cls-17" cx="723.37" cy="68.64" r=".45"/>
              <circle class="cls-17" cx="721.49" cy="69.69" r=".1"/>
              <path class="cls-17" d="M722.72,70.78c0-.05,.04-.1,.1-.1s.1,.04,.1,.1-.04,.1-.1,.1-.1-.04-.1-.1Z"/>
              <path class="cls-17" d="M721,64c0-.06,.05-.1,.1-.1s.1,.05,.1,.1-.05,.1-.1,.1-.1-.05-.1-.1Z"/>
              <path class="cls-17" d="M724.22,65.63c0-.05,.04-.09,.09-.09s.09,.04,.09,.09-.04,.09-.09,.09-.09-.04-.09-.09Z"/>
              <path class="cls-17" d="M720.79,66.78c0-.06,.05-.1,.1-.1s.1,.05,.1,.1-.05,.1-.1,.1-.1-.05-.1-.1Z"/>
              <path class="cls-17" d="M713.07,117.03c0-.38,.31-.69,.69-.69s.69,.31,.69,.69-.31,.69-.69,.69-.69-.31-.69-.69Z"/>
              <path class="cls-17" d="M708.33,196.9c0-.34,.28-.62,.62-.62s.62,.28,.62,.62-.28,.62-.62,.62-.62-.28-.62-.62Z"/>
              <circle class="cls-17" cx="717.21" cy="197.75" r=".85"/>
              <path class="cls-17" d="M702.6,202.27c0-.51,.41-.92,.92-.92s.92,.41,.92,.92-.41,.92-.92,.92-.92-.41-.92-.92Z"/>
              <circle class="cls-17" cx="744.85" cy="234.04" r=".72"/>
              <path class="cls-17" d="M734.63,240.16c0-.27,.22-.49,.49-.49s.49,.22,.49,.49-.22,.49-.49,.49-.49-.22-.49-.49Z"/>
              <circle class="cls-17" cx="729.98" cy="273.13" r=".92"/>
              <circle class="cls-17" cx="746.88" cy="277.19" r=".79"/>
              <path class="cls-17" d="M734.96,285.12c0-.4,.32-.72,.72-.72s.72,.32,.72,.72-.32,.72-.72,.72-.72-.32-.72-.72Z"/>
              <path class="cls-17" d="M742.23,265.57c0-.27,.22-.49,.49-.49s.49,.22,.49,.49-.22,.49-.49,.49-.49-.22-.49-.49Z"/>
              <path class="cls-17" d="M743.93,314.56c0-.27,.22-.49,.49-.49s.49,.22,.49,.49-.22,.49-.49,.49-.49-.22-.49-.49Z"/>
              <path class="cls-17" d="M719.83,314.56c0-.27,.22-.49,.49-.49s.49,.22,.49,.49-.22,.49-.49,.49-.49-.22-.49-.49Z"/>
              <path class="cls-17" d="M622.05,416.73c0-.67,.54-1.22,1.22-1.22s1.22,.54,1.22,1.22-.54,1.22-1.22,1.22-1.22-.54-1.22-1.22Z"/>
              <circle class="cls-17" cx="648.34" cy="433.95" r=".84"/>
              <path class="cls-17" d="M630.84,436.1c0-.72,.59-1.31,1.31-1.31s1.31,.59,1.31,1.31-.59,1.31-1.31,1.31-1.31-.59-1.31-1.31Z"/>
              <path class="cls-17" d="M690.74,436.1c0-.72,.59-1.31,1.31-1.31s1.31,.59,1.31,1.31-.59,1.31-1.31,1.31-1.31-.59-1.31-1.31Z"/>
              <path class="cls-17" d="M682.13,461.18c0-1.14,.92-2.06,2.06-2.06s2.06,.92,2.06,2.06-.92,2.06-2.06,2.06-2.06-.92-2.06-2.06Z"/>
              <circle class="cls-17" cx="731.45" cy="465.39" r=".84"/>
              <path class="cls-17" d="M740.92,398.84c0-.83,.67-1.51,1.51-1.51s1.51,.67,1.51,1.51-.67,1.51-1.51,1.51-1.51-.67-1.51-1.51Z"/>
              <path class="cls-17" d="M724.06,379.01c0-.62,.5-1.12,1.12-1.12s1.12,.5,1.12,1.12-.5,1.12-1.12,1.12-1.12-.5-1.12-1.12Z"/>
              <circle class="cls-17" cx="667.62" cy="383.97" r="1.4"/>
              <path class="cls-17" d="M697.1,495.25c0-.72,.59-1.31,1.31-1.31s1.31,.59,1.31,1.31-.59,1.31-1.31,1.31-1.31-.59-1.31-1.31Z"/>
              <circle class="cls-17" cx="527.56" cy="261.81" r="1.56"/>
              <path class="cls-17" d="M519.99,264.15c0-.68,.55-1.22,1.22-1.22s1.22,.55,1.22,1.22-.55,1.22-1.22,1.22-1.22-.55-1.22-1.22Z"/>
              <path class="cls-17" d="M518.88,258.47c0-.98,.8-1.78,1.78-1.78s1.78,.8,1.78,1.78-.8,1.78-1.78,1.78-1.78-.8-1.78-1.78Z"/>
              <path class="cls-17" d="M542.92,259.36c0-.49,.4-.89,.89-.89s.89,.4,.89,.89-.4,.89-.89,.89-.89-.4-.89-.89Z"/>
              <path class="cls-17" d="M529.9,247.51c0-.52,.42-.95,.95-.95s.95,.42,.95,.95-.42,.95-.95,.95-.95-.42-.95-.95Z"/>
              <path class="cls-17" d="M495.95,261.03c0-.43,.35-.78,.78-.78s.78,.35,.78,.78-.35,.78-.78,.78-.78-.35-.78-.78Z"/>
              <circle class="cls-17" cx="495.62" cy="251.68" r="1.11"/>
              <path class="cls-17" d="M503.08,258.03c0-.74,.6-1.34,1.34-1.34s1.34,.6,1.34,1.34-.6,1.34-1.34,1.34-1.34-.6-1.34-1.34Z"/>
              <path class="cls-17" d="M482.26,223.02c0-.89,.72-1.61,1.61-1.61s1.61,.72,1.61,1.61-.72,1.61-1.61,1.61-1.61-.72-1.61-1.61Z"/>
              <circle class="cls-17" cx="480.84" cy="228.12" r="1.42"/>
              <path class="cls-17" d="M476.09,223.83c0-.45,.36-.81,.81-.81s.81,.36,.81,.81-.36,.81-.81,.81-.81-.36-.81-.81Z"/>
              <path class="cls-17" d="M264.85,144.97c0-.89,.72-1.61,1.61-1.61s1.61,.72,1.61,1.61-.72,1.61-1.61,1.61-1.61-.72-1.61-1.61Z"/>
              <path class="cls-17" d="M256.92,151.72c0-.71,.58-1.29,1.29-1.29s1.29,.58,1.29,1.29-.58,1.29-1.29,1.29-1.29-.58-1.29-1.29Z"/>
              <path class="cls-17" d="M255.1,141.81c0-.86,.7-1.55,1.55-1.55s1.55,.7,1.55,1.55-.7,1.55-1.55,1.55-1.55-.7-1.55-1.55Z"/>
              <path class="cls-17" d="M245.35,150.44c0-.71,.58-1.29,1.29-1.29s1.29,.58,1.29,1.29-.58,1.29-1.29,1.29-1.29-.58-1.29-1.29Z"/>
              <path class="cls-17" d="M279.63,132.01c0-.95,.77-1.71,1.71-1.71s1.71,.77,1.71,1.71-.77,1.71-1.71,1.71-1.71-.77-1.71-1.71Z"/>
              <circle class="cls-17" cx="225.75" cy="120.55" r="2.89"/>
              <circle class="cls-17" cx="179.15" cy="279.21" r="1.07"/>
              <path class="cls-17" d="M170.58,293.03c0-.77,.62-1.39,1.39-1.39s1.39,.62,1.39,1.39-.62,1.39-1.39,1.39-1.39-.62-1.39-1.39Z"/>
              <path class="cls-17" d="M168.01,281.56c0-.71,.58-1.29,1.29-1.29s1.29,.58,1.29,1.29-.58,1.29-1.29,1.29-1.29-.58-1.29-1.29Z"/>
              <path class="cls-17" d="M160.83,290.51c0-.62,.5-1.12,1.12-1.12s1.12,.5,1.12,1.12-.5,1.12-1.12,1.12-1.12-.5-1.12-1.12Z"/>
              <path class="cls-17" d="M178.32,465.3c0-.36,.29-.65,.65-.65s.65,.29,.65,.65-.29,.65-.65,.65-.65-.29-.65-.65Z"/>
              <circle class="cls-17" cx="176.14" cy="467.85" r=".44"/>
              <path class="cls-17" d="M173.09,465.3c0-.36,.29-.65,.65-.65s.65,.29,.65,.65-.29,.65-.65,.65-.65-.29-.65-.65Z"/>
              <path class="cls-17" d="M166.26,469.66c0-.76,.62-1.38,1.38-1.38s1.38,.62,1.38,1.38-.62,1.38-1.38,1.38-1.38-.62-1.38-1.38Z"/>
              <path class="cls-17" d="M162.41,470.35c0-.38,.31-.69,.69-.69s.69,.31,.69,.69-.31,.69-.69,.69-.69-.31-.69-.69Z"/>
              <path class="cls-17" d="M162.63,466.03c0-.76,.62-1.38,1.38-1.38s1.38,.62,1.38,1.38-.62,1.38-1.38,1.38-1.38-.62-1.38-1.38Z"/>
              <path class="cls-17" d="M155.43,470.35c0-.38,.31-.69,.69-.69s.69,.31,.69,.69-.31,.69-.69,.69-.69-.31-.69-.69Z"/>
              <path class="cls-17" d="M189.08,466.54c0-.08,.06-.15,.15-.15s.15,.07,.15,.15-.06,.15-.15,.15-.15-.07-.15-.15Z"/>
              <path class="cls-17" d="M184.65,460.83c0-.34,.28-.62,.62-.62s.62,.28,.62,.62-.28,.62-.62,.62-.62-.28-.62-.62Z"/>
              <path class="cls-17" d="M60.49,346.35c0-.39,.31-.7,.7-.7s.7,.31,.7,.7-.31,.7-.7,.7-.7-.31-.7-.7Z"/>
              <path class="cls-17" d="M60.49,351.64c0-.39,.31-.7,.7-.7s.7,.31,.7,.7-.31,.7-.7,.7-.7-.31-.7-.7Z"/>
              <circle class="cls-17" cx="57.11" cy="354.98" r=".99"/>
              <path class="cls-17" d="M55.33,350.75c0-.49,.4-.89,.89-.89s.89,.4,.89,.89-.4,.89-.89,.89-.89-.4-.89-.89Z"/>
              <path class="cls-17" d="M28.03,381.91c0-.36,.3-.66,.66-.66s.66,.3,.66,.66-.3,.66-.66,.66-.66-.3-.66-.66Z"/>
              <circle class="cls-17" cx="19.93" cy="382.24" r=".33"/>
              <path class="cls-17" d="M49.34,381.91c0-.36,.3-.66,.66-.66s.66,.3,.66,.66-.3,.66-.66,.66-.66-.3-.66-.66Z"/>
              <path class="cls-17" d="M17.21,359.07c0-.66,.54-1.2,1.2-1.2s1.2,.54,1.2,1.2-.54,1.2-1.2,1.2-1.2-.54-1.2-1.2Z"/>
              <circle class="cls-17" cx="21.83" cy="313.1" r="1.07"/>
              <path class="cls-17" d="M18.4,316.71c0-.33,.27-.6,.6-.6s.6,.27,.6,.6-.27,.6-.6,.6-.6-.27-.6-.6Z"/>
              <path class="cls-17" d="M32.9,311.9c0-.66,.54-1.2,1.2-1.2s1.2,.54,1.2,1.2-.54,1.2-1.2,1.2-1.2-.54-1.2-1.2Z"/>
              <path class="cls-17" d="M27.86,303.52c0-.5,.41-.91,.91-.91s.91,.41,.91,.91-.41,.91-.91,.91-.91-.41-.91-.91Z"/>
              <circle class="cls-17" cx="20.92" cy="307.81" r=".91"/>
              <path class="cls-17" d="M19.6,254.5c0-.32,.26-.58,.58-.58s.58,.26,.58,.58-.26,.58-.58,.58-.58-.26-.58-.58Z"/>
              <path class="cls-17" d="M696.38,193.94c0-.53,.43-.96,.96-.96s.96,.43,.96,.96-.43,.96-.96,.96-.96-.43-.96-.96Z"/>
              <path class="cls-17" d="M694.59,199.98c0-.76,.62-1.38,1.38-1.38s1.38,.62,1.38,1.38-.62,1.38-1.38,1.38-1.38-.62-1.38-1.38Z"/>
              <circle class="cls-17" cx="704.68" cy="73.25" r=".58"/>
              <circle class="cls-17" cx="701.33" cy="75.8" r=".89"/>
              <path class="cls-17" d="M698.45,71.67c0-.55,.44-.99,.99-.99s.99,.44,.99,.99-.44,.99-.99,.99-.99-.44-.99-.99Z"/>
              <path class="cls-17" d="M692.03,75.8c0-.49,.4-.89,.89-.89s.89,.4,.89,.89-.4,.89-.89,.89-.89-.4-.89-.89Z"/>
              <circle class="cls-17" cx="716.85" cy="78.61" r="1.3"/>
              <circle class="cls-17" cx="689.48" cy="65.73" r=".94"/>
              <path class="cls-17" d="M280.91,491.12c0-.36,.29-.65,.65-.65s.65,.29,.65,.65-.29,.65-.65,.65-.65-.29-.65-.65Z"/>
              <path class="cls-17" d="M276.11,493.81c0-.32,.26-.58,.58-.58s.58,.26,.58,.58-.26,.58-.58,.58-.58-.26-.58-.58Z"/>
              <path class="cls-17" d="M274.15,489.48c0-.54,.44-.98,.98-.98s.98,.44,.98,.98-.44,.98-.98,.98-.98-.44-.98-.98Z"/>
              <path class="cls-17" d="M264.77,493.08c0-.72,.59-1.31,1.31-1.31s1.31,.59,1.31,1.31-.59,1.31-1.31,1.31-1.31-.59-1.31-1.31Z"/>
              <path class="cls-17" d="M298.2,492.21c0-.88,.72-1.6,1.6-1.6s1.6,.72,1.6,1.6-.72,1.6-1.6,1.6-1.6-.72-1.6-1.6Z"/>
              <circle class="cls-17" cx="284.1" cy="482.03" r="1.02"/>
              <circle class="cls-17" cx="271.02" cy="479.71" r="1.31"/>
              <path class="cls-17" d="M263.03,483.92c0-.48,.39-.87,.87-.87s.87,.39,.87,.87-.39,.87-.87,.87-.87-.39-.87-.87Z"/>
              <circle class="cls-17" cx="240" cy="493.73" r=".65"/>
              <path class="cls-17" d="M243.41,473.24c0-.44,.36-.8,.8-.8s.8,.36,.8,.8-.36,.8-.8,.8-.8-.36-.8-.8Z"/>
              <path class="cls-17" d="M233.82,481.53c0-.28,.23-.51,.51-.51s.51,.23,.51,.51-.23,.51-.51,.51-.51-.23-.51-.51Z"/>
              <path class="cls-17" d="M282.72,465.99c0-.38,.31-.69,.69-.69s.69,.31,.69,.69-.31,.69-.69,.69-.69-.31-.69-.69Z"/>
              <path class="cls-17" d="M106.39,342.58c0-.73,.59-1.32,1.32-1.32s1.32,.59,1.32,1.32-.59,1.32-1.32,1.32-1.32-.59-1.32-1.32Z"/>
              <circle class="cls-17" cx="105.24" cy="348.2" r="1.15"/>
              <path class="cls-17" d="M101.45,342.58c0-.73,.59-1.32,1.32-1.32s1.32,.59,1.32,1.32-.59,1.32-1.32,1.32-1.32-.59-1.32-1.32Z"/>
              <path class="cls-17" d="M95.46,350.84c0-.83,.67-1.5,1.5-1.5s1.5,.67,1.5,1.5-.67,1.5-1.5,1.5-1.5-.67-1.5-1.5Z"/>
              <path class="cls-17" d="M106.39,363.36c0-.37,.3-.66,.66-.66s.66,.3,.66,.66-.3,.66-.66,.66-.66-.3-.66-.66Z"/>
              <path class="cls-17" d="M81.42,338.57c0-1.49,1.2-2.69,2.69-2.69s2.69,1.2,2.69,2.69-1.2,2.69-2.69,2.69-2.69-1.2-2.69-2.69Z"/>
              <path class="cls-17" d="M109.04,297.15c0-.68,.55-1.24,1.24-1.24s1.24,.55,1.24,1.24-.55,1.24-1.24,1.24-1.24-.55-1.24-1.24Z"/>
              <path class="cls-17" d="M140.8,394.73c0-.97,.79-1.76,1.76-1.76s1.76,.79,1.76,1.76-.79,1.76-1.76,1.76-1.76-.79-1.76-1.76Z"/>
              <circle class="cls-17" cx="137.54" cy="400.29" r="1.15"/>
              <circle class="cls-17" cx="134.27" cy="393.85" r=".88"/>
              <circle class="cls-17" cx="126.33" cy="402.49" r="1.06"/>
              <path class="cls-17" d="M125.27,414.14c0-.58,.47-1.06,1.06-1.06s1.06,.47,1.06,1.06-.47,1.06-1.06,1.06-1.06-.47-1.06-1.06Z"/>
              <path class="cls-17" d="M119.8,408.93c0-.73,.59-1.32,1.32-1.32s1.32,.59,1.32,1.32-.59,1.32-1.32,1.32-1.32-.59-1.32-1.32Z"/>
              <path class="cls-17" d="M510.86,342.22c0-.94,.76-1.7,1.7-1.7s1.7,.76,1.7,1.7-.76,1.7-1.7,1.7-1.7-.76-1.7-1.7Z"/>
              <circle class="cls-17" cx="510.64" cy="334.38" r="1.91"/>
              <path class="cls-17" d="M525.86,337.13c0-.47,.38-.85,.85-.85s.85,.38,.85,.85-.38,.85-.85,.85-.85-.38-.85-.85Z"/>
              <path class="cls-17" d="M521.22,327.18c0-1.28,1.04-2.32,2.32-2.32s2.32,1.04,2.32,2.32-1.04,2.32-2.32,2.32-2.32-1.04-2.32-2.32Z"/>
              <path class="cls-17" d="M508.74,319.96c0-1.05,.85-1.91,1.91-1.91s1.91,.85,1.91,1.91-.85,1.91-1.91,1.91-1.91-.85-1.91-1.91Z"/>
              <path class="cls-17" d="M495.19,326.01c0-.64,.52-1.16,1.16-1.16s1.16,.52,1.16,1.16-.52,1.16-1.16,1.16-1.16-.52-1.16-1.16Z"/>
              <path class="cls-17" d="M556.23,348.37c0-1.29,1.04-2.33,2.33-2.33s2.33,1.04,2.33,2.33-1.04,2.33-2.33,2.33-2.33-1.04-2.33-2.33Z"/>
              <path class="cls-17" d="M546.05,357.28c0-.82,.66-1.48,1.48-1.48s1.48,.66,1.48,1.48-.66,1.48-1.48,1.48-1.48-.66-1.48-1.48Z"/>
              <path class="cls-17" d="M444.37,63.1c0-.53,.43-.96,.96-.96s.96,.43,.96,.96-.43,.96-.96,.96-.96-.43-.96-.96Z"/>
              <path class="cls-17" d="M439.18,69.4c0-.98,.8-1.78,1.78-1.78s1.78,.8,1.78,1.78-.8,1.78-1.78,1.78-1.78-.8-1.78-1.78Z"/>
              <circle class="cls-17" cx="433.54" cy="59.61" r=".89"/>
              <path class="cls-17" d="M426.12,65.84c0-.98,.8-1.78,1.78-1.78s1.78,.8,1.78,1.78-.8,1.78-1.78,1.78-1.78-.8-1.78-1.78Z"/>
              <path class="cls-17" d="M409.8,74.75c0-.98,.8-1.78,1.78-1.78s1.78,.8,1.78,1.78-.8,1.78-1.78,1.78-1.78-.8-1.78-1.78Z"/>
              <circle class="cls-17" cx="406.68" cy="55.61" r="3.12"/>
              <path class="cls-17" d="M391.62,62.62c0-.27,.22-.48,.48-.48s.48,.22,.48,.48-.22,.48-.48,.48-.48-.22-.48-.48Z"/>
              <path class="cls-17" d="M445.33,91.03c0-1,.81-1.82,1.82-1.82s1.82,.81,1.82,1.82-.81,1.82-1.82,1.82-1.82-.81-1.82-1.82Z"/>
              <circle class="cls-17" cx="432.5" cy="82.61" r="1.93"/>
            </g>
          </g>
          <g class="cls-27">
            <path class="cls-17" d="M212.25,15.04c-.25,0-.45-.2-.45-.45s.2-.45,.45-.45,.45,.2,.45,.45-.2,.45-.45,.45Z"/>
            <circle class="cls-17" cx="213.3" cy="16.47" r=".1"/>
            <path class="cls-17" d="M214.38,15.24c-.05,0-.1-.04-.1-.1s.04-.1,.1-.1,.1,.04,.1,.1-.04,.1-.1,.1Z"/>
            <path class="cls-17" d="M207.6,16.96c-.06,0-.1-.05-.1-.1s.05-.1,.1-.1,.1,.05,.1,.1-.05,.1-.1,.1Z"/>
            <path class="cls-17" d="M209.23,13.74c-.05,0-.09-.04-.09-.09s.04-.09,.09-.09,.09,.04,.09,.09-.04,.09-.09,.09Z"/>
            <circle class="cls-17" cx="210.38" cy="17.06" r=".1"/>
            <path class="cls-17" d="M260.64,24.89c-.38,0-.69-.31-.69-.69s.31-.69,.69-.69,.69,.31,.69,.69-.31,.69-.69,.69Z"/>
            <path class="cls-17" d="M340.51,29.63c-.34,0-.62-.28-.62-.62s.28-.62,.62-.62,.62,.28,.62,.62-.28,.62-.62,.62Z"/>
            <circle class="cls-17" cx="341.36" cy="20.75" r=".85"/>
            <path class="cls-17" d="M345.88,35.36c-.51,0-.92-.41-.92-.92s.41-.92,.92-.92,.92,.41,.92,.92-.41,.92-.92,.92Z"/>
            <circle class="cls-17" cx="383.76" cy="2.84" r=".49"/>
            <circle class="cls-17" cx="416.74" cy="7.98" r=".92" transform="translate(342.29 418.09) rotate(-80.81)"/>
            <circle class="cls-17" cx="428.72" cy="2.28" r=".72"/>
            <circle class="cls-17" cx="458.16" cy="17.64" r=".49"/>
            <path class="cls-17" d="M560.33,115.91c-.67,0-1.22-.54-1.22-1.22s.54-1.22,1.22-1.22,1.22,.54,1.22,1.22-.54,1.22-1.22,1.22Z"/>
            <circle class="cls-17" cx="577.55" cy="89.62" r=".84"/>
            <circle class="cls-17" cx="579.7" cy="105.81" r="1.31"/>
            <circle class="cls-17" cx="579.7" cy="45.91" r="1.31"/>
            <path class="cls-17" d="M604.79,55.83c-1.14,0-2.06-.92-2.06-2.06s.92-2.06,2.06-2.06,2.06,.92,2.06,2.06-.92,2.06-2.06,2.06Z"/>
            <path class="cls-17" d="M609,7.35c-.47,0-.84-.38-.84-.84s.38-.84,.84-.84,.84,.38,.84,.84-.38,.84-.84,.84Z"/>
            <path class="cls-17" d="M522.62,13.9c-.62,0-1.12-.5-1.12-1.12s.5-1.12,1.12-1.12,1.12,.5,1.12,1.12-.5,1.12-1.12,1.12Z"/>
            <circle class="cls-17" cx="527.58" cy="70.34" r="1.4"/>
            <path class="cls-17" d="M638.85,40.86c-.72,0-1.31-.59-1.31-1.31s.59-1.31,1.31-1.31,1.31,.59,1.31,1.31-.59,1.31-1.31,1.31Z"/>
            <g>
              <circle class="cls-17" cx="344.58" cy="485.65" r="1.56"/>
              <path class="cls-17" d="M342.25,478.08c.68,0,1.22,.55,1.22,1.22s-.55,1.22-1.22,1.22-1.22-.55-1.22-1.22,.55-1.22,1.22-1.22Z"/>
              <path class="cls-17" d="M347.92,476.97c.98,0,1.78,.8,1.78,1.78s-.8,1.78-1.78,1.78-1.78-.8-1.78-1.78,.8-1.78,1.78-1.78Z"/>
              <path class="cls-17" d="M358.89,487.99c.52,0,.95,.42,.95,.95s-.42,.95-.95,.95-.95-.42-.95-.95,.42-.95,.95-.95Z"/>
              <path class="cls-17" d="M345.36,454.04c.43,0,.78,.35,.78,.78s-.35,.78-.78,.78-.78-.35-.78-.78,.35-.78,.78-.78Z"/>
              <circle class="cls-17" cx="354.72" cy="453.71" r="1.11"/>
              <path class="cls-17" d="M348.37,461.17c.74,0,1.34,.6,1.34,1.34s-.6,1.34-1.34,1.34-1.34-.6-1.34-1.34,.6-1.34,1.34-1.34Z"/>
              <path class="cls-17" d="M383.37,440.35c.89,0,1.61,.72,1.61,1.61s-.72,1.61-1.61,1.61-1.61-.72-1.61-1.61,.72-1.61,1.61-1.61Z"/>
              <circle class="cls-17" cx="378.28" cy="438.94" r="1.42"/>
              <path class="cls-17" d="M382.56,434.18c.45,0,.81,.36,.81,.81s-.36,.81-.81,.81-.81-.36-.81-.81,.36-.81,.81-.81Z"/>
              <path class="cls-17" d="M461.42,222.94c.89,0,1.61,.72,1.61,1.61s-.72,1.61-1.61,1.61-1.61-.72-1.61-1.61,.72-1.61,1.61-1.61Z"/>
              <path class="cls-17" d="M454.67,215.01c.71,0,1.29,.58,1.29,1.29s-.58,1.29-1.29,1.29-1.29-.58-1.29-1.29,.58-1.29,1.29-1.29Z"/>
              <path class="cls-17" d="M464.58,213.19c.86,0,1.55,.7,1.55,1.55s-.7,1.55-1.55,1.55-1.55-.7-1.55-1.55,.7-1.55,1.55-1.55Z"/>
              <path class="cls-17" d="M455.96,203.44c.71,0,1.29,.58,1.29,1.29s-.58,1.29-1.29,1.29-1.29-.58-1.29-1.29,.58-1.29,1.29-1.29Z"/>
              <path class="cls-17" d="M474.38,237.72c.95,0,1.71,.77,1.71,1.71s-.77,1.71-1.71,1.71-1.71-.77-1.71-1.71,.77-1.71,1.71-1.71Z"/>
              <circle class="cls-17" cx="485.85" cy="183.84" r="2.89" transform="translate(130.08 562.35) rotate(-67.5)"/>
              <circle class="cls-17" cx="327.19" cy="137.24" r="1.07"/>
              <path class="cls-17" d="M313.37,128.67c.77,0,1.39,.62,1.39,1.39s-.62,1.39-1.39,1.39-1.39-.62-1.39-1.39,.62-1.39,1.39-1.39Z"/>
              <path class="cls-17" d="M324.83,126.1c.71,0,1.29,.58,1.29,1.29s-.58,1.29-1.29,1.29-1.29-.58-1.29-1.29,.58-1.29,1.29-1.29Z"/>
              <path class="cls-17" d="M315.89,118.92c.62,0,1.12,.5,1.12,1.12s-.5,1.12-1.12,1.12-1.12-.5-1.12-1.12,.5-1.12,1.12-1.12Z"/>
              <path class="cls-17" d="M141.09,136.41c.36,0,.65,.29,.65,.65s-.29,.65-.65,.65-.65-.29-.65-.65,.29-.65,.65-.65Z"/>
              <circle class="cls-17" cx="138.55" cy="134.23" r=".44"/>
              <path class="cls-17" d="M141.09,131.18c.36,0,.65,.29,.65,.65s-.29,.65-.65,.65-.65-.29-.65-.65,.29-.65,.65-.65Z"/>
              <path class="cls-17" d="M136.73,124.35c.76,0,1.38,.62,1.38,1.38s-.62,1.38-1.38,1.38-1.38-.62-1.38-1.38,.62-1.38,1.38-1.38Z"/>
              <path class="cls-17" d="M136.04,120.5c.38,0,.69,.31,.69,.69s-.31,.69-.69,.69-.69-.31-.69-.69,.31-.69,.69-.69Z"/>
              <path class="cls-17" d="M140.37,120.72c.76,0,1.38,.62,1.38,1.38s-.62,1.38-1.38,1.38-1.38-.62-1.38-1.38,.62-1.38,1.38-1.38Z"/>
              <path class="cls-17" d="M136.04,113.52c.38,0,.69,.31,.69,.69s-.31,.69-.69,.69-.69-.31-.69-.69,.31-.69,.69-.69Z"/>
              <path class="cls-17" d="M139.86,147.17c.08,0,.15,.06,.15,.15s-.07,.15-.15,.15-.15-.06-.15-.15,.07-.15,.15-.15Z"/>
              <path class="cls-17" d="M145.56,142.74c.34,0,.62,.28,.62,.62s-.28,.62-.62,.62-.62-.28-.62-.62,.28-.62,.62-.62Z"/>
              <path class="cls-17" d="M260.05,18.58c.39,0,.7,.31,.7,.7s-.31,.7-.7,.7-.7-.31-.7-.7,.31-.7,.7-.7Z"/>
              <path class="cls-17" d="M254.76,18.58c.39,0,.7,.31,.7,.7s-.31,.7-.7,.7-.7-.31-.7-.7,.31-.7,.7-.7Z"/>
              <circle class="cls-17" cx="251.41" cy="15.2" r=".99"/>
              <path class="cls-17" d="M255.65,13.42c.49,0,.89,.4,.89,.89s-.4,.89-.89,.89-.89-.4-.89-.89,.4-.89,.89-.89Z"/>
              <path class="cls-17" d="M224.48,7.43c.36,0,.66,.3,.66,.66s-.3,.66-.66,.66-.66-.3-.66-.66,.3-.66,.66-.66Z"/>
              <path class="cls-17" d="M115.28,239c.36,0,.65,.29,.65,.65s-.29,.65-.65,.65-.65-.29-.65-.65,.29-.65,.65-.65Z"/>
              <path class="cls-17" d="M112.59,234.2c.32,0,.58,.26,.58,.58s-.26,.58-.58,.58-.58-.26-.58-.58,.26-.58,.58-.58Z"/>
              <path class="cls-17" d="M116.91,232.24c.54,0,.98,.44,.98,.98s-.44,.98-.98,.98-.98-.44-.98-.98,.44-.98,.98-.98Z"/>
              <circle class="cls-17" cx="113.31" cy="224.17" r="1.31"/>
              <path class="cls-17" d="M114.19,256.29c.88,0,1.6,.72,1.6,1.6s-.72,1.6-1.6,1.6-1.6-.72-1.6-1.6,.72-1.6,1.6-1.6Z"/>
              <circle class="cls-17" cx="124.36" cy="242.19" r="1.02"/>
              <circle class="cls-17" cx="126.69" cy="229.11" r="1.31"/>
              <path class="cls-17" d="M122.47,221.12c.48,0,.87,.39,.87,.87s-.39,.87-.87,.87-.87-.39-.87-.87,.39-.87,.87-.87Z"/>
              <circle class="cls-17" cx="112.66" cy="198.09" r=".65"/>
              <path class="cls-17" d="M133.15,201.5c.44,0,.8,.36,.8,.8s-.36,.8-.8,.8-.8-.36-.8-.8,.36-.8,.8-.8Z"/>
              <path class="cls-17" d="M124.87,191.91c.28,0,.51,.23,.51,.51s-.23,.51-.51,.51-.51-.23-.51-.51,.23-.51,.51-.51Z"/>
              <path class="cls-17" d="M140.4,240.81c.38,0,.69,.31,.69,.69s-.31,.69-.69,.69-.69-.31-.69-.69,.31-.69,.69-.69Z"/>
              <path class="cls-17" d="M263.81,64.48c.73,0,1.32,.59,1.32,1.32s-.59,1.32-1.32,1.32-1.32-.59-1.32-1.32,.59-1.32,1.32-1.32Z"/>
              <circle class="cls-17" cx="258.2" cy="63.33" r="1.15"/>
              <path class="cls-17" d="M263.81,59.54c.73,0,1.32,.59,1.32,1.32s-.59,1.32-1.32,1.32-1.32-.59-1.32-1.32,.59-1.32,1.32-1.32Z"/>
              <path class="cls-17" d="M255.55,53.55c.83,0,1.5,.67,1.5,1.5s-.67,1.5-1.5,1.5-1.5-.67-1.5-1.5,.67-1.5,1.5-1.5Z"/>
              <path class="cls-17" d="M243.03,64.48c.37,0,.66,.3,.66,.66s-.3,.66-.66,.66-.66-.3-.66-.66,.3-.66,.66-.66Z"/>
              <path class="cls-17" d="M267.82,39.51c1.49,0,2.69,1.2,2.69,2.69s-1.2,2.69-2.69,2.69-2.69-1.2-2.69-2.69,1.2-2.69,2.69-2.69Z"/>
              <path class="cls-17" d="M309.25,67.13c.68,0,1.24,.55,1.24,1.24s-.55,1.24-1.24,1.24-1.24-.55-1.24-1.24,.55-1.24,1.24-1.24Z"/>
              <path class="cls-17" d="M211.67,98.89c.97,0,1.76,.79,1.76,1.76s-.79,1.76-1.76,1.76-1.76-.79-1.76-1.76,.79-1.76,1.76-1.76Z"/>
              <circle class="cls-17" cx="206.11" cy="95.63" r="1.15"/>
              <circle class="cls-17" cx="212.55" cy="92.36" r=".88"/>
              <circle class="cls-17" cx="203.9" cy="84.42" r="1.06"/>
              <path class="cls-17" d="M192.26,83.36c.58,0,1.06,.47,1.06,1.06s-.47,1.06-1.06,1.06-1.06-.47-1.06-1.06,.47-1.06,1.06-1.06Z"/>
              <path class="cls-17" d="M197.46,77.89c.73,0,1.32,.59,1.32,1.32s-.59,1.32-1.32,1.32-1.32-.59-1.32-1.32,.59-1.32,1.32-1.32Z"/>
              <circle class="cls-17" cx="264.17" cy="470.64" r="1.7"/>
              <circle class="cls-17" cx="272.02" cy="468.73" r="1.91"/>
              <path class="cls-17" d="M269.26,483.95c.47,0,.85,.38,.85,.85s-.38,.85-.85,.85-.85-.38-.85-.85,.38-.85,.85-.85Z"/>
              <path class="cls-17" d="M279.22,479.31c1.28,0,2.32,1.04,2.32,2.32s-1.04,2.32-2.32,2.32-2.32-1.04-2.32-2.32,1.04-2.32,2.32-2.32Z"/>
              <path class="cls-17" d="M286.44,466.83c1.05,0,1.91,.85,1.91,1.91s-.85,1.91-1.91,1.91-1.91-.85-1.91-1.91,.85-1.91,1.91-1.91Z"/>
              <path class="cls-17" d="M280.38,453.28c.64,0,1.16,.52,1.16,1.16s-.52,1.16-1.16,1.16-1.16-.52-1.16-1.16,.52-1.16,1.16-1.16Z"/>
              <path class="cls-17" d="M543.3,402.46c.53,0,.96,.43,.96,.96s-.43,.96-.96,.96-.96-.43-.96-.96,.43-.96,.96-.96Z"/>
              <path class="cls-17" d="M536.99,397.27c.98,0,1.78,.8,1.78,1.78s-.8,1.78-1.78,1.78-1.78-.8-1.78-1.78,.8-1.78,1.78-1.78Z"/>
              <path class="cls-17" d="M546.78,390.74c.49,0,.89,.4,.89,.89s-.4,.89-.89,.89-.89-.4-.89-.89,.4-.89,.89-.89Z"/>
              <path class="cls-17" d="M540.55,384.21c.98,0,1.78,.8,1.78,1.78s-.8,1.78-1.78,1.78-1.78-.8-1.78-1.78,.8-1.78,1.78-1.78Z"/>
              <path class="cls-17" d="M531.65,367.89c.98,0,1.78,.8,1.78,1.78s-.8,1.78-1.78,1.78-1.78-.8-1.78-1.78,.8-1.78,1.78-1.78Z"/>
              <circle class="cls-17" cx="550.79" cy="364.77" r="3.12"/>
              <path class="cls-17" d="M543.78,349.71c.27,0,.48,.22,.48,.48s-.22,.48-.48,.48-.48-.22-.48-.48,.22-.48,.48-.48Z"/>
              <path class="cls-17" d="M515.36,403.42c1,0,1.82,.81,1.82,1.82s-.81,1.82-1.82,1.82-1.82-.81-1.82-1.82,.81-1.82,1.82-1.82Z"/>
              <circle class="cls-17" cx="523.78" cy="390.59" r="1.93"/>
            </g>
          </g>
          <g class="cls-23">
            <path class="cls-17" d="M706.49,77.64c0-.25,.2-.45,.45-.45s.45,.2,.45,.45-.2,.45-.45,.45-.45-.2-.45-.45Z"/>
            <path class="cls-17" d="M704.96,78.69c0-.06,.05-.1,.1-.1s.1,.05,.1,.1-.05,.1-.1,.1-.1-.05-.1-.1Z"/>
            <path class="cls-17" d="M706.3,79.78c0-.05,.04-.1,.1-.1s.1,.04,.1,.1-.04,.1-.1,.1-.1-.04-.1-.1Z"/>
            <path class="cls-17" d="M704.58,73c0-.06,.05-.1,.1-.1s.1,.05,.1,.1-.05,.1-.1,.1-.1-.05-.1-.1Z"/>
            <path class="cls-17" d="M707.8,74.63c0-.05,.04-.09,.09-.09s.09,.04,.09,.09-.04,.09-.09,.09-.09-.04-.09-.09Z"/>
            <circle class="cls-17" cx="704.47" cy="75.78" r=".1"/>
            <path class="cls-17" d="M734.38,102.88c0-.4,.32-.72,.72-.72s.72,.32,.72,.72-.32,.72-.72,.72-.72-.32-.72-.72Z"/>
            <path class="cls-17" d="M742.57,101.54c0-.34,.28-.62,.62-.62s.62,.28,.62,.62-.28,.62-.62,.62-.62-.28-.62-.62Z"/>
            <path class="cls-17" d="M735.1,98.53c0-.2,.16-.36,.36-.36s.36,.16,.36,.36-.16,.36-.36,.36-.36-.16-.36-.36Z"/>
            <path class="cls-17" d="M696.64,126.03c0-.38,.31-.69,.69-.69s.69,.31,.69,.69-.31,.69-.69,.69-.69-.31-.69-.69Z"/>
            <path class="cls-17" d="M691.91,205.9c0-.34,.28-.62,.62-.62s.62,.28,.62,.62-.28,.62-.62,.62-.62-.28-.62-.62Z"/>
            <path class="cls-17" d="M699.93,206.75c0-.47,.38-.85,.85-.85s.85,.38,.85,.85-.38,.85-.85,.85-.85-.38-.85-.85Z"/>
            <path class="cls-17" d="M686.18,211.27c0-.51,.41-.92,.92-.92s.92,.41,.92,.92-.41,.92-.92,.92-.92-.41-.92-.92Z"/>
            <path class="cls-17" d="M727.7,243.04c0-.4,.32-.72,.72-.72s.72,.32,.72,.72-.32,.72-.72,.72-.72-.32-.72-.72Z"/>
            <circle class="cls-17" cx="718.69" cy="249.16" r=".49"/>
            <path class="cls-17" d="M736.48,253.12c0-.4,.32-.72,.72-.72s.72,.32,.72,.72-.32,.72-.72,.72-.72-.32-.72-.72Z"/>
            <circle class="cls-17" cx="713.55" cy="282.13" r=".92"/>
            <circle class="cls-17" cx="730.45" cy="286.19" r=".79"/>
            <circle class="cls-17" cx="719.25" cy="294.12" r=".72"/>
            <circle class="cls-17" cx="726.29" cy="274.57" r=".49"/>
            <path class="cls-17" d="M740.98,279.51c0-.25,.21-.46,.46-.46s.46,.21,.46,.46-.21,.46-.46,.46-.46-.21-.46-.46Z"/>
            <path class="cls-17" d="M727.5,323.56c0-.27,.22-.49,.49-.49s.49,.22,.49,.49-.22,.49-.49,.49-.49-.22-.49-.49Z"/>
            <circle class="cls-17" cx="703.89" cy="323.56" r=".49"/>
            <path class="cls-17" d="M605.62,425.73c0-.67,.54-1.22,1.22-1.22s1.22,.54,1.22,1.22-.54,1.22-1.22,1.22-1.22-.54-1.22-1.22Z"/>
            <circle class="cls-17" cx="631.92" cy="442.95" r=".84"/>
            <circle class="cls-17" cx="615.73" cy="445.1" r="1.31"/>
            <circle class="cls-17" cx="675.62" cy="445.1" r="1.31"/>
            <path class="cls-17" d="M665.7,470.18c0-1.14,.92-2.06,2.06-2.06s2.06,.92,2.06,2.06-.92,2.06-2.06,2.06-2.06-.92-2.06-2.06Z"/>
            <path class="cls-17" d="M714.18,474.39c0-.47,.38-.84,.84-.84s.84,.38,.84,.84-.38,.84-.84,.84-.84-.38-.84-.84Z"/>
            <path class="cls-17" d="M724.49,407.84c0-.83,.67-1.51,1.51-1.51s1.51,.67,1.51,1.51-.67,1.51-1.51,1.51-1.51-.67-1.51-1.51Z"/>
            <path class="cls-17" d="M707.63,388.01c0-.62,.5-1.12,1.12-1.12s1.12,.5,1.12,1.12-.5,1.12-1.12,1.12-1.12-.5-1.12-1.12Z"/>
            <circle class="cls-17" cx="651.2" cy="392.97" r="1.4"/>
            <g>
              <circle class="cls-17" cx="40.07" cy="403.14" r=".45"/>
              <circle class="cls-17" cx="41.96" cy="402.09" r=".1"/>
              <path class="cls-17" d="M40.72,401.01c0,.05-.04,.1-.1,.1s-.1-.04-.1-.1,.04-.1,.1-.1,.1,.04,.1,.1Z"/>
              <circle class="cls-17" cx="42.34" cy="407.79" r=".1"/>
              <path class="cls-17" d="M39.22,406.16c0,.05-.04,.09-.09,.09s-.09-.04-.09-.09,.04-.09,.09-.09,.09,.04,.09,.09Z"/>
              <circle class="cls-17" cx="42.55" cy="405.01" r=".1"/>
              <path class="cls-17" d="M12.64,377.91c0,.4-.32,.72-.72,.72s-.72-.32-.72-.72,.32-.72,.72-.72,.72,.32,.72,.72Z"/>
              <path class="cls-17" d="M4.45,379.25c0,.34-.28,.62-.62,.62s-.62-.28-.62-.62,.28-.62,.62-.62,.62,.28,.62,.62Z"/>
              <circle class="cls-17" cx="11.56" cy="382.26" r=".36"/>
              <path class="cls-17" d="M50.37,354.76c0,.38-.31,.69-.69,.69s-.69-.31-.69-.69,.31-.69,.69-.69,.69,.31,.69,.69Z"/>
              <path class="cls-17" d="M55.11,274.89c0,.34-.28,.62-.62,.62s-.62-.28-.62-.62,.28-.62,.62-.62,.62,.28,.62,.62Z"/>
              <circle class="cls-17" cx="46.23" cy="274.04" r=".85"/>
              <path class="cls-17" d="M60.84,269.52c0,.51-.41,.92-.92,.92s-.92-.41-.92-.92,.41-.92,.92-.92,.92,.41,.92,.92Z"/>
              <circle class="cls-17" cx="18.6" cy="237.75" r=".72"/>
              <path class="cls-17" d="M28.81,231.63c0,.27-.22,.49-.49,.49s-.49-.22-.49-.49,.22-.49,.49-.49,.49,.22,.49,.49Z"/>
              <path class="cls-17" d="M10.54,227.67c0,.4-.32,.72-.72,.72s-.72-.32-.72-.72,.32-.72,.72-.72,.72,.32,.72,.72Z"/>
              <circle class="cls-17" cx="33.46" cy="198.65" r=".92"/>
              <circle class="cls-17" cx="16.57" cy="194.59" r=".79"/>
              <path class="cls-17" d="M28.49,186.67c0,.4-.32,.72-.72,.72s-.72-.32-.72-.72,.32-.72,.72-.72,.72,.32,.72,.72Z"/>
              <circle class="cls-17" cx="20.73" cy="206.22" r=".49"/>
              <path class="cls-17" d="M6.04,201.28c0,.25-.21,.46-.46,.46s-.46-.21-.46-.46,.21-.46,.46-.46,.46,.21,.46,.46Z"/>
              <circle class="cls-17" cx="19.02" cy="157.23" r=".49"/>
              <path class="cls-17" d="M43.61,157.23c0,.27-.22,.49-.49,.49s-.49-.22-.49-.49,.22-.49,.49-.49,.49,.22,.49,.49Z"/>
              <path class="cls-17" d="M141.4,55.06c0,.67-.54,1.22-1.22,1.22s-1.22-.54-1.22-1.22,.54-1.22,1.22-1.22,1.22,.54,1.22,1.22Z"/>
              <circle class="cls-17" cx="115.1" cy="37.84" r=".84"/>
              <path class="cls-17" d="M132.6,35.69c0,.72-.59,1.31-1.31,1.31s-1.31-.59-1.31-1.31,.59-1.31,1.31-1.31,1.31,.59,1.31,1.31Z"/>
              <path class="cls-17" d="M72.7,35.69c0,.72-.59,1.31-1.31,1.31s-1.31-.59-1.31-1.31,.59-1.31,1.31-1.31,1.31,.59,1.31,1.31Z"/>
              <path class="cls-17" d="M81.31,10.61c0,1.14-.92,2.06-2.06,2.06s-2.06-.92-2.06-2.06,.92-2.06,2.06-2.06,2.06,.92,2.06,2.06Z"/>
              <circle class="cls-17" cx="31.99" cy="6.4" r=".84"/>
              <path class="cls-17" d="M22.53,72.95c0,.83-.67,1.51-1.51,1.51s-1.51-.67-1.51-1.51,.67-1.51,1.51-1.51,1.51,.67,1.51,1.51Z"/>
              <path class="cls-17" d="M39.39,92.78c0,.62-.5,1.12-1.12,1.12s-1.12-.5-1.12-1.12,.5-1.12,1.12-1.12,1.12,.5,1.12,1.12Z"/>
              <circle class="cls-17" cx="95.82" cy="87.82" r="1.4"/>
              <circle class="cls-17" cx="235.88" cy="209.98" r="1.56"/>
              <path class="cls-17" d="M243.45,207.64c0,.68-.55,1.22-1.22,1.22s-1.22-.55-1.22-1.22,.55-1.22,1.22-1.22,1.22,.55,1.22,1.22Z"/>
              <path class="cls-17" d="M244.56,213.32c0,.98-.8,1.78-1.78,1.78s-1.78-.8-1.78-1.78,.8-1.78,1.78-1.78,1.78,.8,1.78,1.78Z"/>
              <path class="cls-17" d="M220.53,212.43c0,.49-.4,.89-.89,.89s-.89-.4-.89-.89,.4-.89,.89-.89,.89,.4,.89,.89Z"/>
              <path class="cls-17" d="M233.55,224.28c0,.52-.42,.95-.95,.95s-.95-.42-.95-.95,.42-.95,.95-.95,.95,.42,.95,.95Z"/>
              <path class="cls-17" d="M267.49,210.76c0,.43-.35,.78-.78,.78s-.78-.35-.78-.78,.35-.78,.78-.78,.78,.35,.78,.78Z"/>
              <circle class="cls-17" cx="267.82" cy="220.11" r="1.11"/>
              <path class="cls-17" d="M260.37,213.76c0,.74-.6,1.34-1.34,1.34s-1.34-.6-1.34-1.34,.6-1.34,1.34-1.34,1.34,.6,1.34,1.34Z"/>
              <path class="cls-17" d="M281.18,248.76c0,.89-.72,1.61-1.61,1.61s-1.61-.72-1.61-1.61,.72-1.61,1.61-1.61,1.61,.72,1.61,1.61Z"/>
              <circle class="cls-17" cx="282.6" cy="243.67" r="1.42"/>
              <path class="cls-17" d="M287.36,247.96c0,.45-.36,.81-.81,.81s-.81-.36-.81-.81,.36-.81,.81-.81,.81,.36,.81,.81Z"/>
              <path class="cls-17" d="M498.59,326.82c0,.89-.72,1.61-1.61,1.61s-1.61-.72-1.61-1.61,.72-1.61,1.61-1.61,1.61,.72,1.61,1.61Z"/>
              <path class="cls-17" d="M506.52,320.07c0,.71-.58,1.29-1.29,1.29s-1.29-.58-1.29-1.29,.58-1.29,1.29-1.29,1.29,.58,1.29,1.29Z"/>
              <path class="cls-17" d="M508.34,329.98c0,.86-.7,1.55-1.55,1.55s-1.55-.7-1.55-1.55,.7-1.55,1.55-1.55,1.55,.7,1.55,1.55Z"/>
              <path class="cls-17" d="M518.09,321.35c0,.71-.58,1.29-1.29,1.29s-1.29-.58-1.29-1.29,.58-1.29,1.29-1.29,1.29,.58,1.29,1.29Z"/>
              <path class="cls-17" d="M483.81,339.78c0,.95-.77,1.71-1.71,1.71s-1.71-.77-1.71-1.71,.77-1.71,1.71-1.71,1.71,.77,1.71,1.71Z"/>
              <circle class="cls-17" cx="537.7" cy="351.24" r="2.89"/>
              <circle class="cls-17" cx="584.3" cy="192.58" r="1.07"/>
              <path class="cls-17" d="M592.87,178.76c0,.77-.62,1.39-1.39,1.39s-1.39-.62-1.39-1.39,.62-1.39,1.39-1.39,1.39,.62,1.39,1.39Z"/>
              <path class="cls-17" d="M595.44,190.23c0,.71-.58,1.29-1.29,1.29s-1.29-.58-1.29-1.29,.58-1.29,1.29-1.29,1.29,.58,1.29,1.29Z"/>
              <path class="cls-17" d="M602.62,181.28c0,.62-.5,1.12-1.12,1.12s-1.12-.5-1.12-1.12,.5-1.12,1.12-1.12,1.12,.5,1.12,1.12Z"/>
              <path class="cls-17" d="M585.12,6.49c0,.36-.29,.65-.65,.65s-.65-.29-.65-.65,.29-.65,.65-.65,.65,.29,.65,.65Z"/>
              <circle class="cls-17" cx="587.3" cy="3.94" r=".44"/>
              <path class="cls-17" d="M590.35,6.49c0,.36-.29,.65-.65,.65s-.65-.29-.65-.65,.29-.65,.65-.65,.65,.29,.65,.65Z"/>
              <path class="cls-17" d="M597.18,2.13c0,.76-.62,1.38-1.38,1.38s-1.38-.62-1.38-1.38,.62-1.38,1.38-1.38,1.38,.62,1.38,1.38Z"/>
              <path class="cls-17" d="M601.03,1.44c0,.38-.31,.69-.69,.69s-.69-.31-.69-.69,.31-.69,.69-.69,.69,.31,.69,.69Z"/>
              <path class="cls-17" d="M600.82,5.76c0,.76-.62,1.38-1.38,1.38s-1.38-.62-1.38-1.38,.62-1.38,1.38-1.38,1.38,.62,1.38,1.38Z"/>
              <path class="cls-17" d="M608.01,1.44c0,.38-.31,.69-.69,.69s-.69-.31-.69-.69,.31-.69,.69-.69,.69,.31,.69,.69Z"/>
              <path class="cls-17" d="M574.37,5.25c0,.08-.06,.15-.15,.15s-.15-.07-.15-.15,.06-.15,.15-.15,.15,.07,.15,.15Z"/>
              <path class="cls-17" d="M578.8,10.96c0,.34-.28,.62-.62,.62s-.62-.28-.62-.62,.28-.62,.62-.62,.62,.28,.62,.62Z"/>
              <path class="cls-17" d="M702.95,125.44c0,.39-.31,.7-.7,.7s-.7-.31-.7-.7,.31-.7,.7-.7,.7,.31,.7,.7Z"/>
              <path class="cls-17" d="M702.95,120.15c0,.39-.31,.7-.7,.7s-.7-.31-.7-.7,.31-.7,.7-.7,.7,.31,.7,.7Z"/>
              <circle class="cls-17" cx="706.34" cy="116.81" r=".99"/>
              <path class="cls-17" d="M708.11,121.04c0,.49-.4,.89-.89,.89s-.89-.4-.89-.89,.4-.89,.89-.89,.89,.4,.89,.89Z"/>
              <path class="cls-17" d="M735.42,89.88c0,.36-.3,.66-.66,.66s-.66-.3-.66-.66,.3-.66,.66-.66,.66,.3,.66,.66Z"/>
              <path class="cls-17" d="M743.84,89.55c0,.18-.15,.33-.33,.33s-.33-.15-.33-.33,.15-.33,.33-.33,.33,.15,.33,.33Z"/>
              <path class="cls-17" d="M714.1,89.88c0,.36-.3,.66-.66,.66s-.66-.3-.66-.66,.3-.66,.66-.66,.66,.3,.66,.66Z"/>
              <path class="cls-17" d="M746.24,112.72c0,.66-.54,1.2-1.2,1.2s-1.2-.54-1.2-1.2,.54-1.2,1.2-1.2,1.2,.54,1.2,1.2Z"/>
              <path class="cls-17" d="M742.68,158.69c0,.59-.48,1.07-1.07,1.07s-1.07-.48-1.07-1.07,.48-1.07,1.07-1.07,1.07,.48,1.07,1.07Z"/>
              <path class="cls-17" d="M745.04,155.08c0,.33-.27,.6-.6,.6s-.6-.27-.6-.6,.27-.6,.6-.6,.6,.27,.6,.6Z"/>
              <path class="cls-17" d="M730.54,159.89c0,.66-.54,1.2-1.2,1.2s-1.2-.54-1.2-1.2,.54-1.2,1.2-1.2,1.2,.54,1.2,1.2Z"/>
              <path class="cls-17" d="M735.58,168.27c0,.5-.41,.91-.91,.91s-.91-.41-.91-.91,.41-.91,.91-.91,.91,.41,.91,.91Z"/>
              <path class="cls-17" d="M743.43,163.98c0,.5-.41,.91-.91,.91s-.91-.41-.91-.91,.41-.91,.91-.91,.91,.41,.91,.91Z"/>
              <path class="cls-17" d="M743.84,217.29c0,.32-.26,.58-.58,.58s-.58-.26-.58-.58,.26-.58,.58-.58,.58,.26,.58,.58Z"/>
              <path class="cls-17" d="M67.07,277.84c0,.53-.43,.96-.96,.96s-.96-.43-.96-.96,.43-.96,.96-.96,.96,.43,.96,.96Z"/>
              <path class="cls-17" d="M68.86,271.81c0,.76-.62,1.38-1.38,1.38s-1.38-.62-1.38-1.38,.62-1.38,1.38-1.38,1.38,.62,1.38,1.38Z"/>
              <circle class="cls-17" cx="58.76" cy="398.54" r=".58"/>
              <circle class="cls-17" cx="62.11" cy="395.99" r=".89"/>
              <path class="cls-17" d="M64.99,400.12c0,.55-.44,.99-.99,.99s-.99-.44-.99-.99,.44-.99,.99-.99,.99,.44,.99,.99Z"/>
              <path class="cls-17" d="M71.42,395.99c0,.49-.4,.89-.89,.89s-.89-.4-.89-.89,.4-.89,.89-.89,.89,.4,.89,.89Z"/>
              <circle class="cls-17" cx="46.59" cy="393.18" r="1.3"/>
              <circle class="cls-17" cx="73.97" cy="406.06" r=".94"/>
              <path class="cls-17" d="M480.72,5.8c0,.38-.31,.69-.69,.69s-.69-.31-.69-.69,.31-.69,.69-.69,.69,.31,.69,.69Z"/>
              <path class="cls-17" d="M657.05,129.2c0,.73-.59,1.32-1.32,1.32s-1.32-.59-1.32-1.32,.59-1.32,1.32-1.32,1.32,.59,1.32,1.32Z"/>
              <circle class="cls-17" cx="658.2" cy="123.59" r="1.15"/>
              <path class="cls-17" d="M661.99,129.2c0,.73-.59,1.32-1.32,1.32s-1.32-.59-1.32-1.32,.59-1.32,1.32-1.32,1.32,.59,1.32,1.32Z"/>
              <path class="cls-17" d="M667.99,120.95c0,.83-.67,1.5-1.5,1.5s-1.5-.67-1.5-1.5,.67-1.5,1.5-1.5,1.5,.67,1.5,1.5Z"/>
              <path class="cls-17" d="M657.05,108.43c0,.37-.3,.66-.66,.66s-.66-.3-.66-.66,.3-.66,.66-.66,.66,.3,.66,.66Z"/>
              <path class="cls-17" d="M682.02,133.22c0,1.49-1.2,2.69-2.69,2.69s-2.69-1.2-2.69-2.69,1.2-2.69,2.69-2.69,2.69,1.2,2.69,2.69Z"/>
              <path class="cls-17" d="M654.41,174.64c0,.68-.55,1.24-1.24,1.24s-1.24-.55-1.24-1.24,.55-1.24,1.24-1.24,1.24,.55,1.24,1.24Z"/>
              <path class="cls-17" d="M622.64,77.06c0,.97-.79,1.76-1.76,1.76s-1.76-.79-1.76-1.76,.79-1.76,1.76-1.76,1.76,.79,1.76,1.76Z"/>
              <circle class="cls-17" cx="625.91" cy="71.5" r="1.15"/>
              <circle class="cls-17" cx="629.17" cy="77.94" r=".88"/>
              <circle class="cls-17" cx="637.11" cy="69.3" r="1.06"/>
              <path class="cls-17" d="M638.17,57.65c0,.58-.47,1.06-1.06,1.06s-1.06-.47-1.06-1.06,.47-1.06,1.06-1.06,1.06,.47,1.06,1.06Z"/>
              <path class="cls-17" d="M643.64,62.85c0,.73-.59,1.32-1.32,1.32s-1.32-.59-1.32-1.32,.59-1.32,1.32-1.32,1.32,.59,1.32,1.32Z"/>
              <circle class="cls-17" cx="250.89" cy="129.57" r="1.7"/>
              <circle class="cls-17" cx="252.8" cy="137.41" r="1.91"/>
              <path class="cls-17" d="M237.58,134.66c0,.47-.38,.85-.85,.85s-.85-.38-.85-.85,.38-.85,.85-.85,.85,.38,.85,.85Z"/>
              <path class="cls-17" d="M242.23,144.61c0,1.28-1.04,2.32-2.32,2.32s-2.32-1.04-2.32-2.32,1.04-2.32,2.32-2.32,2.32,1.04,2.32,2.32Z"/>
              <path class="cls-17" d="M254.71,151.83c0,1.05-.85,1.91-1.91,1.91s-1.91-.85-1.91-1.91,.85-1.91,1.91-1.91,1.91,.85,1.91,1.91Z"/>
              <path class="cls-17" d="M268.26,145.77c0,.64-.52,1.16-1.16,1.16s-1.16-.52-1.16-1.16,.52-1.16,1.16-1.16,1.16,.52,1.16,1.16Z"/>
              <path class="cls-17" d="M207.21,123.42c0,1.29-1.04,2.33-2.33,2.33s-2.33-1.04-2.33-2.33,1.04-2.33,2.33-2.33,2.33,1.04,2.33,2.33Z"/>
              <circle class="cls-17" cx="215.9" cy="114.51" r="1.48"/>
              <path class="cls-17" d="M319.07,408.69c0,.53-.43,.96-.96,.96s-.96-.43-.96-.96,.43-.96,.96-.96,.96,.43,.96,.96Z"/>
              <path class="cls-17" d="M324.27,402.38c0,.98-.8,1.78-1.78,1.78s-1.78-.8-1.78-1.78,.8-1.78,1.78-1.78,1.78,.8,1.78,1.78Z"/>
              <path class="cls-17" d="M330.8,412.18c0,.49-.4,.89-.89,.89s-.89-.4-.89-.89,.4-.89,.89-.89,.89,.4,.89,.89Z"/>
              <path class="cls-17" d="M337.33,405.94c0,.98-.8,1.78-1.78,1.78s-1.78-.8-1.78-1.78,.8-1.78,1.78-1.78,1.78,.8,1.78,1.78Z"/>
              <path class="cls-17" d="M353.65,397.04c0,.98-.8,1.78-1.78,1.78s-1.78-.8-1.78-1.78,.8-1.78,1.78-1.78,1.78,.8,1.78,1.78Z"/>
              <circle class="cls-17" cx="356.76" cy="416.18" r="3.12"/>
              <path class="cls-17" d="M371.82,409.17c0,.27-.22,.48-.48,.48s-.48-.22-.48-.48,.22-.48,.48-.48,.48,.22,.48,.48Z"/>
              <path class="cls-17" d="M318.11,380.76c0,1-.81,1.82-1.82,1.82s-1.82-.81-1.82-1.82,.81-1.82,1.82-1.82,1.82,.81,1.82,1.82Z"/>
              <circle class="cls-17" cx="330.94" cy="389.18" r="1.93"/>
            </g>
          </g>
        </g>
      </g>
    </g>
  </g>
</svg>